<svg id="Layer_1" data-name="Layer 1" xmlns="http://www.w3.org/2000/svg" viewBox="0 0 386.77 68.45"><defs><style>.cls-1{fill:#0af}.cls-2{fill:#5e5e5e}.cls-3{fill:#fff}.cls-4{fill:#a4a4a4}</style></defs><title>custom-ssl</title><path class="cls-1" d="M298.42 13.81a6.1 6.1 0 0 1 1.75 4.52v37.28a6 6 0 0 1-6.12 6.12h-12.52V68h-24.76v-6.27h-12.53a6 6 0 0 1-6.11-6.12V18.33a6.14 6.14 0 0 1 1.74-4.52 6 6 0 0 1 4.37-1.75h49.81a5.94 5.94 0 0 1 4.37 1.75zm-4.37 4.52h-49.81v37.28h49.81z" transform="translate(-.24 -.65)"/><path class="cls-2" d="M29.66 44.43q6.18 2.31 6.79 6.78v6.42H.24v-6.42q.6-4.47 6.84-6.78a33.14 33.14 0 0 1 11.32-2.3 32.61 32.61 0 0 1 11.26 2.3zm-16.83-9.68a7.49 7.49 0 0 1-2.18-5.51 7.46 7.46 0 0 1 7.69-7.69A7.46 7.46 0 0 1 26 29.24a7.49 7.49 0 0 1-2.18 5.51 7.83 7.83 0 0 1-5.45 2.3 8 8 0 0 1-5.54-2.3zm20.71 0a7.49 7.49 0 0 1-2.18-5.51 7.46 7.46 0 0 1 7.69-7.69 7.46 7.46 0 0 1 7.69 7.69 7.49 7.49 0 0 1-2.18 5.51 8 8 0 0 1-5.56 2.3 7.83 7.83 0 0 1-5.46-2.3zm16.77 9.68q6.24 2.31 6.84 6.78v6.42h-15.5v-6.42a10.38 10.38 0 0 0-1.45-5.08 13.84 13.84 0 0 0-3.63-3.88c.88-.08 1.69-.12 2.42-.12a33.14 33.14 0 0 1 11.32 2.3z" transform="translate(-.24 -.65)"/><path class="cls-1" d="M179.64 13.17v18.65a39.88 39.88 0 0 1-8 23.59 36.14 36.14 0 0 1-19.96 13.69 36.14 36.14 0 0 1-20-13.69 39.88 39.88 0 0 1-8-23.59V13.17l28-12.52z" transform="translate(-.24 -.65)"/><path class="cls-3" d="M159.74 20.41a3 3 0 0 1 2.26.94 3.22 3.22 0 0 1 .9 2.3v25.69l-11.22-4.82-11.23 4.82V23.65a3.2 3.2 0 0 1 .9-2.34 3.09 3.09 0 0 1 2.26-.9zm-9.65 17.7l10-10-2.26-2.33-7.76 7.83-4.22-4.21-2.26 2.26z" transform="translate(-.24 -.65)"/><path class="cls-2" d="M383.85 21.94a3 3 0 0 1 2.26.94 3.22 3.22 0 0 1 .9 2.3v25.69l-11.22-4.82-11.23 4.82V25.18a3.13 3.13 0 0 1 .91-2.33 3 3 0 0 1 2.26-.91zm-9.64 17.7l10-10-2.21-2.35-7.76 7.83-4.24-4.21-2.26 2.26z" transform="translate(-.24 -.65)"/><path class="cls-3" d="M277.21 21.94a3 3 0 0 1 2.26.94 3.22 3.22 0 0 1 .9 2.3v25.69l-11.22-4.82-11.23 4.82V25.18a3.13 3.13 0 0 1 .91-2.33 3 3 0 0 1 2.26-.91zm-9.64 17.7l10-10-2.26-2.33-7.76 7.83-4.22-4.21-2.26 2.26z" transform="translate(-.24 -.65)"/><path class="cls-2" d="M277.21 21.94a3 3 0 0 1 2.26.94 3.22 3.22 0 0 1 .9 2.3v25.69l-11.22-4.82-11.23 4.82V25.18a3.13 3.13 0 0 1 .91-2.33 3 3 0 0 1 2.26-.91zm-9.64 17.7l10-10-2.26-2.33-7.76 7.83-4.22-4.21-2.26 2.26z" transform="translate(-.24 -.65)"/><path class="cls-1" d="M116.47 40.06l-11.93-3.2v2.7h-9.37v-1.14a1.58 1.58 0 0 0-.47-1.08 1.48 1.48 0 0 0-1.09-.44h-.76v-1.56a3.82 3.82 0 0 0-1.14-2.74 3.86 3.86 0 0 0-5.48 0 3.82 3.82 0 0 0-1.14 2.74v1.56h-.76a1.48 1.48 0 0 0-1.09.44 1.58 1.58 0 0 0-.47 1.08v1.14h-9.38v-2.7l-11.92 3.2 11.92 3.19v-2.69h9.38v5.63a1.58 1.58 0 0 0 .47 1.08 1.48 1.48 0 0 0 1.09.44h9.28a1.48 1.48 0 0 0 1.09-.44 1.58 1.58 0 0 0 .47-1.08v-5.63h9.37v2.69zm-29.82-4.72a2.32 2.32 0 0 1 4.64 0v1.56h-4.64zm3.41 8a1.6 1.6 0 0 1-1.09.47 1.59 1.59 0 0 1-1.09-.47 1.58 1.58 0 0 1 0-2.17 1.48 1.48 0 0 1 1.12-.39 1.49 1.49 0 0 1 1.09.44 1.58 1.58 0 0 1 0 2.17zM230 39.56h-12.7v-1.13a1.59 1.59 0 0 0-.47-1.09 1.48 1.48 0 0 0-1.09-.44H215v-1.56a3.87 3.87 0 0 0-6.62-2.74 3.82 3.82 0 0 0-1.14 2.74v1.56h-.76a1.48 1.48 0 0 0-1.09.44 1.59 1.59 0 0 0-.47 1.09v1.13h-10v-2.7L183 40.06l11.92 3.19v-2.69h10v5.63a1.58 1.58 0 0 0 .47 1.08 1.44 1.44 0 0 0 1.09.44h9.28a1.44 1.44 0 0 0 1.09-.44 1.58 1.58 0 0 0 .47-1.08v-5.63H230a.51.51 0 0 0 .5-.5.5.5 0 0 0-.5-.5zm-21.19-4.22a2.32 2.32 0 0 1 4.64 0v1.56h-4.64zm3.41 8a1.66 1.66 0 0 1-1.09.48 1.64 1.64 0 0 1-1.09-.48 1.53 1.53 0 0 1 1.09-2.61 1.49 1.49 0 0 1 1.09.44 1.58 1.58 0 0 1 0 2.17z" transform="translate(-.24 -.65)"/><path class="cls-4" d="M355.44 39.56h-11.67v-1.14a1.63 1.63 0 0 0-.47-1.08 1.49 1.49 0 0 0-1.09-.44h-.76v-1.56a3.89 3.89 0 0 0-7.77 0v1.56h-.76a1.47 1.47 0 0 0-1.08.44 1.64 1.64 0 0 0-.48 1.08v1.14h-10.75v-2.7l-11.92 3.2 11.92 3.19v-2.69h10.75v5.63a1.64 1.64 0 0 0 .48 1.08 1.47 1.47 0 0 0 1.08.44h9.29a1.49 1.49 0 0 0 1.09-.44 1.63 1.63 0 0 0 .47-1.08v-5.63h11.67a.5.5 0 0 0 .5-.5.5.5 0 0 0-.5-.5zm-20.2-4.22a2.38 2.38 0 0 1 .69-1.63 2.28 2.28 0 0 1 3.27 0 2.38 2.38 0 0 1 .69 1.63v1.56h-4.65zm3.41 8a1.49 1.49 0 0 1-2.17 0 1.53 1.53 0 1 1 2.17 0z" transform="translate(-.24 -.65)"/></svg>