<svg id="Layer_1" xmlns="http://www.w3.org/2000/svg" viewBox="0 0 428.8 89.2"><style>.st0{fill:#5e5e5e}.st1{fill:#a4a4a4}.st2{fill:#0af}.st3{fill:#fff}</style><path class="st0" d="M382 2.3h15.4c.3 0 .5.1.7.3.2.2.3.4.3.7v3.8c0 .3-.1.5-.3.7-.2.2-.4.3-.7.3H382c-.3 0-.5-.1-.7-.3s-.3-.5-.3-.7V3.2c0-.3.1-.5.3-.7s.4-.2.7-.2zm0 7.6h15.4c.3 0 .5.1.7.3.2.2.3.4.3.7v3.9c0 .3-.1.5-.3.7-.2.2-.4.3-.7.3H382c-.3 0-.5-.1-.7-.3s-.3-.5-.3-.8v-3.9c0-.3.1-.5.3-.7.2-.1.4-.2.7-.2zm0 7.7h15.4c.3 0 .5.1.7.3.2.2.3.4.3.7v3.8c0 .3-.1.5-.3.7-.2.2-.4.3-.7.3H382c-.3 0-.5-.1-.7-.3s-.3-.4-.3-.7v-3.8c0-.3.1-.5.3-.7s.4-.3.7-.3zm1-13.4v1.9h1.9V4.2H383zm0 7.7v1.9h1.9v-1.9H383zm0 7.6v1.9h1.9v-1.9H383zm3.8-13.4h.9V4.2h-.9v1.9zm0 7.6h.9v-1.9h-.9v1.9zm0 7.7h.9v-1.9h-.9v1.9zM382 68h15.4c.3 0 .5.1.7.3.2.2.3.4.3.7v3.8c0 .3-.1.5-.3.7-.2.2-.4.3-.7.3H382c-.3 0-.5-.1-.7-.3s-.3-.5-.3-.7V69c0-.3.1-.5.3-.7.2-.2.4-.3.7-.3zm0 7.6h15.4c.3 0 .5.1.7.3.2.2.3.4.3.7v3.9c0 .3-.1.5-.3.7-.2.2-.4.3-.7.3H382c-.3 0-.5-.1-.7-.3s-.3-.4-.3-.7v-3.9c0-.3.1-.5.3-.7s.4-.3.7-.3zm0 7.7h15.4c.3 0 .5.1.7.3.2.2.3.4.3.7v3.8c0 .3-.1.5-.3.7-.2.2-.4.3-.7.3H382c-.3 0-.5-.1-.7-.3-.2-.2-.3-.4-.3-.7v-3.8c0-.3.1-.5.3-.7s.4-.3.7-.3zm1-13.4v1.9h1.9v-1.9H383zm0 7.7v1.9h1.9v-1.9H383zm0 7.6v1.9h1.9v-1.9H383zm3.8-13.4h.9v-1.9h-.9v1.9zm0 7.6h.9v-1.9h-.9v1.9zm0 7.7h.9v-1.9h-.9v1.9zm25.8-53.3H428c.3 0 .5.1.7.3.2.2.3.4.3.7v3.8c0 .3-.1.5-.3.7-.2.2-.4.3-.7.3h-15.4c-.3 0-.5-.1-.7-.3s-.3-.4-.3-.7v-3.8c0-.3.1-.5.3-.7.2-.2.4-.3.7-.3zm0 7.6H428c.3 0 .5.1.7.3.2.2.3.4.3.7v3.9c0 .3-.1.5-.3.7-.2.2-.4.3-.7.3h-15.4c-.3 0-.5-.1-.7-.3s-.3-.4-.3-.7v-3.9c0-.3.1-.5.3-.7s.4-.3.7-.3zm0 7.7H428c.3 0 .5.1.7.3.2.2.3.4.3.7v3.8c0 .3-.1.5-.3.7-.2.2-.4.3-.7.3h-15.4c-.3 0-.5-.1-.7-.3-.2-.2-.3-.4-.3-.7v-3.8c0-.3.1-.5.3-.7s.4-.3.7-.3zm1-13.4v1.9h1.9v-1.9h-1.9zm0 7.7v1.9h1.9v-1.9h-1.9zm0 7.6v1.9h1.9V51h-1.9zm3.8-13.4h.9v-1.9h-.9v1.9zm0 7.6h.9v-1.9h-.9v1.9zm0 7.7h.9V51h-.9v1.9zM39.9 10.7c.4 0 .8 0 1.2.1-.8.6-1.4 1.2-1.9 2s-.7 1.6-.8 2.6v3.3h-8v-3.3c.2-1.5 1.4-2.7 3.5-3.5 2.3-.8 4.3-1.2 6-1.2zm0-2.6c-1.2 0-2.1-.4-2.9-1.2s-1.1-1.7-1.1-2.8c0-1.1.4-2.1 1.1-2.8S38.7.2 39.8.2c1.1 0 2.1.4 2.8 1.1s1.1 1.7 1.1 2.8c0 1.1-.4 2.1-1.1 2.8s-1.5 1.2-2.7 1.2zm10.7 2.6c1.8 0 3.7.4 5.8 1.2 2.1.8 3.3 2 3.5 3.5v3.3H41.3v-3.3c.2-1.5 1.4-2.7 3.5-3.5 2.1-.8 4-1.2 5.8-1.2zm0-2.6c-1.1 0-2.1-.4-2.8-1.2s-1.1-1.7-1.1-2.8c0-1.1.4-2.1 1.1-2.8S49.5.2 50.6.2c1.1 0 2.1.4 2.8 1.1s1.1 1.7 1.1 2.8c0 1.1-.4 2.1-1.1 2.8s-1.7 1.2-2.8 1.2zM39.9 76.4c.4 0 .8 0 1.2.1-.8.6-1.4 1.2-1.9 2s-.7 1.6-.8 2.6v3.3h-8v-3.3c.2-1.5 1.4-2.7 3.5-3.5 2.3-.8 4.3-1.2 6-1.2zm0-2.6c-1.2 0-2.1-.4-2.9-1.2s-1.1-1.7-1.1-2.8c0-1.1.4-2.1 1.1-2.8s1.7-1.1 2.8-1.1c1.1 0 2.1.4 2.8 1.1s1.1 1.7 1.1 2.8c0 1.1-.4 2.1-1.1 2.8s-1.5 1.2-2.7 1.2zm10.7 2.6c1.8 0 3.7.4 5.8 1.2 2.1.8 3.3 2 3.5 3.5v3.3H41.3v-3.3c.2-1.5 1.4-2.7 3.5-3.5 2.1-.8 4-1.2 5.8-1.2zm0-2.6c-1.1 0-2.1-.4-2.8-1.2s-1.1-1.7-1.1-2.8c0-1.1.4-2.1 1.1-2.8s1.7-1.1 2.8-1.1c1.1 0 2.1.4 2.8 1.1s1.1 1.7 1.1 2.8c0 1.1-.4 2.1-1.1 2.8s-1.7 1.2-2.8 1.2zM9.3 42.2c.4 0 .8 0 1.2.1-.8.6-1.4 1.2-1.9 2-.3.8-.6 1.6-.6 2.6v3.3H0v-3.3c.2-1.5 1.4-2.7 3.5-3.5 2.1-.8 4.1-1.2 5.8-1.2zm0-2.6c-1.2 0-2.1-.4-2.9-1.2s-1.1-1.7-1.1-2.8c0-1.1.4-2.1 1.1-2.8.8-.7 1.7-1.1 2.8-1.1 1.1 0 2.1.4 2.8 1.1.8.8 1.1 1.7 1.1 2.8 0 1.1-.4 2.1-1.1 2.8s-1.5 1.2-2.7 1.2zM20 42.2c1.8 0 3.7.4 5.8 1.2 2.1.8 3.3 2 3.5 3.5v3.3H10.7v-3.3c.2-1.5 1.4-2.7 3.5-3.5 2.1-.8 4-1.2 5.8-1.2zm0-2.6c-1.1 0-2.1-.4-2.8-1.2S16 36.7 16 35.6c0-1.1.4-2.1 1.1-2.8.8-.7 1.7-1.1 2.8-1.1 1.1 0 2.1.4 2.8 1.1.8.8 1.1 1.7 1.1 2.8 0 1.1-.4 2.1-1.1 2.8s-1.6 1.2-2.7 1.2z"/><path class="st1" d="M227.3 33.6c-.2 0-.5-.2-.5-.4 0-.3.2-.5.4-.6l4-.5c.3 0 .5.2.6.4 0 .3-.2.5-.4.6l-4.1.5zm11.1-1.5c-.2 0-.5-.2-.5-.4 0-.3.2-.5.4-.6l4-.5c.3 0 .5.2.6.4 0 .3-.2.5-.4.6l-4.1.5zm11.1-1.4c-.2 0-.5-.2-.5-.4 0-.3.2-.5.4-.6l4-.5c.3 0 .5.2.6.4 0 .3-.2.5-.4.6l-4.1.5c.1 0 .1 0 0 0zm11.2-1.5c-.2 0-.5-.2-.5-.4 0-.3.2-.5.4-.6l4-.5c.3 0 .5.2.6.4 0 .3-.2.5-.4.6l-4.1.5zm11.1-1.4c-.2 0-.5-.2-.5-.4 0-.3.2-.5.4-.6l4-.5c.3 0 .5.2.6.4 0 .3-.2.5-.4.6l-4.1.5zm11.1-1.5c-.2 0-.5-.2-.5-.4 0-.3.2-.5.4-.6l4-.5c.3 0 .5.2.6.4 0 .3-.2.5-.4.6l-4.1.5c.1 0 0 0 0 0zm11.1-1.5c-.2 0-.5-.2-.5-.4 0-.3.2-.5.4-.6l4-.5c.3 0 .5.2.6.4 0 .3-.2.5-.4.6l-4.1.5c.1 0 .1 0 0 0zm11.2-1.4c-.2 0-.5-.2-.5-.4 0-.3.2-.5.4-.6l4-.5c.3 0 .5.2.6.4 0 .3-.2.5-.4.6l-4.1.5zm11.1-1.5c-.2 0-.5-.2-.5-.4 0-.3.2-.5.4-.6l4-.5c.3 0 .5.2.6.4 0 .3-.2.5-.4.6l-4.1.5zm11.1-1.4c-.2 0-.5-.2-.5-.4 0-.3.2-.5.4-.6l4-.5c.3 0 .5.2.6.4 0 .3-.2.5-.4.6l-4.1.5c.1 0 0 0 0 0zm11.1-1.5c-.2 0-.5-.2-.5-.4 0-.3.2-.5.4-.6l4-.5c.3 0 .5.2.6.4 0 .3-.2.5-.4.6l-4.1.5c.1 0 .1 0 0 0zm11.2-1.4c-.2 0-.5-.2-.5-.4 0-.3.2-.5.4-.6l4-.5c.3 0 .5.2.6.4 0 .3-.2.5-.4.6l-4.1.5zm11.1-1.5c-.2 0-.5-.2-.5-.4 0-.3.2-.5.4-.6l4-.5c.3 0 .5.2.6.4 0 .3-.2.5-.4.6l-4.1.5zm11.1-1.5c-.2 0-.5-.2-.5-.4 0-.3.2-.5.4-.6l2-.3c.3 0 .5.2.6.4 0 .3-.2.5-.4.6l-2.1.3c.1 0 0 0 0 0zM220.8 37.2l-12.2-1.7 11.4-4.7zm144 37.2l-4.1-.5c-.3 0-.5-.3-.4-.6 0-.3.3-.5.6-.4l4 .5c.3 0 .5.3.4.6 0 .2-.2.4-.5.4zm-11.1-1.5l-4.1-.5c-.3 0-.5-.3-.4-.6 0-.3.3-.5.6-.4l4 .5c.3 0 .5.3.4.6 0 .3-.2.4-.5.4zm-11.1-1.4s-.1 0 0 0l-4.1-.5c-.3 0-.5-.3-.4-.6 0-.3.3-.5.6-.4l4 .5c.3 0 .5.3.4.6-.1.2-.3.4-.5.4zM331.5 70c-.1 0-.1 0 0 0l-4.1-.5c-.3 0-.5-.3-.4-.6 0-.3.3-.5.6-.4l4 .5c.3 0 .5.3.4.6-.1.2-.3.4-.5.4zm-11.2-1.4l-4.1-.5c-.3 0-.5-.3-.4-.6 0-.3.3-.5.6-.4l4 .5c.3 0 .5.3.4.6 0 .2-.2.4-.5.4zm-11.1-1.5l-4.1-.5c-.3 0-.5-.3-.4-.6 0-.3.3-.5.6-.4l4 .5c.3 0 .5.3.4.6 0 .2-.2.4-.5.4zm-11.1-1.5s-.1 0 0 0l-4.1-.5c-.3 0-.5-.3-.4-.6 0-.3.3-.5.6-.4l4 .5c.3 0 .5.3.4.6-.1.3-.3.4-.5.4zM287 64.2c-.1 0-.1 0 0 0l-4.1-.5c-.3 0-.5-.3-.4-.6 0-.3.3-.5.6-.4l4 .5c.3 0 .5.3.4.6-.1.2-.3.4-.5.4zm-11.2-1.5l-4.1-.5c-.3 0-.5-.3-.4-.6 0-.3.3-.5.6-.4l4 .5c.3 0 .5.3.4.6 0 .2-.2.4-.5.4zm-11.1-1.4l-4.1-.5c-.3 0-.5-.3-.4-.6 0-.3.3-.5.6-.4l4 .5c.3 0 .5.3.4.6 0 .2-.2.4-.5.4zm-11.1-1.5s-.1 0 0 0l-4.1-.5c-.3 0-.5-.3-.4-.6 0-.3.3-.5.6-.4l4 .5c.3 0 .5.3.4.6-.1.2-.3.4-.5.4zm-11.1-1.4c-.1 0-.1 0 0 0l-4.1-.5c-.3 0-.5-.3-.4-.6 0-.3.3-.5.6-.4l4 .5c.3 0 .5.3.4.6-.1.2-.3.4-.5.4zm-11.2-1.5l-4.1-.5c-.3 0-.5-.3-.4-.6 0-.3.3-.5.6-.4l4 .5c.3 0 .5.3.4.6 0 .2-.2.4-.5.4zm142.6 18.7l-2-.3c-.3 0-.5-.3-.4-.6 0-.3.3-.5.6-.4l2 .3c.3 0 .5.3.4.6-.1.2-.4.4-.6.4zM220 58.1l-11.4-4.7 12.2-1.6zm7.3-13.1c-.3 0-.5-.2-.5-.5s.2-.5.5-.5h4c.3 0 .5.2.5.5s-.2.5-.5.5h-4zm11 0c-.3 0-.5-.2-.5-.5s.2-.5.5-.5h4c.3 0 .5.2.5.5s-.2.5-.5.5h-4zm11 0c-.3 0-.5-.2-.5-.5s.2-.5.5-.5h4c.3 0 .5.2.5.5s-.2.5-.5.5h-4zm11 0c-.3 0-.5-.2-.5-.5s.2-.5.5-.5h4c.3 0 .5.2.5.5s-.2.5-.5.5h-4zm11 0c-.3 0-.5-.2-.5-.5s.2-.5.5-.5h4c.3 0 .5.2.5.5s-.2.5-.5.5h-4zm11 0c-.3 0-.5-.2-.5-.5s.2-.5.5-.5h4c.3 0 .5.2.5.5s-.2.5-.5.5h-4zm11 0c-.3 0-.5-.2-.5-.5s.2-.5.5-.5h4c.3 0 .5.2.5.5s-.2.5-.5.5h-4zm11 0c-.3 0-.5-.2-.5-.5s.2-.5.5-.5h4c.3 0 .5.2.5.5s-.2.5-.5.5h-4zm11 0c-.3 0-.5-.2-.5-.5s.2-.5.5-.5h4c.3 0 .5.2.5.5s-.2.5-.5.5h-4zm11.1 0c-.3 0-.5-.2-.5-.5s.2-.5.5-.5h4c.3 0 .5.2.5.5s-.2.5-.5.5h-4zm11 0c-.3 0-.5-.2-.5-.5s.2-.5.5-.5h4c.3 0 .5.2.5.5s-.2.5-.5.5h-4zm11 0c-.3 0-.5-.2-.5-.5s.2-.5.5-.5h4c.3 0 .5.2.5.5s-.2.5-.5.5h-4zm11 0c-.3 0-.5-.2-.5-.5s.2-.5.5-.5h4c.3 0 .5.2.5.5s-.2.5-.5.5h-4zm11-.1c-.3 0-.5-.2-.5-.5s.2-.5.5-.5h4c.3 0 .5.2.5.5s-.2.5-.5.5h-4zm11 0c-.3 0-.5-.2-.5-.5s.2-.5.5-.5h4c.3 0 .5.2.5.5s-.2.5-.5.5h-4zm11 0c-.3 0-.5-.2-.5-.5s.2-.5.5-.5h4c.3 0 .5.2.5.5s-.2.5-.5.5h-4zm11 0c-.3 0-.5-.2-.5-.5s.2-.5.5-.5h2c.3 0 .5.2.5.5s-.2.5-.5.5h-2zm-182.9 2.8l-11.9-3.2 11.9-3.2z"/><path class="st2" d="M199.8 21.3v18.6c-.2 8.8-2.9 16.7-8 23.6-5.1 6.9-11.8 11.5-20 13.7-8.2-2.2-14.8-6.8-20-13.7-5.1-6.9-7.8-14.8-8-23.6V21.3l28-12.5 28 12.5zm-64.7 23.2l-11.9-3.2V44H85.4v-.9c0-.4-.2-.8-.5-1.1-.3-.3-.7-.4-1.1-.4H83V40c0-1.1-.4-2-1.1-2.7-.7-.7-1.6-1.1-2.7-1.1s-2 .4-2.7 1.1c-.7.7-1.1 1.7-1.1 2.7v1.6h-.8c-.4 0-.8.1-1.1.4-.3.3-.4.7-.5 1.1v.9H45.9v-2.7L34 44.4l11.9 3.2v-2.7L73 45v5.9c0 .4.2.8.5 1.1s.7.4 1.1.4h9.3c.4 0 .8-.1 1.1-.4s.4-.7.5-1.1V45h37.8v2.7l11.8-3.2zM76.9 40c0-.7.3-1.2.7-1.6.4-.4 1-.7 1.6-.7.7 0 1.2.3 1.6.7.4.4.7 1 .7 1.6v1.6h-4.6V40zm3.4 8.1c-.3.3-.7.4-1.1.5-.4 0-.8-.2-1.1-.5-.3-.3-.4-.7-.4-1.1 0-.4.1-.8.4-1.1.3-.3.7-.4 1.1-.4s.8.1 1.1.4c.3.3.4.7.4 1.1 0 .4-.1.8-.4 1.1zm44.3 11.8l10.5-6.5-12.3.4.8 2.6-20.3 6.1c-.1-.2-.2-.4-.4-.6-.3-.3-.7-.4-1.1-.4h-.8v-1.6c0-1.1-.4-2-1.1-2.7-.7-.7-1.6-1.1-2.7-1.1s-2 .4-2.7 1.1c-.7.7-1.1 1.7-1.1 2.7v1.6h-.8c-.4 0-.8.1-1.1.4-.3.3-.4.7-.5 1.1v3.2l-16.8 5-.8-2.6L63 75.1l12.3-.4-.8-2.6L91 67.2v3.5c0 .4.2.8.5 1.1.3.3.7.4 1.1.4h9.3c.4 0 .8-.1 1.1-.4.3-.3.4-.7.5-1.1v-7.2l20.4-6.1.7 2.5zm-29.7-.1c0-.7.3-1.2.7-1.6.4-.4 1-.7 1.6-.7.7 0 1.2.3 1.6.7.4.4.7 1 .7 1.6v1.6h-4.6v-1.6zm3.4 5.9c.3.3.4.7.4 1.1s-.1.8-.4 1.1c-.3.3-.7.4-1.1.5-.4 0-.8-.2-1.1-.5-.3-.3-.4-.7-.4-1.1s.1-.8.4-1.1c0 0 .1-.1.2-.1l1-.3c.4 0 .7.1 1 .4zm36.8-30.2L124.6 29l-.8 2.6-20.4-6.1v-2.2c0-.4-.2-.8-.5-1.1-.3-.3-.7-.4-1.1-.4h-.8v-1.6c0-1.1-.4-2-1.1-2.7-.7-.7-1.6-1.1-2.7-1.1s-2 .4-2.7 1.1c-.7.7-1.1 1.7-1.1 2.7v1.6h-.8c-.3 0-.5.1-.8.2l-17.3-5.2.8-2.6-12.3-.3 10.5 6.5.8-2.6 16.9 5.1c0 .1-.1.3-.1.5v7.8c0 .4.2.8.5 1.1.3.3.7.4 1.1.4h9.3c.4 0 .8-.1 1.1-.4.3-.3.4-.7.5-1.1v-4.5l20.2 6.1-.8 2.6 12.1.1zm-36.8-7.2c-.3.3-.7.4-1.1.5-.4 0-.8-.2-1.1-.5-.3-.3-.4-.7-.4-1.1 0-.4.1-.8.4-1.1.3-.3.7-.4 1.1-.4s.8.1 1.1.4c.3.3.4.7.4 1.1 0 .4-.1.8-.4 1.1zm1.2-6.5h-4.6v-1.6c0-.7.3-1.2.7-1.6.4-.4 1-.7 1.6-.7.7 0 1.2.3 1.6.7.4.4.7 1 .7 1.6v1.6z"/><path class="st3" d="M179.9 27.5c.9 0 1.7.3 2.3.9.6.6.9 1.4.9 2.3v25.7l-11.2-4.8-11.2 4.8V30.8c0-1 .3-1.7.9-2.3s1.4-.9 2.3-.9h16zm-9.6 17.7l10-10-2.3-2.3-7.8 7.8-4.2-4.2-2.3 2.3 6.6 6.4z"/></svg>