<svg id="Layer_1" xmlns="http://www.w3.org/2000/svg" viewBox="0 0 355.3 355.3"><style>.st0{fill:#fff}.st1{fill:#5e5e5e}.st2{fill:#f6f6f6}.st3{fill:#0af}</style><title>Asset 8</title><g id="Layer_2_1_"><g id="Layer_1-2"><circle class="st0" cx="177.6" cy="177.6" r="177.6"/><path class="st1" d="M175.6 81.6c-.3 0-.5-.2-.5-.5s.2-.5.5-.5c.7-.1 1.4-.1 2-.1.3 0 .5.2.5.5s-.2.5-.5.5c-.6 0-1.3 0-2 .1.1 0 .1 0 0 0zm-46.3 12.8c-.2 0-.3-.1-.4-.2-.1-.2-.1-.5.2-.7l1.7-1c.2-.1.5-.1.7.2.1.2.1.5-.2.7l-1.7 1h-.3zm100.4-6.3c-.1 0-.2 0-.3-.1-.4-.2-.7-.4-1.1-.6l-.7-.4c-.2-.1-.3-.4-.2-.7.1-.2.4-.3.7-.2l.6.4c.4.2.7.4 1.1.6.2.1.3.4.2.7 0 .2-.2.3-.3.3zM176 74.2c-.3 0-.5-.2-.5-.5s.2-.5.5-.5h3.4c.3 0 .5.2.5.5s-.2.5-.5.5H176zm-50.4 13.9c-.2 0-.3-.1-.4-.3-.1-.2-.1-.5.2-.7l1.7-1c.2-.1.5-.1.7.2s.1.5-.2.7l-1.7 1c-.1.1-.2.1-.3.1zm148.5 34.4c-.2 0-.3-.1-.4-.2l-1-1.7c-.1-.2-.1-.5.2-.7.2-.1.5-.1.7.2l1 1.7c.1.2.1.5-.2.7h-.3zm-39.3-39.9c-.1 0-.2 0-.3-.1-1-.6-2.1-1.2-3.1-1.8-.2-.1-.3-.4-.2-.7.1-.2.4-.3.7-.2 1.1.6 2.1 1.2 3.2 1.8.2.1.3.4.2.7-.1.2-.3.3-.5.3zm-55.3-15.7h-3.6c-.3 0-.5-.2-.5-.5s.2-.5.5-.5h3.7c.3 0 .5.2.5.5-.1.2-.3.5-.6.5zM122 81.7c-.2 0-.3-.1-.4-.3-.1-.2-.1-.5.2-.7l1.7-1c.2-.1.5-.1.7.2.1.2.1.5-.2.7l-1.7 1c-.2.1-.2.1-.3.1zm174.3 96.4c-.3 0-.5-.2-.5-.5v-2c0-.3.2-.5.5-.5s.5.2.5.5v2c0 .3-.2.5-.5.5zm-14.9-57.6c-.2 0-.3-.1-.4-.3-.6-1.1-1.3-2.2-1.9-3.3-.1-.2-.1-.5.2-.7.2-.1.5-.1.7.2.7 1.1 1.3 2.2 2 3.4.1.2 0 .5-.2.7h-.4zm-42.7-44.1c-.1 0-.2 0-.3-.1-1.1-.7-2.2-1.3-3.3-1.9-.2-.1-.3-.4-.2-.7.1-.2.4-.3.7-.2 1.1.6 2.3 1.3 3.4 1.9.2.1.3.4.2.7-.2.2-.4.3-.5.3zm-59.1-16.9h-3.9c-.3 0-.5-.2-.5-.5s.2-.5.5-.5h3.9c.3 0 .5.2.5.5s-.2.5-.5.5zm-61.3 15.9c-.2 0-.3-.1-.4-.3-.1-.2-.1-.5.2-.7l1.7-1c.2-.1.5-.1.7.2.1.2.1.5-.2.7l-1.7 1c-.2 0-.3.1-.3.1zm168.5 165.8c-.1 0-.2 0-.2-.1-.2-.1-.3-.4-.2-.7l1-1.7c.1-.2.4-.3.7-.2.2.1.3.4.2.7l-1 1.7c-.2.2-.3.3-.5.3zm16.9-61c-.3 0-.5-.2-.5-.5v-4.1c0-.3.2-.5.5-.5s.5.2.5.5v4.1c0 .3-.3.5-.5.5zM287.8 117c-.2 0-.3-.1-.4-.3l-2.1-3.6c-.1-.2-.1-.5.2-.7.2-.1.5-.1.7.2l2.1 3.6c.1.2 0 .5-.2.7-.1 0-.2.1-.3.1zm-45.4-46.9c-.1 0-.2 0-.3-.1l-3.6-2.1c-.2-.1-.3-.4-.2-.7.1-.2.4-.3.7-.2l3.6 2.1c.2.1.3.4.2.7-.1.2-.2.3-.4.3zm-62.7-17.9h-4.1c-.3 0-.5-.2-.5-.5s.2-.5.5-.5h4.1c.3 0 .5.2.5.5 0 .2-.3.5-.5.5zM114.6 69c-.2 0-.3-.1-.4-.2-.1-.2-.1-.5.2-.7.6-.3 1.2-.7 1.8-1 .2-.1.5 0 .7.2.1.2 0 .5-.2.7-.6.3-1.2.6-1.7 1h-.4zm178.6 175.8c-.1 0-.2 0-.2-.1-.2-.1-.3-.4-.2-.7l1-1.7c.1-.2.4-.3.7-.2.2.1.3.4.2.7l-1 1.7c-.2.3-.4.3-.5.3zm17.8-64.3c-.3 0-.5-.2-.5-.5v-4.4c0-.3.2-.5.5-.5s.5.2.5.5v4.4c0 .3-.2.5-.5.5zm-16.8-67c-.2 0-.3-.1-.4-.3-.7-1.3-1.4-2.5-2.2-3.8-.1-.2-.1-.5.2-.7.2-.1.5-.1.7.2.8 1.3 1.5 2.5 2.2 3.8.1.2 0 .5-.2.7-.1 0-.2.1-.3.1zm-48-49.7c-.1 0-.2 0-.3-.1-1.2-.7-2.5-1.5-3.8-2.2-.2-.1-.3-.4-.2-.7.1-.2.4-.3.7-.2 1.3.7 2.5 1.4 3.8 2.2.2.1.3.4.2.7-.1.2-.3.3-.4.3zm-66.4-19h-4.4c-.3 0-.5-.2-.5-.5s.2-.5.5-.5h4.4c.3 0 .5.2.5.5s-.3.5-.5.5zM111 62.6c-.2 0-.3-.1-.4-.3-.1-.2-.1-.5.2-.7l1.7-1c.2-.1.5-.1.7.2.1.2.1.5-.2.7l-1.7 1c-.2.1-.3.1-.3.1zm68.7 256.3h-2c-.3 0-.5-.2-.5-.5s.2-.5.5-.5h2c.3 0 .5.2.5.5s-.3.5-.5.5zm66.6-17.9c-.2 0-.3-.1-.4-.3-.1-.2 0-.5.2-.7 1.2-.6 2.3-1.3 3.4-2 .2-.1.5-.1.7.2.1.2.1.5-.2.7-1.1.7-2.3 1.3-3.5 2 0 .1-.1.1-.2.1zm52.2-50.8c-.1 0-.2 0-.3-.1-.2-.1-.3-.4-.2-.7.7-1.1 1.3-2.3 2-3.4.1-.2.4-.3.7-.2.2.1.3.4.2.7-.6 1.2-1.3 2.3-2 3.5-.1.1-.3.2-.4.2zm19.8-70.1c-.3 0-.5-.2-.5-.5v-3.9c0-.3.2-.5.5-.5s.5.2.5.5v4c0 .2-.3.4-.5.4zm-17.9-70.6c-.2 0-.3-.1-.4-.3l-.1-.1c-.6-1.1-1.3-2.2-1.9-3.3-.1-.2-.1-.5.2-.7.2-.1.5-.1.7.2.7 1.1 1.3 2.2 1.9 3.3l.1.1c.1.2.1.5-.2.7-.2.1-.2.1-.3.1zm-50.8-52.2c-.1 0-.2 0-.3-.1-1.1-.7-2.3-1.3-3.4-2-.2-.1-.3-.4-.2-.7.1-.2.4-.3.7-.2 1.2.6 2.3 1.3 3.5 2 .2.1.3.4.2.7-.1.2-.3.3-.5.3zm-70-19.8s-.1 0 0 0h-4c-.3 0-.5-.2-.5-.5s.2-.5.5-.5h4c.3 0 .5.2.5.5 0 .2-.3.5-.5.5zm-72.3 18.8c-.2 0-.3-.1-.4-.3-.1-.2-.1-.5.2-.7l1.7-1c.2-.1.5-.1.7.2.1.2.1.5-.2.7l-1.7 1c-.2.1-.3.1-.3.1zm-1.9 251.1c-.1 0-.2 0-.2-.1-.6-.3-1.2-.7-1.7-1-.2-.1-.3-.4-.2-.7.1-.2.4-.3.7-.2.6.3 1.1.7 1.7 1 .2.1.3.4.2.7-.2.2-.4.3-.5.3zm72.3 18.8h-2.2c-.3 0-.5-.2-.5-.5s.2-.5.5-.5h4.2c.3 0 .5.2.5.5s-.2.5-.5.5h-2zm72.1-18.9c-.2 0-.3-.1-.4-.3-.1-.2 0-.5.2-.7l3.6-2.1c.2-.1.5-.1.7.2s.1.5-.2.7l-3.6 2.1c-.2.1-.3.1-.3.1zm54.8-53.5c-.1 0-.2 0-.3-.1-.2-.1-.3-.4-.2-.7l2.1-3.6c.1-.2.4-.3.7-.2.2.1.3.4.2.7l-2.1 3.6c0 .2-.2.3-.4.3zm20.8-73.8c-.3 0-.5-.2-.5-.5v-4.2c0-.3.2-.5.5-.5s.5.2.5.5v4.3c0 .2-.3.4-.5.4zm-18.9-74.2c-.2 0-.3-.1-.4-.3l-2.1-3.6c-.1-.2-.1-.5.2-.7.2-.1.5-.1.7.2l2.1 3.6c.1.2 0 .5-.2.7-.1 0-.2.1-.3.1zM253 50.9c-.1 0-.2 0-.3-.1l-3.6-2.1c-.2-.1-.3-.4-.2-.7.1-.2.4-.3.7-.2l3.6 2.1c.2.1.3.4.2.7-.1.2-.3.3-.4.3zm-78-20.7c-.3 0-.5-.2-.5-.5s.2-.5.5-.5h4.2c.3 0 .5.2.5.5s-.2.5-.5.5H175zm-71.4 19.7c-.2 0-.3-.1-.4-.3-.1-.2-.1-.5.2-.7l1.7-1c.2-.1.5-.1.7.2.1.2.1.5-.2.7l-1.7 1c-.1.1-.2.1-.3.1zM44.1 257.6c-.2 0-.3-.1-.4-.2l-.3-.6c-.2-.4-.4-.8-.7-1.1-.1-.2-.1-.5.2-.7.2-.1.5-.1.7.2.2.4.4.8.7 1.1l.3.6c.1.2.1.5-.2.7h-.3zm133.3 75.9h-1.6c-.3 0-.5-.2-.5-.5s.2-.5.5-.5h3.9c.3 0 .5.2.5.5s-.2.5-.5.5h-2.3zm-75.7-19.8c-.1 0-.2 0-.2-.1-1.1-.6-2.2-1.3-3.4-1.9-.2-.1-.3-.4-.2-.7.1-.2.4-.3.7-.2 1.1.7 2.2 1.3 3.3 1.9.2.1.3.4.2.7-.1.2-.2.3-.4.3zm152-.1c-.2 0-.3-.1-.4-.3-.1-.2 0-.5.2-.7 1.1-.6 2.2-1.3 3.3-1.9.2-.1.5-.1.7.2.1.2.1.5-.2.7-1.1.7-2.2 1.3-3.4 1.9-.1.1-.2.1-.2.1zm57.9-56.5l-.5-.2-.4-.3c.7-1.1 1.3-2.2 1.9-3.3.1-.2.4-.3.7-.2.2.1.3.4.2.7-.6 1.1-1.2 2.2-1.9 3.3zm-.5-.2zm21.8-76.9c-.3 0-.5-.2-.5-.5v-3.9c0-.3.2-.5.5-.5s.5.2.5.5v3.9c0 .3-.2.5-.5.5zM313 102.1c-.2 0-.3-.1-.4-.3-.6-1.1-1.3-2.2-1.9-3.3-.1-.2-.1-.5.2-.7.2-.1.5-.1.7.2.7 1.1 1.3 2.2 1.9 3.4.1.2 0 .5-.2.7-.1-.1-.2 0-.3 0zm-56.2-57.6c-.1 0-.2 0-.3-.1l-.1-.1c-1.1-.6-2.1-1.2-3.2-1.9-.2-.1-.3-.4-.2-.7.1-.2.4-.3.7-.2 1.1.6 2.2 1.2 3.2 1.9l.1.1c.2.1.3.4.2.7 0 .3-.2.3-.4.3zm-81.2-21.7c-.3 0-.5-.2-.5-.5s.2-.5.5-.5h3.9c.3 0 .5.2.5.5s-.2.5-.5.5h-3.9zM100 43.6c-.2 0-.3-.1-.4-.2-.1-.2-.1-.5.2-.7.6-.4 1.2-.7 1.8-1 .2-.1.5 0 .7.2.1.2 0 .5-.2.7-.6.3-1.1.6-1.7 1h-.4zM14.9 180.2c-.3 0-.5-.2-.5-.5v-2c0-.3.2-.5.5-.5s.5.2.5.5v2c0 .2-.2.5-.5.5zm162.7 160.5h-2.1c-.3 0-.5-.2-.5-.5s.2-.5.5-.5h4c.3 0 .5.2.5.5s-.2.5-.5.5h-1.9zM98 320c-.1 0-.2 0-.2-.1-1.2-.7-2.4-1.3-3.5-2-.2-.1-.3-.4-.2-.7.1-.2.4-.3.7-.2 1.2.7 2.3 1.4 3.5 2 .2.1.3.4.2.7-.1.2-.3.3-.5.3zm159.1-.1c-.2 0-.3-.1-.4-.3-.1-.2 0-.5.2-.7 1.2-.7 2.3-1.3 3.5-2 .2-.1.5-.1.7.2.1.2.1.5-.2.7-1.2.7-2.3 1.4-3.5 2-.1 0-.2.1-.3.1zM37.7 261.2c-.2 0-.3-.1-.4-.2-.7-1.2-1.4-2.3-2-3.5-.1-.2 0-.5.2-.7.2-.1.5 0 .7.2.7 1.2 1.3 2.3 2 3.5.1.2.1.5-.2.7h-.3zm279.7-.1c-.1 0-.2 0-.3-.1-.2-.1-.3-.4-.2-.7.7-1.2 1.4-2.3 2-3.5.1-.2.4-.3.7-.2.2.1.3.4.2.7-.7 1.2-1.3 2.4-2 3.5-.1.2-.2.3-.4.3zm22.7-81.1c-.3 0-.5-.2-.5-.5v-4c0-.3.2-.5.5-.5s.5.2.5.5v4.1c0 .2-.2.4-.5.4zm-20.8-81.6c-.2 0-.3-.1-.4-.3-.7-1.2-1.3-2.3-2-3.5-.1-.2-.1-.5.2-.7.2-.1.5-.1.7.2.7 1.2 1.4 2.3 2 3.5.1.2 0 .5-.2.7-.2.1-.2.1-.3.1zm-58.9-60.2c-.1 0-.2 0-.3-.1-1.2-.7-2.3-1.4-3.5-2-.2-.1-.3-.4-.2-.7s.4-.3.7-.2c1.2.7 2.4 1.3 3.5 2 .2.1.3.4.2.7 0 .2-.2.3-.4.3zm-85.1-22.8c-.3 0-.5-.2-.5-.5s.2-.5.5-.5h4.1c.3 0 .5.2.5.5s-.2.5-.5.5h-4.1zM96.6 37c-.2 0-.3-.1-.4-.3-.1-.2-.1-.5.2-.7l1.7-1c.2-.1.5-.1.7.2.1.2.1.5-.2.7l-1.7 1c-.1.1-.2.1-.3.1zM29.3 94.8c-.1 0-.2 0-.2-.1-.2-.1-.3-.4-.2-.7l1-1.7c.1-.2.4-.3.7-.2.2.1.3.4.2.7l-1 1.7c-.1.3-.3.3-.5.3zm148.2 253h-1.7c-.3 0-.5-.2-.5-.5s.2-.5.5-.5h4.1c.3 0 .5.2.5.5s-.2.5-.5.5h-2.4zm-82.9-21.5c-.1 0-.2 0-.2-.1l-3.6-2.1c-.2-.1-.3-.4-.2-.7.1-.2.4-.3.7-.2l3.6 2.1c.2.1.3.4.2.7-.2.2-.3.3-.5.3zm166.4-.4c-.2 0-.3-.1-.4-.3-.1-.2-.1-.5.2-.7l3.6-2.1c.2-.1.5-.1.7.2s.1.5-.2.7l-3.6 2.1c-.1.1-.2.1-.3.1zm-229.5-61c-.2 0-.3-.1-.4-.2l-2.1-3.6c-.1-.2-.1-.5.2-.7.2-.1.5 0 .7.2l2.1 3.6c.1.2.1.5-.2.7h-.3zm292.3-.7c-.1 0-.2 0-.3-.1-.2-.1-.3-.4-.2-.7l2.1-3.6c.1-.2.4-.3.7-.2.2.1.3.4.2.7l-2.1 3.6c0 .3-.2.3-.4.3zm-316.2-84c-.3 0-.5-.2-.5-.5v-4.1c0-.3.2-.5.5-.5s.5.2.5.5v4.1c0 .2-.2.5-.5.5zm339.7-.8c-.3 0-.5-.2-.5-.5v-4.2c0-.3.2-.5.5-.5s.5.2.5.5v4.2c0 .3-.2.5-.5.5zm-22-85.2c-.2 0-.3-.1-.4-.3l-2.1-3.6c-.1-.2-.1-.5.2-.7.2-.1.5-.1.7.2l2.1 3.6c.1.2.1.5-.2.7-.1.1-.2.1-.3.1zm-61.7-62.7c-.1 0-.2 0-.3-.1-1.2-.7-2.4-1.4-3.6-2-.2-.1-.3-.4-.2-.7.1-.2.4-.3.7-.2l3.6 2.1c.2.1.3.4.2.7-.1.1-.3.2-.4.2zm-89-23.4c-.3 0-.5-.2-.5-.5s.2-.5.5-.5h4.1c.3 0 .5.2.5.5s-.2.5-.5.5h-4.1zm-82 22.8c-.2 0-.3-.1-.4-.2-.1-.2-.1-.5.2-.7l1.7-1c.2-.1.5-.1.7.2.1.2.1.5-.2.7l-1.7 1c-.1-.1-.2 0-.3 0z"/><circle class="st2" cx="177.6" cy="177.6" r="77.1"/><path class="st3" d="M261.9 226.1l-.9-.5.4-.7c.2-.3.4-.7.6-1l.9.5c-.2.3-.4.7-.6 1l-.4.7zm3.7-7.1l-.9-.4c.6-1.2 1.1-2.4 1.6-3.6l.9.4c-.5 1.1-1 2.4-1.6 3.6zm3.8-9.3l-.9-.3c.4-1.3.9-2.5 1.2-3.8l1 .3c-.4 1.2-.8 2.5-1.3 3.8zm2.8-9.7l-1-.2c.3-1.3.6-2.6.8-3.9l1 .2c-.2 1.3-.4 2.6-.8 3.9zm1.9-9.9l-1-.1c.2-1.3.3-2.7.4-4l1 .1c-.1 1.3-.3 2.6-.4 4zm.7-10.1h-1v-4h1v4zm-1.3-10c-.1-1.3-.2-2.7-.4-4l1-.1c.2 1.3.3 2.7.4 4l-1 .1zm-1.3-9.9c-.2-1.3-.5-2.6-.8-3.9l1-.2c.3 1.3.6 2.6.8 3.9l-1 .2zm-2.3-9.7c-.4-1.3-.8-2.6-1.2-3.8l.9-.3c.4 1.3.8 2.5 1.2 3.8l-.9.3zm-3.3-9.4c-.5-1.2-1-2.5-1.6-3.7l.9-.4c.6 1.2 1.1 2.5 1.6 3.7l-.9.4zm-4.3-9c-.6-1.2-1.3-2.3-2-3.5l.9-.5c.7 1.1 1.3 2.3 2 3.5l-.9.5zm-5.2-8.5c-.7-1.1-1.5-2.2-2.3-3.2l.8-.6c.8 1.1 1.6 2.2 2.3 3.3l-.8.5zm-6-7.9c-.8-1-1.7-2-2.6-3l.7-.7 2.7 3-.8.7zm-6.8-7.3c-.9-.9-1.9-1.8-2.9-2.7l.7-.7 3 2.7-.8.7zm-7.6-6.5c-1-.8-2.1-1.6-3.2-2.4l.6-.8c1.1.8 2.2 1.6 3.2 2.4l-.6.8zm-8.2-5.7c-1.1-.7-2.3-1.4-3.4-2l.5-.9c1.2.7 2.3 1.3 3.5 2.1l-.6.8zm-8.7-4.9c-.5-.2-.9-.4-1.4-.7-.7-.4-1.5-.7-2.3-1l.4-.9c.8.3 1.5.7 2.3 1 .5.2.9.4 1.4.7l-.4.9zm-9.2-3.9c-1.2-.5-2.5-.9-3.8-1.3l.3-1c1.3.4 2.6.8 3.8 1.3l-.3 1zm-9.5-2.9l-3.9-.9.2-1 3.9.9-.2 1zm-9.8-1.9c-1.3-.2-2.6-.4-4-.5l.1-1c1.3.1 2.7.3 4 .5l-.1 1z"/><path transform="rotate(-88.28 180.47 81.03) scale(.99995)" class="st3" d="M180 80h1v2h-1z"/><path class="st3" d="M177.8 274.8c-9 0-18.1-1.3-27-3.8-24.9-7.2-45.6-23.6-58.2-46.4-12.6-22.7-15.5-49-8.4-73.9 7.2-24.9 23.6-45.6 46.4-58.2l.5.9c-22.5 12.4-38.8 32.9-45.9 57.6-7.1 24.7-4.2 50.7 8.3 73.1 12.4 22.5 32.9 38.8 57.6 45.9 24.7 7.1 50.7 4.2 73.1-8.3 15.3-8.5 28-21 36.8-36.1l.9.5c-8.8 15.3-21.7 27.9-37.2 36.5-14.6 8.1-30.6 12.2-46.9 12.2zm90.4-45l-.8-.5 1-1.7.8.5zm3.8-7.1l-.9-.4c.6-1.2 1.1-2.4 1.7-3.7l.9.4c-.6 1.2-1.1 2.5-1.7 3.7zm3.9-9.4l-.9-.3c.5-1.2.9-2.5 1.3-3.8l1 .3c-.5 1.3-.9 2.6-1.4 3.8zm3-9.7l-1-.2.9-3.9 1 .2-.9 3.9zm2-9.9l-1-.2c.2-1.3.4-2.7.5-4l1 .1c-.1 1.5-.3 2.8-.5 4.1zm1.1-10l-1-.1c.1-1.3.1-2.7.1-4h1c0 1.3 0 2.7-.1 4.1zm-.9-10.1c-.1-1.3-.1-2.7-.2-4l1-.1c.1 1.3.2 2.7.2 4l-1 .1zm-.9-10c-.2-1.3-.4-2.6-.6-4l1-.2c.2 1.3.4 2.7.6 4l-1 .2zm-1.9-9.9c-.3-1.3-.6-2.6-1-3.9l1-.3c.4 1.3.7 2.6 1 3.9l-1 .3zm-2.8-9.6c-.4-1.3-.9-2.5-1.4-3.8l.9-.4c.5 1.3 1 2.5 1.4 3.8l-.9.4zm-3.7-9.3c-.6-1.2-1.1-2.4-1.7-3.6l.9-.4c.6 1.2 1.2 2.4 1.7 3.7l-.9.3zm-4.5-8.9c-.7-1.2-1.4-2.3-2.1-3.4l.8-.5c.7 1.1 1.4 2.3 2.1 3.5l-.8.4zm-5.5-8.5c-.8-1.1-1.6-2.2-2.4-3.2l.8-.6c.8 1.1 1.6 2.2 2.4 3.2l-.8.6zm-6.2-7.8l-2.7-3 .7-.7 2.7 3-.7.7zm-6.9-7.2l-3-2.7.7-.8 3 2.7-.7.8zm-7.7-6.5c-1.1-.8-2.1-1.6-3.2-2.4l.6-.8c1.1.8 2.2 1.6 3.2 2.4l-.6.8z"/><path transform="rotate(-59.54 232.198 89.098)" class="st3" d="M231.7 88.1h1v2h-1z"/><path class="st3" d="M177.9 282.1c-36.8 0-72.5-19.4-91.6-53.8-27.9-50.4-9.7-114.1 40.7-142.1l.5.9c-49.9 27.7-68 90.8-40.4 140.7 27.7 49.9 90.8 68 140.7 40.4 16.4-9.1 30.1-22.5 39.4-38.7l.9.5c-9.5 16.4-23.2 29.9-39.8 39.1-15.9 8.7-33.3 13-50.4 13zm96.7-48.6l-.9-.5 1-1.8.9.6zm3.9-7.3l-.9-.4c.6-1.2 1.2-2.5 1.7-3.8l.9.4c-.6 1.3-1.2 2.6-1.7 3.8zm4-9.6l-.9-.3c.5-1.3.9-2.6 1.4-3.9l1 .3c-.5 1.2-1 2.6-1.5 3.9zm3.2-10l-1-.3c.4-1.3.7-2.7 1-4l1 .2c-.3 1.4-.6 2.8-1 4.1zm2.2-10.2l-1-.2c.2-1.4.4-2.7.6-4.1l1 .1c-.1 1.4-.3 2.8-.6 4.2zm1.3-10.4l-1-.1c.1-1.4.2-2.8.2-4.1h1c0 1.4-.1 2.8-.2 4.2zm-.7-10.4c0-1.4-.1-2.8-.2-4.1l1-.1c.1 1.4.1 2.8.2 4.2h-1zm-.7-10.4c-.2-1.4-.3-2.8-.5-4.1l1-.1c.2 1.4.4 2.8.5 4.2h-1zm-1.6-10.2c-.3-1.3-.6-2.7-.9-4l1-.2c.3 1.3.6 2.7.9 4.1l-1 .1zm-2.6-10.1c-.4-1.3-.8-2.6-1.3-3.9l.9-.3c.5 1.3.9 2.6 1.3 4l-.9.2zm-3.6-9.7c-.5-1.3-1.1-2.6-1.7-3.8l.9-.4c.6 1.3 1.1 2.6 1.7 3.8l-.9.4zm-4.4-9.4l-.1-.2c-.3-.5-.6-1-.9-1.6l.8-.5c.3.5.6 1.1.9 1.6l.1.2-.8.5z"/><path class="st3" d="M177.9 289.5c-39.4 0-77.7-20.8-98.1-57.7-14.5-26.2-17.9-56.4-9.6-85.1 8.3-28.7 27.2-52.5 53.4-66.9l.5.9c-26 14.2-44.8 37.8-53 66.3-8.2 28.5-4.8 58.4 9.5 84.3 29.6 53.5 97.2 73 150.7 43.4 17.7-9.8 32.3-24.2 42.4-41.7l.9.5c-10.2 17.7-25 32.2-42.8 42.1-17.1 9.4-35.7 13.9-53.9 13.9zm103-52.3l-.9-.5c.2-.3.4-.6.6-1 .1-.3.3-.5.4-.8l.9.5c-.2.3-.3.5-.4.8-.2.3-.4.7-.6 1zm3.8-7.1l-.9-.4c.6-1.2 1.2-2.4 1.7-3.6l.9.4c-.5 1.2-1.1 2.4-1.7 3.6zm4-9.2l-.9-.4c.5-1.2.9-2.5 1.4-3.7l.9.3c-.4 1.3-.9 2.6-1.4 3.8zm3.3-9.4l-1-.3c.4-1.3.7-2.6 1.1-3.8l1 .2c-.4 1.3-.8 2.6-1.1 3.9zm2.4-9.7l-1-.2c.3-1.3.5-2.6.7-3.9l1 .2c-.2 1.2-.4 2.6-.7 3.9zm1.6-9.9l-1-.1c.2-1.3.3-2.6.4-4l1 .1c-.1 1.3-.2 2.7-.4 4zm.8-10h-1c0-.7 0-1.4.1-2l1 .1c-.1.6-.1 1.2-.1 1.9z"/><path class="st3" d="M177.8 296.9c-11.1 0-22.2-1.6-33.2-4.7-30.6-8.8-55.9-29-71.3-56.9-31.8-57.5-10.9-130.2 46.7-162l.5.9c-27.6 15.3-47.7 40.4-56.4 70.7-8.7 30.3-5.1 62.3 10.1 89.9s40.4 47.7 70.7 56.4c30.3 8.7 62.3 5.1 89.9-10.1 18.8-10.4 34.5-25.8 45.2-44.4l.9.5c-10.8 18.8-26.6 34.3-45.6 44.8-17.9 9.9-37.6 14.9-57.5 14.9z"/><path class="st3" d="M178 304.1c-11.7 0-23.5-1.6-35-5-32.5-9.3-59.4-30.7-75.8-60.3s-20.3-63.7-11-96.2 30.7-59.4 60.3-75.8l.5.9c-29.4 16.3-50.6 43-59.9 75.2S51.7 209 68 238.3c16.3 29.3 42.9 50.6 75.2 59.8 32.2 9.2 66.1 5.4 95.4-10.9 19.1-10.6 35.2-26.1 46.6-44.8l.9.5c-11.4 18.9-27.6 34.5-46.9 45.2-19.1 10.6-40.1 16-61.2 16zm64.4-9.3l-.5-.9c20.4-11.3 37.5-27.8 49.5-47.7l.9.5c-12.1 20.1-29.4 36.8-49.9 48.1z"/><path class="st3" d="M178.5 311.2c-12.5 0-25-1.8-37.3-5.3-34.1-9.8-62.4-32.3-79.7-63.2-17.5-31.2-21.7-67.3-12-101.8 9.7-34.4 32.2-63 63.4-80.5l.5.9c-31 17.3-53.3 45.7-63 79.9-9.6 34.2-5.4 70 12 101 17.2 30.7 45.3 53 79.1 62.8 33.8 9.8 69.5 5.8 100.4-11l.5.9c-19.9 10.8-41.8 16.3-63.9 16.3z"/><path class="st3" d="M175 318.8c-50.3-1-96.6-28.9-120.9-72.9-18.2-33-22.6-71.2-12.1-107.4 10.4-36.2 34.4-66.3 67.4-84.5l.5.9c-32.8 18.1-56.6 47.9-67 83.9-10.4 36-6.1 73.9 12 106.6 24.1 43.7 70.2 71.4 120.1 72.4v1z"/><path class="st3" d="M100.9 304.9c-22.3-13.4-40.7-32.6-53.3-55.3-19.2-34.7-23.7-74.9-12.8-113 11-38.1 36.2-69.7 70.9-88.9l.5.9C71.7 67.7 46.7 99 35.8 136.9c-10.9 37.9-6.4 77.7 12.7 112.2 12.5 22.6 30.8 41.6 52.9 55l-.5.8z"/><path class="st3" d="M41.2 253.1c-41.5-75.3-14.1-170.3 61-211.9l.5.9C28 83.4.8 177.8 42.1 252.6l-.9.5z"/><path class="st3" d="M15.5 174.6h-1c1.1-58.3 33.4-111.9 84.5-140l.5.9c-50.8 27.9-83 81.2-84 139.1z"/><path class="st3" d="M32.4 90.1l-.9-.5C47 64 69 42.8 95.1 28.3l.5.9c-26 14.4-47.8 35.5-63.2 60.9zm160.2 118.6h-29.9c-1.8 0-3.6-1-4.5-2.6l-14.9-25.9c-.9-1.6-.9-3.6 0-5.2l14.9-25.9c.9-1.6 2.6-2.6 4.5-2.6h29.9c1.8 0 3.6 1 4.5 2.6L212 175c.9 1.6.9 3.6 0 5.2l-14.9 25.9c-.9 1.6-2.7 2.6-4.5 2.6zm138 57.3l11.4-3.2-8.5 14.6zM231 208.5h-19.5l9.7-17z"/></g></g></svg>