<svg id="Layer_1" xmlns="http://www.w3.org/2000/svg" viewBox="0 0 499 323.9"><style>.st0{fill:#2bb8ff}.st1{fill:#55c6ff}.st2{fill:#80d5ff}.st3{fill:#aae3ff}.st4{fill:#d4f1ff}.st5{fill:#0af}.st6{opacity:.8}.st6,.st7{enable-background:new}.st8{fill:#5e5e5e}.st9{fill:none}.st10{fill:#fff}.st11{opacity:.8;fill:#0af;enable-background:new}.st12{fill:none;stroke:#0af;stroke-miterlimit:10}</style><title>Asset 7</title><path class="st0" d="M459.5 320.5c-.4-.7-.2-1.5.5-1.9.7-.4 1.5-.2 1.9.5.4.7.2 1.5-.5 1.9-.2.1-.5.2-.7.2-.5 0-1-.2-1.2-.7zM50.7 310.2c-.7-.4-.9-1.3-.5-1.9.4-.7 1.3-.9 1.9-.5.7.4.9 1.3.5 1.9-.3.5-.7.7-1.2.7-.2-.1-.5-.1-.7-.2zm397.9-8.4c-.4-.7-.2-1.5.5-1.9.7-.4 1.5-.2 1.9.5.4.7.2 1.5-.5 1.9-.2.1-.5.2-.7.2-.4 0-.9-.3-1.2-.7zm-387-10.4c-.7-.4-.9-1.2-.5-1.9s1.3-.9 1.9-.5c.7.4.9 1.3.5 1.9-.3.5-.7.7-1.2.7-.3 0-.5-.1-.7-.2zm376.2-8.4c-.4-.7-.2-1.5.5-1.9.7-.4 1.5-.2 1.9.5.4.7.2 1.5-.5 1.9-.2.1-.5.2-.7.2-.5 0-1-.3-1.2-.7zM72.4 272.6c-.7-.4-.9-1.2-.5-1.9s1.3-.9 1.9-.5c.7.4.9 1.3.5 1.9-.3.5-.7.7-1.2.7-.2 0-.5 0-.7-.2zm354.5-8.4c-.4-.7-.2-1.5.5-1.9.7-.4 1.5-.2 1.9.5.4.7.2 1.5-.5 1.9-.2.1-.5.2-.7.2-.4 0-.9-.2-1.2-.7zM83.2 253.9c-.7-.4-.9-1.2-.5-1.9s1.2-.9 1.9-.5.9 1.2.5 1.9c-.3.5-.7.7-1.2.7-.2 0-.4-.1-.7-.2zm332.9-8.4c-.4-.7-.2-1.5.5-1.9.7-.4 1.5-.2 1.9.5.4.7.2 1.5-.5 1.9-.2.1-.5.2-.7.2-.5 0-.9-.3-1.2-.7zm-322-10.4c-.7-.4-.9-1.3-.5-1.9.4-.7 1.2-.9 1.9-.5s.9 1.3.5 1.9c-.3.5-.7.7-1.2.7-.3 0-.5-.1-.7-.2zm310.9-8c-.5-.6-.4-1.5.2-2 .6-.5 1.5-.4 2 .2.5.6.4 1.5-.2 2-.3.2-.6.3-.9.3-.4.1-.8-.1-1.1-.5zm-297.2-8.5c-.4-.6-.3-1.5.4-2 .6-.4 1.5-.3 2 .4.4.6.3 1.5-.4 2-.2.2-.5.2-.8.2-.5 0-.9-.2-1.2-.6zm280.5-3.8c-.7-.3-1.1-1.1-.8-1.8.3-.7 1.1-1.1 1.8-.8.7.3 1.1 1.1.8 1.8-.2.5-.8.9-1.3.9-.1 0-.3 0-.5-.1zm-260.5-4c-.1-.8.5-1.5 1.3-1.5.8-.1 1.5.5 1.5 1.3s-.5 1.5-1.3 1.5h-.1c-.8 0-1.4-.5-1.4-1.3zm238.3-.2c0-.8.6-1.4 1.4-1.4.8 0 1.4.6 1.4 1.4 0 .8-.6 1.4-1.4 1.4-.7 0-1.4-.6-1.4-1.4zm-21.6 0c0-.8.6-1.4 1.4-1.4.8 0 1.4.6 1.4 1.4 0 .8-.6 1.4-1.4 1.4-.8 0-1.4-.6-1.4-1.4zm-21.7 0c0-.8.6-1.4 1.4-1.4.8 0 1.4.6 1.4 1.4 0 .8-.6 1.4-1.4 1.4-.8 0-1.4-.6-1.4-1.4zm-21.7 0c0-.8.6-1.4 1.4-1.4.8 0 1.4.6 1.4 1.4 0 .8-.6 1.4-1.4 1.4-.7 0-1.4-.6-1.4-1.4zm-21.7 0c0-.8.6-1.4 1.4-1.4.8 0 1.4.6 1.4 1.4 0 .8-.6 1.4-1.4 1.4-.7 0-1.4-.6-1.4-1.4zm-21.6 0c0-.8.6-1.4 1.4-1.4.8 0 1.4.6 1.4 1.4 0 .8-.6 1.4-1.4 1.4-.8 0-1.4-.6-1.4-1.4zm-21.7 0c0-.8.6-1.4 1.4-1.4.8 0 1.4.6 1.4 1.4 0 .8-.6 1.4-1.4 1.4-.8 0-1.4-.6-1.4-1.4zm-21.7 0c0-.8.6-1.4 1.4-1.4.8 0 1.4.6 1.4 1.4 0 .8-.6 1.4-1.4 1.4-.7 0-1.4-.6-1.4-1.4zm-21.6 0c0-.8.6-1.4 1.4-1.4.8 0 1.4.6 1.4 1.4 0 .8-.6 1.4-1.4 1.4-.8 0-1.4-.6-1.4-1.4zm-21.7 0c0-.8.6-1.4 1.4-1.4.8 0 1.4.6 1.4 1.4 0 .8-.6 1.4-1.4 1.4-.8 0-1.4-.6-1.4-1.4zm-21.7 0c0-.8.6-1.4 1.4-1.4.8 0 1.4.6 1.4 1.4 0 .8-.6 1.4-1.4 1.4-.7 0-1.4-.6-1.4-1.4z"/><path class="st1" d="M490.1 271.6c-.5-.9-.2-2 .7-2.5.9-.5 2-.2 2.5.7.5.9.2 2-.7 2.5-.3.2-.6.2-.9.2-.6 0-1.2-.3-1.6-.9zm-474-4.3c-.9-.5-1.2-1.6-.7-2.5.5-.9 1.6-1.2 2.5-.7.9.5 1.2 1.6.7 2.5-.3.6-.9.9-1.6.9-.3 0-.6-.1-.9-.2zm454.4-29.7c-.5-.9-.2-2 .7-2.5.9-.5 2-.2 2.5.7.5.9.2 2-.7 2.5-.3.2-.6.2-.9.2-.7 0-1.3-.4-1.6-.9zm-434.8-4.4c-.9-.5-1.2-1.6-.7-2.5.5-.9 1.6-1.2 2.5-.7.9.5 1.2 1.6.7 2.5-.3.6-1 .9-1.6.9-.3 0-.6 0-.9-.2zm415.1-29.7c-.5-.9-.2-2 .7-2.5.9-.5 2-.2 2.5.7.5.9.2 2-.7 2.5-.3.2-.6.2-.9.2-.6 0-1.2-.3-1.6-.9zm-395.4-4.4c-.9-.5-1.2-1.6-.7-2.5.5-.9 1.6-1.2 2.5-.7.9.5 1.2 1.6.7 2.5-.3.6-1 .9-1.6.9-.3.1-.6 0-.9-.2zM429 171.9c-.8-.6-.9-1.8-.3-2.6.6-.8 1.8-.9 2.6-.3.8.6.9 1.8.2 2.6-.4.5-.9.7-1.4.7-.4 0-.8-.1-1.1-.4zm-350.2-3.8c-.5-.8-.3-2 .5-2.5.9-.5 2-.3 2.5.6.6.8.3 2-.5 2.5-.3.2-.6.3-1 .3-.5-.1-1.1-.4-1.5-.9zm312.8-9c0-1 .8-1.8 1.8-1.8s1.8.8 1.8 1.8-.8 1.8-1.8 1.8c-.9 0-1.8-.8-1.8-1.8zm-39.3 0c0-1 .8-1.8 1.8-1.8s1.8.8 1.8 1.8-.8 1.8-1.8 1.8-1.8-.8-1.8-1.8zm-39.3 0c0-1 .8-1.8 1.8-1.8s1.8.8 1.8 1.8-.8 1.8-1.8 1.8-1.8-.8-1.8-1.8zm-39.4 0c0-1 .8-1.8 1.8-1.8s1.8.8 1.8 1.8-.8 1.8-1.8 1.8c-.9 0-1.8-.8-1.8-1.8zm-39.3 0c0-1 .8-1.8 1.8-1.8s1.8.8 1.8 1.8-.8 1.8-1.8 1.8-1.8-.8-1.8-1.8zm-39.3 0c0-1 .8-1.8 1.8-1.8s1.8.8 1.8 1.8-.8 1.8-1.8 1.8-1.8-.8-1.8-1.8zm-39.3 0c0-1 .8-1.8 1.8-1.8s1.8.8 1.8 1.8-.8 1.8-1.8 1.8-1.8-.8-1.8-1.8zm-39.4 0c0-1 .8-1.8 1.8-1.8s1.8.8 1.8 1.8-.8 1.8-1.8 1.8-1.8-.8-1.8-1.8z"/><path class="st2" d="M3.1 186.8c-1.1-.6-1.5-2-.8-3.1.6-1.1 2-1.4 3.1-.8 1.1.6 1.4 2 .8 3.1-.4.7-1.2 1.1-1.9 1.1-.4 0-.8-.1-1.2-.3zm28.5-49.4c-1.1-.6-1.4-2-.7-3.1s2-1.4 3.1-.7 1.4 2 .7 3.1c-.4.7-1.2 1.1-1.9 1.1-.5 0-.9-.2-1.2-.4zm437.5-4.1c-.7-1-.5-2.4.5-3.1 1-.7 2.4-.5 3.1.5.7 1 .5 2.4-.5 3.1-.4.3-.8.4-1.3.4-.7 0-1.4-.3-1.8-.9zM77.7 107.7c-.1-1.2.9-2.3 2.1-2.4 1.2-.1 2.3.9 2.4 2.1.1 1.2-.9 2.3-2.1 2.4H80c-1.3 0-2.3-.9-2.3-2.1zm342-.2c0-1.2 1-2.2 2.2-2.2 1.2 0 2.2 1 2.2 2.2 0 1.2-1 2.2-2.2 2.2-1.2 0-2.2-1-2.2-2.2zm-57 0c0-1.2 1-2.2 2.2-2.2 1.2 0 2.2 1 2.2 2.2 0 1.2-1 2.2-2.2 2.2-1.2 0-2.2-1-2.2-2.2zm-57 0c0-1.2 1-2.2 2.2-2.2 1.2 0 2.2 1 2.2 2.2 0 1.2-1 2.2-2.2 2.2-1.2 0-2.2-1-2.2-2.2zm-57 0c0-1.2 1-2.2 2.2-2.2 1.2 0 2.2 1 2.2 2.2 0 1.2-1 2.2-2.2 2.2-1.2 0-2.2-1-2.2-2.2zm-57 0c0-1.2 1-2.2 2.2-2.2 1.2 0 2.2 1 2.2 2.2 0 1.2-1 2.2-2.2 2.2-1.2 0-2.2-1-2.2-2.2zm-57 0c0-1.2 1-2.2 2.2-2.2 1.2 0 2.2 1 2.2 2.2 0 1.2-1 2.2-2.2 2.2-1.2 0-2.2-1-2.2-2.2z"/><path class="st3" d="M488.6 73c-1.1-.9-1.3-2.6-.4-3.8.9-1.1 2.6-1.3 3.8-.4 1.2.9 1.3 2.6.4 3.8-.5.7-1.3 1-2.1 1-.6 0-1.2-.2-1.7-.6zM43.2 57.7c-.3-1.5.7-2.8 2.1-3.1 1.5-.3 2.8.7 3.1 2.1.3 1.4-.7 2.8-2.1 3.1h-.5c-1.3.1-2.4-.8-2.6-2.1zm373.2-1.6c0-1.5 1.2-2.7 2.7-2.7 1.5 0 2.7 1.2 2.7 2.7 0 1.5-1.2 2.7-2.7 2.7-1.5 0-2.7-1.2-2.7-2.7zm-74.7 0c0-1.5 1.2-2.7 2.7-2.7 1.5 0 2.7 1.2 2.7 2.7 0 1.5-1.2 2.7-2.7 2.7-1.5 0-2.7-1.2-2.7-2.7zm-74.6 0c0-1.5 1.2-2.7 2.7-2.7 1.5 0 2.7 1.2 2.7 2.7 0 1.5-1.2 2.7-2.7 2.7-1.6 0-2.7-1.2-2.7-2.7zm-74.7 0c0-1.5 1.2-2.7 2.7-2.7 1.5 0 2.7 1.2 2.7 2.7 0 1.5-1.2 2.7-2.7 2.7-1.5 0-2.7-1.2-2.7-2.7zm-74.7 0c0-1.5 1.2-2.7 2.7-2.7 1.5 0 2.7 1.2 2.7 2.7 0 1.5-1.2 2.7-2.7 2.7-1.5 0-2.7-1.2-2.7-2.7z"/><path class="st4" d="M412.4 4.5c0-1.7 1.4-3.1 3.1-3.1 1.7 0 3.1 1.4 3.1 3.1 0 1.7-1.4 3.1-3.1 3.1-1.8 0-3.1-1.4-3.1-3.1zm-92.4 0c0-1.7 1.4-3.1 3.1-3.1 1.7 0 3.1 1.4 3.1 3.1 0 1.7-1.4 3.1-3.1 3.1-1.7 0-3.1-1.4-3.1-3.1zm-92.3 0c0-1.7 1.4-3.1 3.1-3.1 1.7 0 3.1 1.4 3.1 3.1 0 1.7-1.4 3.1-3.1 3.1-1.7 0-3.1-1.4-3.1-3.1zm-92.3 0c0-1.7 1.4-3.1 3.1-3.1 1.7 0 3.1 1.4 3.1 3.1 0 1.7-1.4 3.1-3.1 3.1-1.7 0-3.1-1.4-3.1-3.1zM43 4.5c0-1.7 1.4-3.1 3.1-3.1 1.7 0 3.1 1.4 3.1 3.1 0 1.7-1.4 3.1-3.1 3.1-1.7 0-3.1-1.4-3.1-3.1z"/><path class="st0" d="M200.8 210.6c0-4.1 3.3-7.4 7.4-7.4 4.1 0 7.4 3.3 7.4 7.4 0 4.1-3.3 7.4-7.4 7.4-4.1 0-7.4-3.3-7.4-7.4z"/><path class="st1" d="M4 288.2c-3.3-1.9-4.4-6.1-2.5-9.3 1.9-3.3 6.1-4.4 9.3-2.5 3.3 1.9 4.4 6.1 2.5 9.3-1.3 2.2-3.6 3.4-5.9 3.4-1.2 0-2.4-.3-3.4-.9zm330.8-129.1c0-3.8 3.1-6.8 6.8-6.8 3.8 0 6.8 3.1 6.8 6.8 0 3.8-3.1 6.8-6.8 6.8-3.7 0-6.8-3-6.8-6.8z"/><path class="st2" d="M463.8 133c-2.2-2.7-1.8-6.6.9-8.8 2.7-2.2 6.6-1.8 8.8.9 2.2 2.7 1.8 6.6-.9 8.8-1.2 1-2.6 1.4-4 1.4-1.7 0-3.5-.8-4.8-2.3zm-344.9-25.5c0-3.5 2.8-6.2 6.2-6.2 3.4 0 6.3 2.8 6.3 6.2 0 3.4-2.8 6.2-6.3 6.2-3.4 0-6.2-2.8-6.2-6.2z"/><path class="st3" d="M8.7 77.3c-2.1-2.3-1.9-5.9.4-8 2.3-2.1 5.9-1.9 8 .4 2.1 2.3 1.9 5.9-.4 8-1.1 1-2.4 1.5-3.8 1.5-1.5 0-3.1-.7-4.2-1.9zm294.2-21.2c0-3.1 2.5-5.7 5.7-5.7 3.1 0 5.7 2.5 5.7 5.7 0 3.1-2.5 5.7-5.7 5.7-3.1 0-5.7-2.6-5.7-5.7z"/><path class="st4" d="M297.5 4.5c0-2.8 2.3-5.1 5.1-5.1s5.1 2.3 5.1 5.1-2.3 5.1-5.1 5.1-5.1-2.3-5.1-5.1zm-250 0c0-2.8 2.3-5.1 5.1-5.1s5.1 2.3 5.1 5.1-2.3 5.1-5.1 5.1-5.1-2.3-5.1-5.1z"/><path class="st0" d="M395 222.9c-2.3-1.7-2.8-5-1.1-7.3 1.7-2.3 5-2.8 7.3-1.1 2.3 1.7 2.8 5 1.1 7.3-1 1.4-2.6 2.1-4.2 2.1-1.1.1-2.1-.3-3.1-1zm-258.7-12.3c0-2.9 2.4-5.2 5.2-5.2 2.9 0 5.2 2.3 5.2 5.2 0 2.9-2.4 5.2-5.2 5.2-2.8 0-5.2-2.3-5.2-5.2z"/><path class="st1" d="M35.1 234.2c-2.2-1.2-2.9-4-1.6-6.1 1.2-2.2 4-2.9 6.1-1.7 2.2 1.2 2.9 4 1.7 6.2-.8 1.4-2.4 2.2-3.9 2.2-.8 0-1.6-.2-2.3-.6zm424.8-9.6c-1.2-2.1-.5-4.9 1.7-6.1 2.2-1.2 4.9-.5 6.1 1.6 1.2 2.2.5 4.9-1.6 6.2-.7.4-1.5.6-2.2.6-1.6 0-3.1-.9-4-2.3zm-216.1-65.5c0-2.5 2-4.5 4.5-4.5s4.5 2 4.5 4.5-2 4.5-4.5 4.5-4.5-2-4.5-4.5z"/><path class="st2" d="M351.4 107.5c0-2.1 1.7-3.8 3.8-3.8 2.1 0 3.8 1.7 3.8 3.8 0 2.1-1.7 3.8-3.8 3.8-2.1-.1-3.8-1.7-3.8-3.8zm-235 0c0-2.1 1.7-3.8 3.8-3.8 2.1 0 3.8 1.7 3.8 3.8 0 2.1-1.7 3.8-3.8 3.8-2.1-.1-3.8-1.7-3.8-3.8z"/><path class="st3" d="M15.7 71.1c-1-1.3-.7-3.2.6-4.2 1.3-1 3.2-.7 4.2.6 1 1.3.7 3.2-.6 4.2-.5.4-1.2.6-1.8.6-.9 0-1.8-.4-2.4-1.2zm445.5-10.7c-1.6-.3-2.7-1.9-2.3-3.5.3-1.6 1.9-2.7 3.5-2.3 1.6.3 2.7 1.9 2.3 3.6-.3 1.4-1.5 2.4-2.9 2.4-.2-.1-.4-.1-.6-.2zm-225.6-4.3c0-1.7 1.3-3 3-3s3 1.3 3 3-1.3 3-3 3-3-1.4-3-3z"/><path class="st4" d="M338.7 4.5c0-1.2 1-2.2 2.2-2.2 1.2 0 2.2 1 2.2 2.2 0 1.2-1 2.2-2.2 2.2-1.2 0-2.2-1-2.2-2.2zM127 4.5c0-1.2 1-2.2 2.3-2.2 1.2 0 2.2 1 2.2 2.2 0 1.2-1 2.2-2.2 2.2-1.3 0-2.3-1-2.3-2.2z"/><path class="st0" d="M45.1 319.8c-.5-.3-.6-.9-.4-1.4.3-.5.9-.6 1.4-.4.5.3.6.9.4 1.4-.2.3-.5.5-.9.5-.2 0-.3 0-.5-.1zm414-.4c-.3-.5-.1-1.1.4-1.4.5-.3 1.1-.1 1.4.4.3.5.1 1.1-.4 1.4-.2.1-.3.1-.5.1-.3 0-.7-.2-.9-.5zm-409-8.3c-.5-.3-.6-.9-.4-1.4.3-.5.9-.7 1.4-.4.5.3.6.9.4 1.4-.2.3-.5.5-.9.5-.2.1-.3 0-.5-.1zm404-.4c-.3-.5-.1-1.1.4-1.4.5-.3 1.1-.1 1.4.4.3.5.1 1.1-.4 1.4-.2.1-.3.1-.5.1-.3 0-.7-.2-.9-.5zm-399-8.2c-.5-.3-.6-.9-.4-1.4.3-.5.9-.6 1.4-.4.5.3.6.9.4 1.4-.2.3-.5.5-.9.5-.2 0-.3 0-.5-.1zm394-.5c-.3-.5-.1-1.1.4-1.4.5-.3 1.1-.1 1.4.4.3.5.1 1.1-.4 1.4-.2.1-.3.1-.5.1-.3 0-.7-.1-.9-.5zm-389-8.2c-.5-.3-.6-.9-.4-1.4.3-.5.9-.6 1.4-.4.5.3.6.9.4 1.4-.2.3-.5.5-.9.5-.2 0-.3 0-.5-.1zm384-.4c-.3-.5-.1-1.1.4-1.4.5-.3 1.1-.1 1.4.4.3.5.1 1.1-.4 1.4-.2.1-.3.1-.5.1-.3 0-.7-.2-.9-.5zm-379-8.3c-.5-.3-.6-.9-.4-1.4.3-.5.9-.6 1.4-.4.5.3.7.9.4 1.4-.2.3-.5.5-.9.5-.2.1-.3 0-.5-.1zm374-.4c-.3-.5-.1-1.1.4-1.4.5-.3 1.1-.1 1.4.4.3.5.1 1.1-.4 1.4-.2.1-.3.1-.5.1-.4 0-.7-.2-.9-.5zm-369-8.2c-.5-.3-.6-.9-.4-1.4.3-.5.9-.6 1.4-.4.5.3.7.9.4 1.4-.2.3-.5.5-.9.5-.2 0-.3 0-.5-.1zm364-.5c-.3-.5-.1-1.1.4-1.4.5-.3 1.1-.1 1.4.4.3.5.1 1.1-.4 1.4-.1.1-.3.1-.5.1-.4 0-.7-.1-.9-.5zm-359-8.2c-.5-.3-.6-.9-.4-1.4.3-.5.9-.6 1.4-.4.5.3.6.9.4 1.4-.2.3-.5.5-.9.5-.2 0-.3 0-.5-.1zm354-.4c-.3-.5-.1-1.1.4-1.4.5-.3 1.1-.1 1.4.4.3.5.1 1.1-.4 1.4-.2.1-.3.1-.5.1-.4 0-.7-.2-.9-.5zm-349-8.3c-.5-.3-.6-.9-.4-1.4.3-.5.9-.6 1.4-.4.5.3.6.9.4 1.4-.2.3-.5.5-.9.5-.2.1-.3 0-.5-.1zm344-.4c-.3-.5-.1-1.1.4-1.4.5-.3 1.1-.1 1.4.4.3.5.1 1.1-.4 1.4-.2.1-.3.1-.5.1-.4 0-.7-.2-.9-.5zm-339-8.2c-.5-.3-.6-.9-.4-1.4.3-.5.9-.6 1.4-.4.5.3.6.9.4 1.4-.2.3-.5.5-.9.5-.2 0-.3-.1-.5-.1zm334-.5c-.3-.5-.1-1.1.4-1.4.5-.3 1.1-.1 1.4.4.3.5.1 1.1-.4 1.4-.2.1-.3.1-.5.1-.4 0-.7-.2-.9-.5zm-329-8.2c-.5-.3-.6-.9-.4-1.4.3-.5.9-.6 1.4-.4.5.3.6.9.4 1.4-.2.3-.5.5-.9.5-.1 0-.3 0-.5-.1zm324-.4c-.3-.5-.1-1.1.4-1.4.5-.3 1.1-.1 1.4.4.3.5.1 1.1-.4 1.4-.2.1-.3.1-.5.1-.4 0-.7-.2-.9-.5zm-319-8.3c-.5-.3-.6-.9-.4-1.4.3-.5.9-.6 1.4-.4.5.3.6.9.4 1.4-.2.3-.5.5-.9.5-.1.1-.3 0-.5-.1zm314-.4c-.3-.5-.1-1.1.4-1.4.5-.3 1.1-.1 1.4.4.3.5.1 1.1-.4 1.4-.2.1-.3.1-.5.1-.4 0-.7-.2-.9-.5zm-308.3-7.8c-.4-.4-.4-1-.1-1.4.4-.4 1-.4 1.4-.1.4.4.4 1 .1 1.4-.2.2-.5.3-.7.3-.3.1-.5 0-.7-.2zm302.6-.1c-.4-.4-.4-1 .1-1.4.4-.4 1-.3 1.4.1.4.4.4 1-.1 1.4-.2.2-.4.3-.7.3-.3-.1-.5-.2-.7-.4zm-295.2-6.6c-.3-.5-.2-1.1.3-1.4.5-.3 1.1-.2 1.4.3.3.5.2 1.1-.3 1.4-.2.1-.4.2-.5.2-.4 0-.7-.2-.9-.5zm287.8.2c-.5-.3-.6-.9-.3-1.4.3-.5.9-.6 1.4-.3.5.3.6.9.3 1.4-.2.3-.5.5-.8.5-.3 0-.5-.1-.6-.2zm-279-4.9c-.2-.5.1-1.1.6-1.3.5-.2 1.1.1 1.3.6.2.5-.1 1.1-.6 1.3-.1 0-.2.1-.3.1-.5-.1-.8-.3-1-.7zm270.3.5c-.5-.2-.8-.8-.6-1.3.2-.5.8-.8 1.3-.6.5.2.8.8.6 1.3-.1.4-.5.7-.9.7-.2 0-.3 0-.4-.1zm-260.6-3.1c-.1-.5.3-1 .9-1.1.5-.1 1 .3 1.1.9.1.5-.3 1-.9 1.1h-.1c-.5 0-1-.3-1-.9zm251.1.9c-.5-.1-1-.6-.9-1.1.1-.5.6-1 1.1-.9.5.1 1 .5.9 1.1 0 .5-.5.9-1 .9h-.1zm-10.9-1.2c0-.5.4-1 1-1s1 .5 1 1-.4 1-1 1-1-.5-1-1zm-10 0c0-.5.4-1 1-1s1 .5 1 1-.5 1-1 1c-.6 0-1-.5-1-1zm-10 0c0-.5.4-1 1-1 .5 0 1 .5 1 1s-.5 1-1 1c-.6 0-1-.5-1-1zm-10 0c0-.5.4-1 1-1 .5 0 1 .5 1 1s-.4 1-1 1-1-.5-1-1zm-10 0c0-.5.4-1 1-1s1 .5 1 1-.4 1-1 1-1-.5-1-1zm-10 0c0-.5.4-1 1-1 .5 0 1 .5 1 1s-.5 1-1 1c-.6 0-1-.5-1-1zm-10.1 0c0-.5.4-1 1-1 .5 0 1 .5 1 1s-.5 1-1 1-1-.5-1-1zm-10 0c0-.5.4-1 1-1 .5 0 1 .5 1 1s-.5 1-1 1-1-.5-1-1zm-10 0c0-.5.4-1 1-1s1 .5 1 1-.4 1-1 1c-.5 0-1-.5-1-1zm-10 0c0-.5.4-1 1-1 .5 0 1 .5 1 1s-.5 1-1 1-1-.5-1-1zm-10 0c0-.5.4-1 1-1 .5 0 1 .5 1 1s-.5 1-1 1c-.6 0-1-.5-1-1zm-10 0c0-.5.4-1 1-1 .5 0 1 .5 1 1s-.5 1-1 1c-.6 0-1-.5-1-1zm-10 0c0-.5.4-1 1-1 .5 0 1 .5 1 1s-.5 1-1 1c-.6 0-1-.5-1-1zm-10 0c0-.5.4-1 1-1 .5 0 1 .5 1 1s-.5 1-1 1c-.6 0-1-.5-1-1zm-10 0c0-.5.4-1 1-1 .5 0 1 .5 1 1s-.5 1-1 1c-.6 0-1-.5-1-1zm-10 0c0-.5.4-1 1-1 .5 0 1 .5 1 1s-.5 1-1 1c-.6 0-1-.5-1-1zm-10.1 0c0-.5.4-1 1-1 .5 0 1 .5 1 1s-.5 1-1 1-1-.5-1-1zm-10 0c0-.5.4-1 1-1 .5 0 1 .5 1 1s-.5 1-1 1-1-.5-1-1zm-10 0c0-.5.4-1 1-1s1 .5 1 1-.4 1-1 1c-.5 0-1-.5-1-1zm-10 0c0-.5.4-1 1-1 .5 0 1 .5 1 1s-.5 1-1 1-1-.5-1-1zm-10 0c0-.5.4-1 1-1s1 .5 1 1-.4 1-1 1-1-.5-1-1zm-10 0c0-.5.4-1 1-1 .5 0 1 .5 1 1s-.5 1-1 1c-.6 0-1-.5-1-1zm-10 0c0-.5.4-1 1-1s1 .5 1 1-.4 1-1 1-1-.5-1-1zm-10 0c0-.5.4-1 1-1 .5 0 1 .5 1 1s-.5 1-1 1c-.6 0-1-.5-1-1z"/><path class="st1" d="M3.1 289.7c-.5-.3-.6-.9-.4-1.4.3-.5.9-.6 1.4-.4.5.3.6.9.4 1.4-.2.3-.5.5-.9.5-.2 0-.3 0-.5-.1zm493.5-8.6c-.3-.5-.1-1.1.4-1.4.5-.3 1.1-.1 1.4.4.3.5.1 1.1-.4 1.4-.2.1-.3.1-.5.1-.4 0-.7-.2-.9-.5zm-488.5 0c-.5-.3-.6-.9-.4-1.4.3-.5.9-.6 1.4-.4.5.3.6.9.4 1.4-.2.3-.5.5-.9.5-.2 0-.3 0-.5-.1zm483.5-8.6c-.3-.5-.1-1.1.4-1.4.5-.3 1.1-.1 1.4.4.3.5.1 1.1-.4 1.4-.2.1-.3.1-.5.1-.4 0-.7-.2-.9-.5zm-478.5-.1c-.5-.3-.6-.9-.4-1.4.3-.5.9-.6 1.4-.4.5.3.6.9.4 1.4-.2.3-.5.5-.9.5-.2.1-.4 0-.5-.1zm473.5-8.6c-.3-.5-.1-1.1.4-1.4.5-.3 1.1-.1 1.4.4.3.5.1 1.1-.4 1.4-.2.1-.3.1-.5.1-.4 0-.7-.2-.9-.5zm-468.5 0c-.5-.3-.6-.9-.4-1.4.3-.5.9-.6 1.4-.4.5.3.6.9.4 1.4-.2.3-.5.5-.9.5-.2 0-.4 0-.5-.1zm463.5-8.6c-.3-.5-.1-1.1.4-1.4.5-.3 1.1-.1 1.4.4.3.5.1 1.1-.4 1.4-.2.1-.3.1-.5.1-.4 0-.7-.2-.9-.5zm-458.5 0c-.5-.3-.6-.9-.4-1.4.3-.5.9-.6 1.4-.4.5.3.6.9.4 1.4-.2.3-.5.5-.9.5-.2 0-.4 0-.5-.1zm453.5-8.7c-.3-.5-.1-1.1.4-1.4.5-.3 1.1-.1 1.4.4.3.5.1 1.1-.4 1.4-.2.1-.3.1-.5.1-.3 0-.7-.1-.9-.5zm-448.6 0c-.5-.3-.6-.9-.4-1.4.3-.5.9-.7 1.4-.4.5.3.6.9.4 1.4-.2.3-.5.5-.9.5-.1.1-.3 0-.5-.1zm443.7-8.6c-.3-.5-.1-1.1.4-1.4.5-.3 1.1-.1 1.4.4.3.5.1 1.1-.4 1.4-.2.1-.3.1-.5.1-.4 0-.8-.2-.9-.5zm-438.7 0c-.5-.3-.6-.9-.4-1.4.3-.5.9-.6 1.4-.4.5.3.6.9.4 1.4-.2.3-.5.5-.9.5-.1 0-.3 0-.5-.1zm433.7-8.6c-.3-.5-.1-1.1.4-1.4.5-.3 1.1-.1 1.4.4.3.5.1 1.1-.4 1.4-.2.1-.3.1-.5.1-.4 0-.7-.2-.9-.5zm-428.7 0c-.5-.3-.6-.9-.4-1.4.3-.5.9-.6 1.4-.4.5.3.6.9.4 1.4-.2.3-.5.5-.9.5-.2 0-.3-.1-.5-.1zm423.7-8.7c-.3-.5-.1-1.1.4-1.4.5-.3 1.1-.1 1.4.4.3.5.1 1.1-.4 1.4-.2.1-.3.1-.5.1-.4 0-.7-.1-.9-.5zm-418.7 0c-.5-.3-.6-.9-.4-1.4.3-.5.9-.6 1.4-.4.5.3.6.9.4 1.4-.2.3-.5.5-.9.5-.2.1-.4 0-.5-.1zm413.7-8.6c-.3-.5-.1-1.1.4-1.4.5-.3 1.1-.1 1.4.4.3.5.1 1.1-.4 1.4-.2.1-.3.1-.5.1-.4 0-.7-.2-.9-.5zM48 212c-.5-.3-.6-.9-.4-1.4.3-.5.9-.7 1.4-.4.5.3.6.9.4 1.4-.2.3-.5.5-.9.5-.2 0-.4 0-.5-.1zm403.7-8.6c-.3-.5-.1-1.1.4-1.4.5-.3 1.1-.1 1.4.4.3.5.1 1.1-.4 1.4-.2.1-.3.1-.5.1-.4 0-.7-.2-.9-.5zm-398.7 0c-.5-.3-.7-.9-.4-1.4.3-.5.9-.6 1.4-.4.5.3.6.9.4 1.4-.2.3-.5.5-.9.5-.2 0-.4-.1-.5-.1zm393.7-8.7c-.3-.5-.1-1.1.4-1.4.5-.3 1.1-.1 1.4.4.3.5.1 1.1-.4 1.4-.2.1-.3.1-.5.1-.3 0-.7-.1-.9-.5zm-388.8 0c-.5-.3-.7-.9-.4-1.4.3-.5.9-.6 1.4-.4.5.3.6.9.4 1.4-.2.3-.5.5-.9.5-.1.1-.3 0-.5-.1zm383.9-8.6c-.3-.5-.1-1.1.4-1.4.5-.3 1.1-.1 1.4.4.3.5.1 1.1-.4 1.4-.2.1-.3.1-.5.1-.4 0-.8-.2-.9-.5zm-378.9 0c-.5-.3-.6-.9-.4-1.4.3-.5.9-.6 1.4-.4.5.3.6.9.4 1.4-.2.3-.5.5-.9.5-.1 0-.3 0-.5-.1zm373.4-8.1c-.3-.4-.3-1 .1-1.4.4-.4 1-.3 1.4.1.4.4.3 1-.1 1.4-.2.1-.4.2-.6.2-.3.1-.6-.1-.8-.3zm-367.9-.2c-.4-.4-.5-1-.1-1.4.3-.4 1-.5 1.4-.1.4.4.5 1 .1 1.4-.2.2-.5.4-.8.4l-.6-.3zm361-6.7c-.4-.4-.5-1-.1-1.4.3-.4 1-.5 1.4-.2.4.4.5 1 .2 1.4-.2.2-.5.4-.8.4-.3 0-.6 0-.7-.2zm-354-.4c-.4-.4-.3-1.1.2-1.4.4-.3 1.1-.3 1.4.2.3.4.3 1.1-.2 1.4-.2.1-.4.2-.6.2-.3-.1-.6-.2-.8-.4zm345.8-4.9c-.5-.3-.7-.9-.4-1.4.2-.5.9-.7 1.3-.4.5.3.7.9.4 1.4-.2.3-.5.5-.9.5-.1 0-.2-.1-.4-.1zm-337.6-.7c-.2-.5-.1-1.1.4-1.3.5-.3 1.1-.1 1.3.4.2.5.1 1.1-.4 1.4-.2.1-.3.1-.5.1s-.6-.2-.8-.6zm328.6-3c-.5-.2-.8-.7-.7-1.2.1-.5.7-.8 1.2-.7.5.2.8.7.7 1.2-.1.4-.5.7-1 .7h-.2zm-319.4-.8c-.1-.5.2-1.1.7-1.2.5-.2 1.1.2 1.2.7.1.5-.1 1.1-.7 1.2h-.3c-.3 0-.8-.3-.9-.7zm309.8-1c-.6 0-1-.5-.9-1.1 0-.5.5-1 1.1-.9.5 0 1 .5.9 1.1-.1.5-.5.9-1.1.9zm-300-1c0-.5.4-1 .9-1.1.5 0 1 .4 1.1.9 0 .5-.4 1-.9 1.1h-.1c-.5.1-1-.4-1-.9zm289.1-.2c0-.5.4-1 1-1s1 .5 1 1-.4 1-1 1c-.5 0-1-.5-1-1zm-10 0c0-.5.5-1 1-1 .6 0 1 .5 1 1s-.4 1-1 1c-.5 0-1-.5-1-1zm-9.9 0c0-.5.4-1 1-1s1 .5 1 1-.5 1-1 1c-.6 0-1-.5-1-1zm-10 0c0-.5.5-1 1-1 .6 0 1 .5 1 1s-.4 1-1 1-1-.5-1-1zm-10 0c0-.5.5-1 1-1 .6 0 1 .5 1 1s-.4 1-1 1c-.5 0-1-.5-1-1zm-9.9 0c0-.5.5-1 1-1 .6 0 1 .5 1 1s-.4 1-1 1-1-.5-1-1zm-10 0c0-.5.5-1 1-1 .6 0 1 .5 1 1s-.4 1-1 1-1-.5-1-1zm-10 0c0-.5.4-1 1-1s1 .5 1 1-.4 1-1 1c-.5 0-1-.5-1-1zm-10 0c0-.5.5-1 1-1 .6 0 1 .5 1 1s-.4 1-1 1c-.5 0-1-.5-1-1zm-9.9 0c0-.5.4-1 1-1s1 .5 1 1-.5 1-1 1c-.6 0-1-.5-1-1zm-10 0c0-.5.5-1 1-1 .6 0 1 .5 1 1s-.4 1-1 1c-.5 0-1-.5-1-1zm-10 0c0-.5.5-1 1-1 .6 0 1 .5 1 1s-.4 1-1 1c-.5 0-1-.5-1-1zm-9.9 0c0-.5.5-1 1-1 .6 0 1 .5 1 1s-.4 1-1 1-1-.5-1-1zm-10 0c0-.5.5-1 1-1 .6 0 1 .5 1 1s-.4 1-1 1-1-.5-1-1zm-10 0c0-.5.4-1 1-1s1 .5 1 1-.4 1-1 1c-.5 0-1-.5-1-1zm-9.9 0c0-.5.4-1 1-1s1 .5 1 1-.4 1-1 1-1-.5-1-1zm-10 0c0-.5.5-1 1-1s1 .5 1 1-.4 1-1 1-1-.5-1-1zm-10 0c0-.5.4-1 1-1s1 .5 1 1-.4 1-1 1c-.5 0-1-.5-1-1zm-9.9 0c0-.5.4-1 1-1s1 .5 1 1-.5 1-1 1c-.6 0-1-.5-1-1zm-10 0c0-.5.4-1 1-1s1 .5 1 1-.5 1-1 1c-.6 0-1-.5-1-1zm-10 0c0-.5.4-1 1-1s1 .5 1 1-.4 1-1 1c-.5 0-1-.5-1-1zm-10 0c0-.5.4-1 1-1s1 .5 1 1-.5 1-1 1-1-.5-1-1zm-9.9 0c0-.5.4-1 1-1s1 .5 1 1-.4 1-1 1-1-.5-1-1zm-10 0c0-.5.5-1 1-1s1 .5 1 1-.4 1-1 1-1-.5-1-1zm-10 0c0-.5.4-1 1-1s1 .5 1 1-.4 1-1 1c-.5 0-1-.5-1-1zm-9.9 0c0-.5.5-1 1-1s1 .5 1 1-.4 1-1 1-1-.5-1-1zm-10 0c0-.5.4-1 1-1s1 .5 1 1-.5 1-1 1c-.6 0-1-.5-1-1zm-10 0c0-.5.4-1 1-1s1 .5 1 1-.5 1-1 1-1-.5-1-1zm-9.9 0c0-.5.4-1 1-1s1 .5 1 1-.5 1-1 1c-.6 0-1-.5-1-1z"/><path class="st2" d="M3.4 186.4c-.5-.3-.6-.9-.4-1.4.3-.5.9-.6 1.4-.4.5.3.6.9.4 1.4-.2.3-.5.5-.9.5-.2.1-.3 0-.5-.1zm5-8.6c-.5-.3-.6-.9-.4-1.4.3-.5.9-.6 1.4-.4.5.3.6.9.4 1.4-.2.3-.5.5-.9.5-.2 0-.3 0-.5-.1zm485.1-5.4c-.3-.5-.1-1.1.4-1.4.5-.3 1.1-.1 1.4.4.3.5.1 1.1-.4 1.4-.1.1-.3.1-.5.1-.4 0-.8-.2-.9-.5zm-480.1-3.3c-.5-.3-.6-.9-.4-1.4.3-.5.9-.6 1.4-.4.5.3.6.9.4 1.4-.2.3-.5.5-.9.5-.2.1-.3 0-.5-.1zm475.1-5.4c-.3-.5-.1-1.1.4-1.4.5-.3 1.1-.1 1.4.4.3.5.1 1.1-.4 1.4-.2.1-.3.1-.5.1-.4 0-.8-.1-.9-.5zm-470.1-3.2c-.5-.3-.6-.9-.4-1.4.3-.5.9-.6 1.4-.4.5.3.6.9.4 1.4-.2.3-.5.5-.9.5-.2 0-.3-.1-.5-.1zm465.1-5.4c-.3-.5-.1-1.1.4-1.4.5-.3 1.1-.1 1.4.4.3.5.1 1.1-.4 1.4-.2.1-.3.1-.5.1-.4 0-.8-.2-.9-.5zm-460.1-3.3c-.5-.3-.6-.9-.4-1.4.3-.5.9-.6 1.4-.4.5.3.6.9.4 1.4-.2.3-.5.5-.9.5-.2 0-.3 0-.5-.1zm455.1-5.4c-.3-.5-.1-1.1.4-1.4.5-.3 1.1-.1 1.4.4.3.5.1 1.1-.4 1.4-.2.1-.3.1-.5.1-.4 0-.8-.2-.9-.5zm-450.1-3.3c-.5-.3-.6-.9-.4-1.4.3-.5.9-.6 1.4-.4.5.3.6.9.4 1.4-.2.3-.5.5-.9.5-.2.1-.3 0-.5-.1zm445.1-5.3c-.3-.5-.1-1.1.4-1.4.5-.3 1.1-.1 1.4.4.3.5.1 1.1-.4 1.4-.2.1-.3.1-.5.1-.4 0-.8-.2-.9-.5zm-440-3.3c-.5-.3-.6-.9-.3-1.4.3-.5.9-.6 1.4-.3.5.3.6.9.3 1.4-.2.3-.5.4-.8.4-.3.1-.5 0-.6-.1zm434.4-4.8c-.4-.4-.3-1 .1-1.4.4-.4 1-.3 1.4.1.3.4.3 1.1-.1 1.4-.2.2-.4.2-.6.2-.3 0-.6-.1-.8-.3zm-428.3-3.1c-.4-.4-.4-1 0-1.4.4-.4 1-.4 1.4 0 .4.4.4 1 0 1.4-.2.2-.5.3-.7.3-.3 0-.5-.1-.7-.3zm421.4-4c-.4-.4-.5-1-.1-1.4.4-.4 1-.5 1.4-.1.4.4.5 1 .1 1.4-.2.2-.5.4-.8.4-.2 0-.4-.1-.6-.3zm-414.1-2.8c-.3-.4-.2-1.1.2-1.4.4-.3 1.1-.2 1.4.2.3.4.2 1.1-.2 1.4-.2.1-.4.2-.6.2-.3 0-.6-.1-.8-.4zm406.2-2.9c-.5-.3-.6-.9-.3-1.4.3-.5.9-.6 1.4-.3.5.3.6.9.3 1.4-.2.3-.5.5-.9.5-.2-.1-.4-.1-.5-.2zm-397.8-2.5c-.3-.5-.1-1.1.4-1.3.5-.2 1.1-.1 1.3.4.2.5.1 1.1-.4 1.3-.1.1-.3.1-.4.1-.4.1-.7-.1-.9-.5zm389-1.9c-.5-.2-.8-.8-.6-1.3.2-.5.8-.8 1.3-.6.5.2.8.8.6 1.3-.2.4-.5.6-.9.6-.2.1-.3.1-.4 0zm-379.8-2c-.2-.5.1-1.1.7-1.3.5-.2 1.1.1 1.2.7.2.5-.1 1.1-.6 1.2h-.3c-.5.1-.9-.2-1-.6zm370.4-.8c-.5-.1-.9-.6-.8-1.2.1-.5.6-.9 1.2-.8.5.1.9.6.8 1.2-.1.5-.5.8-1 .8h-.2zm-360.7-1.6c-.1-.5.3-1 .9-1.1.5-.1 1 .3 1.1.9.1.5-.3 1-.9 1.1h-.1c-.5 0-.9-.4-1-.9zm350.9.4c-.5 0-1-.5-1-1 0-.6.5-1 1-1 .6 0 1 .5 1 1 0 .6-.4 1-1 1zm-10.9-1c0-.6.5-1 1-1 .6 0 1 .4 1 1 0 .5-.4 1-1 1s-1-.5-1-1zm-10 0c0-.6.5-1 1-1 .6 0 1 .4 1 1 0 .5-.4 1-1 1s-1-.5-1-1zm-10 0c0-.6.5-1 1-1 .6 0 1 .4 1 1 0 .5-.4 1-1 1s-1-.5-1-1zm-10 0c0-.6.5-1 1-1 .6 0 1 .4 1 1 0 .5-.4 1-1 1s-1-.5-1-1zm-10 0c0-.6.5-1 1-1 .6 0 1 .4 1 1 0 .5-.4 1-1 1s-1-.5-1-1zm-10 0c0-.6.5-1 1-1 .6 0 1 .4 1 1 0 .5-.4 1-1 1s-1-.5-1-1zm-10 0c0-.6.5-1 1-1 .6 0 1 .4 1 1 0 .5-.4 1-1 1s-1-.5-1-1zm-10 0c0-.6.5-1 1-1 .6 0 1 .4 1 1 0 .5-.4 1-1 1s-1-.5-1-1zm-10 0c0-.6.5-1 1-1 .6 0 1 .4 1 1 0 .5-.4 1-1 1s-1-.5-1-1zm-10 0c0-.6.5-1 1-1 .6 0 1 .4 1 1 0 .5-.4 1-1 1s-1-.5-1-1zm-10 0c0-.6.5-1 1-1 .6 0 1 .4 1 1 0 .5-.4 1-1 1s-1-.5-1-1zm-10 0c0-.6.5-1 1-1 .6 0 1 .4 1 1 0 .5-.4 1-1 1s-1-.5-1-1zm-10 0c0-.6.5-1 1-1 .6 0 1 .4 1 1 0 .5-.4 1-1 1s-1-.5-1-1zm-10 0c0-.6.4-1 1-1s1 .4 1 1c0 .5-.4 1-1 1s-1-.5-1-1zm-10 0c0-.6.5-1 1-1 .6 0 1 .4 1 1 0 .5-.4 1-1 1s-1-.5-1-1zm-10 0c0-.6.5-1 1-1 .6 0 1 .4 1 1 0 .5-.4 1-1 1s-1-.5-1-1zm-10 0c0-.6.5-1 1-1s1 .4 1 1c0 .5-.4 1-1 1s-1-.5-1-1zm-10 0c0-.6.4-1 1-1s1 .4 1 1c0 .5-.4 1-1 1s-1-.5-1-1zm-10 0c0-.6.4-1 1-1s1 .4 1 1c0 .5-.4 1-1 1s-1-.5-1-1zm-10 0c0-.6.4-1 1-1s1 .4 1 1c0 .5-.4 1-1 1s-1-.5-1-1zm-10 0c0-.6.4-1 1-1s1 .4 1 1c0 .5-.4 1-1 1s-1-.5-1-1zm-10 0c0-.6.4-1 1-1s1 .4 1 1c0 .5-.4 1-1 1s-1-.5-1-1zm-10 0c0-.6.4-1 1-1s1 .4 1 1c0 .5-.4 1-1 1s-1-.5-1-1zm-10 0c0-.6.4-1 1-1s1 .4 1 1c0 .5-.4 1-1 1s-1-.5-1-1zm-10 0c0-.6.4-1 1-1s1 .4 1 1c0 .5-.4 1-1 1s-1-.5-1-1zm-10 0c0-.6.4-1 1-1s1 .4 1 1c0 .5-.4 1-1 1s-1-.5-1-1zm-10 0c0-.6.4-1 1-1s1 .4 1 1c0 .5-.4 1-1 1s-1-.5-1-1zm-10 0c0-.6.4-1 1-1s1 .4 1 1c0 .5-.4 1-1 1s-1-.5-1-1zm-10 0c0-.6.4-1 1-1s1 .4 1 1c0 .5-.4 1-1 1s-1-.5-1-1zm-10 0c0-.6.4-1 1-1s1 .4 1 1c0 .5-.4 1-1 1s-1-.5-1-1zm-10 0c0-.6.4-1 1-1s1 .4 1 1c0 .5-.4 1-1 1s-1-.5-1-1zm-10 0c0-.6.4-1 1-1s1 .4 1 1c0 .5-.4 1-1 1s-1-.5-1-1zm-10 0c0-.6.4-1 1-1s1 .4 1 1c0 .5-.4 1-1 1s-1-.5-1-1zm-10 0c0-.6.4-1 1-1s1 .4 1 1c0 .5-.4 1-1 1s-1-.5-1-1z"/><path class="st3" d="M5.4 81.5c-.4-.4-.5-1-.1-1.4.3-.4 1-.5 1.4-.1.4.4.5 1 .1 1.4-.2.2-.5.4-.8.4l-.6-.3zm487.9-6.7c-.4-.4-.4-1-.1-1.4.4-.4 1-.4 1.4-.1.4.4.4 1 .1 1.4-.2.2-.5.3-.7.3-.2.1-.5 0-.7-.2zm-481.1-.6c-.4-.4-.3-1 .1-1.4.4-.4 1-.3 1.4.1.4.4.3 1-.1 1.4-.2.2-.4.3-.7.3-.2-.1-.5-.2-.7-.4zm473.4-5.5c-.5-.3-.6-.9-.3-1.4.3-.4.9-.6 1.4-.3.5.3.6.9.3 1.4-.2.3-.5.4-.8.4-.2 0-.4 0-.6-.1zM20 67.9c-.3-.5-.2-1.1.3-1.4.5-.3 1.1-.2 1.4.3.3.5.2 1.1-.3 1.4-.2.1-.4.2-.5.2-.4 0-.7-.2-.9-.5zm457.1-4.2c-.5-.2-.7-.8-.5-1.3.2-.5.8-.7 1.3-.5.5.2.7.8.5 1.3-.2.4-.5.6-.9.6-.1 0-.2 0-.4-.1zm-448.5-.8c-.2-.5 0-1.1.5-1.3.5-.2 1.1 0 1.3.5.2.5 0 1.1-.5 1.3-.1.1-.3.1-.4.1-.3 0-.7-.2-.9-.6zM468 60.1c-.5-.2-.8-.7-.7-1.2.2-.5.7-.8 1.2-.7.5.2.8.7.7 1.2-.1.4-.5.7-1 .7 0 .1-.1.1-.2 0zm-430.1-.9c-.2-.5.1-1.1.7-1.2.5-.2 1.1.1 1.2.7.2.5-.1 1.1-.7 1.2h-.3c-.4 0-.8-.3-.9-.7zm420.5-1.3c-.5-.1-.9-.6-.8-1.1.1-.5.6-.9 1.1-.8.6.1.9.6.8 1.1-.1.5-.5.8-1 .8h-.1zm-410.8-1c-.1-.5.3-1 .9-1.1.6-.1 1.1.3 1.1.9.1.5-.3 1-.8 1.1h-.1c-.6 0-1-.4-1.1-.9zm401 .2c-.5 0-1-.5-1-1s.5-1 1-1 1 .5 1 1-.5 1-1 1zm-11-1c0-.6.4-1 1-1 .5 0 1 .4 1 1 0 .5-.5 1-1 1-.6 0-1-.5-1-1zm-10 0c0-.6.4-1 1-1 .5 0 1 .4 1 1 0 .5-.5 1-1 1-.6 0-1-.5-1-1zm-10 0c0-.6.4-1 1-1 .5 0 1 .4 1 1 0 .5-.5 1-1 1-.6 0-1-.5-1-1zm-10 0c0-.6.4-1 1-1 .5 0 1 .4 1 1 0 .5-.5 1-1 1-.6 0-1-.5-1-1zm-10 0c0-.6.4-1 1-1 .5 0 1 .4 1 1 0 .5-.5 1-1 1-.6 0-1-.5-1-1zm-10 0c0-.6.4-1 1-1 .5 0 1 .4 1 1 0 .5-.5 1-1 1-.6 0-1-.5-1-1zm-10 0c0-.6.4-1 1-1 .5 0 1 .4 1 1 0 .5-.5 1-1 1-.6 0-1-.5-1-1zm-10 0c0-.6.4-1 1-1 .5 0 1 .4 1 1 0 .5-.5 1-1 1-.6 0-1-.5-1-1zm-10 0c0-.6.4-1 1-1 .5 0 1 .4 1 1 0 .5-.5 1-1 1-.6 0-1-.5-1-1zm-10 0c0-.6.4-1 1-1 .5 0 1 .4 1 1 0 .5-.5 1-1 1-.6 0-1-.5-1-1zm-10 0c0-.6.4-1 1-1 .5 0 1 .4 1 1 0 .5-.5 1-1 1-.6 0-1-.5-1-1zm-10 0c0-.6.4-1 1-1 .5 0 1 .4 1 1 0 .5-.5 1-1 1-.6 0-1-.5-1-1zm-10 0c0-.6.4-1 1-1 .5 0 1 .4 1 1 0 .5-.5 1-1 1-.6 0-1-.5-1-1zm-10 0c0-.6.4-1 1-1 .5 0 1 .4 1 1 0 .5-.5 1-1 1-.6 0-1-.5-1-1zm-10 0c0-.6.4-1 1-1 .5 0 1 .4 1 1 0 .5-.5 1-1 1-.6 0-1-.5-1-1zm-10 0c0-.6.4-1 1-1 .5 0 1 .4 1 1 0 .5-.5 1-1 1-.6 0-1-.5-1-1zm-10 0c0-.6.4-1 1-1 .5 0 1 .4 1 1 0 .5-.5 1-1 1-.6 0-1-.5-1-1zm-10 0c0-.6.4-1 1-1 .5 0 1 .4 1 1 0 .5-.5 1-1 1-.6 0-1-.5-1-1zm-10 0c0-.6.4-1 1-1 .5 0 1 .4 1 1 0 .5-.5 1-1 1-.6 0-1-.5-1-1zm-10 0c0-.6.5-1 1-1 .6 0 1 .4 1 1 0 .5-.4 1-1 1s-1-.5-1-1zm-10 0c0-.6.5-1 1-1 .6 0 1 .4 1 1 0 .5-.4 1-1 1s-1-.5-1-1zm-10 0c0-.6.5-1 1-1 .6 0 1 .4 1 1 0 .5-.4 1-1 1s-1-.5-1-1zm-10 0c0-.6.5-1 1-1 .6 0 1 .4 1 1 0 .5-.4 1-1 1s-1-.5-1-1zm-10 0c0-.6.5-1 1-1 .6 0 1 .4 1 1 0 .5-.4 1-1 1s-1-.5-1-1zm-10 0c0-.6.5-1 1-1 .6 0 1 .4 1 1 0 .5-.4 1-1 1s-1-.5-1-1zm-10 0c0-.6.5-1 1-1 .6 0 1 .4 1 1 0 .5-.4 1-1 1s-1-.5-1-1zm-10 0c0-.6.5-1 1-1 .6 0 1 .4 1 1 0 .5-.4 1-1 1s-1-.5-1-1zm-10 0c0-.6.5-1 1-1 .6 0 1 .4 1 1 0 .5-.4 1-1 1s-1-.5-1-1zm-10 0c0-.6.5-1 1-1 .6 0 1 .4 1 1 0 .5-.4 1-1 1s-1-.5-1-1zm-10 0c0-.6.5-1 1-1 .6 0 1 .4 1 1 0 .5-.4 1-1 1s-1-.5-1-1zm-10 0c0-.6.5-1 1-1 .6 0 1 .4 1 1 0 .5-.4 1-1 1s-1-.5-1-1zm-10 0c0-.6.5-1 1-1 .6 0 1 .4 1 1 0 .5-.4 1-1 1s-1-.5-1-1zm-10 0c0-.6.5-1 1-1 .6 0 1 .4 1 1 0 .5-.4 1-1 1s-1-.5-1-1zm-10 0c0-.6.5-1 1-1 .6 0 1 .4 1 1 0 .5-.4 1-1 1s-1-.5-1-1zm-10 0c0-.6.5-1 1-1 .6 0 1 .4 1 1 0 .5-.4 1-1 1s-1-.5-1-1zm-10 0c0-.6.5-1 1-1 .6 0 1 .4 1 1 0 .5-.4 1-1 1s-1-.5-1-1zm-10 0c0-.6.5-1 1-1 .6 0 1 .4 1 1 0 .5-.4 1-1 1s-1-.5-1-1zm-10 0c0-.6.5-1 1-1 .6 0 1 .4 1 1 0 .5-.4 1-1 1s-1-.5-1-1zm-10 0c0-.6.5-1 1-1 .6 0 1 .4 1 1 0 .5-.4 1-1 1s-1-.5-1-1z"/><path class="st4" d="M2.5 11c-.2-.5 0-1.1.5-1.3.5-.2 1.1 0 1.3.5.2.5 0 1.1-.5 1.3-.1.1-.3.1-.4.1-.3 0-.7-.2-.9-.6zm9.4-3.4c-.1-.5.2-1.1.7-1.2.5-.2 1.1.2 1.2.7.1.5-.2 1.1-.7 1.2h-.3c-.3 0-.8-.3-.9-.7zm480.3.4c-.5-.1-.8-.7-.7-1.2.1-.5.7-.8 1.2-.7.5.1.8.7.7 1.2-.1.4-.5.7-1 .7h-.2zM21.7 5.4c-.1-.6.3-1.1.9-1.1.5-.1 1 .3 1.1.9.1.5-.3 1-.9 1.1h-.1c-.5 0-1-.4-1-.9zm460.8.7c-.5-.1-.9-.6-.9-1.1.1-.5.6-.9 1.1-.9.5.1.9.6.9 1.1-.1.5-.5.9-1 .9h-.1zM31.6 4.5c0-.6.4-1 1-1 .5 0 1 .4 1 1s-.4 1-1 1c-.5 0-1-.5-1-1zm440 0c0-.6.4-1 1-1s1 .4 1 1c0 .5-.4 1-1 1-.5 0-1-.5-1-1zm-10 0c0-.6.4-1 1-1s1 .4 1 1c0 .5-.4 1-1 1-.5 0-1-.5-1-1zm-10 0c0-.6.4-1 1-1s1 .4 1 1c0 .5-.4 1-1 1-.5 0-1-.5-1-1zm-10 0c0-.6.4-1 1-1 .5 0 1 .4 1 1 0 .5-.5 1-1 1s-1-.5-1-1zm-10 0c0-.6.4-1 1-1 .5 0 1 .4 1 1 0 .5-.5 1-1 1s-1-.5-1-1zm-10 0c0-.6.4-1 1-1s1 .4 1 1c0 .5-.4 1-1 1-.5 0-1-.5-1-1zm-10 0c0-.6.4-1 1-1s1 .4 1 1c0 .5-.4 1-1 1-.5 0-1-.5-1-1zm-10 0c0-.6.4-1 1-1 .5 0 1 .4 1 1 0 .5-.5 1-1 1s-1-.5-1-1zm-10 0c0-.6.4-1 1-1 .5 0 1 .4 1 1 0 .5-.5 1-1 1s-1-.5-1-1zm-10 0c0-.6.4-1 1-1 .5 0 1 .4 1 1 0 .5-.5 1-1 1s-1-.5-1-1zm-10 0c0-.6.4-1 1-1s1 .4 1 1c0 .5-.4 1-1 1-.5 0-1-.5-1-1zm-10 0c0-.6.4-1 1-1s1 .4 1 1c0 .5-.4 1-1 1-.5 0-1-.5-1-1zm-10 0c0-.6.4-1 1-1 .5 0 1 .4 1 1 0 .5-.5 1-1 1s-1-.5-1-1zm-10 0c0-.6.4-1 1-1 .5 0 1 .4 1 1 0 .5-.5 1-1 1s-1-.5-1-1zm-10 0c0-.6.4-1 1-1s1 .4 1 1c0 .5-.4 1-1 1-.5 0-1-.5-1-1zm-10 0c0-.6.4-1 1-1s1 .4 1 1c0 .5-.4 1-1 1-.5 0-1-.5-1-1zm-10 0c0-.6.4-1 1-1 .5 0 1 .4 1 1 0 .5-.5 1-1 1s-1-.5-1-1zm-10 0c0-.6.4-1 1-1 .5 0 1 .4 1 1 0 .5-.5 1-1 1s-1-.5-1-1zm-10 0c0-.6.4-1 1-1 .5 0 1 .4 1 1 0 .5-.5 1-1 1s-1-.5-1-1zm-10 0c0-.6.4-1 1-1s1 .4 1 1c0 .5-.4 1-1 1-.5 0-1-.5-1-1zm-10 0c0-.6.4-1 1-1s1 .4 1 1c0 .5-.4 1-1 1-.5 0-1-.5-1-1zm-10 0c0-.6.4-1 1-1 .5 0 1 .4 1 1 0 .5-.5 1-1 1s-1-.5-1-1zm-10 0c0-.6.4-1 1-1 .5 0 1 .4 1 1 0 .5-.5 1-1 1s-1-.5-1-1zm-10 0c0-.6.5-1 1-1s1 .4 1 1c0 .5-.4 1-1 1-.5 0-1-.5-1-1zm-10 0c0-.6.5-1 1-1 .6 0 1 .4 1 1 0 .5-.4 1-1 1-.5 0-1-.5-1-1zm-10 0c0-.6.5-1 1-1 .6 0 1 .4 1 1 0 .5-.4 1-1 1-.5 0-1-.5-1-1zm-10 0c0-.6.5-1 1-1 .6 0 1 .4 1 1 0 .5-.4 1-1 1-.5 0-1-.5-1-1zm-10 0c0-.6.4-1 1-1s1 .4 1 1c0 .5-.4 1-1 1-.5 0-1-.5-1-1zm-10 0c0-.6.5-1 1-1 .6 0 1 .4 1 1 0 .5-.4 1-1 1-.5 0-1-.5-1-1zm-10 0c0-.6.5-1 1-1 .6 0 1 .4 1 1 0 .5-.4 1-1 1-.5 0-1-.5-1-1zm-10 0c0-.6.5-1 1-1 .6 0 1 .4 1 1 0 .5-.4 1-1 1-.5 0-1-.5-1-1zm-10 0c0-.6.5-1 1-1 .6 0 1 .4 1 1 0 .5-.4 1-1 1-.5 0-1-.5-1-1zm-10 0c0-.6.5-1 1-1 .6 0 1 .4 1 1 0 .5-.4 1-1 1-.5 0-1-.5-1-1zm-10 0c0-.6.5-1 1-1 .6 0 1 .4 1 1 0 .5-.4 1-1 1-.5 0-1-.5-1-1zm-10 0c0-.6.5-1 1-1 .6 0 1 .4 1 1 0 .5-.4 1-1 1-.5 0-1-.5-1-1zm-10 0c0-.6.5-1 1-1 .6 0 1 .4 1 1 0 .5-.4 1-1 1-.5 0-1-.5-1-1zm-10 0c0-.6.5-1 1-1 .6 0 1 .4 1 1 0 .5-.4 1-1 1-.5 0-1-.5-1-1zm-10 0c0-.6.5-1 1-1 .6 0 1 .4 1 1 0 .5-.4 1-1 1-.5 0-1-.5-1-1zm-10 0c0-.6.5-1 1-1 .6 0 1 .4 1 1 0 .5-.4 1-1 1-.5 0-1-.5-1-1zm-10 0c0-.6.5-1 1-1 .6 0 1 .4 1 1 0 .5-.4 1-1 1-.5 0-1-.5-1-1zm-10 0c0-.6.5-1 1-1 .6 0 1 .4 1 1 0 .5-.4 1-1 1-.5 0-1-.5-1-1zm-10 0c0-.6.5-1 1-1 .6 0 1 .4 1 1 0 .5-.4 1-1 1-.5 0-1-.5-1-1zm-10 0c0-.6.5-1 1-1 .6 0 1 .4 1 1 0 .5-.5 1-1 1s-1-.5-1-1zm-10 0c0-.6.5-1 1-1 .6 0 1 .4 1 1 0 .5-.4 1-1 1-.5 0-1-.5-1-1z"/><circle class="st5" cx="356.6" cy="108.3" r="14.8"/><g class="st6"><circle class="st5" cx="375.6" cy="108.3" r="22.8"/></g><g class="st6"><circle class="st5" cx="308.6" cy="56" r="15.9"/></g><g class="st7"><path class="st8" d="M296.4 284.2c2.7 0 4.9.5 6.7 1.4s2.7 2 2.8 3.3v2.4H287v-2.4c.1-1.3 1-2.4 2.8-3.3s3.9-1.4 6.6-1.4zm0-11.8c1.3 0 2.4.5 3.3 1.4s1.3 2 1.3 3.3-.4 2.5-1.3 3.3-2 1.3-3.3 1.3-2.4-.4-3.3-1.3-1.3-2-1.3-3.3.4-2.5 1.3-3.3 2-1.4 3.3-1.4z"/></g><g class="st7"><path class="st8" d="M132 292.8c.7-1.1 1.6-1.9 2.9-2.2 1.2-.3 2.4-.1 3.6.5 1.2.7 1.9 1.6 2.2 2.8.3 1.2.2 2.4-.5 3.5s-1.6 1.9-2.8 2.2c-1.2.3-2.4.1-3.6-.5-1.2-.7-1.9-1.6-2.2-2.8-.4-1.1-.3-2.3.4-3.5zm10.2 5.9c1.4-2.3 2.9-4 4.5-5.1s3.1-1.3 4.2-.7l2.1 1.2-9.4 16.3-2.1-1.2c-1.1-.7-1.6-2.1-1.5-4 .2-2 .9-4.1 2.2-6.5z"/></g><g class="st7"><path class="st8" d="M210.3 285.6c1.8.9 2.7 2 2.8 3.3v2.4h-18.9v-2.4c.1-1.3 1-2.4 2.8-3.3s4-1.3 6.7-1.4c2.6 0 4.8.5 6.6 1.4zm-3.4-11.8c.9.9 1.3 2 1.3 3.3s-.4 2.5-1.3 3.3-2 1.3-3.3 1.3-2.4-.4-3.3-1.3-1.3-2-1.3-3.3.4-2.5 1.3-3.3 2-1.3 3.3-1.4c1.3 0 2.4.5 3.3 1.4z"/></g><g class="st7"><path class="st8" d="M365.9 310.6c.1 2-.4 3.3-1.5 4.1l-2.1 1.2-9.4-16.4 2.1-1.2c1.2-.6 2.6-.3 4.3.7 1.7 1.1 3.2 2.8 4.5 5.1 1.3 2.3 2 4.5 2.1 6.5zm8.6-8.8c-.3 1.2-1.1 2.2-2.2 2.8-1.2.7-2.4.8-3.6.5s-2.1-1.1-2.8-2.2-.8-2.3-.5-3.5 1.1-2.1 2.2-2.8c1.2-.7 2.4-.8 3.6-.5s2.2 1.1 2.9 2.2c.6 1.1.7 2.2.4 3.5z"/></g><path class="st9" d="M402 324c-.1-.1-.1-.2-.1-.3l-1.7-2.9c-.1-.1-.2-.2-.2-.3-.1-.1-.1-.2-.1-.3l-1.7-2.9c-.1-.1-.2-.2-.2-.3-.1-.1-.1-.2-.1-.3l-1.7-2.9c-.1-.1-.2-.2-.2-.3-.1-.1-.1-.2-.1-.3l-1.6-2.9c-.1-.1-.2-.2-.2-.3-.1-.1-.1-.2-.1-.3l-1.7-2.9c-.1-.1-.2-.2-.2-.3-.1-.1-.1-.2-.1-.3l-1.6-2.9c-.1-.1-.2-.2-.2-.3-.1-.1-.1-.2-.1-.3l-1.6-2.8c-.1-.1-.2-.2-.2-.3-.1-.1-.1-.2-.1-.4l-1.6-2.8-.3-.3c-.1-.1-.1-.2-.1-.4l-1.6-2.8-.3-.3c-.1-.1-.1-.3-.1-.4l-1.6-2.8-.3-.3c-.1-.1-.1-.2-.1-.4l-.4-.6-1.2-2.2-.3-.3c-.1-.1-.1-.3-.1-.4l-1.6-2.8-.3-.3c-.1-.1-.1-.3-.1-.4l-1.6-2.7v-.1l-.3-.3c-.1-.1-.1-.2-.1-.3l-1.8-2.7c-.1-.1-.2-.1-.2-.2-.1-.1-.1-.2-.1-.3-.7-.9-1.4-1.7-2.2-2.5-.1 0-.2-.1-.2-.1-.1-.1-.1-.2-.2-.3-.8-.8-1.6-1.5-2.5-2.2-.1 0-.1-.1-.2-.1l-.2-.2c-.9-.7-1.8-1.4-2.8-2-.1 0-.1 0-.2-.1l-.1-.1c-1-.6-2.1-1.2-3.2-1.7h-.1l-.1-.1c-1.1-.5-2.3-1-3.5-1.3h-.1c-1.2-.4-2.4-.7-3.7-.9-1.2-.2-2.5-.4-3.8-.5h-.1c-.7 0-1.4-.1-2.1-.1H157c-11.5 0-22.1 6.2-27.8 16.1l-.1.2-5 8.7-5 8.6-5 8.6v.1l-5 8.6v.1l-.1.1-5 8.6-.8 1.4h299.4l-.1-.2c-.3.3-.4.3-.5.2z"/><path class="st5" d="M371.5 273l-.4-.4c0 .1.1.2.2.3.1 0 .1 0 .2.1zm2.6 2.9c-.1-.2-.3-.3-.4-.5 0 .1.1.2.1.3.1.1.2.2.3.2zm26.2 44.9l-.3-.6c0 .1 0 .2.1.3 0 .1.1.2.2.3zm-31.7-50.5c-.1-.1-.2-.2-.4-.3 0 .1.1.1.2.2s.2.1.2.1zm7.7 8.9c-.1-.2-.2-.4-.4-.6 0 .1.1.2.1.3.1.2.2.3.3.3zm-25.6-15.9s-.1 0 0 0c-.1 0-.1 0 0 0zm3.8.5zm3.8 1h-.1c0-.1 0-.1.1 0 0-.1 0-.1 0 0zm7 3.2c.1 0 .1.1.2.1-.1-.1-.2-.1-.2-.1-.1-.1-.1 0 0 0zm-3.4-1.8c-.1 0-.1 0-.2-.1.1 0 .1 0 .2.1zm40.4 58l-.3-.6c0 .1 0 .2.1.3 0 .2.1.2.2.3zM382 289.3l.3.3-.4-.7c0 .2 0 .3.1.4zm-249-18.2c-.1 0-.2.1-.3.2s-.2.2-.2.4c.1-.2.3-.4.5-.6zm251 21.7l.3.3-.4-.7c0 .1 0 .3.1.4zm2 3.5l.3.3-.4-.7c0 .1 0 .2.1.4zm-6-10.4l.3.3-.4-.7c0 .1 0 .2.1.4zm-2-3.5l.3.3-.4-.7c0 .2 0 .3.1.4zm14.3 24.5l-.3-.6c0 .1.1.2.1.3 0 .1.1.2.2.3zm4 6.9l-.3-.6c0 .1.1.2.1.3 0 .2.1.3.2.3zm-2-3.4l-.4-.6c0 .1.1.2.1.3l.3.3zm-4-6.9l-.4-.6c0 .1.1.2.1.3l.3.3zm-2-3.5l-.4-.7c0 .1.1.3.1.4l.3.3zm10 17.3l-.3-.6c0 .1 0 .2.1.3 0 .1.1.2.2.3zm-294.7 2.1c-.1.1-.1.2-.1.3l.3-.6c-.1.1-.2.2-.2.3zm16-27.7c-.1.1-.1.2-.1.4l.4-.7c-.2 0-.2.1-.3.3zm27-28.9c-.1 0-.2.1-.2.1.2-.1.3-.1.5-.2-.1 0-.2 0-.3.1zm4-1s-.1 0-.1.1h.3c-.1-.1-.2-.1-.2-.1zm-27 22.9c-.1.1-.1.3-.1.4l.4-.7c-.2.1-.2.2-.3.3zm31-23.4c.1 0 .1 0 0 0zm-37 33.8c-.1.1-.1.2-.1.4l.4-.7c-.2.1-.2.2-.3.3zm25.1-30.8c-.1 0-.2.1-.3.2l.6-.3c-.1 0-.2 0-.3.1zm-17.1 17c-.1.1-.1.3-.1.4l.4-.7c-.2 0-.2.1-.3.3zm13.5-15.1l-.3.3c.2-.1.4-.3.7-.4-.2 0-.3 0-.4.1zm-17.5 22c-.1.1-.1.2-.1.4l.4-.7c-.2.1-.2.2-.3.3zm14.1-19.7l-.3.3c.2-.2.4-.3.6-.5-.1.1-.2.2-.3.2zm-28.1 43.9c-.1.1-.1.2-.1.3l.3-.6c-.1.2-.2.2-.2.3zm22.3-38c-.1.1-.1.2-.2.4.2-.2.3-.4.5-.6-.1 0-.2.1-.3.2zm-28.3 48.4c-.1.1-.1.2-.1.3l.3-.5c-.1.1-.2.1-.2.2zm4-6.9c-.1.1-.1.2-.1.3l.3-.6c-.1.1-.2.2-.2.3zm22-38.1c-.1.1-.1.3-.1.4.1-.2.3-.5.4-.7l-.3.3zm-18 31.2c-.1.1-.1.2-.1.3l.4-.6c-.2.1-.3.2-.3.3zm6-10.4c-.1.1-.1.2-.1.4l.4-.7c-.2.1-.2.2-.3.3zm-2 3.4c-.1.1-.1.2-.1.4l.4-.7c-.2.1-.2.2-.3.3zm-2 3.5c-.1.1-.1.2-.1.3l.4-.6c-.2.1-.3.2-.3.3zm22.1-35.1s-.1.1-.1.2c.1-.1.2-.2.3-.2-.1-.1-.2-.1-.2 0zm247.8 17.9zm-18.1-23.7s-.1 0 0 0c-.1 0 0 0 0 0zm-9.9-3c.1 0 0 0 0 0zm39.8 43.1zm10.1 17.5s0-.1 0 0zm-5-8.8s-.1 0 0 0c0 .1 0 .1 0 0zm-256.2-48.9l-.1.1c.1 0 .2-.1.3-.1h-.2zM388.3 296zm-5-8.7s-.1 0 0 0zm-11.4-16.8s-.1 0-.1-.1c0 .1.1.1.1.1zM114 305.6l-.1.1c0-.1 0-.1.1-.1-.1 0-.1 0 0 0zm15-26.1zm-5 8.7zm-5 8.7c-.1 0 0 0 0 0zm-10.1 17.4l-.1.1c.1 0 .1-.1.1-.1zm-5 8.7c-.1.1 0 0 0 0zm48.2-61.5c-.1 0-.1.1 0 0-.1.1 0 .1 0 0zm39.5.2c.2-.3.5-.5.9-.5h-1.7c.3 0 .6.2.8.5z"/><path class="st5" d="M122.3 287.2c.3-.5.9-.6 1.4-.4.5.3.6.9.4 1.3l5-8.7c-.2.3-.5.5-.9.5-.2 0-.3 0-.5-.1-.5-.3-.6-.9-.4-1.4 0-.1.1-.1.2-.2v-.1s0 .1-.1.1l-1.5 2.7c.3-.2.7-.3 1.1-.1.5.3.6.9.4 1.4-.2.3-.5.5-.9.5-.2 0-.3 0-.5-.1-.4-.2-.5-.6-.5-1l-1.6 2.8c.3-.2.7-.3 1.1-.1.5.3.6.9.4 1.4-.2.3-.5.5-.9.5-.2 0-.3 0-.5-.1-.4-.2-.5-.6-.5-1l-1.6 2.8c.1-.1.2-.1.3-.1-.1-.2 0-.4.1-.6zm160.7-26h-.3.3zm-9.2.6c.2-.3.5-.6.9-.6h-1.8c.4 0 .7.2.9.6zm-154.9 33c.5.3.6.9.4 1.4-.1.1-.1.2-.2.3 0 .2 0 .3-.1.5l5-8.6c-.1.2-.3.4-.5.4 0 .2 0 .4-.1.6-.2.3-.5.5-.9.5-.2 0-.3 0-.5-.1-.4-.2-.5-.6-.5-1l-1.6 2.8c.3-.2.7-.3 1.1-.1.5.3.6.9.4 1.4-.2.3-.5.5-.9.5-.2 0-.3 0-.5-.1-.4-.2-.5-.6-.5-1l-1.6 2.8c.3-.5.7-.5 1-.3zm160.8-32.6c0 .5-.4 1-1 1h4c-.5 0-1-.5-1-1s.5-1 1-1h-4c.6 0 1 .4 1 1zm-4 0c0 .5-.4 1-1 1h4c-.5 0-1-.5-1-1s.5-1 1-1h-4c.6 0 1 .4 1 1z"/><path class="st5" d="M112.1 305.1c0-.2 0-.3.1-.5.3-.5.9-.6 1.4-.4.5.3.6.9.4 1.3l5-8.6c-.2.3-.5.5-.8.5-.2 0-.3 0-.5-.1-.5-.3-.6-.9-.4-1.4.1-.1.1-.2.2-.3v-.1l-1.6 2.8c.3-.2.8-.3 1.1-.1.5.3.6.9.4 1.4-.2.3-.5.5-.9.5-.2 0-.3 0-.5-.1-.4-.2-.5-.6-.5-1l-1.6 2.8c.3-.2.8-.3 1.1-.1.5.3.6.9.4 1.4-.2.3-.5.5-.9.5-.2 0-.3 0-.5-.1-.4-.2-.5-.6-.5-1l-1.6 2.8c0-.1.1-.2.2-.2zm-8.3 18c-.1.2-.2.3-.4.4 0 .1 0 .3-.1.4-.2.3-.5.5-.9.5-.2 0-.4 0-.5-.1-.4-.2-.6-.6-.5-1.1l-.8 1.3h2.3l.9-1.4zm187.9-60.9c0 .5-.4 1-1 1h2.3c-.5 0-1-.5-1-1s.5-1 1-1h-2.3c.6 0 1 .4 1 1zm90.2 26.5c-.2-.1-.3-.2-.4-.4l.4.6v-.2zm-88-27c.2-.3.5-.5.8-.5H293c.4 0 .7.2.9.5zm-9.9.5c0 .5-.4 1-1 1h3.7c-.5 0-1-.5-1-1s.5-1 1-1H283c.5 0 1 .4 1 1zm-175 49.9c.5.3.6.9.4 1.4l-.3.3c0 .2 0 .3-.1.5l5-8.6c-.1.2-.3.3-.5.4 0 .2 0 .3-.1.5-.2.3-.5.5-.9.5-.2 0-.3 0-.5-.1-.4-.2-.5-.6-.5-1l-1.6 2.9c.3-.3.8-.3 1.1-.1.5.3.6.9.4 1.4-.2.3-.5.5-.9.5-.2 0-.3 0-.5-.1-.4-.2-.5-.6-.5-1l-1.7 2.9c.3-.6.8-.6 1.2-.4zm118.7-49.9c0 .5-.4 1-1 1h4c-.6 0-1-.5-1-1s.4-1 1-1h-4c.6 0 1 .4 1 1zm60 0c0 .5-.4 1-1 1h4c-.5 0-1-.5-1-1s.5-1 1-1h-4c.5 0 1 .4 1 1zM102 322.5c0-.1 0-.3.1-.4.3-.5.9-.6 1.4-.4.5.3.6.9.4 1.3l5-8.6c-.2.3-.5.4-.8.4-.2 0-.3 0-.5-.1-.5-.3-.6-.9-.4-1.4l.3-.3v-.2l-1.7 2.9c.3-.3.8-.3 1.1-.1.5.3.6.9.4 1.4-.2.3-.5.5-.9.5-.2 0-.3 0-.5-.1-.4-.2-.6-.6-.5-1l-1.7 2.9c.3-.3.8-.3 1.2-.1.5.3.6.9.4 1.4-.2.3-.5.5-.9.5-.2 0-.3 0-.5-.1-.4-.2-.6-.6-.5-1l-1.7 2.9c.2-.4.2-.4.3-.4zm91.4-60.3c0 .5-.4 1-1 1h2.3c-.6 0-1-.5-1-1s.4-1 1-1h-2.3c.6 0 1 .4 1 1zm42.3 0c0 .5-.4 1-1 1h4c-.6 0-1-.5-1-1s.4-1 1-1h-4c.6 0 1 .4 1 1zm-72 0c0 .5-.4 1-1 1h4c-.6 0-1-.5-1-1s.4-1 1-1h-4c.6 0 1 .4 1 1zm80 0c0 .5-.4 1-1 1h4c-.6 0-1-.5-1-1s.4-1 1-1h-4c.6 0 1 .4 1 1zm-81-1h-.5.5zm17 1c0 .5-.4 1-1 1h3.7c-.6 0-1-.5-1-1s.4-1 1-1h-3.7c.6 0 1 .4 1 1zm72 0c0 .5-.4 1-1 1h2.1c-.6 0-1-.5-1.1-1 .1-.5.5-1 1.1-1h-2.1c.6 0 1 .4 1 1zm-4 0c0 .5-.4 1-1 1h4c-.6 0-1-.5-1-1s.4-1 1-1h-4c.6 0 1 .4 1 1zm-88 0c0 .5-.4 1-1 1h3.5c-.5 0-1-.5-1-1s.5-1 1-1h-3.5c.6 0 1 .4 1 1zm80 0c0 .5-.4 1-1 1h4c-.6 0-1-.5-1-1s.4-1 1-1h-4c.6 0 1 .4 1 1zm-68.2-.6c.2-.3.5-.4.8-.4h-1.6c.3 0 .6.2.8.4zm1.8.6c0 .5-.4 1-1 1h2.4c-.6 0-1-.5-1-1s.4-1 1-1h-2.4c.6 0 1 .4 1 1zm-5.6 0c0 .5-.4 1-1 1h4c-.6 0-1-.5-1-1s.4-1 1-1h-4c.6 0 1 .4 1 1zm75-1z"/><path class="st5" d="M175.7 262.2c0 .5-.4 1-1 1h4c-.6 0-1-.5-1-1s.4-1 1-1h-4c.6 0 1 .4 1 1zm-24.3-.2c.1-.2.4-.4.6-.4-.4.1-.8.1-1.3.2.3 0 .5.1.7.2zm32.3.2c0 .5-.4 1-1 1h4c-.6 0-1-.5-1-1s.4-1 1-1h-4c.6 0 1 .4 1 1zm80.1 0c0 .5-.4 1-1 1h3.8c-.5 0-1-.5-1-1s.5-1 1-1h-3.8c.6 0 1 .4 1 1z"/><path class="st5" d="M129 277.4c.5.3.6.9.3 1.4 0 .1-.1.2-.2.2 0 .2 0 .3-.1.4l.1-.2c5.7-9.9 16.4-16.1 27.8-16.1h1.7c-.6 0-1-.5-1-1s.4-1 1-1H157c-.8 0-1.5 0-2.3.1.5 0 1 .4 1 .9s-.4 1-.9 1.1h-.1c-.5 0-1-.4-1-.9s.3-1 .9-1l-2.4.3c.5 0 1 .3 1.1.8s-.3 1-.9 1.1h-.1c-.2 0-.5-.1-.6-.2-.1.2-.4.4-.7.4h-.2c-.5 0-.9-.3-1-.8s.2-1 .7-1.1c-1.2.2-2.4.6-3.6.9.4 0 .8.3 1 .7.2.5-.1 1.1-.6 1.3h-.3c-.4 0-.8-.3-1-.7-.1-.4.1-.9.4-1.1-1.1.4-2.2.8-3.3 1.3.4 0 .8.2 1 .6.2.5 0 1.1-.5 1.3h-.2c-.1.1-.2.2-.3.2-.1.1-.3.1-.4.1-.4 0-.7-.2-.9-.6-.2-.5-.1-1 .4-1.2-.9.4-1.8.9-2.6 1.4.4-.1.8.1 1 .5.3.5.1 1.1-.3 1.4-.2.1-.3.2-.5.2-.3 0-.7-.2-.9-.5-.2-.4-.2-.8 0-1.1-.9.6-1.9 1.2-2.7 1.9.4-.1.8 0 1.1.3.3.4.3 1.1-.2 1.4-.2.2-.4.2-.6.2-.3 0-.6-.1-.8-.4-.3-.3-.3-.7-.1-1.1-.6.4-1.1.9-1.6 1.4.4-.2.9-.2 1.3.1.4.4.4 1 0 1.4-.2.2-.4.3-.7.3 0 .2-.1.4-.3.6s-.4.3-.7.3c-.2 0-.5-.1-.7-.3-.3-.3-.4-.7-.2-1-.8.8-1.5 1.6-2.2 2.5.3-.2.8-.2 1.1.1.4.3.5 1 .2 1.4-.2.2-.5.4-.8.4-.2 0-.4-.1-.6-.2-.3-.3-.4-.7-.3-1-.7.9-1.3 1.8-1.8 2.7-.1-.2.3-.3.7-.1z"/><path class="st5" d="M133.4 271c0-.2.1-.3.2-.5l-.6.6c.1-.1.2-.1.4-.1zm134.3-8.8c0 .5-.4 1-1 1h4c-.5 0-1-.5-1-1s.5-1 1-1h-4c.5 0 1 .4 1 1zm-36-.1c0-.5.5-.9 1-.9h-2c.5 0 .9.4 1 .9zm31.1-.9h-.2.2zm-7.1 1c0 .5-.4 1-1 1h4c-.5 0-1-.5-1-1s.5-1 1-1h-4c.5 0 1 .4 1 1zm-2-.2c.1-.4.5-.8 1-.8h-1.9c.5 0 .8.3.9.8zm-111.3 2.5zm40.3-3.3h-.3.3zm89 1c0 .5-.4 1-1 1h2.2c-.5 0-1-.5-1-1s.5-1 1-1h-2.2c.5 0 1 .4 1 1zm-12 0c0 .5-.4 1-1 1h4c-.5 0-1-.5-1-1s.5-1 1-1h-4c.6 0 1 .4 1 1zm-26 0c0 .5-.4 1-1 1h2c-.6 0-1-.5-1-1s.5-1 1-1h-2c.5 0 1 .4 1 1zm130.1 3.8c-.2.3-.5.6-.9.6-.1 0-.3 0-.4-.1-.1 0-.2-.1-.2-.2-.1 0-.2 0-.3-.1 1.1.5 2.2 1.1 3.2 1.7-.4-.3-.5-.9-.2-1.3.3-.5.9-.6 1.4-.3s.6.9.3 1.4c-.2.3-.5.5-.9.5-.1 0-.2 0-.3-.1 1 .6 1.9 1.3 2.8 2-.3-.4-.3-.9 0-1.2.3-.4 1-.5 1.4-.2.4.4.5 1 .2 1.4-.2.2-.5.4-.8.4-.1 0-.3 0-.4-.1.9.7 1.7 1.4 2.5 2.2-.1-.1-.1-.2-.1-.4-.2 0-.4-.1-.5-.2-.4-.4-.4-1 0-1.4.3-.4.9-.4 1.3-.1-2.5-2.3-5.3-4.3-8.3-5.8.3.2.5.8.2 1.3zm-90-3.4c-.2.3-.5.6-.9.6h1.8c-.4 0-.7-.2-.9-.6zm81.1-.8c.5.1.9.6.8 1.2-.1.5-.5.8-1 .8h-.2c1.2.2 2.5.6 3.7.9-.5-.2-.8-.7-.6-1.2.2-.5.7-.8 1.3-.6.5.2.8.7.6 1.3-.1.4-.5.7-1 .7h-.2c1.2.4 2.3.8 3.5 1.3-.4-.3-.6-.8-.4-1.3s.8-.7 1.3-.5c.1 0 .2.1.3.2.1 0 .2 0 .4.1-3.1-1.5-6.3-2.5-9.7-3 .2 0 .4.2.6.4.1-.3.3-.3.6-.3zm-72.1 1.4h-.1.3-.2zm89.9 8.2c.4.4.4 1 0 1.4-.2.2-.5.3-.7.3s-.3-.1-.5-.2c.8.8 1.5 1.6 2.2 2.5-.1-.4 0-.8.3-1.1.4-.3 1.1-.3 1.4.2.3.4.2 1.1-.2 1.4-.2.1-.4.2-.6.2s-.4-.1-.6-.2c.7.9 1.3 1.8 1.8 2.7-.1-.4.1-.8.5-1.1.5-.3 1.1-.1 1.4.4.1.1.1.2.1.3.2.1.3.2.4.4.3.5.1 1.1-.4 1.4-.2.1-.3.1-.5.1-.3 0-.7-.2-.9-.5-.1-.1-.1-.2-.1-.3l-.1-.1v.1l1.6 2.7c0-.4.1-.8.5-1 .5-.3 1.1-.1 1.4.4s.1 1.1-.4 1.4c-.2.1-.3.1-.5.1s-.4-.1-.6-.2l1.6 2.8c0-.4.1-.8.5-1 .5-.3 1.1-.1 1.4.4s.1 1.1-.4 1.4c-.1.1-.3.1-.5.1s-.4-.1-.6-.2l1.2 2.2c-.3-.5-.1-1.1.4-1.4s1.1-.1 1.4.3l-5.2-9c-1.7-2.9-3.7-5.5-6.1-7.7.1.2.2.4.2.6.3 0 .5.1.6.2zm10.7 16.6c.1.1.3.2.4.4.3.5.1 1.1-.4 1.4-.2.1-.3.1-.5.1s-.4-.1-.6-.2l1.6 2.8c0-.4.1-.8.5-1 .5-.3 1.1-.1 1.4.4s.1 1.1-.4 1.4c-.2.1-.3.1-.5.1s-.4-.1-.6-.2l1.6 2.8c-.1-.4.1-.8.5-1 .5-.3 1.1-.1 1.4.4.1.1.1.3.1.4.2.1.3.2.4.4l-5-8.7c.1 0 .1.3.1.5zm-120.6-24.8c-.1 0-.1 0 0 0zm31.1-.5c-.2.3-.5.5-.8.5h1.7c-.5 0-.8-.2-.9-.5zm29.1.4c-.1 0-.2.1-.3.1h.5c-.1 0-.2 0-.2-.1zm-69.3-.7c-.1.4-.5.8-1 .8h1.9c-.4 0-.8-.3-.9-.8zm89.6-1.2h-.6c.1 0 .2 0 .3.1.1-.1.2-.1.3-.1zm1 1c0 .5-.4 1-1 1h3.4c-.5 0-1-.5-1-1s.5-1 1-1h-3.4c.6 0 1 .4 1 1zm-30.4.6c-.2.2-.5.4-.8.4h1.5c-.2 0-.5-.2-.7-.4zm-11 .3h-.2.4c-.1.1-.1.1-.2 0zm-87.2-.9c0 .5-.4 1-1 1h4c-.6 0-1-.5-1-1s.4-1 1-1h-4c.6 0 1 .4 1 1zm172.2 35.2c-.2.1-.3.1-.5.1-.3 0-.7-.2-.9-.5-.1-.1-.1-.3-.1-.4-.1 0-.1-.1-.2-.1l1.6 2.8c-.1-.4.1-.8.5-1 .5-.3 1.1-.1 1.4.4s.1 1.1-.4 1.4c-.2.1-.3.1-.5.1s-.4-.1-.6-.2l1.6 2.8c-.1-.4.1-.8.5-1 .5-.3 1.1-.1 1.4.4s.1 1.1-.4 1.4c-.2.1-.3.1-.5.1s-.4-.1-.6-.2l1.6 2.9v-.2l-.3-.3c-.3-.5-.1-1.1.4-1.4s1.1-.1 1.4.4l-5-8.7c.3.3.1.9-.4 1.2zm-196.3-34.7c-.2.3-.5.5-.9.5h1.7c-.3 0-.7-.2-.8-.5zm-9.1.5h-.2.2zm20.1 0h-.1.1zm200.9 59.5l.3.3c.3.5.1 1.1-.4 1.4-.2.1-.3.1-.5.1h1.8l-1.3-2.3c.1.1.1.3.1.5zm-241-59.6h-.2.5c-.2.1-.3.1-.3 0zm80.2.1zm-71.2-.4c-.2.3-.5.4-.8.4h1.6c-.3 0-.6-.2-.8-.4zm42-.6c0 .5-.4 1-1 1h2.2c-.6 0-1-.5-1-1s.4-1 1-1h-2.2c.6 0 1 .4 1 1zm179.9 43.1l.3.3c.3.5.1 1.1-.4 1.4-.2.1-.3.1-.5.1s-.5-.1-.6-.2l1.7 2.9c-.1-.4.1-.8.5-1 .5-.3 1.1-.1 1.4.4s.1 1.1-.4 1.4c-.2.1-.3.1-.5.1s-.4-.1-.6-.2l1.6 2.9c-.1-.4.1-.8.5-1 .5-.3 1.1-.1 1.4.4.1.2.1.3.1.5.2.1.3.2.5.4l-5-8.7v.3zm-161.7-43c0 .5-.5.9-1 .9h2c-.6 0-1-.4-1-.9zm102.3.6c-.2.2-.4.3-.7.3h1.4c-.3 0-.5-.1-.7-.3zm-122.4-.4c-.1.4-.5.6-.9.6h1.8c-.4.1-.7-.2-.9-.6z"/><path class="st5" d="M398 314.8c-.2.1-.3.1-.5.1-.3 0-.7-.2-.9-.5-.1-.1-.1-.3-.1-.5-.1 0-.2-.1-.2-.1l1.7 2.9c-.1-.4.1-.8.5-1 .5-.3 1.1-.1 1.4.4s.1 1.1-.4 1.4c-.2.1-.3.1-.5.1s-.5-.1-.6-.2l1.7 2.9c-.1-.4.1-.8.5-1.1.5-.3 1.1-.1 1.4.4s.1 1.1-.4 1.4c-.2.1-.3.1-.5.1s-.5-.1-.6-.2l1.7 2.9v-.2l-.3-.3c-.3-.5-.1-1.1.4-1.4s1.1-.1 1.3.4l-5-8.7c0 .4-.1.9-.6 1.2zm-175.3-51.6c-.1 0-.1 0 0 0zm125-1c0 .5-.4 1-1 1h1.8c.7 0 1.4 0 2.1.1-.5-.1-.9-.5-.9-1.1 0-.5.5-1 1.1-.9s1 .5.9 1.1c0 .5-.5.9-1 .9 1.3.1 2.5.3 3.8.5-.2 0-.4-.2-.6-.4-.2.1-.3.2-.5.2h-.1c-.5-.1-.9-.6-.8-1.1s.6-.9 1.1-.8c-1.6-.2-3.3-.4-5-.4h-1.8c.4-.1.9.3.9.9zm-33.8-.6c.2-.2.5-.4.8-.4h-1.5c.3 0 .5.1.7.4zm88.4 62.6l.1.2h.5c-.2.1-.5 0-.6-.2zm-94.6-62c0 .5-.4 1-1 1h4c-.5 0-1-.5-1-1s.5-1 1-1h-4c.6 0 1 .4 1 1zm8 0c0 .5-.4 1-1 1h4c-.5 0-1-.5-1-1s.5-1 1-1h-4c.5 0 1 .4 1 1zm-4 0c0 .5-.4 1-1 1h2.5c-.5 0-1-.5-1-1s.5-1 1-1h-2.5c.6 0 1 .4 1 1zm-108 0c0 .5-.4 1-1 1h4c-.6 0-1-.5-1-1s.4-1 1-1h-4c.6 0 1 .4 1 1zm19-1c-.1 0-.1 0 0 0zm100.5 0h-.5c.1 0 .2 0 .3.1 0-.1.1-.1.2-.1zm-3.5 1c0 .5-.4 1-1 1h4c-.5 0-1-.5-1-1s.5-1 1-1h-4c.5 0 1 .4 1 1zm-124 0c0 .5-.4 1-1 1h4c-.6 0-1-.5-1-1s.4-1 1-1h-4c.6 0 1 .4 1 1zm104 0c0 .5-.4 1-1 1h4c-.5 0-1-.5-1-1s.5-1 1-1h-4c.5 0 1 .4 1 1zm-4 0c0 .5-.4 1-1 1h4c-.5 0-1-.5-1-1s.5-1 1-1h-4c.6 0 1 .4 1 1z"/><path class="st5" d="M304.1 262.2c0 .5-.5 1-1 1h3.6c-.5 0-1-.5-1-1s.5-1 1-1h-3.6c.5 0 1 .4 1 1zm-104.4 0c0 .5-.4 1-1 1h3.8c-.6 0-1-.5-1-1s.4-1 1-1h-3.8c.6 0 1 .4 1 1zm103.4-1h-.4.4zm-79.4 1c0 .5-.4 1-1 1h4c-.6 0-1-.5-1-1s.4-1 1-1h-4c.6 0 1 .4 1 1zm-21-1h-.2.2zm131.3.3c.2-.2.4-.3.7-.3h-1.4c.3 0 .5.1.7.3zm1.7.7c0 .5-.4 1-1 1h4c-.5 0-1-.5-1-1s.5-1 1-1h-4c.5 0 1 .4 1 1zm4 0c0 .5-.4 1-1 1h4c-.5 0-1-.5-1-1s.5-1 1-1h-4c.6 0 1 .4 1 1zm-8 0c0 .5-.4 1-1 1h2.6c-.5 0-1-.5-1-1s.5-1 1-1h-2.6c.5 0 1 .4 1 1zm11.3.9c-.1 0-.2.1-.3.1h.6c-.1 0-.2 0-.3-.1zm-131.4-1.3c.1-.4.5-.6.9-.6h-1.8c.4 0 .8.3.9.6zm112.6.4c0 .5-.5 1-1 1h3.5c-.5 0-1-.5-1-1s.5-1 1-1h-3.5c.6 0 1 .4 1 1zm-104.5 0c0 .5-.4 1-1 1h3.9c-.6 0-1-.5-1-1s.5-1 1-1h-3.9c.6 0 1 .4 1 1zm-12 0c0 .5-.4 1-1 1h4c-.6 0-1-.5-1-1s.4-1 1-1h-4c.6 0 1 .4 1 1zm120 0c0 .5-.4 1-1 1h4c-.5 0-1-.5-1-1s.5-1 1-1h-4c.6 0 1 .4 1 1z"/><circle class="st5" cx="238.7" cy="262.2" r="1"/><circle class="st5" cx="234.7" cy="262.2" r="1"/><circle class="st5" cx="218.7" cy="262.2" r="1"/><path class="st5" d="M223.6 262.2c0 .5-.4 1-1 1 .7 0 1.1-.5 1-1 .1-.5-.3-1-.9-1 .5 0 .9.5.9 1z"/><circle class="st5" cx="226.7" cy="262.2" r="1"/><path class="st5" d="M229.7 262.2c0 .5.4 1 1 1 .5 0 .9-.4 1-.9v-.2c0-.5-.5-.9-1-.9-.6 0-1 .4-1 1z"/><circle class="st5" cx="270.7" cy="262.2" r="1"/><path class="st5" d="M313.9 261.6c.1.2.2.4.2.6s-.1.4-.2.6c.2.2.5.4.8.4.6 0 1-.5 1-1s-.4-1-1-1c-.3 0-.6.1-.8.4z"/><circle class="st5" cx="310.7" cy="262.2" r="1"/><path class="st5" d="M241.7 262.2c0 .5.4 1 1 1-.5 0-1-.5-1-1s.5-1 1-1c-.6 0-1 .4-1 1z"/><circle class="st5" cx="318.7" cy="262.2" r="1"/><circle class="st5" cx="298.7" cy="262.2" r="1"/><circle class="st5" cx="306.7" cy="262.2" r="1"/><path class="st5" d="M301.7 262.2c0 .5.5 1 1 1h.2c-.5-.1-.8-.5-.8-1s.4-.9.8-1h-.2c-.6 0-1 .4-1 1z"/><circle class="st5" cx="346.7" cy="262.2" r="1"/><circle class="st5" cx="338.7" cy="262.2" r="1"/><path class="st5" d="M371.5 273c.2.1.3.2.5.2s.5-.1.7-.3c.4-.4.4-1 0-1.4-.2-.2-.3-.2-.5-.3 0 .3-.1.5-.3.7-.2.2-.5.3-.7.3h-.2c0 .1 0 .3.1.4.2.1.3.2.4.4zM334 261.5c.2.2.3.4.3.7s-.1.5-.3.7c.2.2.4.3.7.3.6 0 1-.5 1-1s-.4-1-1-1c-.3 0-.5.1-.7.3z"/><circle class="st5" cx="326.7" cy="262.2" r="1"/><circle class="st5" cx="330.7" cy="262.2" r="1"/><path class="st5" d="M321.7 262.2c0 .5.5 1 1 1 .1 0 .2 0 .3-.1-.4-.1-.7-.5-.7-.9s.3-.8.7-.9c-.1 0-.2-.1-.3-.1-.6 0-1 .4-1 1z"/><circle class="st5" cx="258.7" cy="262.2" r="1"/><path class="st5" d="M261.7 262.2c0 .5.5 1 1 1h.1c-.5 0-.9-.5-.9-1s.4-.9.9-1h-.1c-.6 0-1 .4-1 1zm-8-.2v.4c.1.4.5.8 1 .8.6 0 1-.5 1-1s-.4-1-1-1c-.5 0-.9.3-1 .8z"/><circle class="st5" cx="266.7" cy="262.2" r="1"/><path class="st5" d="M293.9 261.7c.1.2.2.3.2.5s-.1.4-.2.5c.2.3.5.5.8.5.6 0 1-.5 1-1s-.4-1-1-1c-.4 0-.7.2-.8.5z"/><circle class="st5" cx="250.7" cy="262.2" r="1"/><circle class="st5" cx="246.7" cy="262.2" r="1"/><circle class="st5" cx="286.7" cy="262.2" r="1"/><circle class="st5" cx="290.7" cy="262.2" r="1"/><path class="st5" d="M281.7 262.2c0 .5.5 1 1 1h.1c-.5-.1-.9-.5-.9-1s.4-.9.9-1h-.1c-.6 0-1 .4-1 1z"/><circle class="st5" cx="278.7" cy="262.2" r="1"/><path class="st5" d="M273.8 261.8c.1.1.1.3.1.4s0 .3-.1.4c.2.3.5.6.9.6.6 0 1-.5 1-1s-.4-1-1-1c-.4 0-.7.2-.9.6z"/><circle class="st5" cx="214.7" cy="262.2" r="1"/><path class="st5" d="M341.7 262.2c0 .5.5 1 1 1 .1 0 .2 0 .3-.1-.4-.1-.7-.5-.7-.9s.3-.8.7-.9c-.1 0-.2-.1-.3-.1-.6 0-1 .4-1 1zM106 317.3c.1.1.3.1.5.1.3 0 .7-.2.9-.5.3-.5.1-1.1-.4-1.4-.4-.2-.8-.2-1.1.1l-.3.6c-.2.4 0 .9.4 1.1zm-2 3.4c.1.1.3.1.5.1.3 0 .7-.2.9-.5.3-.5.1-1.1-.4-1.4-.4-.2-.8-.2-1.2.1l-.3.6c-.1.5.1.9.5 1.1zm3.5-7.7c.3-.2.7-.2 1.1 0 .3.2.5.5.5.8l.3-.3c.3-.5.1-1.1-.4-1.4-.4-.2-.8-.2-1.1.1l-.3.6c-.1.1-.1.1-.1.2zm2.4-2.7c.2.1.3.1.5.1.3 0 .7-.2.9-.5.3-.5.1-1.1-.4-1.4-.4-.2-.8-.2-1.1.1l-.4.6c0 .5.2.9.5 1.1zm2-3.4c.2.1.3.1.5.1.3 0 .7-.2.9-.5.1-.2.1-.3.1-.5-.1 0-.2.1-.4.1s-.3 0-.5-.1c-.3-.2-.5-.5-.5-.9-.1 0-.2.1-.3.1l-.4.6c.1.5.3.9.6 1.1zm289 14.1c.2 0 .3 0 .5-.1.5-.3.6-.9.4-1.4-.3-.5-.9-.6-1.4-.4-.4.2-.5.7-.5 1.1l.3.6c.2.1.5.2.7.2zm-18.6-31.4c.2.1.4.2.6.2s.3 0 .5-.1c.5-.3.6-.9.4-1.4-.1-.2-.2-.3-.4-.4 0 .3-.2.6-.5.7-.2.1-.3.1-.5.1s-.3 0-.5-.1v.3l.4.7zm16.6 27.9c.2 0 .3 0 .5-.1.5-.3.6-.9.4-1.4-.3-.5-.9-.6-1.4-.4-.4.2-.5.6-.5 1l.3.6c.2.2.5.3.7.3zm4 7c.2 0 .3-.1.5-.1.5-.3.6-.9.4-1.4l-.3-.3c0 .3-.2.7-.5.9-.2.1-.3.1-.5.1s-.4-.1-.6-.2v.2l.3.6c.2.1.5.2.7.2zm-281-34.9c.2.1.3.1.5.1.3 0 .7-.2.9-.5.1-.2.1-.4.1-.6-.1 0-.2.1-.3.1-.2 0-.3 0-.5-.1-.3-.2-.5-.5-.5-.8-.1 0-.2.1-.3.1l-.4.7c0 .4.2.8.5 1zm2-3.5c.2.1.3.1.5.1.3 0 .7-.2.9-.5.3-.5.1-1.1-.4-1.4-.4-.2-.8-.2-1.1.1l-.4.7c0 .4.2.8.5 1zm2-3.5c.2.1.3.1.5.1.3 0 .7-.2.9-.5.3-.5.1-1.1-.4-1.4-.4-.2-.8-.2-1.1.1l-.4.7c0 .4.2.8.5 1zm2.8-4.5c.3.2.5.6.5.9l.2-.2c.3-.5.1-1.1-.3-1.4-.3-.2-.8-.2-1.1 0-.1.2-.3.5-.4.7v.1c.2-.2.7-.3 1.1-.1zm-8.8 14.9c.2.1.3.1.5.1.3 0 .7-.2.9-.5.3-.5.1-1.1-.4-1.4-.4-.2-.8-.2-1.1.1l-.4.7c0 .4.2.8.5 1zm-4 6.9c.2.1.3.1.5.1.3 0 .7-.2.9-.5.3-.5.1-1.1-.4-1.4-.4-.2-.8-.2-1.1.1l-.4.7c0 .4.2.8.5 1zm2.7-4.4c.3.2.5.5.5.9.1-.1.2-.2.2-.3.3-.5.1-1.1-.4-1.4-.4-.2-.8-.2-1.1.1l-.4.7v.1c.4-.2.8-.3 1.2-.1zm-4.7 7.9c.2.1.3.1.5.1.3 0 .7-.2.9-.5.3-.5.1-1.1-.4-1.4-.4-.2-.8-.2-1.1.1l-.4.7c0 .4.2.8.5 1zm265-20.5c.2 0 .3 0 .5-.1.5-.3.6-.9.4-1.4-.3-.5-.9-.6-1.4-.4-.4.2-.5.6-.5 1l.4.7c.1.1.4.2.6.2zm-9.9-12.5c.3 0 .6-.1.8-.4.4-.4.3-1.1-.2-1.4-.4-.3-1.1-.3-1.4.2-.3.4-.3.9 0 1.2.1.1.2.2.4.3.2.1.3.1.4.1zm-6.7-4.2c-.3-.3-.4-.8-.2-1.2.2-.4.5-.5.9-.6-.1-.1-.2-.1-.3-.2-.5-.2-1.1 0-1.3.5-.2.5 0 1 .4 1.3.1 0 .1 0 .2.1 0 .1.1.1.3.1zm34.2 47.8c0-.4.2-.7.5-.9.3-.2.6-.2.9 0 0-.2 0-.3-.1-.5-.3-.5-.9-.6-1.4-.4-.4.2-.6.6-.5 1l.3.6c.1.1.2.1.3.2zm-21.9-37.9c.2 0 .4-.1.6-.2.4-.3.5-1 .2-1.4s-1-.5-1.4-.2-.5.7-.3 1.1c.1.2.3.3.4.5.1.1.3.2.5.2zm-8.8-8c.3 0 .7-.2.9-.5.3-.5.1-1.1-.3-1.4s-1.1-.1-1.4.3-.1 1 .2 1.3c.1.1.2.1.3.2.1.1.2.1.3.1zm-7.3-3.3c.4 0 .8-.3 1-.7.2-.5-.1-1.1-.6-1.3-.5-.2-1.1.1-1.3.6-.2.5.1 1 .6 1.2h.1c.1.2.2.2.2.2zm-7.8-1.5c.5 0 1-.4 1-.9s-.4-1-.9-1.1-1 .4-1.1.9c0 .5.4 1 .9 1.1h.1zm4 .5c.5 0 .9-.3 1-.8s-.2-1.1-.8-1.2c-.3 0-.5 0-.7.1.2.2.2.5.2.8s-.2.5-.5.7c.1.2.3.3.6.4h.2c-.1 0-.1 0 0 0zm21.7 15.5c-.1-.4.1-.9.5-1.1.3-.2.7-.2 1 0 0-.1-.1-.2-.1-.3-.3-.5-.9-.6-1.4-.4-.4.2-.5.7-.5 1.1.1.2.3.4.4.6 0 .1 0 .1.1.1zm16.5 27.8c.2 0 .3 0 .5-.1.5-.3.6-.9.4-1.4l-.3-.3c0 .3-.2.6-.5.8-.2.1-.3.1-.5.1s-.4-.1-.5-.2v.2l.3.6c.1.3.4.3.6.3zm-4-6.9c.2 0 .3 0 .5-.1.5-.3.6-.9.4-1.4-.3-.5-.9-.6-1.4-.4-.4.2-.5.6-.5 1l.4.7c.1.1.4.2.6.2zm2 3.5c.2 0 .3 0 .5-.1.5-.3.6-.9.4-1.4-.3-.5-.9-.6-1.4-.4-.4.2-.5.6-.5 1l.4.6c.1.2.4.3.6.3zm4 6.9c.2 0 .3 0 .5-.1.5-.3.6-.9.4-1.4-.3-.5-.9-.6-1.4-.4-.4.2-.5.6-.5 1l.4.6c.1.2.4.3.6.3zm-14-24.2c.2 0 .3-.1.5-.1.5-.3.7-.9.4-1.4-.3-.5-.9-.6-1.4-.4-.4.2-.5.6-.5 1l.4.7c.1.1.4.2.6.2zm-250.8-10.6c.2.1.4.2.6.2.3 0 .6-.1.8-.4.3-.4.3-1.1-.2-1.4-.3-.2-.7-.3-1.1-.1-.2.2-.3.4-.5.6-.1.4.1.8.4 1.1zm256.3 20.8c0-.4.1-.8.5-1 .3-.2.7-.2 1 0 0-.1 0-.3-.1-.4-.3-.5-.9-.7-1.4-.4-.4.2-.5.6-.5 1l.4.7c0 .1.1.1.1.1zm-1.5-3.3c.2 0 .3 0 .5-.1.5-.3.6-.9.4-1.4-.3-.5-.9-.6-1.4-.4-.4.2-.5.6-.5 1l.4.7c.1.1.4.2.6.2zM102 324.2c.1.1.3.1.5.1.3 0 .7-.2.9-.5.1-.1.1-.3.1-.4-.1.1-.3.1-.4.1-.2 0-.3 0-.5-.1-.3-.2-.5-.6-.5-.9-.1 0-.2.1-.2.1l-.3.5c-.2.5 0 .9.4 1.1z"/><circle class="st5" cx="158.7" cy="262.2" r="1"/><path class="st5" d="M205.7 262.2c0 .5.4 1 1 1s1-.5 1-1-.4-1-1-1-1 .4-1 1zm-22.3 0c0 .5-.4.9-.8 1h.2c.6 0 1-.5 1-1s-.4-1-1-1h-.2c.4.1.8.5.8 1zm20.1 0c0 .5-.4.9-.9 1h.1c.6 0 1-.5 1-1s-.4-1-1-1h-.1c.5.1.9.5.9 1zm-49.8.1c0 .5.5.9 1 .9h.1c.5 0 1-.5.9-1.1 0-.5-.5-.9-1-.9h-.1c-.5.2-.9.6-.9 1.1zm16-.1c0 .5.4 1 1 1 .3 0 .6-.2.8-.4-.1-.2-.2-.3-.2-.6s.1-.4.2-.6c-.2-.3-.5-.4-.8-.4-.6 0-1 .4-1 1zm4 0c0 .5.4 1 1 1s1-.5 1-1-.4-1-1-1-1 .4-1 1z"/><circle class="st5" cx="166.7" cy="262.2" r="1"/><path class="st5" d="M209.7 262.2c0 .5.4 1 1 1 .4 0 .8-.3.9-.6 0-.1-.1-.2-.1-.4s0-.2.1-.4c-.1-.4-.5-.6-.9-.6-.6 0-1 .4-1 1zm-46.5 0c0 .5-.3.8-.8 1h.2c.6 0 1-.5 1-1s-.4-1-1-1h-.2c.5.1.8.5.8 1zm-24.5 5.4c.2.3.5.5.9.5.2 0 .4 0 .5-.2.5-.3.6-.9.3-1.4-.2-.4-.6-.5-1-.5-.2.1-.4.3-.7.4-.1.4-.2.8 0 1.2zm-3.2 2.3c.2.2.5.4.8.4.2 0 .4-.1.6-.2.4-.3.5-1 .2-1.4-.3-.3-.7-.4-1.1-.3-.2.2-.4.3-.6.5-.1.3-.1.7.1 1zm-2.9 2.8c.2.2.4.3.7.3s.5-.1.7-.3c.2-.2.2-.4.3-.6-.3 0-.5-.1-.7-.3-.2-.2-.3-.5-.3-.8-.1 0-.3 0-.4.1l-.6.6c0 .3.1.7.3 1zm57.1-10.5c0 .5.4 1 1 1 .4 0 .7-.2.9-.5-.1-.1-.1-.3-.1-.5s.1-.3.1-.5c-.2-.3-.5-.5-.9-.5-.6 0-1 .4-1 1z"/><circle class="st5" cx="194.7" cy="262.2" r="1"/><circle class="st5" cx="198.7" cy="262.2" r="1"/><path class="st5" d="M145.9 264c.1.4.5.7 1 .7h.3c.5-.2.8-.7.6-1.3-.1-.4-.5-.7-1-.7-.2.1-.3.1-.5.2-.3.2-.5.7-.4 1.1zm3.9-1.1c.1.5.5.8 1 .8h.2c.3-.1.5-.2.7-.4-.2-.2-.3-.4-.4-.6 0-.2 0-.5.2-.7-.2-.2-.4-.2-.7-.2h-.3c-.5.2-.8.6-.7 1.1zm-6.3 2.1c.2.4.1.8-.2 1.1h.2c.5-.2.7-.8.5-1.3-.2-.4-.6-.6-1-.6l-.6.3c.5-.1.9.1 1.1.5zm200.2-2.8c0 .4-.3.8-.7.9.1 0 .2.1.3.1.6 0 1-.5 1-1s-.4-1-1-1c-.1 0-.2 0-.3.1.4.1.7.5.7.9zm-122.1 0c0 .5.5 1 1 1-.5 0-.9-.5-1-1 .1-.5.5-1 1-1-.5 0-1 .4-1 1zm-20.1 0c0 .5.4 1 1 1h.1c-.5-.1-.9-.5-.9-1s.4-.9.9-1h-.1c-.6 0-1 .4-1 1zm130.8 0c0 .5.5 1 1 1 .3 0 .5-.1.7-.3-.2-.2-.3-.4-.3-.7s.1-.5.3-.7c-.2-.2-.4-.3-.7-.3-.6 0-1 .4-1 1zm55.6 33.5c0 .4-.1.8-.5 1-.2.1-.3.1-.5.1s-.3 0-.4-.1c0 .1.1.3.1.4.2.3.5.5.9.5.2 0 .3 0 .5-.1.5-.3.6-.9.4-1.4-.2-.2-.4-.4-.5-.4zm-268.8.7c-.2.1-.4.2-.6.2s-.3 0-.5-.1c-.3-.2-.5-.5-.5-.9-.1.1-.2.2-.2.3-.3.5-.1 1.1.4 1.4.2.1.3.1.5.1.3 0 .6-.2.8-.5v-.1c.1-.1.1-.3.1-.4zM402 321.8c-.5.3-.6.9-.4 1.4l.3.3c0-.3.2-.7.5-.9.4-.2.8-.2 1.1.1 0-.2 0-.3-.1-.5-.3-.5-.9-.7-1.4-.4zM129.1 279c-.2.2-.4.3-.7.3-.2 0-.4 0-.5-.1-.3-.2-.5-.5-.5-.9l-.2.2c-.3.5-.1 1.1.4 1.4.2.1.3.1.5.1.3 0 .7-.2.9-.5.1-.2.1-.3.1-.5zm-5.5 7.8c-.5-.3-1.1-.1-1.4.4-.1.2-.1.4-.1.6.3-.1.5-.1.8.1s.5.5.5.8c.2-.1.4-.2.5-.4v-.1c.4-.5.2-1.1-.3-1.4zm-10 17.4c-.5-.3-1.1-.1-1.4.4-.1.2-.1.3-.1.5.3-.1.6-.1.9 0 .3.2.5.5.5.9.2-.1.3-.2.5-.4l.1-.1c.1-.4-.1-1-.5-1.3zm-10.1 17.5c-.5-.3-1.1-.1-1.4.4-.1.1-.1.3-.1.4.3-.1.6-.2.9 0s.5.6.5 1c.2-.1.3-.2.4-.4v-.1c.3-.5.2-1.1-.3-1.3zm5.5-7.9c-.2.1-.4.2-.6.2s-.4 0-.5-.1c-.3-.2-.5-.5-.5-.8l-.3.3c-.3.5-.1 1.1.4 1.4.2.1.3.1.5.1.3 0 .6-.2.8-.4l.1-.1c.1-.3.1-.5.1-.6zM381.9 287c-.5.3-.6.9-.4 1.4.1.2.2.3.4.4 0-.3.2-.6.5-.7.3-.2.7-.2 1 0 0-.2 0-.4-.1-.6-.3-.7-.9-.8-1.4-.5zm-11.4-16.5c-.4.4-.4 1 0 1.4.1.1.3.2.5.2 0-.3.1-.6.3-.8.2-.2.6-.3.9-.3 0-.2-.1-.4-.2-.6l-.2-.2c-.4-.1-1 0-1.3.3zm27.4 42.5c0 .4-.2.7-.5.9-.2.1-.3.1-.5.1-.1 0-.3 0-.4-.1 0 .2 0 .3.1.5.2.3.5.5.9.5.2 0 .3 0 .5-.1.5-.3.6-.9.4-1.3v-.1c-.2-.2-.3-.3-.5-.4zm-45.5-50.6c-.1.5.3 1.1.8 1.1h.1c.2 0 .4-.1.5-.2-.2-.2-.3-.5-.2-.8.1-.3.2-.5.5-.7-.1-.2-.3-.3-.6-.4h-.1c-.5.1-.9.5-1 1zm10.5 2.1c.3.3.4.7.2 1.1-.2.4-.5.6-.9.6l.2.2c.1.1.3.1.4.1.4 0 .7-.2.9-.6.2-.5 0-1-.4-1.3 0 0-.1 0-.1-.1 0 .1-.1 0-.3 0zm29.1 39.9c-.5.3-.6.9-.4 1.4l.3.3c0-.3.2-.6.5-.8.3-.2.7-.2 1 0 0-.2 0-.4-.1-.6-.3-.4-.9-.6-1.3-.3zm-14.6-25.1c-.2.1-.3.1-.5.1s-.3 0-.5-.1c0 .1 0 .2.1.3.2.3.5.5.9.5.2 0 .3 0 .5-.1.5-.3.6-.9.4-1.4-.1-.2-.2-.3-.4-.4 0 .5-.2.9-.5 1.1z"/><path class="st5" d="M141.7 265.9c.2.4.5.6.9.6.1 0 .3 0 .4-.1.1-.1.2-.1.3-.2h-.2c-.4 0-.8-.2-.9-.6-.2-.4-.1-.8.2-1.1-.1 0-.2.1-.3.1-.4.3-.6.8-.4 1.3zm19.5-3.7c0 .5.5 1 1 1h.2c-.4-.1-.8-.5-.8-1s.3-.8.8-1h-.2c-.5 0-1 .4-1 1zm130.8 0c0 .5.5 1 1 1 .4 0 .7-.2.8-.5-.1-.2-.2-.3-.2-.5s.1-.4.2-.5c-.2-.3-.5-.5-.8-.5-.5 0-1 .4-1 1zm-140.6-.2c.2.1.3.3.4.6 0 .3 0 .5-.1.7.2.1.4.2.6.2h.1c.5-.1.9-.6.9-1.1-.1-.5-.5-.9-1.1-.8h-.1c-.4 0-.6.2-.7.4zm60.2-.2c0 .1.1.2.1.4s0 .2-.1.4c.1.4.5.6.9.6.6 0 1-.5 1-1s-.4-1-1-1c-.4 0-.7.3-.9.6zm-40.1-.2c.1.2.2.3.2.6s-.1.4-.2.6c.2.3.5.4.8.4.6 0 1-.5 1-1s-.4-1-1-1c-.3 0-.6.2-.8.4zm132.2.6c0 .5-.4.9-.8 1h.2c.5 0 1-.5 1-1s-.5-1-1-1h-.2c.4.1.8.5.8 1zm-60 0c0-.5-.4-1-1-1 .6 0 1 .4 1 1zM134 271.3c.2.2.3.5.3.8.2 0 .5-.1.7-.3.4-.4.4-1 0-1.4-.3-.4-.9-.4-1.3-.1-.1.1-.2.2-.3.2-.1.1-.2.3-.2.5.4 0 .7.1.8.3zm129.7-9.1c0 .5-.4.9-.9 1h.1c.6 0 1-.5 1-1s-.4-1-1-1h-.1c.5 0 .9.5.9 1zm20 0c0 .5-.4.9-.9 1h.1c.6 0 1-.5 1-1s-.4-1-1-1h-.1c.5.1.9.5.9 1zm40 0c0 .5-.3.8-.7.9.1 0 .2.1.3.1.5 0 1-.5 1-1s-.5-1-1-1c-.1 0-.2 0-.3.1.4.1.7.4.7.9zm-51.8 0c0 .5.5 1 1 1 .4 0 .7-.2.9-.6-.1-.1-.1-.3-.1-.4s0-.3.1-.4c-.2-.3-.5-.6-.9-.6-.5 0-1 .4-1 1zm-20.1 0c0 .5.4 1 1 1 .5 0 .9-.3 1-.8v-.4c-.1-.4-.5-.8-1-.8-.6 0-1 .4-1 1zm-60.2-.5c.1.1.1.3.1.5s-.1.3-.1.5c.2.3.5.5.9.5.6 0 1-.5 1-1s-.4-1-1-1c-.4 0-.8.2-.9.5zm40.1.4s0 .1 0 0v.2c0 .5.5.9 1 .9.6 0 1-.5 1-1s-.4-1-1-1-1 .4-1 .9zm-50.3.1c0 .5.4 1 1 1h.2c-.5-.1-.8-.5-.8-1s.4-.9.8-1h-.2c-.6 0-1 .4-1 1zm130.7 0c0 .5.5 1 1 1 .3 0 .6-.2.8-.4-.1-.2-.2-.4-.2-.6s.1-.4.2-.6c-.2-.2-.5-.4-.8-.4-.5 0-1 .4-1 1zm-108.6 0c0-.5-.4-.9-.9-1-.5.1-.9.5-.9 1s.4.9.9 1c.5-.1.9-.5.9-1zm-75.6 17c.2.1.3.1.5.1.3 0 .5-.1.7-.3 0-.4-.2-.7-.5-.9-.4-.2-.9-.1-1.2.2.1.3.2.7.5.9z"/><path class="st5" d="M171.5 261.6c-.1.2-.2.3-.2.6s.1.4.2.6c.1-.2.2-.3.2-.6s-.1-.4-.2-.6zm200.4 10.3c.2-.2.3-.5.3-.7-.3-.1-.6 0-.9.3-.2.2-.3.5-.3.8h.2c.3-.1.5-.2.7-.4zm-48.2-9.7c0-.5-.3-.8-.7-.9-.4.1-.7.5-.7.9s.3.8.7.9c.4-.1.7-.5.7-.9zm38.3 2.9c-.2.4-.1.9.2 1.2.4 0 .7-.2.9-.6.2-.4.1-.8-.2-1.1-.3-.1-.7.1-.9.5zm-249.1 40c-.3-.2-.6-.2-.9 0 0 .3.2.7.5.9.2.1.3.1.5.1.1 0 .3 0 .4-.1 0-.3-.1-.7-.5-.9zm-4.9 8.7c.1.1.3.1.5.1s.4-.1.6-.2c0-.3-.2-.6-.5-.8-.3-.2-.8-.2-1.1 0 0 .4.2.7.5.9zm-5 8.7c-.3-.2-.6-.2-.9 0 0 .4.1.7.5.9.2.1.3.1.5.1s.3 0 .4-.1c0-.4-.2-.7-.5-.9zm273.9-44.2c-.4.2-.6.7-.5 1.1.1.1.3.1.5.1s.4 0 .5-.1c.4-.2.5-.7.5-1.1-.4-.2-.7-.2-1 0zm-259 18.2c.2.1.3.1.5.1s.5-.1.6-.2c0-.3-.2-.7-.5-.9-.4-.2-.8-.2-1.1.1.1.4.2.7.5.9zm5-8.7c-.3-.1-.5-.2-.8-.1 0 .3.2.6.5.8.2.1.3.1.5.1.1 0 .2 0 .3-.1 0-.2-.1-.5-.5-.7zm264 7.9c-.4.2-.5.6-.5 1 .1.1.3.1.4.1.2 0 .3 0 .5-.1.4-.2.5-.6.5-1-.2-.2-.6-.2-.9 0zm-223.7-33.5c0-.5-.3-.8-.8-1-.4.1-.8.5-.8 1s.3.8.8 1c.5-.2.8-.5.8-1zM397 313.1c-.3.2-.5.5-.5.9.1.1.3.1.4.1.2 0 .3 0 .5-.1.3-.2.5-.5.5-.9-.3-.2-.6-.2-.9 0z"/><ellipse class="st5" cx="293.9" cy="262.2" rx=".2" ry=".5"/><path class="st5" d="M273.8 261.8c-.1.1-.1.3-.1.4s0 .3.1.4c.1-.1.1-.3.1-.4s0-.3-.1-.4zm69.9.4c0-.4-.3-.8-.7-.9-.4.1-.7.5-.7.9s.3.8.7.9c.4-.1.7-.5.7-.9zm-60 0c0-.5-.4-.9-.9-1-.5.1-.9.5-.9 1s.4.9.9 1c.5-.1.9-.5.9-1zm50.3-.7c-.2.2-.3.4-.3.7s.1.5.3.7c.2-.2.3-.4.3-.7s-.1-.5-.3-.7zm-20.1.1c-.1.2-.2.4-.2.6s.1.4.2.6c.1-.2.2-.4.2-.6s0-.4-.2-.6z"/><ellipse class="st5" cx="302.9" cy="262.2" rx=".8" ry="1"/><path class="st5" d="M211.6 261.8c0 .1-.1.2-.1.4s0 .2.1.4c0-.1.1-.2.1-.4s0-.3-.1-.4zm142.8.9c0-.3 0-.5-.2-.8-.2.1-.4.4-.5.7-.1.3 0 .6.2.8.2-.2.4-.4.5-.7zm38.6 43.4c.3-.2.5-.5.5-.8-.3-.2-.7-.2-1 0s-.5.5-.5.8c.2.1.4.2.5.2.1-.1.3-.1.5-.2zm-161.3-44s0 .1 0 0c0 .1 0 0 0 0zm-8.1.1c0-.5-.4-1-1-1-.5 0-1 .5-1 1s.4 1 1 1 1-.5 1-1zM403 323.5c.3-.2.5-.5.5-.9-.3-.2-.7-.3-1.1-.1-.3.2-.5.5-.5.9.2.1.4.2.6.2.2.1.4 0 .5-.1zm-139.3-61.3c0-.5-.4-.9-.9-1-.5 0-.9.5-.9 1s.4.9.9 1c.5-.1.9-.5.9-1zm119.2 26.5c.3-.2.4-.4.5-.7-.3-.2-.7-.2-1 0s-.4.4-.5.7c.1.1.3.1.5.1s.3 0 .5-.1zm-139.2-26.5c0-.5-.4-1-1-1-.5 0-1 .5-1 1s.4 1 1 1 1-.5 1-1zm10-.2v.2c0-.1.1-.2 0-.2zm-110.2 3c-.2-.4-.7-.6-1.1-.5-.3.3-.4.7-.2 1.1s.5.6.9.6h.2c.3-.4.4-.8.2-1.2zm-9.5 6.3c-.2-.2-.4-.3-.7-.3 0 .3.1.6.3.8.2.2.4.3.7.3.1-.3 0-.6-.3-.8zm17.4-9.3c-.1.2-.2.4-.2.7 0 .3.2.5.4.6.1-.2.2-.5.1-.7 0-.3-.2-.5-.3-.6z"/><g class="st7"><path class="st8" d="M330.1 247.2c.5.5.8 1.2.8 2.1v17.1c0 .8-.3 1.5-.8 2s-1.2.8-2 .8h-5.8v2.9h-11.4v-2.9h-5.8c-.8 0-1.5-.3-2-.8s-.8-1.2-.8-2v-17.1c0-.8.3-1.5.8-2.1s1.2-.8 2-.8H328c.9 0 1.5.2 2.1.8zm-2 2h-22.9v17.1h22.9v-17.1z"/></g><path class="st10" d="M172 246.4h22.9c.7 0 1.5.3 2 .8.5.6.8 1.3.8 2.1v17.1c0 1.5-1.1 2.8-2.6 2.8h-6v2.9h-11.4v-2.9H172c-1.5 0-2.8-1.1-2.8-2.6v-17.3c0-.8.3-1.5.8-2.1.5-.6 1.2-.9 2-.8z"/><g class="st7"><path class="st8" d="M171.9 246.4h22.9c.8 0 1.5.3 2 .8s.8 1.2.8 2.1v17.1c0 .8-.3 1.5-.8 2s-1.2.8-2 .8H189v2.9h-11.4v-2.9h-5.8c-.8 0-1.5-.3-2-.8s-.8-1.2-.8-2v-17.1c0-.8.3-1.5.8-2.1s1.3-.8 2.1-.8zm0 20h22.9v-17.1h-22.9v17.1z"/></g><path class="st10" d="M212.4 246.4h22.9c.7 0 1.5.3 2 .8.5.6.8 1.3.8 2.1v17.1c0 1.5-1.2 2.8-2.7 2.8h-5.9v2.9h-11.4v-2.9h-5.8c-1.5 0-2.8-1.1-2.8-2.6v-17.3c0-.8.3-1.5.8-2.1.7-.6 1.4-.8 2.1-.8z"/><g class="st7"><path class="st8" d="M212.4 246.4h22.9c.8 0 1.5.3 2 .8s.8 1.2.8 2.1v17.1c0 .8-.3 1.5-.8 2s-1.2.8-2 .8h-5.8v2.9h-11.4v-2.9h-5.8c-.8 0-1.5-.3-2-.8s-.8-1.2-.8-2v-17.1c0-.8.3-1.5.8-2.1s1.3-.8 2.1-.8zm0 20h22.9v-17.1h-22.9v17.1z"/></g><path class="st10" d="M289.6 247.2c.5.6.8 1.3.8 2.1v17.1c0 1.5-1.1 2.8-2.6 2.8h-6v2.9h-11.4v-2.9h-5.8c-1.5 0-2.8-1.1-2.8-2.6v-17.3c0-.8.3-1.5.8-2.1.5-.5 1.3-.8 2-.8h22.9c.8-.1 1.5.2 2.1.8z"/><g class="st7"><path class="st8" d="M289.6 247.2c.5.5.8 1.2.8 2.1v17.1c0 .8-.3 1.5-.8 2s-1.2.8-2 .8h-5.8v2.9h-11.4v-2.9h-5.8c-.8 0-1.5-.3-2-.8s-.8-1.2-.8-2v-17.1c0-.8.3-1.5.8-2.1s1.2-.8 2-.8h22.9c.9 0 1.5.2 2.1.8zm-2 2h-22.9v17.1h22.9v-17.1z"/></g><path class="st10" d="M122.3 253.7c.8-.2 1.5-.1 2.2.3l14.8 8.6c1.3.7 1.8 2.4 1.1 3.7 0 0 0 .1-.1.1l-2.9 5 2.5 1.4-5.7 9.8-2.5-1.4-2.9 5c-.7 1.3-2.4 1.8-3.7 1.1 0 0-.1 0-.1-.1l-14.8-8.6c-.7-.4-1.2-1-1.4-1.7-.2-.7-.1-1.5.3-2.1l11.5-19.8c.3-.6 1-1.1 1.7-1.3z"/><g class="st7"><path class="st8" d="M122.3 253.7c.7-.2 1.5-.1 2.2.3l14.8 8.6c.7.4 1.1 1 1.3 1.7s.1 1.4-.3 2.1l-2.9 5 2.5 1.4-5.7 9.8-2.5-1.4-2.9 5c-.4.7-1 1.1-1.7 1.3-.7.2-1.4.1-2.1-.3l-14.8-8.6c-.7-.4-1.2-1-1.4-1.7-.2-.7-.1-1.4.3-2.1l11.4-19.8c.5-.6 1.1-1.1 1.8-1.3zm.8 2.8l-11.4 19.8 14.8 8.6 11.4-19.8-14.8-8.6z"/></g><path class="st10" d="M102 288.8c.7-.2 1.5-.1 2.2.3l14.8 8.6c1.3.7 1.8 2.4 1.1 3.7 0 0 0 .1-.1.1l-2.9 5 2.6 1.5-5.7 9.8-2.5-1.4-2.9 5c-.7 1.3-2.4 1.8-3.7 1.1 0 0-.1 0-.1-.1L90 313.8c-.7-.4-1.2-1-1.4-1.7-.2-.7-.1-1.5.3-2.1l11.4-19.8c.4-.7 1-1.2 1.7-1.4z"/><g class="st7"><path class="st8" d="M102 288.8c.7-.2 1.5-.1 2.2.3l14.8 8.6c.7.4 1.1 1 1.3 1.7.2.7.1 1.4-.3 2.1l-2.9 5 2.5 1.4-5.7 9.8-2.5-1.4-2.9 5c-.4.7-1 1.1-1.7 1.3-.7.2-1.4.1-2.1-.3L90 313.8c-.7-.4-1.2-1-1.4-1.7-.2-.7-.1-1.4.3-2.1l11.4-19.8c.4-.7 1-1.2 1.7-1.4zm.8 2.8l-11.4 19.8 14.8 8.6 11.4-19.8-14.8-8.6z"/></g><path class="st10" d="M405.6 290.2L417 310c.4.6.5 1.4.3 2.1s-.7 1.4-1.4 1.7l-14.8 8.6c-1.3.8-3 .4-3.8-.9 0 0 0-.1-.1-.1l-2.9-5-2.4 1.4-5.7-9.8 2.5-1.4-2.9-5c-.4-.6-.5-1.4-.3-2.1s.7-1.3 1.3-1.7l14.8-8.6c.7-.4 1.5-.5 2.2-.3.8.1 1.5.6 1.8 1.3z"/><g class="st7"><path class="st8" d="M405.7 290l11.4 19.9c.4.7.5 1.4.3 2.1s-.7 1.3-1.4 1.7l-14.9 8.6c-.7.4-1.4.5-2.1.3s-1.3-.6-1.7-1.3l-2.9-5-2.5 1.4-5.7-9.9 2.5-1.4-2.9-5c-.4-.7-.5-1.4-.3-2.1s.6-1.3 1.3-1.7l14.9-8.6c.7-.4 1.5-.5 2.2-.3s1.4.6 1.8 1.3zm-17.4 10l11.4 19.9 14.9-8.6-11.4-19.9-14.9 8.6z"/></g><path class="st10" d="M385.4 255l11.4 19.8c.4.6.5 1.4.3 2.1s-.7 1.4-1.4 1.7l-14.8 8.6c-1.3.8-3 .4-3.8-.9 0 0 0-.1-.1-.1l-2.9-5-2.5 1.4-5.7-9.8 2.5-1.4-2.9-5c-.8-1.3-.4-3 .9-3.8 0 0 .1 0 .1-.1l14.8-8.6c.7-.4 1.4-.5 2.2-.3.9.3 1.5.8 1.9 1.4z"/><g class="st7"><path class="st8" d="M385.5 255l11.4 19.9c.4.7.5 1.4.3 2.1s-.7 1.3-1.4 1.7l-14.9 8.6c-.7.4-1.4.5-2.1.3s-1.3-.6-1.7-1.3l-2.9-5-2.5 1.4-5.7-9.9 2.5-1.4-2.9-5c-.4-.7-.5-1.4-.3-2.1s.6-1.3 1.3-1.7l14.9-8.6c.7-.4 1.5-.5 2.2-.3.8.1 1.4.6 1.8 1.3zm-17.4 10l11.4 19.9 14.9-8.6-11.4-19.9-14.9 8.6z"/></g><g class="st7"><path class="st10" d="M375.4 96.3c3.5.1 6.5 1.3 8.8 3.6 2.3 2.4 3.5 5.3 3.6 8.8 0 1.6-.3 3-.8 4.4s-1.2 2.6-2.2 3.7l.5.5h1.5l9.5 9.5-2.9 2.9-9.5-9.5v-1.5l-.5-.5c-1.1 1-2.3 1.7-3.7 2.2-1.4.5-2.8.8-4.4.8-3.5-.1-6.5-1.3-8.8-3.6-2.4-2.3-3.6-5.3-3.6-8.8.1-3.5 1.3-6.5 3.6-8.8 2.5-2.4 5.4-3.6 8.9-3.7zm0 3.9c-2.5.1-4.5.9-6.1 2.5s-2.4 3.7-2.4 6.1c0 2.5.8 4.5 2.4 6.1s3.7 2.4 6.1 2.4c2.5 0 4.5-.8 6.1-2.4s2.4-3.7 2.4-6.1c0-2.5-.8-4.5-2.4-6.1s-3.6-2.4-6.1-2.5z"/></g><g class="st7"><path class="st10" d="M308.9 48.9l7.3 12.7h-14.7l7.4-12.7zm.7 5.3h-1.3v2.7h1.3v-2.7zm0 4h-1.3v1.3h1.3v-1.3z"/></g><circle class="st11" cx="120.1" cy="56" r="30.4"/><circle class="st11" cx="129.6" cy="56" r="16.8"/><circle class="st11" cx="93.6" cy="56" r="11.9"/><circle class="st11" cx="82.8" cy="56" r="6"/><circle class="st11" cx="63" cy="56" r="6"/><g class="st7"><path class="st10" d="M119.9 40c4.7.1 8.6 1.7 11.7 4.8 3.1 3.2 4.7 7.1 4.8 11.8 0 2.1-.3 4-1 5.9-.7 1.8-1.7 3.5-2.9 4.9l.7.7h2l12.7 12.7-3.8 3.8-12.7-12.7v-2l-.7-.7c-1.4 1.3-3.1 2.3-4.9 2.9-1.8.7-3.8 1-5.9 1-4.7-.1-8.6-1.7-11.8-4.8-3.2-3.1-4.8-7-4.8-11.7.1-4.7 1.7-8.6 4.8-11.8 3.1-3.1 7-4.7 11.8-4.8zm0 5.2c-3.3.1-6 1.2-8.1 3.4s-3.2 4.9-3.2 8.1c0 3.3 1.1 6 3.2 8.1s4.9 3.2 8.1 3.2c3.3 0 6-1.1 8.1-3.2 2.2-2.2 3.2-4.9 3.2-8.1 0-3.3-1.1-6-3.2-8.1-2.2-2.2-4.9-3.3-8.1-3.4z"/></g><path class="st12" d="M323.7 67.9l25 22.5M202.4 201.3L131 115.8m-8.4-17.5l-1.6-7.9m12.2 21.5l108.7 43.5m106-4.8l15.9-19.8m96.8-4.1l-60.9-9.6m-272.8.2l12.5 85"/><path class="st10" d="M305.2 249.2h22.9v17.1h-22.9z"/></svg>