<svg width="266" height="254" viewBox="0 0 266 254" xmlns="http://www.w3.org/2000/svg" xmlns:xlink="http://www.w3.org/1999/xlink"><defs><path id="a" d="M265.458 95.174l-132.296 77.352L0 95.175l132.296-77.352z"/><path id="b" d="M265.458 106.207l-132.296 77.352L0 106.208l132.296-77.352z"/><linearGradient x1="1.707%" y1="44.42%" x2="110.177%" y2="50%" id="c"><stop stop-color="#9EF7C0" offset="0%"/><stop stop-color="#49E196" offset="100%"/></linearGradient><path id="d" d="M265.458 77.351l-132.296 77.353L0 77.352 132.296 0z"/><linearGradient x1="-4.755%" y1="-1.914%" x2="106.203%" y2="100%" id="e"><stop stop-color="#FFF" offset="0%"/><stop stop-color="#BDFCDE" offset="100%"/></linearGradient><path id="f" d="M107.925 0l47.892 27.856 4.955 17.648 47.662 27.624v95.079l-100.509-58.461z"/><linearGradient x1="0%" y1="2.667%" x2="106.203%" y2="100%" id="g"><stop stop-color="#98FFC9" offset="0%"/><stop stop-color="#7BF3B4" offset="100%"/></linearGradient><path id="h" d="M.693 3.661l47.892 27.857 4.955 17.647 47.662 27.624v95.08L.693 113.406z"/><linearGradient x1="0%" y1="2.667%" x2="106.203%" y2="100%" id="i"><stop stop-color="#8AF9BF" offset="0%"/><stop stop-color="#70E4A7" offset="100%"/></linearGradient><path d="M37.144 110.182L1.36 89.392a2.587 2.587 0 0 1-1.285-2.238V4.02c0-.83.893-1.347 1.607-.932l35.785 20.79a2.587 2.587 0 0 1 1.285 2.237v83.134c0 .415-.224.752-.536.933a1.057 1.057 0 0 1-1.072 0z" id="j"/><path id="k" d="M47.7 27.296v53.118L.367 53.118V0z"/></defs><g fill="none" fill-rule="evenodd"><g transform="translate(0 70.027)"><g opacity=".5"><use fill="#FFF" xlink:href="#a"/><path stroke="#F6FFFB" d="M264.465 95.175L132.297 18.401.993 95.173l132.168 76.774 131.304-76.772z"/></g><g opacity=".4"><use fill="#FFF" xlink:href="#b"/><path stroke="#F6FFFB" d="M264.465 106.208L132.297 29.434.993 106.206l132.168 76.774 131.304-76.772z"/></g><path fill="#44BE83" opacity=".74" d="M265.458 82.675l-132.296 77.352L0 82.676v-5.474l132.296-63.623 133.162 63.623z"/><use fill="url(#c)" xlink:href="#d"/><path stroke-opacity=".721" stroke="#76FFBB" d="M264.465 77.352L132.297.58.993 77.35l132.168 76.774 131.304-76.773z"/></g><g opacity=".7"><use fill="url(#e)" xlink:href="#f"/><path stroke="#FFF" d="M108.425.87v108.588l99.51 57.88V73.416l-47.59-27.582-4.954-17.647L108.425.869z"/></g><g transform="translate(74.233 14.167)"><path fill="#44BE83" opacity=".4" d="M53.702 28.384l4.954 17.648-5.34 3.44-4.965-17.645z"/><path fill="#82FDC1" opacity=".851" d="M58.656 46.032l47.663 27.624-5.304 3.449L53.34 49.457z"/><path fill="#44BE83" opacity=".4" d="M106.319 73.656v95.079l-5.323 3.404V77.12z"/><use fill="url(#g)" xlink:href="#h"/><path stroke-opacity=".852" stroke="#9DFFC8" d="M1.193 4.53v108.59l99.51 57.879V77.077l-47.59-27.581-4.954-17.648L1.193 4.53z"/><path fill="#82FDC1" opacity=".851" d="M48.4 31.829l5.315-3.44L6.093.803.489 3.945z"/></g><g transform="translate(49.349 65.597)"><path d="M37.467 23.878L1.682 3.088 6.6.234l35.785 20.79-4.917 2.854zM6.599.234L1.682 3.088a1.056 1.056 0 0 0-1.072 0L5.527.234a1.056 1.056 0 0 1 1.072 0z" fill="#C6FFE4" opacity=".851"/><path d="M38.751 109.25V26.114c0-.384-.953-2.045-1.284-2.237l4.917-2.854c.331.192 1.284.89 1.284 2.238l-4.917 2.853 4.917-2.853v83.134l-2.838 1.647 2.839-1.647c0 .412-.221.747-.53.93l-4.918 2.853c.31-.182.53-.517.53-.93z" fill="#44BE83" opacity=".4"/><use fill="url(#i)" xlink:href="#j"/><path stroke-opacity=".852" stroke="#9DFFC8" d="M37.396 109.75a.557.557 0 0 0 .569 0 .568.568 0 0 0 .287-.5V26.114c0-.745-.395-1.433-1.036-1.805L1.431 3.52a.571.571 0 0 0-.856.5v83.134c0 .745.395 1.433 1.036 1.806l35.785 20.79z"/><path d="M3.606 73.048a.52.52 0 0 1-.25-.45V15.017c0-.403.418-.659.753-.461l30.692 18.09a.52.52 0 0 1 .25.45v57.583c0 .402-.418.659-.753.461L3.606 73.049z" fill="url(#e)" opacity=".901"/></g><g opacity=".901" transform="translate(136.093 89.427)"><use fill="url(#e)" xlink:href="#k"/><path stroke="#FFF" d="M47.2 27.585L.867.865V52.83l46.331 26.72V27.585z"/></g><path d="M158.668 114.257c1.65.935 3.23 2.17 4.685 3.616l-4.728 11.34 13.265 7.514c-.024 8.26-5.983 11.591-13.309 7.442-7.326-4.15-13.246-14.21-13.222-22.47.024-8.26 5.982-11.593 13.309-7.442z" fill="#FDDD6C" opacity=".7"/><path d="M168.327 116.317c5.006 4.976 8.555 12.456 8.536 18.854l-13.265-7.514 4.729-11.34z" fill="#FDDD6C" opacity=".7"/><g fill="#FDDD6C" opacity=".7"><path d="M55.456 97.392l6.301 3.73v24.38l-6.301-3.73v-24.38zm10.008 16.312l6.302 3.73v14.037l-6.302-3.73v-14.037zm10.008 1.446l6.302 3.73v18.47l-6.302-3.73v-18.47z"/></g></g></svg>