<svg id="Layer_1" data-name="Layer 1" xmlns="http://www.w3.org/2000/svg" viewBox="0 0 384.76 80.25"><defs><style>.cls-1{fill:#ddd}.cls-2{fill:#fff}.cls-3{fill:#0af}.cls-4{fill:#5e5e5e}.cls-5{fill:#a4a4a4}</style></defs><title>automatic-failover</title><path class="cls-1" d="M171.47 13.38V32a39.88 39.88 0 0 1-8 23.59 36.14 36.14 0 0 1-20 13.69 36.14 36.14 0 0 1-19.95-13.69 39.88 39.88 0 0 1-8-23.59V13.38l28-12.52z" transform="translate(-.03 -.22)"/><path class="cls-2" transform="rotate(-45 143.218 32.127)" d="M102.29 28.19h82.43v8h-82.43z"/><path class="cls-3" d="M282.18 13.38V32a39.88 39.88 0 0 1-8 23.59 36.14 36.14 0 0 1-20 13.69 36.14 36.14 0 0 1-19.95-13.69 39.88 39.88 0 0 1-8-23.59V13.38l28-12.52z" transform="translate(-.03 -.22)"/><path class="cls-2" d="M262.91 21.35a12.06 12.06 0 0 1 3.53 8.7 30.07 30.07 0 0 1-6.11 14.8 88.36 88.36 0 0 1-6.11 7.92 88.36 88.36 0 0 1-6.11-7.92 30.07 30.07 0 0 1-6.11-14.8 12.3 12.3 0 0 1 20.91-8.7zm-5.57 11.81a4.55 4.55 0 1 0-3.12 1.24 4.2 4.2 0 0 0 3.12-1.24z" transform="translate(-.03 -.22)"/><path class="cls-4" d="M12.39 33.51a7.13 7.13 0 0 1 2.08 5.13 17.73 17.73 0 0 1-3.61 8.75 51.8 51.8 0 0 1-3.61 4.67 54 54 0 0 1-3.61-4.67A17.83 17.83 0 0 1 0 38.64a7.14 7.14 0 0 1 7.22-7.22 7.16 7.16 0 0 1 5.17 2.09zm-3.3 7a2.46 2.46 0 0 0 .73-1.84 2.48 2.48 0 0 0-2.57-2.56 2.46 2.46 0 0 0-2.56 2.56 2.48 2.48 0 0 0 2.56 2.57 2.47 2.47 0 0 0 1.84-.76zM52 4.51a7.13 7.13 0 0 1 2.08 5.13 17.73 17.73 0 0 1-3.61 8.75 51.8 51.8 0 0 1-3.61 4.67 52.89 52.89 0 0 1-3.6-4.67 17.73 17.73 0 0 1-3.61-8.75 7.12 7.12 0 0 1 7.21-7.22A7.16 7.16 0 0 1 52 4.51zm-3.3 7a2.46 2.46 0 0 0 .73-1.84 2.48 2.48 0 0 0-2.57-2.56 2.46 2.46 0 0 0-2.56 2.53 2.48 2.48 0 0 0 2.56 2.57 2.46 2.46 0 0 0 1.84-.73zM52 61.92a7.11 7.11 0 0 1 2.08 5.14 17.74 17.74 0 0 1-3.61 8.74 50.11 50.11 0 0 1-3.61 4.67 51.13 51.13 0 0 1-3.6-4.67 17.74 17.74 0 0 1-3.61-8.74A7.26 7.26 0 0 1 52 61.92zm-3.3 7a2.49 2.49 0 0 0 .73-1.84 2.5 2.5 0 0 0-2.57-2.57 2.48 2.48 0 0 0-2.56 2.57 2.46 2.46 0 0 0 2.56 2.56 2.49 2.49 0 0 0 1.84-.74zm298.53-58.27h35.4a2.51 2.51 0 0 1 1.55.73 2.11 2.11 0 0 1 .62 1.55v8.79a2.15 2.15 0 0 1-.62 1.56 2.13 2.13 0 0 1-1.55.62h-35.4a2.13 2.13 0 0 1-1.55-.62 2.15 2.15 0 0 1-.62-1.56v-8.79a2.11 2.11 0 0 1 .62-1.55 2.51 2.51 0 0 1 1.55-.73zm0 17.7h35.4a2.09 2.09 0 0 1 1.55.62 2.11 2.11 0 0 1 .62 1.55v8.9a2.11 2.11 0 0 1-.62 1.55 2.09 2.09 0 0 1-1.55.62h-35.4a2.09 2.09 0 0 1-1.55-.62 2.11 2.11 0 0 1-.62-1.55v-8.9a2.11 2.11 0 0 1 .62-1.55 2.09 2.09 0 0 1 1.55-.62zm0 17.69h35.4a2.12 2.12 0 0 1 2.17 2.18V57a2.11 2.11 0 0 1-.62 1.55 2.51 2.51 0 0 1-1.55.73h-35.4a2.51 2.51 0 0 1-1.55-.73 2.11 2.11 0 0 1-.62-1.55v-8.78a2.12 2.12 0 0 1 2.17-2.22zm2.28-30.94v4.45h4.35V15.1zm0 17.7v4.34h4.35V32.8zm0 17.59v4.45h4.35v-4.45zm8.8-30.84h2.17V15.1h-2.17zm0 17.59h2.17V32.8h-2.17zm0 17.7h2.17v-4.45h-2.17z" transform="translate(-.03 -.22)"/><path class="cls-5" d="M204.76 29.6h-.07l-4-.56a.5.5 0 0 1 .15-1l4 .56a.51.51 0 0 1 .42.57.5.5 0 0 1-.5.43zm-10.89-1.55h-.08l-4-.56a.51.51 0 0 1-.42-.57.51.51 0 0 1 .56-.43l4 .57a.5.5 0 0 1 .42.56.5.5 0 0 1-.48.43zM183 26.51h-.07l-4-.56a.5.5 0 0 1 .14-1l4 .56a.5.5 0 0 1 .43.57.51.51 0 0 1-.5.43zM172.08 25H172l-4-.56a.5.5 0 0 1 .14-1l4 .56a.5.5 0 0 1-.07 1zm-10.89-1.55h-.07l-4-.57a.49.49 0 0 1-.42-.56.5.5 0 0 1 .56-.43l4 .57a.5.5 0 0 1 .43.56.51.51 0 0 1-.5.39zm-10.89-1.59h-.07l-4-.56a.5.5 0 0 1 .14-1l4 .56a.5.5 0 0 1 .43.56.51.51 0 0 1-.5.44zm-10.89-1.54h-.07l-4-.56a.5.5 0 0 1 .14-1l4 .56a.5.5 0 0 1-.07 1zm-10.89-1.55h-.07l-4-.57a.5.5 0 0 1 .14-1l4 .57a.5.5 0 0 1-.07 1zm-10.89-1.55h-.07l-4-.56a.52.52 0 0 1-.43-.57.51.51 0 0 1 .57-.42l4 .56a.51.51 0 0 1 .43.56.51.51 0 0 1-.5.43zm-10.89-1.54h-.07l-4-.56a.51.51 0 0 1-.43-.57.51.51 0 0 1 .57-.42l4 .56a.5.5 0 0 1 .42.57.49.49 0 0 1-.49.42zm-10.89-1.55h-.07l-4-.56a.5.5 0 1 1 .14-1l4 .56a.51.51 0 0 1 .42.57.5.5 0 0 1-.49.43zM85 12.58h-.07l-4-.56a.51.51 0 0 1-.43-.57.52.52 0 0 1 .57-.43l4 .57a.5.5 0 0 1-.07 1zM74.07 11H74l-4-.56a.5.5 0 1 1 .14-1l4 .56a.5.5 0 0 1-.07 1z" transform="translate(-.03 -.22)"/><path class="cls-5" d="M71.63 12.91L61.3 8.51l11.14-1.36-.81 5.76zM204.61 31.8l11.14-1.35-10.33-4.41-.81 5.76z"/><path class="cls-5" d="M70.11 63.86a.51.51 0 0 1-.5-.43.49.49 0 0 1 .43-.56l4-.57a.5.5 0 0 1 .14 1l-4 .57zM81 62.31a.51.51 0 0 1-.5-.43.5.5 0 0 1 .43-.56l4-.56a.5.5 0 0 1 .56.42.51.51 0 0 1-.42.57l-4 .56zm10.89-1.54a.51.51 0 0 1-.5-.43.5.5 0 0 1 .43-.57l4-.56a.5.5 0 0 1 .14 1l-4 .56zm10.89-1.55a.51.51 0 0 1-.5-.43.52.52 0 0 1 .43-.57l4-.56a.49.49 0 0 1 .56.43.5.5 0 0 1-.42.56l-4 .56zm10.89-1.55a.51.51 0 0 1-.5-.43.51.51 0 0 1 .43-.56l4-.56a.5.5 0 0 1 .57.42.52.52 0 0 1-.43.57l-4 .56zm10.89-1.54a.49.49 0 0 1-.49-.43.5.5 0 0 1 .42-.57l4-.56a.51.51 0 0 1 .51.43.51.51 0 0 1-.43.57l-4 .56zm10.89-1.55a.5.5 0 0 1-.49-.43.51.51 0 0 1 .42-.57l4-.56a.5.5 0 1 1 .14 1l-4 .56zM146.34 53a.5.5 0 0 1-.07-1l4-.57a.51.51 0 0 1 .57.43.49.49 0 0 1-.43.56l-4 .57zm10.89-1.55a.5.5 0 0 1-.07-1l4-.56a.51.51 0 0 1 .57.42.5.5 0 0 1-.43.57l-4 .56zm10.89-1.54a.5.5 0 0 1-.07-1l4-.56a.5.5 0 1 1 .14 1l-4 .56zM179 48.39a.5.5 0 0 1-.49-.43.49.49 0 0 1 .42-.56l4-.57a.51.51 0 0 1 .57.43.5.5 0 0 1-.43.56l-4 .57zm10.89-1.55a.5.5 0 0 1-.07-1l4-.56a.5.5 0 0 1 .57.42.51.51 0 0 1-.42.57l-4 .56zm10.89-1.54a.5.5 0 0 1-.07-1l4-.56a.5.5 0 0 1 .14 1l-4 .56z" transform="translate(-.03 -.22)"/><path class="cls-5" d="M72.44 65.74L61.3 64.39l10.33-4.41.81 5.76zm132.98-18.89l10.33-4.4-11.14-1.36.81 5.76z"/><path class="cls-5" d="M202 37.17h-4a.51.51 0 0 1-.5-.5.5.5 0 0 1 .5-.5h4a.5.5 0 0 1 .5.5.5.5 0 0 1-.5.5zm-11 0h-4a.51.51 0 0 1-.5-.5.5.5 0 0 1 .5-.5h4a.5.5 0 0 1 .5.5.5.5 0 0 1-.5.5zm-11 0h-4a.51.51 0 0 1-.5-.5.5.5 0 0 1 .5-.5h4a.5.5 0 0 1 .5.5.5.5 0 0 1-.5.5zm-11 0h-4a.51.51 0 0 1-.5-.5.5.5 0 0 1 .5-.5h4a.5.5 0 0 1 .5.5.5.5 0 0 1-.5.5zm-11 0h-4a.51.51 0 0 1-.5-.5.5.5 0 0 1 .5-.5h4a.5.5 0 0 1 .5.5.5.5 0 0 1-.5.5zm-11 0h-4a.51.51 0 0 1-.5-.5.5.5 0 0 1 .5-.5h4a.5.5 0 0 1 .5.5.5.5 0 0 1-.5.5zm-11 0h-4a.51.51 0 0 1-.5-.5.5.5 0 0 1 .5-.5h4a.5.5 0 0 1 .5.5.5.5 0 0 1-.5.5zm-11 0h-4a.51.51 0 0 1-.5-.5.5.5 0 0 1 .5-.5h4a.5.5 0 0 1 .5.5.5.5 0 0 1-.5.5zm-11 0h-4a.51.51 0 0 1-.5-.5.5.5 0 0 1 .5-.5h4a.5.5 0 0 1 .5.5.5.5 0 0 1-.5.5zm-11 0h-4a.51.51 0 0 1-.5-.5.5.5 0 0 1 .5-.5h4a.5.5 0 0 1 .5.5.5.5 0 0 1-.5.5zm-11 0h-4a.51.51 0 0 1-.5-.5.5.5 0 0 1 .5-.5h4a.5.5 0 0 1 .5.5.5.5 0 0 1-.5.5zm-11 0h-4a.51.51 0 0 1-.5-.5.5.5 0 0 1 .5-.5h4a.5.5 0 0 1 .5.5.5.5 0 0 1-.5.5zm-11 0h-4a.51.51 0 0 1-.5-.5.5.5 0 0 1 .5-.5h4a.5.5 0 0 1 .5.5.5.5 0 0 1-.5.5zm-11 0h-4a.51.51 0 0 1-.5-.5.5.5 0 0 1 .5-.5h4a.5.5 0 0 1 .5.5.5.5 0 0 1-.5.5zm-11 0h-4a.51.51 0 0 1-.5-.5.5.5 0 0 1 .5-.5h4a.5.5 0 0 1 .5.5.5.5 0 0 1-.5.5zm-11 0h-4a.51.51 0 0 1-.5-.5.5.5 0 0 1 .5-.5h4a.5.5 0 0 1 .5.5.5.5 0 0 1-.5.5z" transform="translate(-.03 -.22)"/><path class="cls-5" d="M34.94 39.35l-10.84-2.9 10.84-2.91v5.81zm169.97 0l10.84-2.9-10.84-2.91v5.81z"/><path class="cls-5" d="M204.76 29.6h-.07l-4-.56a.5.5 0 0 1 .15-1l4 .56a.51.51 0 0 1 .42.57.5.5 0 0 1-.5.43zm-10.89-1.55h-.08l-4-.56a.51.51 0 0 1-.42-.57.51.51 0 0 1 .56-.43l4 .57a.5.5 0 0 1 .42.56.5.5 0 0 1-.48.43zM183 26.51h-.07l-4-.56a.5.5 0 0 1 .14-1l4 .56a.5.5 0 0 1 .43.57.51.51 0 0 1-.5.43zM172.08 25H172l-4-.56a.5.5 0 0 1 .14-1l4 .56a.5.5 0 0 1-.07 1zm-10.89-1.55h-.07l-4-.57a.49.49 0 0 1-.42-.56.5.5 0 0 1 .56-.43l4 .57a.5.5 0 0 1 .43.56.51.51 0 0 1-.5.39zm-10.89-1.59h-.07l-4-.56a.5.5 0 0 1 .14-1l4 .56a.5.5 0 0 1 .43.56.51.51 0 0 1-.5.44zm-10.89-1.54h-.07l-4-.56a.5.5 0 0 1 .14-1l4 .56a.5.5 0 0 1-.07 1zm-10.89-1.55h-.07l-4-.57a.5.5 0 0 1 .14-1l4 .57a.5.5 0 0 1-.07 1zm-10.89-1.55h-.07l-4-.56a.52.52 0 0 1-.43-.57.51.51 0 0 1 .57-.42l4 .56a.51.51 0 0 1 .43.56.51.51 0 0 1-.5.43zm-10.89-1.54h-.07l-4-.56a.51.51 0 0 1-.43-.57.51.51 0 0 1 .57-.42l4 .56a.5.5 0 0 1 .42.57.49.49 0 0 1-.49.42zm-10.89-1.55h-.07l-4-.56a.5.5 0 1 1 .14-1l4 .56a.51.51 0 0 1 .42.57.5.5 0 0 1-.49.43zM85 12.58h-.07l-4-.56a.51.51 0 0 1-.43-.57.52.52 0 0 1 .57-.43l4 .57a.5.5 0 0 1-.07 1zM74.07 11H74l-4-.56a.5.5 0 1 1 .14-1l4 .56a.5.5 0 0 1-.07 1z" transform="translate(-.03 -.22)"/><path class="cls-5" d="M71.63 12.91L61.3 8.51l11.14-1.36-.81 5.76zM204.61 31.8l11.14-1.35-10.33-4.41-.81 5.76z"/><path class="cls-5" d="M70.11 63.86a.51.51 0 0 1-.5-.43.49.49 0 0 1 .43-.56l4-.57a.5.5 0 0 1 .14 1l-4 .57zM81 62.31a.51.51 0 0 1-.5-.43.5.5 0 0 1 .43-.56l4-.56a.5.5 0 0 1 .56.42.51.51 0 0 1-.42.57l-4 .56zm10.89-1.54a.51.51 0 0 1-.5-.43.5.5 0 0 1 .43-.57l4-.56a.5.5 0 0 1 .14 1l-4 .56zm10.89-1.55a.51.51 0 0 1-.5-.43.52.52 0 0 1 .43-.57l4-.56a.49.49 0 0 1 .56.43.5.5 0 0 1-.42.56l-4 .56zm10.89-1.55a.51.51 0 0 1-.5-.43.51.51 0 0 1 .43-.56l4-.56a.5.5 0 0 1 .57.42.52.52 0 0 1-.43.57l-4 .56zm10.89-1.54a.49.49 0 0 1-.49-.43.5.5 0 0 1 .42-.57l4-.56a.51.51 0 0 1 .51.43.51.51 0 0 1-.43.57l-4 .56zm10.89-1.55a.5.5 0 0 1-.49-.43.51.51 0 0 1 .42-.57l4-.56a.5.5 0 1 1 .14 1l-4 .56zM146.34 53a.5.5 0 0 1-.07-1l4-.57a.51.51 0 0 1 .57.43.49.49 0 0 1-.43.56l-4 .57zm10.89-1.55a.5.5 0 0 1-.07-1l4-.56a.51.51 0 0 1 .57.42.5.5 0 0 1-.43.57l-4 .56zm10.89-1.54a.5.5 0 0 1-.07-1l4-.56a.5.5 0 1 1 .14 1l-4 .56zM179 48.39a.5.5 0 0 1-.49-.43.49.49 0 0 1 .42-.56l4-.57a.51.51 0 0 1 .57.43.5.5 0 0 1-.43.56l-4 .57zm10.89-1.55a.5.5 0 0 1-.07-1l4-.56a.5.5 0 0 1 .57.42.51.51 0 0 1-.42.57l-4 .56zm10.89-1.54a.5.5 0 0 1-.07-1l4-.56a.5.5 0 0 1 .14 1l-4 .56z" transform="translate(-.03 -.22)"/><path class="cls-5" d="M72.44 65.74L61.3 64.39l10.33-4.41.81 5.76zm132.98-18.89l10.33-4.4-11.14-1.36.81 5.76z"/><path class="cls-5" d="M202 37.17h-4a.51.51 0 0 1-.5-.5.5.5 0 0 1 .5-.5h4a.5.5 0 0 1 .5.5.5.5 0 0 1-.5.5zm-11 0h-4a.51.51 0 0 1-.5-.5.5.5 0 0 1 .5-.5h4a.5.5 0 0 1 .5.5.5.5 0 0 1-.5.5zm-11 0h-4a.51.51 0 0 1-.5-.5.5.5 0 0 1 .5-.5h4a.5.5 0 0 1 .5.5.5.5 0 0 1-.5.5zm-11 0h-4a.51.51 0 0 1-.5-.5.5.5 0 0 1 .5-.5h4a.5.5 0 0 1 .5.5.5.5 0 0 1-.5.5zm-11 0h-4a.51.51 0 0 1-.5-.5.5.5 0 0 1 .5-.5h4a.5.5 0 0 1 .5.5.5.5 0 0 1-.5.5zm-11 0h-4a.51.51 0 0 1-.5-.5.5.5 0 0 1 .5-.5h4a.5.5 0 0 1 .5.5.5.5 0 0 1-.5.5zm-11 0h-4a.51.51 0 0 1-.5-.5.5.5 0 0 1 .5-.5h4a.5.5 0 0 1 .5.5.5.5 0 0 1-.5.5zm-11 0h-4a.51.51 0 0 1-.5-.5.5.5 0 0 1 .5-.5h4a.5.5 0 0 1 .5.5.5.5 0 0 1-.5.5zm-11 0h-4a.51.51 0 0 1-.5-.5.5.5 0 0 1 .5-.5h4a.5.5 0 0 1 .5.5.5.5 0 0 1-.5.5zm-11 0h-4a.51.51 0 0 1-.5-.5.5.5 0 0 1 .5-.5h4a.5.5 0 0 1 .5.5.5.5 0 0 1-.5.5zm-11 0h-4a.51.51 0 0 1-.5-.5.5.5 0 0 1 .5-.5h4a.5.5 0 0 1 .5.5.5.5 0 0 1-.5.5zm-11 0h-4a.51.51 0 0 1-.5-.5.5.5 0 0 1 .5-.5h4a.5.5 0 0 1 .5.5.5.5 0 0 1-.5.5zm-11 0h-4a.51.51 0 0 1-.5-.5.5.5 0 0 1 .5-.5h4a.5.5 0 0 1 .5.5.5.5 0 0 1-.5.5zm-11 0h-4a.51.51 0 0 1-.5-.5.5.5 0 0 1 .5-.5h4a.5.5 0 0 1 .5.5.5.5 0 0 1-.5.5zm-11 0h-4a.51.51 0 0 1-.5-.5.5.5 0 0 1 .5-.5h4a.5.5 0 0 1 .5.5.5.5 0 0 1-.5.5zm-11 0h-4a.51.51 0 0 1-.5-.5.5.5 0 0 1 .5-.5h4a.5.5 0 0 1 .5.5.5.5 0 0 1-.5.5z" transform="translate(-.03 -.22)"/><path class="cls-5" d="M34.94 39.35l-10.84-2.9 10.84-2.91v5.81zm169.97 0l10.84-2.9-10.84-2.91v5.81z"/><path class="cls-5" d="M330.67 37.17h-2a.5.5 0 0 1-.5-.5.5.5 0 0 1 .5-.5h2a.5.5 0 0 1 .5.5.51.51 0 0 1-.5.5zm-8.31 0h-3.6a.51.51 0 0 1-.5-.5.5.5 0 0 1 .5-.5h3.6a.5.5 0 0 1 .5.5.5.5 0 0 1-.5.5zm-9.9 0h-3.6a.51.51 0 0 1-.5-.5.5.5 0 0 1 .5-.5h3.6a.5.5 0 0 1 .5.5.5.5 0 0 1-.5.5zm-9.9 0h-2a.51.51 0 0 1-.5-.5.5.5 0 0 1 .5-.5h2a.5.5 0 0 1 .5.5.5.5 0 0 1-.5.5z" transform="translate(-.03 -.22)"/><path class="cls-5" d="M328.65 33.54l10.84 2.91-10.84 2.9v-5.81zm-26.14 0l-10.84 2.91 10.84 2.9v-5.81z"/></svg>