<svg id="Layer_1" xmlns="http://www.w3.org/2000/svg" viewBox="0 0 267.2 267.2"><style>.st0{fill:#ebebeb}.st1{fill:none;stroke:#0af;stroke-linecap:round;stroke-linejoin:round;stroke-dasharray:4,7}.st2{fill:#0af}.st3{enable-background:new}.st4{fill:#fff}</style><title>Asset 1</title><g id="Layer_2_1_"><g id="Layer_1-2"><circle class="st0" cx="133.9" cy="133.4" r="102.1"/><path class="st1" d="M234.7 149.2c14.7-3.1 25.2-6.8 29.8-10.9m-3.6-12.3c-17.2-9.7-67.6-16.8-127-16.8C60.2 109.2.5 120 .5 133.4c0 6.1 12.3 11.6 32.5 15.8"/><path class="st2" d="M261.5 122.4l5.7 11-10.4-6.6z"/><path class="st1" d="M38.6 170.1c-15.4 13.8-23.3 24.7-20.2 30 2.2 3.8 9.6 4.1 20.9 1.7 3.5-.8 7.2-1.8 11.4-3M213.2 69.2c19.7-6.5 33.1-7.8 36.1-2.6 6.7 11.6-39.6 50.8-103.4 87.6-30.4 17.5-59.2 31.4-81.9 39.8"/><path class="st2" d="M65 190.7l-9.2 6.4 11.1-1z"/><path class="st1" d="M170.7 38.1c13.8-15.4 24.7-23.3 30-20.3 4.7 2.7 4.1 13.8-.8 30.4m-5 14.9c-8.4 22.7-22.3 51.7-40 82.3-36.8 63.8-76 110.1-87.6 103.4-5.2-3-3.9-16.4 2.6-36.1"/><path class="st2" d="M191.1 64.1l7-10.2-.9 12.3z"/><path class="st1" d="M149.7 32.5c-3.1-14.7-6.8-25.2-11-29.8m-12.2 3.6c-9.7 17.2-16.8 67.6-16.8 127 0 73.7 10.8 133.4 24.2 133.4 6.1 0 11.6-12.3 15.8-32.5"/><path class="st2" d="M122.9 5.8l11-5.8-6.6 10.4z"/><path class="st1" d="M203.8 239.7c-.2-19.8-19.2-66.9-49-118.4C118 57.5 78.8 11.2 67.2 17.9s8.9 63.8 45.7 127.6c32.1 55.6 66 97.9 81.8 103.4"/><path class="st2" d="M207.1 238.4l-6.6 10.5.5-12.4z"/><path class="st1" d="M53.2 68.8c-19-6.1-31.8-7.3-34.8-2.1-1.2 2-.7 4.9 1.2 8.5m9.3 12.1c16.8 17.7 51.1 42.9 92.8 67 63.8 36.8 120.9 57.3 127.6 45.7 3-5.2-4.8-16.2-20.3-30"/><path class="st2" d="M28 91l-5.4-11.1 10.2 6.9z"/><g class="st3"><path class="st4" d="M133.9 58.5l61.5 27.6v41c-.4 19.4-6.3 36.7-17.6 51.9-11.3 15.2-26 25.2-43.9 30.1-17.9-4.9-32.6-14.9-43.9-30.1-11.3-15.2-17.2-32.5-17.6-51.9v-41l61.5-27.6z"/></g><g class="st3"><path class="st2" d="M195.4 86.1v41c-.4 19.4-6.3 36.7-17.6 51.9-11.3 15.2-26 25.2-43.9 30.1-17.9-4.9-32.6-14.9-43.9-30.1-11.3-15.2-17.2-32.5-17.6-51.9v-41l61.5-27.6 61.5 27.6zm-20.5 27.2l-9.6-9.6-45.2 44.9-17.6-17.6-9.6 9.6 27.2 27.6 54.8-54.9z"/></g></g></g></svg>