<svg id="Layer_1" xmlns="http://www.w3.org/2000/svg" viewBox="0 0 487 90.1"><style>.st0{enable-background:new}.st1{fill:#0af}.st2{fill:#fff}.st3{fill:#5e5e5e}.st4{fill:none;stroke:#a4a4a4;stroke-linecap:round;stroke-linejoin:round;stroke-dasharray:4,7}.st5{fill:#a4a4a4}.st6,.st7{fill:none;stroke:#a4a4a4;stroke-linecap:round;stroke-linejoin:round}.st7{stroke-dasharray:3.2,5.6}</style><title>Asset 2</title><g id="Layer_2_1_"><g id="Layer_1-2"><g class="st0"><path class="st1" d="M176.6 20.4V39c-.2 8.8-2.9 16.7-8 23.6-5.1 6.9-11.8 11.5-20 13.7-8.2-2.2-14.8-6.8-20-13.7-5.1-6.9-7.8-14.8-8-23.6V20.4l28-12.5 28 12.5z"/></g><g class="st0"><path class="st2" d="M157.4 28.3c2.3 2.3 3.5 5.2 3.5 8.7-.5 5-2.5 9.9-6.1 14.8-3.6 4.9-5.6 7.5-6.1 7.9-.5-.4-2.5-3-6.1-7.9-3.6-4.9-5.6-9.8-6.1-14.8.1-3.5 1.2-6.4 3.5-8.7s5.2-3.5 8.7-3.5c3.5.1 6.4 1.2 8.7 3.5zm-5.6 11.8c.8-.8 1.2-1.9 1.2-3.1 0-1.3-.4-2.3-1.2-3.1s-1.9-1.2-3.1-1.2c-1.3 0-2.3.4-3.1 1.2s-1.2 1.9-1.2 3.1c0 1.3.4 2.3 1.2 3.1s1.9 1.2 3.1 1.2c1.2.1 2.3-.3 3.1-1.2z"/></g><g class="st0"><path class="st3" d="M17.5 40.5c1.4 1.4 2.1 3.1 2.1 5.1-.3 2.9-1.5 5.9-3.6 8.7-2.1 2.9-3.3 4.4-3.6 4.7-.3-.2-1.5-1.8-3.6-4.7-2.1-2.9-3.3-5.8-3.6-8.7 0-2.1.7-3.8 2.1-5.1s3.1-2.1 5.1-2.1c2.1 0 3.8.7 5.1 2.1zm-3.3 7c.5-.5.7-1.1.7-1.8s-.2-1.4-.7-1.8-1.1-.7-1.8-.7-1.4.2-1.8.7-.7 1.1-.7 1.8.2 1.4.7 1.8 1.1.7 1.8.7 1.4-.2 1.8-.7z"/></g><g class="st0"><path class="st3" d="M57.1 11.5c1.4 1.4 2.1 3.1 2.1 5.1-.3 2.9-1.5 5.9-3.6 8.7-2.1 2.9-3.3 4.4-3.6 4.7-.3-.2-1.5-1.8-3.6-4.7-2.1-2.9-3.3-5.8-3.6-8.7 0-2.1.7-3.8 2.1-5.1S50 9.4 52 9.4c2.1 0 3.8.7 5.1 2.1zm-3.2 7c.5-.5.7-1.1.7-1.8s-.2-1.4-.7-1.8-1.1-.7-1.8-.7-1.4.2-1.8.7-.7 1.1-.7 1.8.2 1.4.7 1.8 1.1.7 1.8.7 1.3-.2 1.8-.7z"/></g><g class="st0"><path class="st3" d="M57.1 68.9c1.4 1.4 2.1 3.1 2.1 5.1-.3 2.9-1.5 5.9-3.6 8.7-2.1 2.9-3.3 4.4-3.6 4.7-.3-.2-1.5-1.8-3.6-4.7-2.1-2.9-3.3-5.8-3.6-8.7 0-2.1.7-3.8 2.1-5.1s3.1-2.1 5.1-2.1c2.1.1 3.8.7 5.1 2.1zm-3.2 7c.5-.5.7-1.1.7-1.8s-.2-1.4-.7-1.8-1.1-.7-1.8-.7-1.4.2-1.8.7-.7 1.1-.7 1.8.2 1.4.7 1.8 1.1.7 1.8.7 1.3-.2 1.8-.7z"/></g><g class="st0"><path class="st3" d="M226.7 17.6h35.4c.6.1 1.1.3 1.6.7.4.4.6.9.6 1.6v8.8c0 .6-.2 1.1-.6 1.6-.4.4-.9.6-1.6.6h-35.4c-.6 0-1.1-.2-1.6-.6-.4-.4-.6-.9-.6-1.6v-8.8c0-.6.2-1.1.6-1.6.5-.3 1-.6 1.6-.7zm0 17.7h35.4c.6 0 1.1.2 1.6.6.4.4.6.9.6 1.6v8.9c0 .6-.2 1.1-.6 1.6-.4.4-.9.6-1.6.6h-35.4c-.6 0-1.1-.2-1.6-.6-.4-.4-.6-.9-.6-1.6v-8.9c0-.6.2-1.1.6-1.6.5-.4 1-.6 1.6-.6zm0 17.7h35.4c.6 0 1.1.2 1.6.6.4.4.6.9.6 1.6V64c0 .6-.2 1.1-.6 1.6-.4.4-.9.7-1.6.7h-35.4c-.6-.1-1.1-.3-1.6-.7-.4-.4-.6-.9-.6-1.6v-8.8c0-.6.2-1.1.6-1.6.5-.4 1-.6 1.6-.6zm2.3-30.9v4.5h4.3v-4.5H229zm0 17.7v4.3h4.3v-4.3H229zm0 17.6v4.4h4.3v-4.4H229zm8.8-30.9h2.2V22h-2.2v4.5zm0 17.6h2.2v-4.3h-2.2v4.3zm0 17.7h2.2v-4.4h-2.2v4.4z"/></g><g class="st0"><path class="st1" d="M338.4 7.8l28 12.5V39c-.2 8.8-2.9 16.7-8 23.6-5.1 6.9-11.8 11.5-20 13.7-8.2-2.2-14.8-6.8-20-13.7-5.1-6.9-7.8-14.8-8-23.6V20.4l28-12.6z"/></g><g class="st0"><path class="st2" d="M338.4 24.8c3.5.1 6.4 1.2 8.7 3.5s3.5 5.2 3.5 8.7c-.5 5-2.5 9.9-6.1 14.8-3.6 4.9-5.6 7.5-6.1 7.9-.5-.4-2.5-3-6.1-7.9-3.6-4.9-5.6-9.8-6.1-14.8.1-3.5 1.2-6.4 3.5-8.7s5.2-3.4 8.7-3.5zm0 16.6c1.3 0 2.3-.4 3.1-1.2s1.2-1.9 1.2-3.1c0-1.3-.4-2.3-1.2-3.1s-1.9-1.2-3.1-1.2c-1.3 0-2.3.4-3.1 1.2s-1.3 1.8-1.3 3c0 1.3.4 2.3 1.2 3.1s1.9 1.3 3.2 1.3z"/></g><g class="st0"><path class="st3" d="M474.6 38.4c2.1 0 3.8.7 5.1 2.1s2.1 3.1 2.1 5.1c-.3 2.9-1.5 5.9-3.6 8.7-2.1 2.9-3.3 4.4-3.6 4.7-.3-.2-1.5-1.8-3.6-4.7-2.1-2.9-3.3-5.8-3.6-8.7 0-2.1.7-3.8 2.1-5.1 1.4-1.4 3.1-2.1 5.1-2.1zm0 9.8c.7 0 1.4-.2 1.8-.7s.7-1.1.7-1.8-.2-1.4-.7-1.8-1.1-.7-1.8-.7-1.4.2-1.8.7-.7 1.1-.7 1.8.2 1.4.7 1.8 1.1.7 1.8.7z"/></g><g class="st0"><path class="st3" d="M435 2.2c2.1 0 3.8.7 5.1 2.1s2.1 3.1 2.1 5.1c-.3 2.9-1.5 5.9-3.6 8.7-2.1 2.9-3.3 4.4-3.6 4.7-.3-.2-1.5-1.8-3.6-4.7-2.1-2.9-3.3-5.8-3.6-8.7 0-2.1.7-3.8 2.1-5.1s3.1-2.1 5.1-2.1zm0 9.8c.7 0 1.4-.2 1.8-.7s.7-1.1.7-1.8-.2-1.4-.7-1.8-1.1-.7-1.8-.7-1.4.2-1.8.7-.7 1.1-.7 1.8.2 1.4.7 1.8 1.1.7 1.8.7z"/></g><g class="st0"><path class="st3" d="M435 65.9c2.1 0 3.8.7 5.1 2.1s2.1 3.1 2.1 5.1c-.3 2.9-1.5 5.9-3.6 8.7-2.1 2.9-3.3 4.4-3.6 4.7-.3-.2-1.5-1.8-3.6-4.7-2.1-2.9-3.3-5.8-3.6-8.7 0-2.1.7-3.8 2.1-5.1s3.1-2 5.1-2.1zm0 9.8c.7 0 1.4-.2 1.8-.7s.7-1.1.7-1.8-.2-1.4-.7-1.8-1.1-.7-1.8-.7-1.4.2-1.8.7-.7 1.1-.7 1.8.2 1.4.7 1.8 1.1.7 1.8.7z"/></g><path class="st4" d="M412.7 19.5l-30.6 14.4"/><path class="st5" d="M409.7 17.7l11-2-8.6 7.3zm-27.1 12.7l-8.5 7.3 11-2z"/><path class="st4" d="M412.7 67.8l-30.6-14.4"/><path class="st5" d="M412.1 64.3l8.6 7.3-11-2zm-27-12.7l-11-1.9 8.5 7.2z"/><path class="st6" d="M276.8 43.7h2"/><path class="st7" d="M284.4 43.7h6"/><path class="st6" d="M293.2 43.7h2"/><path class="st5" d="M278.8 46.5l-10.9-2.8 10.9-3zm14.4 0l10.8-2.8-10.8-3z"/><path class="st4" d="M449 43.7h-66.1"/><path class="st5" d="M447.1 40.7l10.8 3-10.8 2.8zm-62.2 0l-10.8 3 10.8 2.8z"/><path class="st4" d="M74.5 19.5l30.6 14.4"/><path class="st5" d="M75.1 23l-8.6-7.3 11 2zm27 12.7l11 2-8.6-7.3z"/><path class="st4" d="M74.5 67.8l30.6-14.4"/><path class="st5" d="M77.5 69.6l-11 2 8.6-7.3zm27-12.7l8.6-7.2-11 1.9z"/><path class="st6" d="M210.4 43.7h-2"/><path class="st7" d="M202.8 43.7h-6"/><path class="st6" d="M194 43.7h-2"/><path class="st5" d="M208.4 40.7l10.9 3-10.9 2.8zm-14.4 0l-10.9 3 10.9 2.8z"/><path class="st4" d="M38.1 43.7h66.1"/><path class="st5" d="M40.1 46.5l-10.8-2.8 10.8-3zm62.2 0l10.8-2.8-10.8-3z"/></g></g></svg>