<svg id="Layer_1" xmlns="http://www.w3.org/2000/svg" xmlns:xlink="http://www.w3.org/1999/xlink" viewBox="0 0 452 347.5"><style>.st0{enable-background:new}.st1{fill:#ebebeb}.st2{fill:#fff}.st3,.st4{clip-path:url(#SVGID_2_);fill:#fff}.st4{fill:#fefefe}.st5{fill:#fdfdfd}.st5,.st6,.st7,.st8,.st9{clip-path:url(#SVGID_2_)}.st6{fill:#fcfcfc}.st7{fill:#fbfbfb}.st8{fill:#fafafa}.st9{fill:#f9f9f9}.st10{fill:#f8f8f8}.st10,.st11,.st12,.st13,.st14{clip-path:url(#SVGID_2_)}.st11{fill:#f7f7f7}.st12{fill:#f6f6f6}.st13{fill:#f5f5f5}.st14{fill:#f4f4f4}.st15{fill:#f3f3f3}.st15,.st16,.st17,.st18,.st19{clip-path:url(#SVGID_2_)}.st16{fill:#f2f2f2}.st17{fill:#f1f1f1}.st18{fill:#f0f0f0}.st19{fill:#efefef}.st20{fill:#ededed}.st20,.st21,.st22,.st23,.st24{clip-path:url(#SVGID_2_)}.st21{fill:#ececec}.st22{fill:#ebebeb}.st23{fill:#eaeaea}.st24{fill:#e9e9e9}.st25{fill:#e8e8e8}.st25,.st26,.st27,.st28,.st29{clip-path:url(#SVGID_2_)}.st26{fill:#e7e7e7}.st27{fill:#e6e6e6}.st28{fill:#e5e5e5}.st29{fill:#e4e4e4}.st30{fill:#e3e3e3}.st30,.st31,.st32,.st33,.st34{clip-path:url(#SVGID_2_)}.st31{fill:#e2e2e2}.st32{fill:#e1e1e1}.st33{fill:#e0e0e0}.st34{fill:#dfdfdf}.st35{fill:#dedede}.st35,.st36{clip-path:url(#SVGID_2_)}.st36,.st37{fill:#ddd}.st38{fill:#0af}</style><title>Asset 4</title><g class="st0"><path class="st1" d="M432.1 105.7c1.6 0 3 .6 4.1 1.7 1.1 1.1 1.6 2.5 1.7 4.1 0 .7-.1 1.4-.4 2-.2.6-.6 1.2-1 1.7l.2.2h.7l4.4 4.4-1.3 1.3-4.4-4.4v-.7l-.2-.2c-.5.4-1.1.8-1.7 1s-1.3.4-2 .4c-1.6 0-3-.6-4.1-1.7-1.1-1.1-1.7-2.4-1.7-4.1 0-1.6.6-3 1.7-4.1 1-1.1 2.4-1.6 4-1.6zm0 1.7c-1.1 0-2.1.4-2.8 1.2-.8.8-1.1 1.7-1.1 2.8 0 1.1.4 2.1 1.1 2.8s1.7 1.1 2.8 1.1c1.1 0 2.1-.4 2.8-1.1s1.1-1.7 1.1-2.8c0-1.1-.4-2.1-1.1-2.8-.7-.7-1.6-1.1-2.8-1.2z"/></g><g class="st0"><path class="st1" d="M432.1 44.1c1.6 0 3 .6 4.1 1.7 1.1 1.1 1.6 2.5 1.7 4.1 0 .7-.1 1.4-.4 2-.2.6-.6 1.2-1 1.7l.2.2h.7l4.4 4.4-1.3 1.3-4.4-4.4v-.7l-.2-.2c-.5.4-1.1.8-1.7 1s-1.3.4-2 .4c-1.6 0-3-.6-4.1-1.7-1.1-1.1-1.7-2.4-1.7-4.1 0-1.6.6-3 1.7-4.1 1-1 2.4-1.6 4-1.6zm0 1.8c-1.1 0-2.1.4-2.8 1.2-.8.8-1.1 1.7-1.1 2.8 0 1.1.4 2.1 1.1 2.8s1.7 1.1 2.8 1.1c1.1 0 2.1-.4 2.8-1.1s1.1-1.7 1.1-2.8c0-1.1-.4-2.1-1.1-2.8-.7-.8-1.6-1.2-2.8-1.2z"/></g><g class="st0"><path class="st1" d="M432.1 167.3c1.6 0 3 .6 4.1 1.7 1.1 1.1 1.6 2.5 1.7 4.1 0 .7-.1 1.4-.4 2-.2.6-.6 1.2-1 1.7l.2.2h.7l4.4 4.4-1.3 1.3-4.4-4.4v-.7l-.2-.2c-.5.4-1.1.8-1.7 1s-1.3.4-2 .4c-1.6 0-3-.6-4.1-1.7-1.1-1.1-1.7-2.4-1.7-4.1 0-1.6.6-3 1.7-4.1 1-1.1 2.4-1.6 4-1.6zm0 1.7c-1.1 0-2.1.4-2.8 1.2-.8.8-1.1 1.7-1.1 2.8 0 1.1.4 2.1 1.1 2.8s1.7 1.1 2.8 1.1c1.1 0 2.1-.4 2.8-1.1s1.1-1.7 1.1-2.8c0-1.1-.4-2.1-1.1-2.8-.7-.7-1.6-1.1-2.8-1.2z"/></g><g class="st0"><path class="st1" d="M432.1 105.7c1.6 0 3 .6 4.1 1.7 1.1 1.1 1.6 2.5 1.7 4.1 0 .7-.1 1.4-.4 2-.2.6-.6 1.2-1 1.7l.2.2h.7l4.4 4.4-1.3 1.3-4.4-4.4v-.7l-.2-.2c-.5.4-1.1.8-1.7 1s-1.3.4-2 .4c-1.6 0-3-.6-4.1-1.7-1.1-1.1-1.7-2.4-1.7-4.1 0-1.6.6-3 1.7-4.1 1-1 2.4-1.6 4-1.6zm0 1.8c-1.1 0-2.1.4-2.8 1.2-.8.8-1.1 1.7-1.1 2.8 0 1.1.4 2.1 1.1 2.8s1.7 1.1 2.8 1.1c1.1 0 2.1-.4 2.8-1.1s1.1-1.7 1.1-2.8c0-1.1-.4-2.1-1.1-2.8-.7-.8-1.6-1.2-2.8-1.2z"/></g><g class="st0"><path class="st1" d="M432.1 228.9c1.6 0 3 .6 4.1 1.7 1.1 1.1 1.6 2.5 1.7 4.1 0 .7-.1 1.4-.4 2-.2.6-.6 1.2-1 1.7l.2.2h.7l4.4 4.4-1.3 1.3-4.4-4.4v-.7l-.2-.2c-.5.4-1.1.8-1.7 1s-1.3.4-2 .4c-1.6 0-3-.6-4.1-1.7-1.1-1.1-1.7-2.4-1.7-4.1 0-1.6.6-3 1.7-4.1 1-1.1 2.4-1.6 4-1.6zm0 1.7c-1.1 0-2.1.4-2.8 1.2-.8.8-1.1 1.7-1.1 2.8 0 1.1.4 2.1 1.1 2.8s1.7 1.1 2.8 1.1c1.1 0 2.1-.4 2.8-1.1s1.1-1.7 1.1-2.8c0-1.1-.4-2.1-1.1-2.8-.7-.7-1.6-1.1-2.8-1.2z"/></g><g class="st0"><path class="st1" d="M432.1 167.3c1.6 0 3 .6 4.1 1.7 1.1 1.1 1.6 2.5 1.7 4.1 0 .7-.1 1.4-.4 2-.2.6-.6 1.2-1 1.7l.2.2h.7l4.4 4.4-1.3 1.3-4.4-4.4v-.7l-.2-.2c-.5.4-1.1.8-1.7 1s-1.3.4-2 .4c-1.6 0-3-.6-4.1-1.7-1.1-1.1-1.7-2.4-1.7-4.1 0-1.6.6-3 1.7-4.1 1-1 2.4-1.6 4-1.6zm0 1.8c-1.1 0-2.1.4-2.8 1.2-.8.8-1.1 1.7-1.1 2.8 0 1.1.4 2.1 1.1 2.8s1.7 1.1 2.8 1.1c1.1 0 2.1-.4 2.8-1.1s1.1-1.7 1.1-2.8c0-1.1-.4-2.1-1.1-2.8-.7-.8-1.6-1.2-2.8-1.2z"/></g><g class="st0"><path class="st1" d="M432.1 290.5c1.6 0 3 .6 4.1 1.7 1.1 1.1 1.6 2.5 1.7 4.1 0 .7-.1 1.4-.4 2-.2.6-.6 1.2-1 1.7l.2.2h.7l4.4 4.4-1.3 1.3-4.4-4.4v-.7l-.2-.2c-.5.4-1.1.8-1.7 1s-1.3.4-2 .4c-1.6 0-3-.6-4.1-1.7-1.1-1.1-1.7-2.4-1.7-4.1 0-1.6.6-3 1.7-4.1 1-1.1 2.4-1.6 4-1.6zm0 1.7c-1.1 0-2.1.4-2.8 1.2-.8.8-1.1 1.7-1.1 2.8 0 1.1.4 2.1 1.1 2.8s1.7 1.1 2.8 1.1c1.1 0 2.1-.4 2.8-1.1s1.1-1.7 1.1-2.8c0-1.1-.4-2.1-1.1-2.8-.7-.7-1.6-1.1-2.8-1.2z"/></g><g class="st0"><path class="st1" d="M432.1 228.9c1.6 0 3 .6 4.1 1.7 1.1 1.1 1.6 2.5 1.7 4.1 0 .7-.1 1.4-.4 2-.2.6-.6 1.2-1 1.7l.2.2h.7l4.4 4.4-1.3 1.3-4.4-4.4v-.7l-.2-.2c-.5.4-1.1.8-1.7 1s-1.3.4-2 .4c-1.6 0-3-.6-4.1-1.7-1.1-1.1-1.7-2.4-1.7-4.1 0-1.6.6-3 1.7-4.1 1-1 2.4-1.6 4-1.6zm0 1.8c-1.1 0-2.1.4-2.8 1.2-.8.8-1.1 1.7-1.1 2.8 0 1.1.4 2.1 1.1 2.8s1.7 1.1 2.8 1.1c1.1 0 2.1-.4 2.8-1.1s1.1-1.7 1.1-2.8c0-1.1-.4-2.1-1.1-2.8-.7-.8-1.6-1.2-2.8-1.2z"/></g><g class="st0"><path class="st1" d="M432.1 290.5c1.6 0 3 .6 4.1 1.7 1.1 1.1 1.6 2.5 1.7 4.1 0 .7-.1 1.4-.4 2-.2.6-.6 1.2-1 1.7l.2.2h.7l4.4 4.4-1.3 1.3-4.4-4.4v-.7l-.2-.2c-.5.4-1.1.8-1.7 1s-1.3.4-2 .4c-1.6 0-3-.6-4.1-1.7-1.1-1.1-1.7-2.4-1.7-4.1 0-1.6.6-3 1.7-4.1 1-1 2.4-1.6 4-1.6zm0 1.8c-1.1 0-2.1.4-2.8 1.2-.8.8-1.1 1.7-1.1 2.8 0 1.1.4 2.1 1.1 2.8s1.7 1.1 2.8 1.1c1.1 0 2.1-.4 2.8-1.1s1.1-1.7 1.1-2.8c0-1.1-.4-2.1-1.1-2.8-.7-.8-1.6-1.2-2.8-1.2z"/></g><g class="st0"><path class="st1" d="M432.1 105.7c1.6 0 3 .6 4.1 1.7 1.1 1.1 1.6 2.5 1.7 4.1 0 .7-.1 1.4-.4 2-.2.6-.6 1.2-1 1.7l.2.2h.7l4.4 4.4-1.3 1.3-4.4-4.4v-.7l-.2-.2c-.5.4-1.1.8-1.7 1s-1.3.4-2 .4c-1.6 0-3-.6-4.1-1.7-1.1-1.1-1.7-2.4-1.7-4.1 0-1.6.6-3 1.7-4.1 1-1.1 2.4-1.6 4-1.6zm0 1.7c-1.1 0-2.1.4-2.8 1.2-.8.8-1.1 1.7-1.1 2.8 0 1.1.4 2.1 1.1 2.8s1.7 1.1 2.8 1.1c1.1 0 2.1-.4 2.8-1.1s1.1-1.7 1.1-2.8c0-1.1-.4-2.1-1.1-2.8-.7-.7-1.6-1.1-2.8-1.2z"/></g><g class="st0"><path class="st1" d="M372.1 105.7c1.6 0 3 .6 4.1 1.7 1.1 1.1 1.6 2.5 1.7 4.1 0 .7-.1 1.4-.4 2-.2.6-.6 1.2-1 1.7l.2.2h.7l4.4 4.4-1.3 1.3-4.4-4.4v-.7l-.2-.2c-.5.4-1.1.8-1.7 1s-1.3.4-2 .4c-1.6 0-3-.6-4.1-1.7-1.1-1.1-1.7-2.4-1.7-4.1 0-1.6.6-3 1.7-4.1 1-1.1 2.4-1.6 4-1.6zm0 1.7c-1.1 0-2.1.4-2.8 1.2-.8.8-1.1 1.7-1.1 2.8 0 1.1.4 2.1 1.1 2.8s1.7 1.1 2.8 1.1c1.1 0 2.1-.4 2.8-1.1s1.1-1.7 1.1-2.8c0-1.1-.4-2.1-1.1-2.8-.7-.7-1.6-1.1-2.8-1.2z"/></g><g class="st0"><path class="st1" d="M410.4 77.8c.5 0 .9.2 1.2.5.3.3.5.8.5 1.2v8.9c0 .5-.2.9-.5 1.2-.3.3-.7.5-1.2.5h-10.7c-.5 0-.9-.2-1.2-.5-.3-.3-.5-.8-.5-1.2v-8.9c0-.5.2-.9.5-1.2.3-.3.8-.5 1.2-.5h.9V76c0-1.2.5-2.3 1.3-3.1.8-.8 1.9-1.3 3.1-1.3 1.2 0 2.3.5 3.1 1.3.8.8 1.3 1.9 1.3 3.1v1.8h1zm-5.3-4.5c-.8 0-1.4.3-1.9.8s-.8 1.1-.8 1.9v1.8h5.3V76c0-.8-.3-1.4-.8-1.9s-1.1-.8-1.8-.8zm0 12.5c.5 0 .9-.2 1.2-.5.3-.3.5-.8.5-1.2 0-.5-.2-.9-.5-1.2-.3-.3-.8-.5-1.2-.5s-.9.2-1.2.5c-.3.3-.5.8-.5 1.2 0 .5.2.9.5 1.2.3.3.7.4 1.2.5z"/></g><g class="st0"><path class="st1" d="M432.1 44.1c1.6 0 3 .6 4.1 1.7 1.1 1.1 1.6 2.5 1.7 4.1 0 .7-.1 1.4-.4 2-.2.6-.6 1.2-1 1.7l.2.2h.7l4.4 4.4-1.3 1.3-4.4-4.4v-.7l-.2-.2c-.5.4-1.1.8-1.7 1s-1.3.4-2 .4c-1.6 0-3-.6-4.1-1.7-1.1-1.1-1.7-2.4-1.7-4.1 0-1.6.6-3 1.7-4.1 1-1 2.4-1.6 4-1.6zm0 1.8c-1.1 0-2.1.4-2.8 1.2-.8.8-1.1 1.7-1.1 2.8 0 1.1.4 2.1 1.1 2.8s1.7 1.1 2.8 1.1c1.1 0 2.1-.4 2.8-1.1s1.1-1.7 1.1-2.8c0-1.1-.4-2.1-1.1-2.8-.7-.8-1.6-1.2-2.8-1.2z"/></g><g class="st0"><path class="st1" d="M372.1 44.1c1.6 0 3 .6 4.1 1.7 1.1 1.1 1.6 2.5 1.7 4.1 0 .7-.1 1.4-.4 2-.2.6-.6 1.2-1 1.7l.2.2h.7l4.4 4.4-1.3 1.3-4.4-4.4v-.7l-.2-.2c-.5.4-1.1.8-1.7 1s-1.3.4-2 .4c-1.6 0-3-.6-4.1-1.7-1.1-1.1-1.7-2.4-1.7-4.1 0-1.6.6-3 1.7-4.1 1-1 2.4-1.6 4-1.6zm0 1.8c-1.1 0-2.1.4-2.8 1.2-.8.8-1.1 1.7-1.1 2.8 0 1.1.4 2.1 1.1 2.8s1.7 1.1 2.8 1.1c1.1 0 2.1-.4 2.8-1.1s1.1-1.7 1.1-2.8c0-1.1-.4-2.1-1.1-2.8-.7-.8-1.6-1.2-2.8-1.2z"/></g><g class="st0"><path class="st1" d="M432.1 167.3c1.6 0 3 .6 4.1 1.7 1.1 1.1 1.6 2.5 1.7 4.1 0 .7-.1 1.4-.4 2-.2.6-.6 1.2-1 1.7l.2.2h.7l4.4 4.4-1.3 1.3-4.4-4.4v-.7l-.2-.2c-.5.4-1.1.8-1.7 1s-1.3.4-2 .4c-1.6 0-3-.6-4.1-1.7-1.1-1.1-1.7-2.4-1.7-4.1 0-1.6.6-3 1.7-4.1 1-1.1 2.4-1.6 4-1.6zm0 1.7c-1.1 0-2.1.4-2.8 1.2-.8.8-1.1 1.7-1.1 2.8 0 1.1.4 2.1 1.1 2.8s1.7 1.1 2.8 1.1c1.1 0 2.1-.4 2.8-1.1s1.1-1.7 1.1-2.8c0-1.1-.4-2.1-1.1-2.8-.7-.7-1.6-1.1-2.8-1.2z"/></g><g class="st0"><path class="st1" d="M372.1 167.3c1.6 0 3 .6 4.1 1.7 1.1 1.1 1.6 2.5 1.7 4.1 0 .7-.1 1.4-.4 2-.2.6-.6 1.2-1 1.7l.2.2h.7l4.4 4.4-1.3 1.3-4.4-4.4v-.7l-.2-.2c-.5.4-1.1.8-1.7 1s-1.3.4-2 .4c-1.6 0-3-.6-4.1-1.7-1.1-1.1-1.7-2.4-1.7-4.1 0-1.6.6-3 1.7-4.1 1-1.1 2.4-1.6 4-1.6zm0 1.7c-1.1 0-2.1.4-2.8 1.2-.8.8-1.1 1.7-1.1 2.8 0 1.1.4 2.1 1.1 2.8s1.7 1.1 2.8 1.1c1.1 0 2.1-.4 2.8-1.1s1.1-1.7 1.1-2.8c0-1.1-.4-2.1-1.1-2.8-.7-.7-1.6-1.1-2.8-1.2z"/></g><g class="st0"><path class="st1" d="M410.4 139.4c.5 0 .9.2 1.2.5.3.3.5.8.5 1.2v8.9c0 .5-.2.9-.5 1.2-.3.3-.7.5-1.2.5h-10.7c-.5 0-.9-.2-1.2-.5-.3-.3-.5-.8-.5-1.2v-8.9c0-.5.2-.9.5-1.2.3-.3.8-.5 1.2-.5h.9v-1.8c0-1.2.5-2.3 1.3-3.1.8-.8 1.9-1.3 3.1-1.3 1.2 0 2.3.5 3.1 1.3.8.8 1.3 1.9 1.3 3.1v1.8h1zm-5.3-4.5c-.8 0-1.4.3-1.9.8s-.8 1.1-.8 1.9v1.8h5.3v-1.8c0-.8-.3-1.4-.8-1.9s-1.1-.8-1.8-.8zm0 12.5c.5 0 .9-.2 1.2-.5.3-.3.5-.8.5-1.2 0-.5-.2-.9-.5-1.2-.3-.3-.8-.5-1.2-.5s-.9.2-1.2.5c-.3.3-.5.8-.5 1.2 0 .5.2.9.5 1.2.3.3.7.4 1.2.5z"/></g><g class="st0"><path class="st1" d="M432.1 105.7c1.6 0 3 .6 4.1 1.7 1.1 1.1 1.6 2.5 1.7 4.1 0 .7-.1 1.4-.4 2-.2.6-.6 1.2-1 1.7l.2.2h.7l4.4 4.4-1.3 1.3-4.4-4.4v-.7l-.2-.2c-.5.4-1.1.8-1.7 1s-1.3.4-2 .4c-1.6 0-3-.6-4.1-1.7-1.1-1.1-1.7-2.4-1.7-4.1 0-1.6.6-3 1.7-4.1 1-1 2.4-1.6 4-1.6zm0 1.8c-1.1 0-2.1.4-2.8 1.2-.8.8-1.1 1.7-1.1 2.8 0 1.1.4 2.1 1.1 2.8s1.7 1.1 2.8 1.1c1.1 0 2.1-.4 2.8-1.1s1.1-1.7 1.1-2.8c0-1.1-.4-2.1-1.1-2.8-.7-.8-1.6-1.2-2.8-1.2z"/></g><g class="st0"><path class="st1" d="M372.1 105.7c1.6 0 3 .6 4.1 1.7 1.1 1.1 1.6 2.5 1.7 4.1 0 .7-.1 1.4-.4 2-.2.6-.6 1.2-1 1.7l.2.2h.7l4.4 4.4-1.3 1.3-4.4-4.4v-.7l-.2-.2c-.5.4-1.1.8-1.7 1s-1.3.4-2 .4c-1.6 0-3-.6-4.1-1.7-1.1-1.1-1.7-2.4-1.7-4.1 0-1.6.6-3 1.7-4.1 1-1 2.4-1.6 4-1.6zm0 1.8c-1.1 0-2.1.4-2.8 1.2-.8.8-1.1 1.7-1.1 2.8 0 1.1.4 2.1 1.1 2.8s1.7 1.1 2.8 1.1c1.1 0 2.1-.4 2.8-1.1s1.1-1.7 1.1-2.8c0-1.1-.4-2.1-1.1-2.8-.7-.8-1.6-1.2-2.8-1.2z"/></g><g class="st0"><path class="st1" d="M432.1 228.9c1.6 0 3 .6 4.1 1.7 1.1 1.1 1.6 2.5 1.7 4.1 0 .7-.1 1.4-.4 2-.2.6-.6 1.2-1 1.7l.2.2h.7l4.4 4.4-1.3 1.3-4.4-4.4v-.7l-.2-.2c-.5.4-1.1.8-1.7 1s-1.3.4-2 .4c-1.6 0-3-.6-4.1-1.7-1.1-1.1-1.7-2.4-1.7-4.1 0-1.6.6-3 1.7-4.1 1-1.1 2.4-1.6 4-1.6zm0 1.7c-1.1 0-2.1.4-2.8 1.2-.8.8-1.1 1.7-1.1 2.8 0 1.1.4 2.1 1.1 2.8s1.7 1.1 2.8 1.1c1.1 0 2.1-.4 2.8-1.1s1.1-1.7 1.1-2.8c0-1.1-.4-2.1-1.1-2.8-.7-.7-1.6-1.1-2.8-1.2z"/></g><g class="st0"><path class="st1" d="M372.1 228.9c1.6 0 3 .6 4.1 1.7 1.1 1.1 1.6 2.5 1.7 4.1 0 .7-.1 1.4-.4 2-.2.6-.6 1.2-1 1.7l.2.2h.7l4.4 4.4-1.3 1.3-4.4-4.4v-.7l-.2-.2c-.5.4-1.1.8-1.7 1s-1.3.4-2 .4c-1.6 0-3-.6-4.1-1.7-1.1-1.1-1.7-2.4-1.7-4.1 0-1.6.6-3 1.7-4.1 1-1.1 2.4-1.6 4-1.6zm0 1.7c-1.1 0-2.1.4-2.8 1.2-.8.8-1.1 1.7-1.1 2.8 0 1.1.4 2.1 1.1 2.8s1.7 1.1 2.8 1.1c1.1 0 2.1-.4 2.8-1.1s1.1-1.7 1.1-2.8c0-1.1-.4-2.1-1.1-2.8-.7-.7-1.6-1.1-2.8-1.2z"/></g><g class="st0"><path class="st1" d="M410.4 201c.5 0 .9.2 1.2.5.3.3.5.8.5 1.2v8.9c0 .5-.2.9-.5 1.2-.3.3-.7.5-1.2.5h-10.7c-.5 0-.9-.2-1.2-.5-.3-.3-.5-.8-.5-1.2v-8.9c0-.5.2-.9.5-1.2.3-.3.8-.5 1.2-.5h.9v-1.8c0-1.2.5-2.3 1.3-3.1.8-.8 1.9-1.3 3.1-1.3 1.2 0 2.3.5 3.1 1.3.8.8 1.3 1.9 1.3 3.1v1.8h1zm-5.3-4.5c-.8 0-1.4.3-1.9.8s-.8 1.1-.8 1.9v1.8h5.3v-1.8c0-.8-.3-1.4-.8-1.9s-1.1-.8-1.8-.8zm0 12.5c.5 0 .9-.2 1.2-.5.3-.3.5-.8.5-1.2 0-.5-.2-.9-.5-1.2-.3-.3-.8-.5-1.2-.5s-.9.2-1.2.5c-.3.3-.5.8-.5 1.2 0 .5.2.9.5 1.2.3.3.7.4 1.2.5z"/></g><g class="st0"><path class="st1" d="M432.1 167.3c1.6 0 3 .6 4.1 1.7 1.1 1.1 1.6 2.5 1.7 4.1 0 .7-.1 1.4-.4 2-.2.6-.6 1.2-1 1.7l.2.2h.7l4.4 4.4-1.3 1.3-4.4-4.4v-.7l-.2-.2c-.5.4-1.1.8-1.7 1s-1.3.4-2 .4c-1.6 0-3-.6-4.1-1.7-1.1-1.1-1.7-2.4-1.7-4.1 0-1.6.6-3 1.7-4.1 1-1 2.4-1.6 4-1.6zm0 1.8c-1.1 0-2.1.4-2.8 1.2-.8.8-1.1 1.7-1.1 2.8 0 1.1.4 2.1 1.1 2.8s1.7 1.1 2.8 1.1c1.1 0 2.1-.4 2.8-1.1s1.1-1.7 1.1-2.8c0-1.1-.4-2.1-1.1-2.8-.7-.8-1.6-1.2-2.8-1.2z"/></g><g class="st0"><path class="st1" d="M372.1 167.3c1.6 0 3 .6 4.1 1.7 1.1 1.1 1.6 2.5 1.7 4.1 0 .7-.1 1.4-.4 2-.2.6-.6 1.2-1 1.7l.2.2h.7l4.4 4.4-1.3 1.3-4.4-4.4v-.7l-.2-.2c-.5.4-1.1.8-1.7 1s-1.3.4-2 .4c-1.6 0-3-.6-4.1-1.7-1.1-1.1-1.7-2.4-1.7-4.1 0-1.6.6-3 1.7-4.1 1-1 2.4-1.6 4-1.6zm0 1.8c-1.1 0-2.1.4-2.8 1.2-.8.8-1.1 1.7-1.1 2.8 0 1.1.4 2.1 1.1 2.8s1.7 1.1 2.8 1.1c1.1 0 2.1-.4 2.8-1.1s1.1-1.7 1.1-2.8c0-1.1-.4-2.1-1.1-2.8-.7-.8-1.6-1.2-2.8-1.2z"/></g><g class="st0"><path class="st1" d="M432.1 290.5c1.6 0 3 .6 4.1 1.7 1.1 1.1 1.6 2.5 1.7 4.1 0 .7-.1 1.4-.4 2-.2.6-.6 1.2-1 1.7l.2.2h.7l4.4 4.4-1.3 1.3-4.4-4.4v-.7l-.2-.2c-.5.4-1.1.8-1.7 1s-1.3.4-2 .4c-1.6 0-3-.6-4.1-1.7-1.1-1.1-1.7-2.4-1.7-4.1 0-1.6.6-3 1.7-4.1 1-1.1 2.4-1.6 4-1.6zm0 1.7c-1.1 0-2.1.4-2.8 1.2-.8.8-1.1 1.7-1.1 2.8 0 1.1.4 2.1 1.1 2.8s1.7 1.1 2.8 1.1c1.1 0 2.1-.4 2.8-1.1s1.1-1.7 1.1-2.8c0-1.1-.4-2.1-1.1-2.8-.7-.7-1.6-1.1-2.8-1.2z"/></g><g class="st0"><path class="st1" d="M372.1 290.5c1.6 0 3 .6 4.1 1.7 1.1 1.1 1.6 2.5 1.7 4.1 0 .7-.1 1.4-.4 2-.2.6-.6 1.2-1 1.7l.2.2h.7l4.4 4.4-1.3 1.3-4.4-4.4v-.7l-.2-.2c-.5.4-1.1.8-1.7 1s-1.3.4-2 .4c-1.6 0-3-.6-4.1-1.7-1.1-1.1-1.7-2.4-1.7-4.1 0-1.6.6-3 1.7-4.1 1-1.1 2.4-1.6 4-1.6zm0 1.7c-1.1 0-2.1.4-2.8 1.2-.8.8-1.1 1.7-1.1 2.8 0 1.1.4 2.1 1.1 2.8s1.7 1.1 2.8 1.1c1.1 0 2.1-.4 2.8-1.1s1.1-1.7 1.1-2.8c0-1.1-.4-2.1-1.1-2.8-.7-.7-1.6-1.1-2.8-1.2z"/></g><g class="st0"><path class="st1" d="M410.4 262.6c.5 0 .9.2 1.2.5.3.3.5.8.5 1.2v8.9c0 .5-.2.9-.5 1.2-.3.3-.7.5-1.2.5h-10.7c-.5 0-.9-.2-1.2-.5-.3-.3-.5-.8-.5-1.2v-8.9c0-.5.2-.9.5-1.2.3-.3.8-.5 1.2-.5h.9v-1.8c0-1.2.5-2.3 1.3-3.1.8-.8 1.9-1.3 3.1-1.3 1.2 0 2.3.5 3.1 1.3.8.8 1.3 1.9 1.3 3.1v1.8h1zm-5.3-4.5c-.8 0-1.4.3-1.9.8s-.8 1.1-.8 1.9v1.8h5.3v-1.8c0-.8-.3-1.4-.8-1.9s-1.1-.8-1.8-.8zm0 12.5c.5 0 .9-.2 1.2-.5.3-.3.5-.8.5-1.2 0-.5-.2-.9-.5-1.2-.3-.3-.8-.5-1.2-.5s-.9.2-1.2.5c-.3.3-.5.8-.5 1.2 0 .5.2.9.5 1.2.3.3.7.4 1.2.5z"/></g><g class="st0"><path class="st1" d="M432.1 228.9c1.6 0 3 .6 4.1 1.7 1.1 1.1 1.6 2.5 1.7 4.1 0 .7-.1 1.4-.4 2-.2.6-.6 1.2-1 1.7l.2.2h.7l4.4 4.4-1.3 1.3-4.4-4.4v-.7l-.2-.2c-.5.4-1.1.8-1.7 1s-1.3.4-2 .4c-1.6 0-3-.6-4.1-1.7-1.1-1.1-1.7-2.4-1.7-4.1 0-1.6.6-3 1.7-4.1 1-1 2.4-1.6 4-1.6zm0 1.8c-1.1 0-2.1.4-2.8 1.2-.8.8-1.1 1.7-1.1 2.8 0 1.1.4 2.1 1.1 2.8s1.7 1.1 2.8 1.1c1.1 0 2.1-.4 2.8-1.1s1.1-1.7 1.1-2.8c0-1.1-.4-2.1-1.1-2.8-.7-.8-1.6-1.2-2.8-1.2z"/></g><g class="st0"><path class="st1" d="M372.1 228.9c1.6 0 3 .6 4.1 1.7 1.1 1.1 1.6 2.5 1.7 4.1 0 .7-.1 1.4-.4 2-.2.6-.6 1.2-1 1.7l.2.2h.7l4.4 4.4-1.3 1.3-4.4-4.4v-.7l-.2-.2c-.5.4-1.1.8-1.7 1s-1.3.4-2 .4c-1.6 0-3-.6-4.1-1.7-1.1-1.1-1.7-2.4-1.7-4.1 0-1.6.6-3 1.7-4.1 1-1 2.4-1.6 4-1.6zm0 1.8c-1.1 0-2.1.4-2.8 1.2-.8.8-1.1 1.7-1.1 2.8 0 1.1.4 2.1 1.1 2.8s1.7 1.1 2.8 1.1c1.1 0 2.1-.4 2.8-1.1s1.1-1.7 1.1-2.8c0-1.1-.4-2.1-1.1-2.8-.7-.8-1.6-1.2-2.8-1.2z"/></g><g class="st0"><path class="st1" d="M432.1 290.5c1.6 0 3 .6 4.1 1.7 1.1 1.1 1.6 2.5 1.7 4.1 0 .7-.1 1.4-.4 2-.2.6-.6 1.2-1 1.7l.2.2h.7l4.4 4.4-1.3 1.3-4.4-4.4v-.7l-.2-.2c-.5.4-1.1.8-1.7 1s-1.3.4-2 .4c-1.6 0-3-.6-4.1-1.7-1.1-1.1-1.7-2.4-1.7-4.1 0-1.6.6-3 1.7-4.1 1-1 2.4-1.6 4-1.6zm0 1.8c-1.1 0-2.1.4-2.8 1.2-.8.8-1.1 1.7-1.1 2.8 0 1.1.4 2.1 1.1 2.8s1.7 1.1 2.8 1.1c1.1 0 2.1-.4 2.8-1.1s1.1-1.7 1.1-2.8c0-1.1-.4-2.1-1.1-2.8-.7-.8-1.6-1.2-2.8-1.2z"/></g><g class="st0"><path class="st1" d="M372.1 290.5c1.6 0 3 .6 4.1 1.7 1.1 1.1 1.6 2.5 1.7 4.1 0 .7-.1 1.4-.4 2-.2.6-.6 1.2-1 1.7l.2.2h.7l4.4 4.4-1.3 1.3-4.4-4.4v-.7l-.2-.2c-.5.4-1.1.8-1.7 1s-1.3.4-2 .4c-1.6 0-3-.6-4.1-1.7-1.1-1.1-1.7-2.4-1.7-4.1 0-1.6.6-3 1.7-4.1 1-1 2.4-1.6 4-1.6zm0 1.8c-1.1 0-2.1.4-2.8 1.2-.8.8-1.1 1.7-1.1 2.8 0 1.1.4 2.1 1.1 2.8s1.7 1.1 2.8 1.1c1.1 0 2.1-.4 2.8-1.1s1.1-1.7 1.1-2.8c0-1.1-.4-2.1-1.1-2.8-.7-.8-1.6-1.2-2.8-1.2z"/></g><g class="st0"><path class="st1" d="M372.1 105.7c1.6 0 3 .6 4.1 1.7 1.1 1.1 1.6 2.5 1.7 4.1 0 .7-.1 1.4-.4 2-.2.6-.6 1.2-1 1.7l.2.2h.7l4.4 4.4-1.3 1.3-4.4-4.4v-.7l-.2-.2c-.5.4-1.1.8-1.7 1s-1.3.4-2 .4c-1.6 0-3-.6-4.1-1.7-1.1-1.1-1.7-2.4-1.7-4.1 0-1.6.6-3 1.7-4.1 1-1.1 2.4-1.6 4-1.6zm0 1.7c-1.1 0-2.1.4-2.8 1.2-.8.8-1.1 1.7-1.1 2.8 0 1.1.4 2.1 1.1 2.8s1.7 1.1 2.8 1.1c1.1 0 2.1-.4 2.8-1.1s1.1-1.7 1.1-2.8c0-1.1-.4-2.1-1.1-2.8-.7-.7-1.6-1.1-2.8-1.2z"/></g><g class="st0"><path class="st1" d="M372.1 44.1c1.6 0 3 .6 4.1 1.7 1.1 1.1 1.6 2.5 1.7 4.1 0 .7-.1 1.4-.4 2-.2.6-.6 1.2-1 1.7l.2.2h.7l4.4 4.4-1.3 1.3-4.4-4.4v-.7l-.2-.2c-.5.4-1.1.8-1.7 1s-1.3.4-2 .4c-1.6 0-3-.6-4.1-1.7-1.1-1.1-1.7-2.4-1.7-4.1 0-1.6.6-3 1.7-4.1 1-1 2.4-1.6 4-1.6zm0 1.8c-1.1 0-2.1.4-2.8 1.2-.8.8-1.1 1.7-1.1 2.8 0 1.1.4 2.1 1.1 2.8s1.7 1.1 2.8 1.1c1.1 0 2.1-.4 2.8-1.1s1.1-1.7 1.1-2.8c0-1.1-.4-2.1-1.1-2.8-.7-.8-1.6-1.2-2.8-1.2z"/></g><g class="st0"><path class="st1" d="M372.1 167.3c1.6 0 3 .6 4.1 1.7 1.1 1.1 1.6 2.5 1.7 4.1 0 .7-.1 1.4-.4 2-.2.6-.6 1.2-1 1.7l.2.2h.7l4.4 4.4-1.3 1.3-4.4-4.4v-.7l-.2-.2c-.5.4-1.1.8-1.7 1s-1.3.4-2 .4c-1.6 0-3-.6-4.1-1.7-1.1-1.1-1.7-2.4-1.7-4.1 0-1.6.6-3 1.7-4.1 1-1.1 2.4-1.6 4-1.6zm0 1.7c-1.1 0-2.1.4-2.8 1.2-.8.8-1.1 1.7-1.1 2.8 0 1.1.4 2.1 1.1 2.8s1.7 1.1 2.8 1.1c1.1 0 2.1-.4 2.8-1.1s1.1-1.7 1.1-2.8c0-1.1-.4-2.1-1.1-2.8-.7-.7-1.6-1.1-2.8-1.2z"/></g><g class="st0"><path class="st1" d="M372.1 105.7c1.6 0 3 .6 4.1 1.7 1.1 1.1 1.6 2.5 1.7 4.1 0 .7-.1 1.4-.4 2-.2.6-.6 1.2-1 1.7l.2.2h.7l4.4 4.4-1.3 1.3-4.4-4.4v-.7l-.2-.2c-.5.4-1.1.8-1.7 1s-1.3.4-2 .4c-1.6 0-3-.6-4.1-1.7-1.1-1.1-1.7-2.4-1.7-4.1 0-1.6.6-3 1.7-4.1 1-1 2.4-1.6 4-1.6zm0 1.8c-1.1 0-2.1.4-2.8 1.2-.8.8-1.1 1.7-1.1 2.8 0 1.1.4 2.1 1.1 2.8s1.7 1.1 2.8 1.1c1.1 0 2.1-.4 2.8-1.1s1.1-1.7 1.1-2.8c0-1.1-.4-2.1-1.1-2.8-.7-.8-1.6-1.2-2.8-1.2z"/></g><g class="st0"><path class="st1" d="M372.1 228.9c1.6 0 3 .6 4.1 1.7 1.1 1.1 1.6 2.5 1.7 4.1 0 .7-.1 1.4-.4 2-.2.6-.6 1.2-1 1.7l.2.2h.7l4.4 4.4-1.3 1.3-4.4-4.4v-.7l-.2-.2c-.5.4-1.1.8-1.7 1s-1.3.4-2 .4c-1.6 0-3-.6-4.1-1.7-1.1-1.1-1.7-2.4-1.7-4.1 0-1.6.6-3 1.7-4.1 1-1.1 2.4-1.6 4-1.6zm0 1.7c-1.1 0-2.1.4-2.8 1.2-.8.8-1.1 1.7-1.1 2.8 0 1.1.4 2.1 1.1 2.8s1.7 1.1 2.8 1.1c1.1 0 2.1-.4 2.8-1.1s1.1-1.7 1.1-2.8c0-1.1-.4-2.1-1.1-2.8-.7-.7-1.6-1.1-2.8-1.2z"/></g><g class="st0"><path class="st1" d="M372.1 167.3c1.6 0 3 .6 4.1 1.7 1.1 1.1 1.6 2.5 1.7 4.1 0 .7-.1 1.4-.4 2-.2.6-.6 1.2-1 1.7l.2.2h.7l4.4 4.4-1.3 1.3-4.4-4.4v-.7l-.2-.2c-.5.4-1.1.8-1.7 1s-1.3.4-2 .4c-1.6 0-3-.6-4.1-1.7-1.1-1.1-1.7-2.4-1.7-4.1 0-1.6.6-3 1.7-4.1 1-1 2.4-1.6 4-1.6zm0 1.8c-1.1 0-2.1.4-2.8 1.2-.8.8-1.1 1.7-1.1 2.8 0 1.1.4 2.1 1.1 2.8s1.7 1.1 2.8 1.1c1.1 0 2.1-.4 2.8-1.1s1.1-1.7 1.1-2.8c0-1.1-.4-2.1-1.1-2.8-.7-.8-1.6-1.2-2.8-1.2z"/></g><g class="st0"><path class="st1" d="M372.1 290.5c1.6 0 3 .6 4.1 1.7 1.1 1.1 1.6 2.5 1.7 4.1 0 .7-.1 1.4-.4 2-.2.6-.6 1.2-1 1.7l.2.2h.7l4.4 4.4-1.3 1.3-4.4-4.4v-.7l-.2-.2c-.5.4-1.1.8-1.7 1s-1.3.4-2 .4c-1.6 0-3-.6-4.1-1.7-1.1-1.1-1.7-2.4-1.7-4.1 0-1.6.6-3 1.7-4.1 1-1.1 2.4-1.6 4-1.6zm0 1.7c-1.1 0-2.1.4-2.8 1.2-.8.8-1.1 1.7-1.1 2.8 0 1.1.4 2.1 1.1 2.8s1.7 1.1 2.8 1.1c1.1 0 2.1-.4 2.8-1.1s1.1-1.7 1.1-2.8c0-1.1-.4-2.1-1.1-2.8-.7-.7-1.6-1.1-2.8-1.2z"/></g><g class="st0"><path class="st1" d="M372.1 228.9c1.6 0 3 .6 4.1 1.7 1.1 1.1 1.6 2.5 1.7 4.1 0 .7-.1 1.4-.4 2-.2.6-.6 1.2-1 1.7l.2.2h.7l4.4 4.4-1.3 1.3-4.4-4.4v-.7l-.2-.2c-.5.4-1.1.8-1.7 1s-1.3.4-2 .4c-1.6 0-3-.6-4.1-1.7-1.1-1.1-1.7-2.4-1.7-4.1 0-1.6.6-3 1.7-4.1 1-1 2.4-1.6 4-1.6zm0 1.8c-1.1 0-2.1.4-2.8 1.2-.8.8-1.1 1.7-1.1 2.8 0 1.1.4 2.1 1.1 2.8s1.7 1.1 2.8 1.1c1.1 0 2.1-.4 2.8-1.1s1.1-1.7 1.1-2.8c0-1.1-.4-2.1-1.1-2.8-.7-.8-1.6-1.2-2.8-1.2z"/></g><g class="st0"><path class="st1" d="M372.1 290.5c1.6 0 3 .6 4.1 1.7 1.1 1.1 1.6 2.5 1.7 4.1 0 .7-.1 1.4-.4 2-.2.6-.6 1.2-1 1.7l.2.2h.7l4.4 4.4-1.3 1.3-4.4-4.4v-.7l-.2-.2c-.5.4-1.1.8-1.7 1s-1.3.4-2 .4c-1.6 0-3-.6-4.1-1.7-1.1-1.1-1.7-2.4-1.7-4.1 0-1.6.6-3 1.7-4.1 1-1 2.4-1.6 4-1.6zm0 1.8c-1.1 0-2.1.4-2.8 1.2-.8.8-1.1 1.7-1.1 2.8 0 1.1.4 2.1 1.1 2.8s1.7 1.1 2.8 1.1c1.1 0 2.1-.4 2.8-1.1s1.1-1.7 1.1-2.8c0-1.1-.4-2.1-1.1-2.8-.7-.8-1.6-1.2-2.8-1.2z"/></g><g class="st0"><path class="st1" d="M72.1 105.7c1.6 0 3 .6 4.1 1.7 1.1 1.1 1.6 2.5 1.7 4.1 0 .7-.1 1.4-.4 2-.2.6-.6 1.2-1 1.7l.2.2h.7l4.4 4.4-1.3 1.3-4.4-4.4v-.7l-.2-.2c-.5.4-1.1.8-1.7 1-.6.2-1.3.4-2 .4-1.6 0-3-.6-4.1-1.7-1.1-1.1-1.7-2.4-1.7-4.1 0-1.6.6-3 1.7-4.1 1-1.1 2.4-1.6 4-1.6zm0 1.7c-1.1 0-2.1.4-2.8 1.2-.8.8-1.1 1.7-1.1 2.8 0 1.1.4 2.1 1.1 2.8s1.7 1.1 2.8 1.1c1.1 0 2.1-.4 2.8-1.1.7-.8 1.1-1.7 1.1-2.8 0-1.1-.4-2.1-1.1-2.8-.7-.7-1.6-1.1-2.8-1.2z"/></g><g class="st0"><path class="st1" d="M72.1 44.1c1.6 0 3 .6 4.1 1.7 1.1 1.1 1.6 2.5 1.7 4.1 0 .7-.1 1.4-.4 2-.2.6-.6 1.2-1 1.7l.2.2h.7l4.4 4.4-1.3 1.3-4.4-4.4v-.7l-.2-.2c-.5.4-1.1.8-1.7 1-.6.2-1.3.4-2 .4-1.6 0-3-.6-4.1-1.7-1.1-1.1-1.7-2.4-1.7-4.1 0-1.6.6-3 1.7-4.1 1-1 2.4-1.6 4-1.6zm0 1.8c-1.1 0-2.1.4-2.8 1.2-.8.8-1.1 1.7-1.1 2.8 0 1.1.4 2.1 1.1 2.8s1.7 1.1 2.8 1.1c1.1 0 2.1-.4 2.8-1.1.7-.8 1.1-1.7 1.1-2.8 0-1.1-.4-2.1-1.1-2.8-.7-.8-1.6-1.2-2.8-1.2z"/></g><g class="st0"><path class="st1" d="M72.1 167.3c1.6 0 3 .6 4.1 1.7 1.1 1.1 1.6 2.5 1.7 4.1 0 .7-.1 1.4-.4 2-.2.6-.6 1.2-1 1.7l.2.2h.7l4.4 4.4-1.3 1.3-4.4-4.4v-.7l-.2-.2c-.5.4-1.1.8-1.7 1-.6.2-1.3.4-2 .4-1.6 0-3-.6-4.1-1.7-1.1-1.1-1.7-2.4-1.7-4.1 0-1.6.6-3 1.7-4.1 1-1.1 2.4-1.6 4-1.6zm0 1.7c-1.1 0-2.1.4-2.8 1.2-.8.8-1.1 1.7-1.1 2.8 0 1.1.4 2.1 1.1 2.8s1.7 1.1 2.8 1.1c1.1 0 2.1-.4 2.8-1.1.7-.8 1.1-1.7 1.1-2.8 0-1.1-.4-2.1-1.1-2.8-.7-.7-1.6-1.1-2.8-1.2z"/></g><g class="st0"><path class="st1" d="M72.1 105.7c1.6 0 3 .6 4.1 1.7 1.1 1.1 1.6 2.5 1.7 4.1 0 .7-.1 1.4-.4 2-.2.6-.6 1.2-1 1.7l.2.2h.7l4.4 4.4-1.3 1.3-4.4-4.4v-.7l-.2-.2c-.5.4-1.1.8-1.7 1-.6.2-1.3.4-2 .4-1.6 0-3-.6-4.1-1.7-1.1-1.1-1.7-2.4-1.7-4.1 0-1.6.6-3 1.7-4.1 1-1 2.4-1.6 4-1.6zm0 1.8c-1.1 0-2.1.4-2.8 1.2-.8.8-1.1 1.7-1.1 2.8 0 1.1.4 2.1 1.1 2.8s1.7 1.1 2.8 1.1c1.1 0 2.1-.4 2.8-1.1.7-.8 1.1-1.7 1.1-2.8 0-1.1-.4-2.1-1.1-2.8-.7-.8-1.6-1.2-2.8-1.2z"/></g><g class="st0"><path class="st1" d="M72.1 228.9c1.6 0 3 .6 4.1 1.7 1.1 1.1 1.6 2.5 1.7 4.1 0 .7-.1 1.4-.4 2-.2.6-.6 1.2-1 1.7l.2.2h.7l4.4 4.4-1.3 1.3-4.4-4.4v-.7l-.2-.2c-.5.4-1.1.8-1.7 1-.6.2-1.3.4-2 .4-1.6 0-3-.6-4.1-1.7-1.1-1.1-1.7-2.4-1.7-4.1 0-1.6.6-3 1.7-4.1 1-1.1 2.4-1.6 4-1.6zm0 1.7c-1.1 0-2.1.4-2.8 1.2-.8.8-1.1 1.7-1.1 2.8 0 1.1.4 2.1 1.1 2.8s1.7 1.1 2.8 1.1c1.1 0 2.1-.4 2.8-1.1.7-.8 1.1-1.7 1.1-2.8 0-1.1-.4-2.1-1.1-2.8-.7-.7-1.6-1.1-2.8-1.2z"/></g><g class="st0"><path class="st1" d="M72.1 167.3c1.6 0 3 .6 4.1 1.7 1.1 1.1 1.6 2.5 1.7 4.1 0 .7-.1 1.4-.4 2-.2.6-.6 1.2-1 1.7l.2.2h.7l4.4 4.4-1.3 1.3-4.4-4.4v-.7l-.2-.2c-.5.4-1.1.8-1.7 1-.6.2-1.3.4-2 .4-1.6 0-3-.6-4.1-1.7-1.1-1.1-1.7-2.4-1.7-4.1 0-1.6.6-3 1.7-4.1 1-1 2.4-1.6 4-1.6zm0 1.8c-1.1 0-2.1.4-2.8 1.2-.8.8-1.1 1.7-1.1 2.8 0 1.1.4 2.1 1.1 2.8s1.7 1.1 2.8 1.1c1.1 0 2.1-.4 2.8-1.1.7-.8 1.1-1.7 1.1-2.8 0-1.1-.4-2.1-1.1-2.8-.7-.8-1.6-1.2-2.8-1.2z"/></g><g class="st0"><path class="st1" d="M72.1 290.5c1.6 0 3 .6 4.1 1.7 1.1 1.1 1.6 2.5 1.7 4.1 0 .7-.1 1.4-.4 2-.2.6-.6 1.2-1 1.7l.2.2h.7l4.4 4.4-1.3 1.3-4.4-4.4v-.7l-.2-.2c-.5.4-1.1.8-1.7 1-.6.2-1.3.4-2 .4-1.6 0-3-.6-4.1-1.7-1.1-1.1-1.7-2.4-1.7-4.1 0-1.6.6-3 1.7-4.1 1-1.1 2.4-1.6 4-1.6zm0 1.7c-1.1 0-2.1.4-2.8 1.2-.8.8-1.1 1.7-1.1 2.8 0 1.1.4 2.1 1.1 2.8s1.7 1.1 2.8 1.1c1.1 0 2.1-.4 2.8-1.1.7-.8 1.1-1.7 1.1-2.8 0-1.1-.4-2.1-1.1-2.8-.7-.7-1.6-1.1-2.8-1.2z"/></g><g class="st0"><path class="st1" d="M72.1 228.9c1.6 0 3 .6 4.1 1.7 1.1 1.1 1.6 2.5 1.7 4.1 0 .7-.1 1.4-.4 2-.2.6-.6 1.2-1 1.7l.2.2h.7l4.4 4.4-1.3 1.3-4.4-4.4v-.7l-.2-.2c-.5.4-1.1.8-1.7 1-.6.2-1.3.4-2 .4-1.6 0-3-.6-4.1-1.7-1.1-1.1-1.7-2.4-1.7-4.1 0-1.6.6-3 1.7-4.1 1-1 2.4-1.6 4-1.6zm0 1.8c-1.1 0-2.1.4-2.8 1.2-.8.8-1.1 1.7-1.1 2.8 0 1.1.4 2.1 1.1 2.8s1.7 1.1 2.8 1.1c1.1 0 2.1-.4 2.8-1.1.7-.8 1.1-1.7 1.1-2.8 0-1.1-.4-2.1-1.1-2.8-.7-.8-1.6-1.2-2.8-1.2z"/></g><g class="st0"><path class="st1" d="M72.1 290.5c1.6 0 3 .6 4.1 1.7 1.1 1.1 1.6 2.5 1.7 4.1 0 .7-.1 1.4-.4 2-.2.6-.6 1.2-1 1.7l.2.2h.7l4.4 4.4-1.3 1.3-4.4-4.4v-.7l-.2-.2c-.5.4-1.1.8-1.7 1-.6.2-1.3.4-2 .4-1.6 0-3-.6-4.1-1.7-1.1-1.1-1.7-2.4-1.7-4.1 0-1.6.6-3 1.7-4.1 1-1 2.4-1.6 4-1.6zm0 1.8c-1.1 0-2.1.4-2.8 1.2-.8.8-1.1 1.7-1.1 2.8 0 1.1.4 2.1 1.1 2.8s1.7 1.1 2.8 1.1c1.1 0 2.1-.4 2.8-1.1.7-.8 1.1-1.7 1.1-2.8 0-1.1-.4-2.1-1.1-2.8-.7-.8-1.6-1.2-2.8-1.2z"/></g><g class="st0"><path class="st1" d="M72.1 105.7c1.6 0 3 .6 4.1 1.7 1.1 1.1 1.6 2.5 1.7 4.1 0 .7-.1 1.4-.4 2-.2.6-.6 1.2-1 1.7l.2.2h.7l4.4 4.4-1.3 1.3-4.4-4.4v-.7l-.2-.2c-.5.4-1.1.8-1.7 1-.6.2-1.3.4-2 .4-1.6 0-3-.6-4.1-1.7-1.1-1.1-1.7-2.4-1.7-4.1 0-1.6.6-3 1.7-4.1 1-1.1 2.4-1.6 4-1.6zm0 1.7c-1.1 0-2.1.4-2.8 1.2-.8.8-1.1 1.7-1.1 2.8 0 1.1.4 2.1 1.1 2.8s1.7 1.1 2.8 1.1c1.1 0 2.1-.4 2.8-1.1.7-.8 1.1-1.7 1.1-2.8 0-1.1-.4-2.1-1.1-2.8-.7-.7-1.6-1.1-2.8-1.2z"/></g><g class="st0"><path class="st1" d="M12.1 105.7c1.6 0 3 .6 4.1 1.7 1.1 1.1 1.6 2.5 1.7 4.1 0 .7-.1 1.4-.4 2-.2.6-.6 1.2-1 1.7l.2.2h.7l4.4 4.4-1.3 1.3-4.4-4.4v-.7l-.2-.2c-.5.4-1.1.8-1.7 1-.6.2-1.3.4-2 .4-1.6 0-3-.6-4.1-1.7-1.1-1.1-1.7-2.4-1.7-4.1 0-1.6.6-3 1.7-4.1 1-1.1 2.4-1.6 4-1.6zm0 1.7c-1.1 0-2.1.4-2.8 1.2-.8.8-1.1 1.7-1.1 2.8 0 1.1.4 2.1 1.1 2.8s1.7 1.1 2.8 1.1c1.1 0 2.1-.4 2.8-1.1.7-.8 1.1-1.7 1.1-2.8 0-1.1-.4-2.1-1.1-2.8-.7-.7-1.6-1.1-2.8-1.2z"/></g><g class="st0"><path class="st1" d="M50.4 77.8c.5 0 .9.2 1.2.5.3.3.5.8.5 1.2v8.9c0 .5-.2.9-.5 1.2-.3.3-.7.5-1.2.5H39.8c-.5 0-.9-.2-1.2-.5-.3-.3-.5-.8-.5-1.2v-8.9c0-.5.2-.9.5-1.2.3-.3.8-.5 1.2-.5h.9V76c0-1.2.5-2.3 1.3-3.1.8-.8 1.9-1.3 3.1-1.3 1.2 0 2.3.5 3.1 1.3.8.8 1.3 1.9 1.3 3.1v1.8h.9zm-5.3-4.5c-.8 0-1.4.3-1.9.8s-.8 1.1-.8 1.9v1.8h5.3V76c0-.8-.3-1.4-.8-1.9s-1.1-.8-1.8-.8zm0 12.5c.5 0 .9-.2 1.2-.5.3-.3.5-.8.5-1.2 0-.5-.2-.9-.5-1.2-.3-.3-.8-.5-1.2-.5s-.9.2-1.2.5c-.3.3-.5.8-.5 1.2 0 .5.2.9.5 1.2.3.3.7.4 1.2.5z"/></g><g class="st0"><path class="st1" d="M72.1 44.1c1.6 0 3 .6 4.1 1.7 1.1 1.1 1.6 2.5 1.7 4.1 0 .7-.1 1.4-.4 2-.2.6-.6 1.2-1 1.7l.2.2h.7l4.4 4.4-1.3 1.3-4.4-4.4v-.7l-.2-.2c-.5.4-1.1.8-1.7 1-.6.2-1.3.4-2 .4-1.6 0-3-.6-4.1-1.7-1.1-1.1-1.7-2.4-1.7-4.1 0-1.6.6-3 1.7-4.1 1-1 2.4-1.6 4-1.6zm0 1.8c-1.1 0-2.1.4-2.8 1.2-.8.8-1.1 1.7-1.1 2.8 0 1.1.4 2.1 1.1 2.8s1.7 1.1 2.8 1.1c1.1 0 2.1-.4 2.8-1.1.7-.8 1.1-1.7 1.1-2.8 0-1.1-.4-2.1-1.1-2.8-.7-.8-1.6-1.2-2.8-1.2z"/></g><g class="st0"><path class="st1" d="M12.1 44.1c1.6 0 3 .6 4.1 1.7 1.1 1.1 1.6 2.5 1.7 4.1 0 .7-.1 1.4-.4 2-.2.6-.6 1.2-1 1.7l.2.2h.7l4.4 4.4-1.3 1.3-4.4-4.4v-.7l-.2-.2c-.5.4-1.1.8-1.7 1-.6.2-1.3.4-2 .4-1.6 0-3-.6-4.1-1.7-1.1-1.1-1.7-2.4-1.7-4.1 0-1.6.6-3 1.7-4.1 1-1 2.4-1.6 4-1.6zm0 1.8c-1.1 0-2.1.4-2.8 1.2-.8.8-1.1 1.7-1.1 2.8 0 1.1.4 2.1 1.1 2.8s1.7 1.1 2.8 1.1c1.1 0 2.1-.4 2.8-1.1.7-.8 1.1-1.7 1.1-2.8 0-1.1-.4-2.1-1.1-2.8-.7-.8-1.6-1.2-2.8-1.2z"/></g><g class="st0"><path class="st1" d="M72.1 167.3c1.6 0 3 .6 4.1 1.7 1.1 1.1 1.6 2.5 1.7 4.1 0 .7-.1 1.4-.4 2-.2.6-.6 1.2-1 1.7l.2.2h.7l4.4 4.4-1.3 1.3-4.4-4.4v-.7l-.2-.2c-.5.4-1.1.8-1.7 1-.6.2-1.3.4-2 .4-1.6 0-3-.6-4.1-1.7-1.1-1.1-1.7-2.4-1.7-4.1 0-1.6.6-3 1.7-4.1 1-1.1 2.4-1.6 4-1.6zm0 1.7c-1.1 0-2.1.4-2.8 1.2-.8.8-1.1 1.7-1.1 2.8 0 1.1.4 2.1 1.1 2.8s1.7 1.1 2.8 1.1c1.1 0 2.1-.4 2.8-1.1.7-.8 1.1-1.7 1.1-2.8 0-1.1-.4-2.1-1.1-2.8-.7-.7-1.6-1.1-2.8-1.2z"/></g><g class="st0"><path class="st1" d="M12.1 167.3c1.6 0 3 .6 4.1 1.7 1.1 1.1 1.6 2.5 1.7 4.1 0 .7-.1 1.4-.4 2-.2.6-.6 1.2-1 1.7l.2.2h.7l4.4 4.4-1.3 1.3-4.4-4.4v-.7l-.2-.2c-.5.4-1.1.8-1.7 1-.6.2-1.3.4-2 .4-1.6 0-3-.6-4.1-1.7-1.1-1.1-1.7-2.4-1.7-4.1 0-1.6.6-3 1.7-4.1 1-1.1 2.4-1.6 4-1.6zm0 1.7c-1.1 0-2.1.4-2.8 1.2-.8.8-1.1 1.7-1.1 2.8 0 1.1.4 2.1 1.1 2.8s1.7 1.1 2.8 1.1c1.1 0 2.1-.4 2.8-1.1.7-.8 1.1-1.7 1.1-2.8 0-1.1-.4-2.1-1.1-2.8-.7-.7-1.6-1.1-2.8-1.2z"/></g><g class="st0"><path class="st1" d="M50.4 139.4c.5 0 .9.2 1.2.5.3.3.5.8.5 1.2v8.9c0 .5-.2.9-.5 1.2-.3.3-.7.5-1.2.5H39.8c-.5 0-.9-.2-1.2-.5-.3-.3-.5-.8-.5-1.2v-8.9c0-.5.2-.9.5-1.2.3-.3.8-.5 1.2-.5h.9v-1.8c0-1.2.5-2.3 1.3-3.1.8-.8 1.9-1.3 3.1-1.3 1.2 0 2.3.5 3.1 1.3.8.8 1.3 1.9 1.3 3.1v1.8h.9zm-5.3-4.5c-.8 0-1.4.3-1.9.8s-.8 1.1-.8 1.9v1.8h5.3v-1.8c0-.8-.3-1.4-.8-1.9s-1.1-.8-1.8-.8zm0 12.5c.5 0 .9-.2 1.2-.5.3-.3.5-.8.5-1.2 0-.5-.2-.9-.5-1.2-.3-.3-.8-.5-1.2-.5s-.9.2-1.2.5c-.3.3-.5.8-.5 1.2 0 .5.2.9.5 1.2.3.3.7.4 1.2.5z"/></g><g class="st0"><path class="st1" d="M72.1 105.7c1.6 0 3 .6 4.1 1.7 1.1 1.1 1.6 2.5 1.7 4.1 0 .7-.1 1.4-.4 2-.2.6-.6 1.2-1 1.7l.2.2h.7l4.4 4.4-1.3 1.3-4.4-4.4v-.7l-.2-.2c-.5.4-1.1.8-1.7 1-.6.2-1.3.4-2 .4-1.6 0-3-.6-4.1-1.7-1.1-1.1-1.7-2.4-1.7-4.1 0-1.6.6-3 1.7-4.1 1-1 2.4-1.6 4-1.6zm0 1.8c-1.1 0-2.1.4-2.8 1.2-.8.8-1.1 1.7-1.1 2.8 0 1.1.4 2.1 1.1 2.8s1.7 1.1 2.8 1.1c1.1 0 2.1-.4 2.8-1.1.7-.8 1.1-1.7 1.1-2.8 0-1.1-.4-2.1-1.1-2.8-.7-.8-1.6-1.2-2.8-1.2z"/></g><g class="st0"><path class="st1" d="M12.1 105.7c1.6 0 3 .6 4.1 1.7 1.1 1.1 1.6 2.5 1.7 4.1 0 .7-.1 1.4-.4 2-.2.6-.6 1.2-1 1.7l.2.2h.7l4.4 4.4-1.3 1.3-4.4-4.4v-.7l-.2-.2c-.5.4-1.1.8-1.7 1-.6.2-1.3.4-2 .4-1.6 0-3-.6-4.1-1.7-1.1-1.1-1.7-2.4-1.7-4.1 0-1.6.6-3 1.7-4.1 1-1 2.4-1.6 4-1.6zm0 1.8c-1.1 0-2.1.4-2.8 1.2-.8.8-1.1 1.7-1.1 2.8 0 1.1.4 2.1 1.1 2.8s1.7 1.1 2.8 1.1c1.1 0 2.1-.4 2.8-1.1.7-.8 1.1-1.7 1.1-2.8 0-1.1-.4-2.1-1.1-2.8-.7-.8-1.6-1.2-2.8-1.2z"/></g><g class="st0"><path class="st1" d="M72.1 228.9c1.6 0 3 .6 4.1 1.7 1.1 1.1 1.6 2.5 1.7 4.1 0 .7-.1 1.4-.4 2-.2.6-.6 1.2-1 1.7l.2.2h.7l4.4 4.4-1.3 1.3-4.4-4.4v-.7l-.2-.2c-.5.4-1.1.8-1.7 1-.6.2-1.3.4-2 .4-1.6 0-3-.6-4.1-1.7-1.1-1.1-1.7-2.4-1.7-4.1 0-1.6.6-3 1.7-4.1 1-1.1 2.4-1.6 4-1.6zm0 1.7c-1.1 0-2.1.4-2.8 1.2-.8.8-1.1 1.7-1.1 2.8 0 1.1.4 2.1 1.1 2.8s1.7 1.1 2.8 1.1c1.1 0 2.1-.4 2.8-1.1.7-.8 1.1-1.7 1.1-2.8 0-1.1-.4-2.1-1.1-2.8-.7-.7-1.6-1.1-2.8-1.2z"/></g><g class="st0"><path class="st1" d="M12.1 228.9c1.6 0 3 .6 4.1 1.7 1.1 1.1 1.6 2.5 1.7 4.1 0 .7-.1 1.4-.4 2-.2.6-.6 1.2-1 1.7l.2.2h.7l4.4 4.4-1.3 1.3-4.4-4.4v-.7l-.2-.2c-.5.4-1.1.8-1.7 1-.6.2-1.3.4-2 .4-1.6 0-3-.6-4.1-1.7-1.1-1.1-1.7-2.4-1.7-4.1 0-1.6.6-3 1.7-4.1 1-1.1 2.4-1.6 4-1.6zm0 1.7c-1.1 0-2.1.4-2.8 1.2-.8.8-1.1 1.7-1.1 2.8 0 1.1.4 2.1 1.1 2.8s1.7 1.1 2.8 1.1c1.1 0 2.1-.4 2.8-1.1.7-.8 1.1-1.7 1.1-2.8 0-1.1-.4-2.1-1.1-2.8-.7-.7-1.6-1.1-2.8-1.2z"/></g><g class="st0"><path class="st1" d="M50.4 201c.5 0 .9.2 1.2.5.3.3.5.8.5 1.2v8.9c0 .5-.2.9-.5 1.2-.3.3-.7.5-1.2.5H39.8c-.5 0-.9-.2-1.2-.5-.3-.3-.5-.8-.5-1.2v-8.9c0-.5.2-.9.5-1.2.3-.3.8-.5 1.2-.5h.9v-1.8c0-1.2.5-2.3 1.3-3.1.8-.8 1.9-1.3 3.1-1.3 1.2 0 2.3.5 3.1 1.3.8.8 1.3 1.9 1.3 3.1v1.8h.9zm-5.3-4.5c-.8 0-1.4.3-1.9.8s-.8 1.1-.8 1.9v1.8h5.3v-1.8c0-.8-.3-1.4-.8-1.9s-1.1-.8-1.8-.8zm0 12.5c.5 0 .9-.2 1.2-.5.3-.3.5-.8.5-1.2 0-.5-.2-.9-.5-1.2-.3-.3-.8-.5-1.2-.5s-.9.2-1.2.5c-.3.3-.5.8-.5 1.2 0 .5.2.9.5 1.2.3.3.7.4 1.2.5z"/></g><g class="st0"><path class="st1" d="M72.1 167.3c1.6 0 3 .6 4.1 1.7 1.1 1.1 1.6 2.5 1.7 4.1 0 .7-.1 1.4-.4 2-.2.6-.6 1.2-1 1.7l.2.2h.7l4.4 4.4-1.3 1.3-4.4-4.4v-.7l-.2-.2c-.5.4-1.1.8-1.7 1-.6.2-1.3.4-2 .4-1.6 0-3-.6-4.1-1.7-1.1-1.1-1.7-2.4-1.7-4.1 0-1.6.6-3 1.7-4.1 1-1 2.4-1.6 4-1.6zm0 1.8c-1.1 0-2.1.4-2.8 1.2-.8.8-1.1 1.7-1.1 2.8 0 1.1.4 2.1 1.1 2.8s1.7 1.1 2.8 1.1c1.1 0 2.1-.4 2.8-1.1.7-.8 1.1-1.7 1.1-2.8 0-1.1-.4-2.1-1.1-2.8-.7-.8-1.6-1.2-2.8-1.2z"/></g><g class="st0"><path class="st1" d="M12.1 167.3c1.6 0 3 .6 4.1 1.7 1.1 1.1 1.6 2.5 1.7 4.1 0 .7-.1 1.4-.4 2-.2.6-.6 1.2-1 1.7l.2.2h.7l4.4 4.4-1.3 1.3-4.4-4.4v-.7l-.2-.2c-.5.4-1.1.8-1.7 1-.6.2-1.3.4-2 .4-1.6 0-3-.6-4.1-1.7-1.1-1.1-1.7-2.4-1.7-4.1 0-1.6.6-3 1.7-4.1 1-1 2.4-1.6 4-1.6zm0 1.8c-1.1 0-2.1.4-2.8 1.2-.8.8-1.1 1.7-1.1 2.8 0 1.1.4 2.1 1.1 2.8s1.7 1.1 2.8 1.1c1.1 0 2.1-.4 2.8-1.1.7-.8 1.1-1.7 1.1-2.8 0-1.1-.4-2.1-1.1-2.8-.7-.8-1.6-1.2-2.8-1.2z"/></g><g class="st0"><path class="st1" d="M72.1 290.5c1.6 0 3 .6 4.1 1.7 1.1 1.1 1.6 2.5 1.7 4.1 0 .7-.1 1.4-.4 2-.2.6-.6 1.2-1 1.7l.2.2h.7l4.4 4.4-1.3 1.3-4.4-4.4v-.7l-.2-.2c-.5.4-1.1.8-1.7 1-.6.2-1.3.4-2 .4-1.6 0-3-.6-4.1-1.7-1.1-1.1-1.7-2.4-1.7-4.1 0-1.6.6-3 1.7-4.1 1-1.1 2.4-1.6 4-1.6zm0 1.7c-1.1 0-2.1.4-2.8 1.2-.8.8-1.1 1.7-1.1 2.8 0 1.1.4 2.1 1.1 2.8s1.7 1.1 2.8 1.1c1.1 0 2.1-.4 2.8-1.1.7-.8 1.1-1.7 1.1-2.8 0-1.1-.4-2.1-1.1-2.8-.7-.7-1.6-1.1-2.8-1.2z"/></g><g class="st0"><path class="st1" d="M12.1 290.5c1.6 0 3 .6 4.1 1.7 1.1 1.1 1.6 2.5 1.7 4.1 0 .7-.1 1.4-.4 2-.2.6-.6 1.2-1 1.7l.2.2h.7l4.4 4.4-1.3 1.3-4.4-4.4v-.7l-.2-.2c-.5.4-1.1.8-1.7 1-.6.2-1.3.4-2 .4-1.6 0-3-.6-4.1-1.7-1.1-1.1-1.7-2.4-1.7-4.1 0-1.6.6-3 1.7-4.1 1-1.1 2.4-1.6 4-1.6zm0 1.7c-1.1 0-2.1.4-2.8 1.2-.8.8-1.1 1.7-1.1 2.8 0 1.1.4 2.1 1.1 2.8s1.7 1.1 2.8 1.1c1.1 0 2.1-.4 2.8-1.1.7-.8 1.1-1.7 1.1-2.8 0-1.1-.4-2.1-1.1-2.8-.7-.7-1.6-1.1-2.8-1.2z"/></g><g class="st0"><path class="st1" d="M50.4 262.6c.5 0 .9.2 1.2.5.3.3.5.8.5 1.2v8.9c0 .5-.2.9-.5 1.2-.3.3-.7.5-1.2.5H39.8c-.5 0-.9-.2-1.2-.5-.3-.3-.5-.8-.5-1.2v-8.9c0-.5.2-.9.5-1.2.3-.3.8-.5 1.2-.5h.9v-1.8c0-1.2.5-2.3 1.3-3.1.8-.8 1.9-1.3 3.1-1.3 1.2 0 2.3.5 3.1 1.3.8.8 1.3 1.9 1.3 3.1v1.8h.9zm-5.3-4.5c-.8 0-1.4.3-1.9.8s-.8 1.1-.8 1.9v1.8h5.3v-1.8c0-.8-.3-1.4-.8-1.9s-1.1-.8-1.8-.8zm0 12.5c.5 0 .9-.2 1.2-.5.3-.3.5-.8.5-1.2 0-.5-.2-.9-.5-1.2-.3-.3-.8-.5-1.2-.5s-.9.2-1.2.5c-.3.3-.5.8-.5 1.2 0 .5.2.9.5 1.2.3.3.7.4 1.2.5z"/></g><g class="st0"><path class="st1" d="M72.1 228.9c1.6 0 3 .6 4.1 1.7 1.1 1.1 1.6 2.5 1.7 4.1 0 .7-.1 1.4-.4 2-.2.6-.6 1.2-1 1.7l.2.2h.7l4.4 4.4-1.3 1.3-4.4-4.4v-.7l-.2-.2c-.5.4-1.1.8-1.7 1-.6.2-1.3.4-2 .4-1.6 0-3-.6-4.1-1.7-1.1-1.1-1.7-2.4-1.7-4.1 0-1.6.6-3 1.7-4.1 1-1 2.4-1.6 4-1.6zm0 1.8c-1.1 0-2.1.4-2.8 1.2-.8.8-1.1 1.7-1.1 2.8 0 1.1.4 2.1 1.1 2.8s1.7 1.1 2.8 1.1c1.1 0 2.1-.4 2.8-1.1.7-.8 1.1-1.7 1.1-2.8 0-1.1-.4-2.1-1.1-2.8-.7-.8-1.6-1.2-2.8-1.2z"/></g><g class="st0"><path class="st1" d="M12.1 228.9c1.6 0 3 .6 4.1 1.7 1.1 1.1 1.6 2.5 1.7 4.1 0 .7-.1 1.4-.4 2-.2.6-.6 1.2-1 1.7l.2.2h.7l4.4 4.4-1.3 1.3-4.4-4.4v-.7l-.2-.2c-.5.4-1.1.8-1.7 1-.6.2-1.3.4-2 .4-1.6 0-3-.6-4.1-1.7-1.1-1.1-1.7-2.4-1.7-4.1 0-1.6.6-3 1.7-4.1 1-1 2.4-1.6 4-1.6zm0 1.8c-1.1 0-2.1.4-2.8 1.2-.8.8-1.1 1.7-1.1 2.8 0 1.1.4 2.1 1.1 2.8s1.7 1.1 2.8 1.1c1.1 0 2.1-.4 2.8-1.1.7-.8 1.1-1.7 1.1-2.8 0-1.1-.4-2.1-1.1-2.8-.7-.8-1.6-1.2-2.8-1.2z"/></g><g class="st0"><path class="st1" d="M72.1 290.5c1.6 0 3 .6 4.1 1.7 1.1 1.1 1.6 2.5 1.7 4.1 0 .7-.1 1.4-.4 2-.2.6-.6 1.2-1 1.7l.2.2h.7l4.4 4.4-1.3 1.3-4.4-4.4v-.7l-.2-.2c-.5.4-1.1.8-1.7 1-.6.2-1.3.4-2 .4-1.6 0-3-.6-4.1-1.7-1.1-1.1-1.7-2.4-1.7-4.1 0-1.6.6-3 1.7-4.1 1-1 2.4-1.6 4-1.6zm0 1.8c-1.1 0-2.1.4-2.8 1.2-.8.8-1.1 1.7-1.1 2.8 0 1.1.4 2.1 1.1 2.8s1.7 1.1 2.8 1.1c1.1 0 2.1-.4 2.8-1.1.7-.8 1.1-1.7 1.1-2.8 0-1.1-.4-2.1-1.1-2.8-.7-.8-1.6-1.2-2.8-1.2z"/></g><g class="st0"><path class="st1" d="M12.1 290.5c1.6 0 3 .6 4.1 1.7 1.1 1.1 1.6 2.5 1.7 4.1 0 .7-.1 1.4-.4 2-.2.6-.6 1.2-1 1.7l.2.2h.7l4.4 4.4-1.3 1.3-4.4-4.4v-.7l-.2-.2c-.5.4-1.1.8-1.7 1-.6.2-1.3.4-2 .4-1.6 0-3-.6-4.1-1.7-1.1-1.1-1.7-2.4-1.7-4.1 0-1.6.6-3 1.7-4.1 1-1 2.4-1.6 4-1.6zm0 1.8c-1.1 0-2.1.4-2.8 1.2-.8.8-1.1 1.7-1.1 2.8 0 1.1.4 2.1 1.1 2.8s1.7 1.1 2.8 1.1c1.1 0 2.1-.4 2.8-1.1.7-.8 1.1-1.7 1.1-2.8 0-1.1-.4-2.1-1.1-2.8-.7-.8-1.6-1.2-2.8-1.2z"/></g><g class="st0"><path class="st1" d="M12.1 105.7c1.6 0 3 .6 4.1 1.7 1.1 1.1 1.6 2.5 1.7 4.1 0 .7-.1 1.4-.4 2-.2.6-.6 1.2-1 1.7l.2.2h.7l4.4 4.4-1.3 1.3-4.4-4.4v-.7l-.2-.2c-.5.4-1.1.8-1.7 1-.6.2-1.3.4-2 .4-1.6 0-3-.6-4.1-1.7-1.1-1.1-1.7-2.4-1.7-4.1 0-1.6.6-3 1.7-4.1 1-1.1 2.4-1.6 4-1.6zm0 1.7c-1.1 0-2.1.4-2.8 1.2-.8.8-1.1 1.7-1.1 2.8 0 1.1.4 2.1 1.1 2.8s1.7 1.1 2.8 1.1c1.1 0 2.1-.4 2.8-1.1.7-.8 1.1-1.7 1.1-2.8 0-1.1-.4-2.1-1.1-2.8-.7-.7-1.6-1.1-2.8-1.2z"/></g><g class="st0"><path class="st1" d="M12.1 44.1c1.6 0 3 .6 4.1 1.7 1.1 1.1 1.6 2.5 1.7 4.1 0 .7-.1 1.4-.4 2-.2.6-.6 1.2-1 1.7l.2.2h.7l4.4 4.4-1.3 1.3-4.4-4.4v-.7l-.2-.2c-.5.4-1.1.8-1.7 1-.6.2-1.3.4-2 .4-1.6 0-3-.6-4.1-1.7-1.1-1.1-1.7-2.4-1.7-4.1 0-1.6.6-3 1.7-4.1 1-1 2.4-1.6 4-1.6zm0 1.8c-1.1 0-2.1.4-2.8 1.2-.8.8-1.1 1.7-1.1 2.8 0 1.1.4 2.1 1.1 2.8s1.7 1.1 2.8 1.1c1.1 0 2.1-.4 2.8-1.1.7-.8 1.1-1.7 1.1-2.8 0-1.1-.4-2.1-1.1-2.8-.7-.8-1.6-1.2-2.8-1.2z"/></g><g class="st0"><path class="st1" d="M12.1 167.3c1.6 0 3 .6 4.1 1.7 1.1 1.1 1.6 2.5 1.7 4.1 0 .7-.1 1.4-.4 2-.2.6-.6 1.2-1 1.7l.2.2h.7l4.4 4.4-1.3 1.3-4.4-4.4v-.7l-.2-.2c-.5.4-1.1.8-1.7 1-.6.2-1.3.4-2 .4-1.6 0-3-.6-4.1-1.7-1.1-1.1-1.7-2.4-1.7-4.1 0-1.6.6-3 1.7-4.1 1-1.1 2.4-1.6 4-1.6zm0 1.7c-1.1 0-2.1.4-2.8 1.2-.8.8-1.1 1.7-1.1 2.8 0 1.1.4 2.1 1.1 2.8s1.7 1.1 2.8 1.1c1.1 0 2.1-.4 2.8-1.1.7-.8 1.1-1.7 1.1-2.8 0-1.1-.4-2.1-1.1-2.8-.7-.7-1.6-1.1-2.8-1.2z"/></g><g class="st0"><path class="st1" d="M12.1 105.7c1.6 0 3 .6 4.1 1.7 1.1 1.1 1.6 2.5 1.7 4.1 0 .7-.1 1.4-.4 2-.2.6-.6 1.2-1 1.7l.2.2h.7l4.4 4.4-1.3 1.3-4.4-4.4v-.7l-.2-.2c-.5.4-1.1.8-1.7 1-.6.2-1.3.4-2 .4-1.6 0-3-.6-4.1-1.7-1.1-1.1-1.7-2.4-1.7-4.1 0-1.6.6-3 1.7-4.1 1-1 2.4-1.6 4-1.6zm0 1.8c-1.1 0-2.1.4-2.8 1.2-.8.8-1.1 1.7-1.1 2.8 0 1.1.4 2.1 1.1 2.8s1.7 1.1 2.8 1.1c1.1 0 2.1-.4 2.8-1.1.7-.8 1.1-1.7 1.1-2.8 0-1.1-.4-2.1-1.1-2.8-.7-.8-1.6-1.2-2.8-1.2z"/></g><g class="st0"><path class="st1" d="M12.1 228.9c1.6 0 3 .6 4.1 1.7 1.1 1.1 1.6 2.5 1.7 4.1 0 .7-.1 1.4-.4 2-.2.6-.6 1.2-1 1.7l.2.2h.7l4.4 4.4-1.3 1.3-4.4-4.4v-.7l-.2-.2c-.5.4-1.1.8-1.7 1-.6.2-1.3.4-2 .4-1.6 0-3-.6-4.1-1.7-1.1-1.1-1.7-2.4-1.7-4.1 0-1.6.6-3 1.7-4.1 1-1.1 2.4-1.6 4-1.6zm0 1.7c-1.1 0-2.1.4-2.8 1.2-.8.8-1.1 1.7-1.1 2.8 0 1.1.4 2.1 1.1 2.8s1.7 1.1 2.8 1.1c1.1 0 2.1-.4 2.8-1.1.7-.8 1.1-1.7 1.1-2.8 0-1.1-.4-2.1-1.1-2.8-.7-.7-1.6-1.1-2.8-1.2z"/></g><g class="st0"><path class="st1" d="M12.1 167.3c1.6 0 3 .6 4.1 1.7 1.1 1.1 1.6 2.5 1.7 4.1 0 .7-.1 1.4-.4 2-.2.6-.6 1.2-1 1.7l.2.2h.7l4.4 4.4-1.3 1.3-4.4-4.4v-.7l-.2-.2c-.5.4-1.1.8-1.7 1-.6.2-1.3.4-2 .4-1.6 0-3-.6-4.1-1.7-1.1-1.1-1.7-2.4-1.7-4.1 0-1.6.6-3 1.7-4.1 1-1 2.4-1.6 4-1.6zm0 1.8c-1.1 0-2.1.4-2.8 1.2-.8.8-1.1 1.7-1.1 2.8 0 1.1.4 2.1 1.1 2.8s1.7 1.1 2.8 1.1c1.1 0 2.1-.4 2.8-1.1.7-.8 1.1-1.7 1.1-2.8 0-1.1-.4-2.1-1.1-2.8-.7-.8-1.6-1.2-2.8-1.2z"/></g><g class="st0"><path class="st1" d="M12.1 290.5c1.6 0 3 .6 4.1 1.7 1.1 1.1 1.6 2.5 1.7 4.1 0 .7-.1 1.4-.4 2-.2.6-.6 1.2-1 1.7l.2.2h.7l4.4 4.4-1.3 1.3-4.4-4.4v-.7l-.2-.2c-.5.4-1.1.8-1.7 1-.6.2-1.3.4-2 .4-1.6 0-3-.6-4.1-1.7-1.1-1.1-1.7-2.4-1.7-4.1 0-1.6.6-3 1.7-4.1 1-1.1 2.4-1.6 4-1.6zm0 1.7c-1.1 0-2.1.4-2.8 1.2-.8.8-1.1 1.7-1.1 2.8 0 1.1.4 2.1 1.1 2.8s1.7 1.1 2.8 1.1c1.1 0 2.1-.4 2.8-1.1.7-.8 1.1-1.7 1.1-2.8 0-1.1-.4-2.1-1.1-2.8-.7-.7-1.6-1.1-2.8-1.2z"/></g><g class="st0"><path class="st1" d="M12.1 228.9c1.6 0 3 .6 4.1 1.7 1.1 1.1 1.6 2.5 1.7 4.1 0 .7-.1 1.4-.4 2-.2.6-.6 1.2-1 1.7l.2.2h.7l4.4 4.4-1.3 1.3-4.4-4.4v-.7l-.2-.2c-.5.4-1.1.8-1.7 1-.6.2-1.3.4-2 .4-1.6 0-3-.6-4.1-1.7-1.1-1.1-1.7-2.4-1.7-4.1 0-1.6.6-3 1.7-4.1 1-1 2.4-1.6 4-1.6zm0 1.8c-1.1 0-2.1.4-2.8 1.2-.8.8-1.1 1.7-1.1 2.8 0 1.1.4 2.1 1.1 2.8s1.7 1.1 2.8 1.1c1.1 0 2.1-.4 2.8-1.1.7-.8 1.1-1.7 1.1-2.8 0-1.1-.4-2.1-1.1-2.8-.7-.8-1.6-1.2-2.8-1.2z"/></g><g class="st0"><path class="st1" d="M12.1 290.5c1.6 0 3 .6 4.1 1.7 1.1 1.1 1.6 2.5 1.7 4.1 0 .7-.1 1.4-.4 2-.2.6-.6 1.2-1 1.7l.2.2h.7l4.4 4.4-1.3 1.3-4.4-4.4v-.7l-.2-.2c-.5.4-1.1.8-1.7 1-.6.2-1.3.4-2 .4-1.6 0-3-.6-4.1-1.7-1.1-1.1-1.7-2.4-1.7-4.1 0-1.6.6-3 1.7-4.1 1-1 2.4-1.6 4-1.6zm0 1.8c-1.1 0-2.1.4-2.8 1.2-.8.8-1.1 1.7-1.1 2.8 0 1.1.4 2.1 1.1 2.8s1.7 1.1 2.8 1.1c1.1 0 2.1-.4 2.8-1.1.7-.8 1.1-1.7 1.1-2.8 0-1.1-.4-2.1-1.1-2.8-.7-.8-1.6-1.2-2.8-1.2z"/></g><path class="st2" d="M357.7 347H94.4V.5h233.1l30.2 30.2z"/><defs><path id="SVGID_1_" d="M358.1 347.5H93.9V0h233.8l30.5 30.5v317zm-263.2-1h262.3V30.9L327.2 1H94.9v345.5z"/></defs><clipPath id="SVGID_2_"><use xlink:href="#SVGID_1_" overflow="visible"/></clipPath><path class="st3" d="M94.9 343.1h262.3v3.4H94.9z"/><path class="st4" d="M94.9 338.7h262.3v4.4H94.9z"/><path class="st5" d="M94.9 334.2h262.3v4.4H94.9z"/><path class="st6" d="M94.9 329.8h262.3v4.4H94.9z"/><path class="st7" d="M94.9 325.4h262.3v4.4H94.9z"/><path class="st8" d="M94.9 321h262.3v4.4H94.9z"/><path class="st9" d="M94.9 316.5h262.3v4.4H94.9z"/><path class="st10" d="M94.9 312.1h262.3v4.4H94.9z"/><path class="st11" d="M94.9 307.7h262.3v4.4H94.9z"/><path class="st12" d="M94.9 303.3h262.3v4.4H94.9z"/><path class="st13" d="M94.9 298.9h262.3v4.4H94.9z"/><path class="st14" d="M94.9 294.4h262.3v4.4H94.9z"/><path class="st15" d="M94.9 290h262.3v4.4H94.9z"/><path class="st16" d="M94.9 285.6h262.3v4.4H94.9z"/><path class="st17" d="M94.9 281.2h262.3v4.4H94.9z"/><path class="st18" d="M94.9 276.7h262.3v4.4H94.9z"/><path class="st19" d="M94.9 272.3h262.3v4.4H94.9z"/><path class="st20" d="M94.9 267.9h262.3v4.4H94.9z"/><path class="st21" d="M94.9 263.5h262.3v4.4H94.9z"/><path class="st22" d="M94.9 259h262.3v4.4H94.9z"/><path class="st23" d="M94.9 254.6h262.3v4.4H94.9z"/><path class="st24" d="M94.9 250.2h262.3v4.4H94.9z"/><path class="st25" d="M94.9 245.8h262.3v4.4H94.9z"/><path class="st26" d="M94.9 241.4h262.3v4.4H94.9z"/><path class="st27" d="M94.9 236.9h262.3v4.4H94.9z"/><path class="st28" d="M94.9 232.5h262.3v4.4H94.9z"/><path class="st29" d="M94.9 228.1h262.3v4.4H94.9z"/><path class="st30" d="M94.9 223.7h262.3v4.4H94.9z"/><path class="st31" d="M94.9 219.2h262.3v4.4H94.9z"/><path class="st32" d="M94.9 214.8h262.3v4.4H94.9z"/><path class="st33" d="M94.9 210.4h262.3v4.4H94.9z"/><path class="st34" d="M94.9 206h262.3v4.4H94.9z"/><path class="st35" d="M94.9 201.6h262.3v4.4H94.9zm0-100.8h262.3v100.8H94.9z"/><path class="st36" d="M94.9 1h262.3v99.8H94.9z"/><path class="st3" d="M93.9 347.5h264.3H93.9zm0-4.4h264.3v4.4H93.9z"/><path class="st4" d="M93.9 338.7h264.3v4.4H93.9z"/><path class="st5" d="M93.9 334.2h264.3v4.4H93.9z"/><path class="st6" d="M93.9 329.8h264.3v4.4H93.9z"/><path class="st7" d="M93.9 325.4h264.3v4.4H93.9z"/><path class="st8" d="M93.9 321h264.3v4.4H93.9z"/><path class="st9" d="M93.9 316.5h264.3v4.4H93.9z"/><path class="st10" d="M93.9 312.1h264.3v4.4H93.9z"/><path class="st11" d="M93.9 307.7h264.3v4.4H93.9z"/><path class="st12" d="M93.9 303.3h264.3v4.4H93.9z"/><path class="st13" d="M93.9 298.9h264.3v4.4H93.9z"/><path class="st14" d="M93.9 294.4h264.3v4.4H93.9z"/><path class="st15" d="M93.9 290h264.3v4.4H93.9z"/><path class="st16" d="M93.9 285.6h264.3v4.4H93.9z"/><path class="st17" d="M93.9 281.2h264.3v4.4H93.9z"/><path class="st18" d="M93.9 276.7h264.3v4.4H93.9z"/><path class="st19" d="M93.9 272.3h264.3v4.4H93.9z"/><path class="st20" d="M93.9 267.9h264.3v4.4H93.9z"/><path class="st21" d="M93.9 263.5h264.3v4.4H93.9z"/><path class="st22" d="M93.9 259h264.3v4.4H93.9z"/><path class="st23" d="M93.9 254.6h264.3v4.4H93.9z"/><path class="st24" d="M93.9 250.2h264.3v4.4H93.9z"/><path class="st25" d="M93.9 245.8h264.3v4.4H93.9z"/><path class="st26" d="M93.9 241.4h264.3v4.4H93.9z"/><path class="st27" d="M93.9 236.9h264.3v4.4H93.9z"/><path class="st28" d="M93.9 232.5h264.3v4.4H93.9z"/><path class="st29" d="M93.9 228.1h264.3v4.4H93.9z"/><path class="st30" d="M93.9 223.7h264.3v4.4H93.9z"/><path class="st31" d="M93.9 219.2h264.3v4.4H93.9z"/><path class="st32" d="M93.9 214.8h264.3v4.4H93.9z"/><path class="st33" d="M93.9 210.4h264.3v4.4H93.9z"/><path class="st34" d="M93.9 206h264.3v4.4H93.9z"/><path class="st35" d="M93.9 201.6h264.3v4.4H93.9zm0-100.8h264.3v100.8H93.9z"/><path class="st36" d="M93.9 0h264.3v100.8H93.9zm264.2 0H93.9h264.2z"/><path class="st37" d="M148.1 92.3h70.1v3h-70.1zm0 13.6h33.2v3h-33.2zm79-13.6h104v3h-104zM190 105.9h66v3h-66z"/><path class="st38" d="M131.9 47.8h-8.3c-.5 0-1-.3-1.2-.7l-4.1-7.1c-.2-.4-.2-1 0-1.4l4.1-7.1c.3-.4.7-.7 1.2-.7h8.3c.5 0 1 .3 1.2.7l4.1 7.1c.2.4.2 1 0 1.4l-4.1 7.2c-.2.4-.7.7-1.2.6z"/><g class="st0"><path class="st38" d="M137.3 93.1l-11 11-5-5 1.3-1.3 3.7 3.7 9.7-9.7 1.3 1.3z"/></g><path class="st37" d="M148.1 135.5h152v3h-152zm0 13.6h33.2v3h-33.2zm161-13.6h22v3h-22z"/><g class="st0"><path class="st38" d="M137.3 136.4l-11 11-5-5 1.3-1.3 3.7 3.7 9.7-9.7 1.3 1.3z"/></g><path class="st37" d="M148.1 178.7h70.1v3h-70.1zm0 13.7h33.2v3h-33.2zm79-13.7h78.8v3h-78.8z"/><g class="st0"><path class="st38" d="M137.3 179.6l-11 11-5-5 1.3-1.3 3.7 3.7 9.7-9.7 1.3 1.3z"/></g><path class="st37" d="M148.1 221.9h70.1v3h-70.1zm0 13.7H203v3h-54.9zm79-13.7h95v3h-95z"/><g class="st0"><path class="st38" d="M137.3 223.7l-11 11-5-5 1.3-1.3 3.7 3.7 9.7-9.7 1.3 1.3z"/></g><path class="st37" d="M245.1 235.6H300v3h-54.9z"/><path class="st1" d="M288.5 128v41.6c-.4 19.7-6.4 37.3-17.9 52.7-10.9 15-26.6 25.8-44.5 30.6-17.9-4.8-33.6-15.6-44.5-30.6-11.5-15.4-17.5-32.9-17.9-52.7V128l62.4-28 62.4 28z"/><path class="st2" d="M202.2 204.5l29.1 16.9-24.3 42.2-9.1-17.7-20 .9z"/><path class="st37" d="M206.9 264.6l-9.4-18.2-20.6.9 25-43.5 30 17.4-.2.4-24.8 43zm-8.8-19.2l8.8 17.2 23.6-41-28.2-16.4-23.6 41.1 19.4-.9z"/><path class="st2" d="M250 204.5l-29.1 16.9 24.2 42.2 9.2-17.7 20 .9z"/><path class="st37" d="M245.1 264.6l-24.9-43.4 30-17.4 25 43.5-20.6-.9-9.5 18.2zm-23.6-43l23.5 41 8.9-17.2 19.4.9-23.6-41.1-28.2 16.4z"/><path class="st2" d="M268.6 151.6h-57.4c-7.4 0-13.4 6-13.4 13.4s6 13.4 13.4 13.4h29.7c2.2.1 3.9 2 3.7 4.1-.1 2-1.7 3.6-3.7 3.7h-29.7c-11.7.3-21.5-9.1-21.7-20.8s9.1-21.5 20.8-21.7H264l-8.1-14.1c-1.4-2.4-3.9-3.8-6.6-3.8h-46.4c-2.7 0-5.2 1.5-6.6 3.8l-23.2 40.2c-1.4 2.4-1.4 5.3 0 7.6l10.6 18.2h57.4c7.4-.2 13.2-6.4 13-13.8-.2-7.1-5.9-12.8-13-13h-29.7c-2.2 0-3.9-1.8-3.9-3.9s1.8-3.9 3.9-3.9h29.7c11.7-.3 21.5 9.1 21.7 20.8s-9.1 21.5-20.8 21.7h-53.9l8.1 14.1c1.4 2.4 3.9 3.8 6.6 3.8h46.5c2.7 0 5.2-1.5 6.6-3.8l23.2-40.2c1.4-2.4 1.4-5.3 0-7.6l-10.5-18.2z"/><path class="st37" d="M249.3 221.9h-46.5c-2.9 0-5.6-1.5-7-4l-8.5-14.9H242c11.4-.2 20.5-9.7 20.3-21.2-.1-5.5-2.4-10.7-6.4-14.6-4-3.9-9.3-5.9-14.8-5.8h-29.7c-1.8 0-3.4 1.6-3.4 3.4 0 1.9 1.5 3.4 3.4 3.4h29.7c7.4.2 13.3 6.1 13.5 13.5.1 3.7-1.2 7.3-3.8 10-2.5 2.7-6 4.3-9.7 4.4h-57.7l-10.7-18.4c-1.5-2.4-1.5-5.6 0-8.1l23.2-40.2c1.5-2.5 4.2-4.1 7-4.1h46.4c2.9 0 5.6 1.5 7 4l8.5 14.9h-54.6c-5.5.1-10.7 2.4-14.5 6.4-3.8 4-5.9 9.3-5.8 14.8.1 5.5 2.4 10.7 6.4 14.6 4 3.9 9.3 5.9 14.8 5.8h29.7c1.7-.1 3.1-1.5 3.2-3.2.1-.9-.2-1.7-.8-2.4-.6-.7-1.5-1.1-2.4-1.2h-29.7c-7.7 0-13.9-6.2-13.9-13.9s6.2-13.9 13.9-13.9h57.7l10.6 18.4c1.5 2.4 1.5 5.5 0 8.1l-23.2 40.2c-1.4 2.5-4.1 4-6.9 4zM188.9 204l7.7 13.4c1.3 2.2 3.6 3.5 6.2 3.5h46.5c2.5 0 4.8-1.4 6.2-3.6l23.2-40.2c1.3-2.2 1.3-5 0-7.1l-10.4-18h-57.1c-7.1 0-12.9 5.8-12.9 12.9 0 7.1 5.8 12.9 12.9 12.9h29.7c1.2.1 2.4.6 3.2 1.5.8.9 1.1 2 1 3.1-.1 2.2-1.9 4-4.2 4.2h-29.7c-5.8.1-11.3-2-15.5-6-4.2-4-6.6-9.5-6.7-15.3-.1-5.8 2.1-11.3 6.1-15.5 4-4.2 9.4-6.6 15.2-6.7h52.8l-7.7-13.4c-1.3-2.2-3.6-3.5-6.2-3.5h-46.4c-2.5 0-4.8 1.4-6.2 3.6L173.5 170c-1.3 2.2-1.3 5 0 7.1l10.5 18h57.1c3.4-.1 6.6-1.5 9-4 2.4-2.5 3.6-5.8 3.5-9.2-.2-6.8-5.7-12.3-12.5-12.5h-29.7c-2.4 0-4.4-2-4.4-4.4 0-2.4 2-4.4 4.4-4.4h29.7c5.8-.2 11.3 2 15.5 6 4.2 4 6.6 9.5 6.7 15.3.2 12-9.3 22-21.3 22.2h-53.1z"/><path class="st2" d="M327.5 30.7h30.2L327.5.5z"/><path class="st37" d="M357.6 31.2h-30.2c-.3 0-.5-.2-.5-.5V.5c0-.2.1-.4.3-.5.2-.1.4 0 .5.1L358 30.3c.1.1.2.4.1.5s-.2.4-.5.4zm-29.6-1h28.5L328 1.7v28.5z"/></svg>