<svg id="Layer_1" xmlns="http://www.w3.org/2000/svg" viewBox="0 0 484.9 401.1"><style>.st0{fill:#5e5e5e}.st1{fill:url(#SVGID_1_)}.st2{fill:url(#SVGID_2_)}.st3{fill:url(#SVGID_3_)}.st4{fill:url(#SVGID_4_)}.st5{fill:url(#SVGID_5_)}.st6{fill:url(#SVGID_6_)}.st7{fill:url(#SVGID_7_)}.st8{fill:url(#SVGID_8_)}.st9{fill:url(#SVGID_9_)}.st10{fill:url(#SVGID_10_)}.st11{fill:url(#SVGID_11_)}.st12{fill:url(#SVGID_12_)}.st13{fill:url(#SVGID_13_)}.st14{fill:url(#SVGID_14_)}.st15{fill:url(#SVGID_15_)}.st16{fill:#0af}.st17{opacity:.7}.st18{fill:url(#SVGID_16_)}.st19{enable-background:new}.st20{fill:#fff}.st21{fill:url(#SVGID_17_)}.st22{fill:url(#SVGID_18_)}.st23{fill:url(#SVGID_19_)}.st24{fill:none}.st25{fill:url(#SVGID_20_)}.st26{fill:url(#SVGID_21_)}.st27{fill:url(#SVGID_22_)}.st28{fill:url(#SVGID_23_)}.st29{fill:url(#SVGID_24_)}.st30{fill:url(#SVGID_25_)}.st31{fill:url(#SVGID_26_)}.st32{fill:url(#SVGID_27_)}</style><title>Asset 3</title><path class="st0" d="M282.4 30.2c-.1 0-.2 0-.3-.1-.2-.2-.3-.5-.1-.7l1.2-1.6c.2-.2.5-.3.7-.1.2.2.3.5.1.7l-1.2 1.6c-.1.1-.2.2-.4.2z"/><path class="st0" d="M286.2 29.9l-9.9 7.4 4.9-11.3zM261.8 84c-.1 0-.2 0-.3-.1-.2-.2-.2-.5-.1-.7l1.3-1.5c.2-.2.5-.2.7-.1.2.2.2.5.1.7l-1.3 1.5c-.1.1-.3.2-.4.2z"/><path class="st0" d="M265.6 84.1l-10.5 6.5 5.8-10.9zm-62.9 78.5c-.1 0-.3 0-.4-.1-.2-.2-.2-.5 0-.7l1.4-1.4c.2-.2.5-.2.7 0s.2.5 0 .7l-1.4 1.4c0 .1-.2.1-.3.1z"/><path class="st0" d="M206.4 162.9l-10.9 5.8 6.6-10.4zm107.9-76.4c-.2 0-.3-.1-.4-.2-.2-.2-.1-.5.1-.7l1.6-1.2c.2-.2.5-.1.7.1s.1.5-.1.7l-1.6 1.2c-.1.1-.2.1-.3.1z"/><linearGradient id="SVGID_1_" gradientUnits="userSpaceOnUse" x1="320.591" y1="354.005" x2="398.409" y2="354.005" gradientTransform="matrix(1 0 0 -1 0 404)"><stop offset="0" stop-color="#5e5e5e"/><stop offset=".017" stop-color="#626262"/><stop offset=".166" stop-color="#7f7f7f"/><stop offset=".314" stop-color="#939393"/><stop offset=".46" stop-color="#a0a0a0"/><stop offset=".6" stop-color="#a4a4a4"/><stop offset="1" stop-color="#fff"/></linearGradient><path class="st1" d="M321.1 81.1c-.1 0-.3-.1-.4-.2-.2-.2-.1-.5.1-.7l3-2.4c.2-.2.5-.1.7.1s.1.5-.1.7l-3 2.4c-.1.1-.2.1-.3.1zm8.2-6.5c-.1 0-.3-.1-.4-.2-.2-.2-.1-.5.1-.7l3-2.4c.2-.2.5-.1.7.1s.1.5-.1.7l-3 2.4c-.1 0-.2.1-.3.1zm8.2-6.6c-.1 0-.3-.1-.4-.2-.2-.2-.1-.5.1-.7l3-2.4c.2-.2.5-.1.7.1s.1.5-.1.7l-3 2.4c-.1.1-.2.1-.3.1zm8.2-6.5c-.1 0-.3-.1-.4-.2-.2-.2-.1-.5.1-.7l3-2.4c.2-.2.5-.1.7.1.2.2.1.5-.1.7l-3 2.4c-.1.1-.2.1-.3.1zm8.2-6.5c-.1 0-.3-.1-.4-.2-.2-.2-.1-.5.1-.7l3-2.4c.2-.2.5-.1.7.1.2.2.1.5-.1.7l-3 2.4c-.1 0-.2.1-.3.1zm8.2-6.6c-.1 0-.3-.1-.4-.2-.2-.2-.1-.5.1-.7l3-2.4c.2-.2.5-.1.7.1.2.2.1.5-.1.7l-3 2.4c-.1.1-.2.1-.3.1zm8.2-6.5c-.1 0-.3-.1-.4-.2-.2-.2-.1-.5.1-.7l3-2.4c.2-.2.5-.1.7.1.2.2.1.5-.1.7l-3 2.4c-.1.1-.2.1-.3.1zm8.2-6.5c-.1 0-.3-.1-.4-.2-.2-.2-.1-.5.1-.7l3-2.4c.2-.2.5-.1.7.1.2.2.1.5-.1.7l-3 2.4c-.1 0-.2.1-.3.1zm8.2-6.6c-.1 0-.3-.1-.4-.2-.2-.2-.1-.5.1-.7l3-2.4c.2-.2.5-.1.7.1s.1.5-.1.7l-3 2.4c-.1.1-.2.1-.3.1zm8.2-6.5c-.1 0-.3-.1-.4-.2-.2-.2-.1-.5.1-.7l3-2.4c.2-.2.5-.1.7.1s.1.5-.1.7l-3 2.4c-.1.1-.2.1-.3.1z"/><path class="st0" d="M318 87.2l-11.3 4.9 7.4-9.9zm-67.2 67.1c-.2 0-.3-.1-.4-.2-.2-.2-.1-.5.1-.7l1.6-1.1c.2-.2.5-.1.7.1.2.2.1.5-.1.7l-1.6 1.1c-.1.1-.2.1-.3.1z"/><linearGradient id="SVGID_2_" gradientUnits="userSpaceOnUse" x1="257.691" y1="308.505" x2="414.909" y2="308.505" gradientTransform="matrix(1 0 0 -1 0 404)"><stop offset="0" stop-color="#5e5e5e"/><stop offset=".017" stop-color="#626262"/><stop offset=".166" stop-color="#7f7f7f"/><stop offset=".314" stop-color="#939393"/><stop offset=".46" stop-color="#a0a0a0"/><stop offset=".6" stop-color="#a4a4a4"/><stop offset="1" stop-color="#fff"/></linearGradient><path class="st2" d="M258.2 149.3c-.2 0-.3-.1-.4-.2-.2-.2-.1-.5.1-.7l3.3-2.2c.2-.2.5-.1.7.1.2.2.1.5-.1.7l-3.3 2.2c-.1.1-.2.1-.3.1zm9-6.1c-.2 0-.3-.1-.4-.2-.2-.2-.1-.5.1-.7l3.3-2.2c.2-.2.5-.1.7.1.2.2.1.5-.1.7l-3.3 2.2c-.1 0-.2.1-.3.1zm9-6.2c-.2 0-.3-.1-.4-.2-.2-.2-.1-.5.1-.7l3.3-2.2c.2-.2.5-.1.7.1.2.2.1.5-.1.7l-3.3 2.2c-.1.1-.2.1-.3.1zm9-6.1c-.2 0-.3-.1-.4-.2-.2-.2-.1-.5.1-.7l3.3-2.2c.2-.2.5-.1.7.1.2.2.1.5-.1.7l-3.3 2.2c-.1.1-.2.1-.3.1zm9-6.2c-.2 0-.3-.1-.4-.2-.2-.2-.1-.5.1-.7l3.3-2.2c.2-.2.5-.1.7.1s.1.5-.1.7l-3.3 2.2c-.1.1-.2.1-.3.1zm9-6.1c-.2 0-.3-.1-.4-.2-.2-.2-.1-.5.1-.7l3.3-2.2c.2-.2.5-.1.7.1s.1.5-.1.7l-3.3 2.2c-.1.1-.2.1-.3.1zm9-6.1c-.2 0-.3-.1-.4-.2-.2-.2-.1-.5.1-.7l3.3-2.2c.2-.2.5-.1.7.1s.1.5-.1.7l-3.3 2.2c-.1 0-.2.1-.3.1zm9-6.2c-.2 0-.3-.1-.4-.2-.2-.2-.1-.5.1-.7l3.3-2.2c.2-.2.5-.1.7.1s.1.5-.1.7l-3.3 2.2c-.1.1-.2.1-.3.1zm9-6.1c-.2 0-.3-.1-.4-.2-.2-.2-.1-.5.1-.7l3.3-2.2c.2-.2.5-.1.7.1s.1.5-.1.7l-3.3 2.2c-.1.1-.2.1-.3.1zm9-6.1c-.2 0-.3-.1-.4-.2-.2-.2-.1-.5.1-.7l3.3-2.2c.2-.2.5-.1.7.1s.1.5-.1.7l-3.3 2.2c-.1 0-.2.1-.3.1zm9-6.2c-.2 0-.3-.1-.4-.2-.2-.2-.1-.5.1-.7l3.3-2.2c.2-.2.5-.1.7.1s.1.5-.1.7l-3.3 2.2c-.2.1-.3.1-.3.1zm8.9-6.1c-.2 0-.3-.1-.4-.2-.2-.2-.1-.5.1-.7l3.3-2.2c.2-.2.5-.1.7.1s.1.5-.1.7l-3.3 2.2c-.1.1-.2.1-.3.1zm9-6.2c-.2 0-.3-.1-.4-.2-.2-.2-.1-.5.1-.7l3.3-2.2c.2-.2.5-.1.7.1s.1.5-.1.7l-3.3 2.2c-.1.1-.2.1-.3.1zm9-6.1c-.2 0-.3-.1-.4-.2-.2-.2-.1-.5.1-.7l3.3-2.2c.2-.2.5-.1.7.1s.1.5-.1.7l-3.3 2.2c-.1.1-.2.1-.3.1zm9-6.1c-.2 0-.3-.1-.4-.2-.2-.2-.1-.5.1-.7l3.3-2.2c.2-.2.5-.1.7.1.2.2.1.5-.1.7l-3.3 2.2c-.1 0-.2.1-.3.1zm9-6.2c-.2 0-.3-.1-.4-.2-.2-.2-.1-.5.1-.7l3.3-2.2c.2-.2.5-.1.7.1.2.2.1.5-.1.7l-3.3 2.2c-.1.1-.2.1-.3.1zm9-6.1c-.2 0-.3-.1-.4-.2-.2-.2-.1-.5.1-.7l3.3-2.2c.2-.2.5-.1.7.1.2.2.1.5-.1.7l-3.3 2.2c-.1.1-.2.1-.3.1zm9-6.2c-.2 0-.3-.1-.4-.2-.2-.2-.1-.5.1-.7l3.3-2.2c.2-.2.5-.1.7.1.2.2.1.5-.1.7l-3.3 2.2c-.1.1-.2.1-.3.1z"/><path class="st0" d="M254.4 155.2l-11.7 4.1 8.1-9.4zm-76 56.3c-.2 0-.3-.1-.4-.2-.1-.2-.1-.5.2-.7l1.7-1c.2-.1.5-.1.7.2.1.2.1.5-.2.7l-1.7 1h-.3z"/><linearGradient id="SVGID_3_" gradientUnits="userSpaceOnUse" x1="185.74" y1="267.58" x2="429.76" y2="267.58" gradientTransform="matrix(1 0 0 -1 0 404)"><stop offset="0" stop-color="#5e5e5e"/><stop offset=".017" stop-color="#626262"/><stop offset=".166" stop-color="#7f7f7f"/><stop offset=".314" stop-color="#939393"/><stop offset=".46" stop-color="#a0a0a0"/><stop offset=".6" stop-color="#a4a4a4"/><stop offset="1" stop-color="#fff"/></linearGradient><path class="st3" d="M186.2 207c-.2 0-.3-.1-.4-.2-.1-.2-.1-.5.2-.7l3.5-2c.2-.1.5-.1.7.2.1.2.1.5-.2.7l-3.5 2h-.3zm9.6-5.5c-.2 0-.3-.1-.4-.2-.1-.2-.1-.5.2-.7l3.5-2c.2-.1.5-.1.7.2.1.2.1.5-.2.7l-3.5 2h-.3zm9.6-5.6c-.2 0-.3-.1-.4-.2-.1-.2-.1-.5.2-.7l3.5-2c.2-.1.5-.1.7.2.1.2.1.5-.2.7l-3.5 2h-.3zm9.5-5.5c-.2 0-.3-.1-.4-.2-.1-.2-.1-.5.2-.7l3.5-2c.2-.1.5-.1.7.2.1.2.1.5-.2.7l-3.5 2h-.3zm9.6-5.5c-.2 0-.3-.1-.4-.2-.1-.2-.1-.5.2-.7l3.5-2c.2-.1.5-.1.7.2.1.2.1.5-.2.7l-3.5 2h-.3zm9.6-5.5c-.2 0-.3-.1-.4-.2-.1-.2-.1-.5.2-.7l3.5-2c.2-.1.5-.1.7.2.1.2.1.5-.2.7l-3.5 2c-.1-.1-.2 0-.3 0zm9.6-5.6c-.2 0-.3-.1-.4-.2-.1-.2-.1-.5.2-.7l3.5-2c.2-.1.5-.1.7.2.1.2.1.5-.2.7l-3.5 2h-.3zm9.6-5.5c-.2 0-.3-.1-.4-.2-.1-.2-.1-.5.2-.7l3.5-2c.2-.1.5-.1.7.2.1.2.1.5-.2.7l-3.5 2h-.3zm9.5-5.5c-.2 0-.3-.1-.4-.2-.1-.2-.1-.5.2-.7l3.5-2c.2-.1.5-.1.7.2.1.2.1.5-.2.7l-3.5 2h-.3zm9.6-5.5c-.2 0-.3-.1-.4-.2-.1-.2-.1-.5.2-.7l3.5-2c.2-.1.5-.1.7.2.1.2.1.5-.2.7l-3.5 2c-.1-.1-.2 0-.3 0zm9.6-5.6c-.2 0-.3-.1-.4-.2-.1-.2-.1-.5.2-.7l3.5-2c.2-.1.5-.1.7.2.1.2.1.5-.2.7l-3.5 2h-.3zm9.6-5.5c-.2 0-.3-.1-.4-.2-.1-.2-.1-.5.2-.7l3.5-2c.2-.1.5-.1.7.2.1.2.1.5-.2.7l-3.5 2h-.3zm9.6-5.5c-.2 0-.3-.1-.4-.2-.1-.2-.1-.5.2-.7l3.5-2c.2-.1.5-.1.7.2.1.2.1.5-.2.7l-3.5 2c-.2-.1-.3 0-.3 0zm9.5-5.6c-.2 0-.3-.1-.4-.2-.1-.2-.1-.5.2-.7l3.5-2c.2-.1.5-.1.7.2.1.2.1.5-.2.7l-3.5 2h-.3zm9.6-5.5c-.2 0-.3-.1-.4-.2-.1-.2-.1-.5.2-.7l3.5-2c.2-.1.5-.1.7.2.1.2.1.5-.2.7l-3.5 2h-.3zm9.6-5.5c-.2 0-.3-.1-.4-.2-.1-.2-.1-.5.2-.7l3.5-2c.2-.1.5-.1.7.2.1.2.1.5-.2.7l-3.5 2h-.3zm9.6-5.5c-.2 0-.3-.1-.4-.2-.1-.2-.1-.5.2-.7l3.5-2c.2-.1.5-.1.7.2.1.2.1.5-.2.7l-3.5 2c-.2-.1-.2 0-.3 0zm9.6-5.6c-.2 0-.3-.1-.4-.2-.1-.2-.1-.5.2-.7l3.5-2c.2-.1.5-.1.7.2.1.2.1.5-.2.7l-3.5 2h-.3zm9.5-5.5c-.2 0-.3-.1-.4-.2-.1-.2-.1-.5.2-.7l3.5-2c.2-.1.5-.1.7.2.1.2.1.5-.2.7l-3.5 2h-.3zm9.6-5.5c-.2 0-.3-.1-.4-.2-.1-.2-.1-.5.2-.7l3.5-2c.2-.1.5-.1.7.2.1.2.1.5-.2.7l-3.5 2h-.3zm9.6-5.5c-.2 0-.3-.1-.4-.2-.1-.2-.1-.5.2-.7l3.5-2c.2-.1.5-.1.7.2.1.2.1.5-.2.7l-3.5 2c-.1-.1-.2 0-.3 0zm9.6-5.6c-.2 0-.3-.1-.4-.2-.1-.2-.1-.5.2-.7l3.5-2c.2-.1.5-.1.7.2.1.2.1.5-.2.7l-3.5 2h-.3zm9.6-5.5c-.2 0-.3-.1-.4-.2-.1-.2-.1-.5.2-.7l3.5-2c.2-.1.5-.1.7.2.1.2.1.5-.2.7l-3.5 2h-.3zm9.5-5.5c-.2 0-.3-.1-.4-.2-.1-.2-.1-.5.2-.7l3.5-2c.2-.1.5-.1.7.2.1.2.1.5-.2.7l-3.5 2c-.1-.1-.2 0-.3 0zm9.6-5.6c-.2 0-.3-.1-.4-.2-.1-.2-.1-.5.2-.7l3.5-2c.2-.1.5-.1.7.2.1.2.1.5-.2.7l-3.5 2h-.3zm9.6-5.5c-.2 0-.3-.1-.4-.2-.1-.2-.1-.5.2-.7l3.5-2c.2-.1.5-.1.7.2.1.2.1.5-.2.7l-3.5 2h-.3z"/><path class="st0" d="M181.9 212.7l-12 3.2 8.8-8.7zm163.5-74.4c-.2 0-.4-.1-.4-.3-.1-.2 0-.5.2-.7l1.8-.9c.2-.1.5 0 .7.2.1.2 0 .5-.2.7l-1.8.9c-.1.1-.2.1-.3.1z"/><linearGradient id="SVGID_4_" gradientUnits="userSpaceOnUse" x1="352.761" y1="291.57" x2="443.139" y2="291.57" gradientTransform="matrix(1 0 0 -1 0 404)"><stop offset="0" stop-color="#5e5e5e"/><stop offset=".017" stop-color="#626262"/><stop offset=".166" stop-color="#7f7f7f"/><stop offset=".314" stop-color="#939393"/><stop offset=".46" stop-color="#a0a0a0"/><stop offset=".6" stop-color="#a4a4a4"/><stop offset="1" stop-color="#fff"/></linearGradient><path class="st4" d="M353.3 134.5c-.2 0-.4-.1-.5-.3s0-.5.2-.7l3.5-1.7c.2-.1.5 0 .7.2.1.2 0 .5-.2.7l-3.5 1.7c-.1.1-.1.1-.2.1zm9.5-4.6c-.2 0-.4-.1-.5-.3s0-.5.2-.7l3.5-1.7c.2-.1.5 0 .7.2.1.2 0 .5-.2.7l-3.5 1.7c0 .1-.1.1-.2.1zm9.6-4.6c-.2 0-.4-.1-.5-.3-.1-.2 0-.5.2-.7l3.5-1.7c.2-.1.5 0 .7.2.1.2 0 .5-.2.7l-3.5 1.7c-.1.1-.1.1-.2.1zm9.5-4.6c-.2 0-.4-.1-.5-.3-.1-.2 0-.5.2-.7l3.5-1.7c.2-.1.5 0 .7.2.1.2 0 .5-.2.7l-3.5 1.7c0 .1-.1.1-.2.1zm9.6-4.6c-.2 0-.4-.1-.5-.3-.1-.2 0-.5.2-.7l3.5-1.7c.2-.1.5 0 .7.2.1.2 0 .5-.2.7l-3.5 1.7c-.1.1-.2.1-.2.1zm9.5-4.6c-.2 0-.4-.1-.5-.3-.1-.2 0-.5.2-.7l3.5-1.7c.2-.1.5 0 .7.2.1.2 0 .5-.2.7l-3.5 1.7c0 .1-.1.1-.2.1zm9.5-4.6c-.2 0-.4-.1-.5-.3-.1-.2 0-.5.2-.7l3.5-1.7c.2-.1.5 0 .7.2.1.2 0 .5-.2.7l-3.5 1.7c0 .1-.1.1-.2.1zm9.6-4.6c-.2 0-.4-.1-.5-.3-.1-.2 0-.5.2-.7l3.5-1.7c.2-.1.5 0 .7.2.1.2 0 .5-.2.7l-3.5 1.7c-.1.1-.1.1-.2.1zm9.5-4.6c-.2 0-.4-.1-.5-.3-.1-.2 0-.5.2-.7l3.5-1.7c.2-.1.5 0 .7.2.1.2 0 .5-.2.7l-3.5 1.7c0 .1-.1.1-.2.1zm9.6-4.6c-.2 0-.4-.1-.5-.3-.1-.2 0-.5.2-.7l3.5-1.7c.2-.1.5 0 .7.2.1.2 0 .5-.2.7l-3.5 1.7c-.1.1-.2.1-.2.1z"/><path class="st0" d="M348.8 139.8l-12.2 2.3 9.4-8.1zm6 16.5c-.2 0-.4-.1-.5-.3-.1-.3 0-.5.3-.7l1.8-.8c.3-.1.5 0 .7.3.1.3 0 .5-.3.7l-1.8.8h-.2z"/><linearGradient id="SVGID_5_" gradientUnits="userSpaceOnUse" x1="362.962" y1="269.269" x2="453.837" y2="269.269" gradientTransform="matrix(1 0 0 -1 0 404)"><stop offset="0" stop-color="#5e5e5e"/><stop offset=".017" stop-color="#626262"/><stop offset=".166" stop-color="#7f7f7f"/><stop offset=".314" stop-color="#939393"/><stop offset=".46" stop-color="#a0a0a0"/><stop offset=".6" stop-color="#a4a4a4"/><stop offset="1" stop-color="#fff"/></linearGradient><path class="st5" d="M363.5 152.8c-.2 0-.4-.1-.5-.3-.1-.3 0-.5.3-.6l3.9-1.5c.3-.1.5 0 .6.3s0 .5-.3.6l-3.9 1.5h-.1zm10.8-4.2c-.2 0-.4-.1-.5-.3-.1-.3 0-.5.3-.6l3.9-1.5c.3-.1.5 0 .6.3s0 .5-.3.6l-3.9 1.5h-.1zm10.7-4.2c-.2 0-.4-.1-.5-.3-.1-.3 0-.5.3-.6l3.9-1.5c.3-.1.5 0 .6.3s0 .5-.3.6l-3.9 1.5h-.1zm10.8-4.3c-.2 0-.4-.1-.5-.3-.1-.3 0-.5.3-.6l3.9-1.5c.3-.1.5 0 .6.3s0 .5-.3.6l-3.9 1.5h-.1zm10.7-4.2c-.2 0-.4-.1-.5-.3-.1-.3 0-.5.3-.6l3.9-1.5c.3-.1.5 0 .6.3s0 .5-.3.6l-3.9 1.5h-.1zm10.8-4.2c-.2 0-.4-.1-.5-.3-.1-.3 0-.5.3-.6l3.9-1.5c.3-.1.5 0 .6.3s0 .5-.3.6l-3.9 1.5h-.1zm10.7-4.2c-.2 0-.4-.1-.5-.3-.1-.3 0-.5.3-.6l3.9-1.5c.3-.1.5 0 .6.3s0 .5-.3.6l-3.9 1.5h-.1zm10.8-4.2c-.2 0-.4-.1-.5-.3-.1-.3 0-.5.3-.6l3.9-1.5c.3-.1.5 0 .6.3s0 .5-.3.6l-3.9 1.5h-.1zm10.7-4.2c-.2 0-.4-.1-.5-.3-.1-.3 0-.5.3-.6l3.9-1.5c.3-.1.5 0 .6.3s0 .5-.3.6l-3.9 1.5c0-.1 0 0-.1 0z"/><path class="st0" d="M358 157.9l-12.3 1.4 9.9-7.3zm-36.6 29.8c-.2 0-.4-.1-.5-.3-.1-.3.1-.5.3-.6l1.9-.6c.3-.1.5.1.6.3.1.3-.1.5-.3.6l-1.9.6h-.1z"/><linearGradient id="SVGID_6_" gradientUnits="userSpaceOnUse" x1="329.673" y1="239.963" x2="463.327" y2="239.963" gradientTransform="matrix(1 0 0 -1 0 404)"><stop offset="0" stop-color="#5e5e5e"/><stop offset=".017" stop-color="#626262"/><stop offset=".166" stop-color="#7f7f7f"/><stop offset=".314" stop-color="#939393"/><stop offset=".46" stop-color="#a0a0a0"/><stop offset=".6" stop-color="#a4a4a4"/><stop offset="1" stop-color="#fff"/></linearGradient><path class="st6" d="M330.2 185c-.2 0-.4-.1-.5-.4-.1-.3.1-.5.3-.6l3.9-1.2c.3-.1.5.1.6.3.1.3-.1.5-.3.6l-3.9 1.2c0 .1-.1.1-.1.1zm10.7-3.3c-.2 0-.4-.1-.5-.4-.1-.3.1-.5.3-.6l3.9-1.2c.3-.1.5.1.6.3s-.1.5-.3.6l-3.9 1.2c0 .1 0 .1-.1.1zm10.8-3.3c-.2 0-.4-.1-.5-.4-.1-.3.1-.5.3-.6l3.9-1.2c.3-.1.5.1.6.3.1.3-.1.5-.3.6l-3.9 1.2c0 .1-.1.1-.1.1zm10.7-3.3c-.2 0-.4-.1-.5-.4-.1-.3.1-.5.3-.6l3.9-1.2c.3-.1.5.1.6.3.1.3-.1.5-.3.6l-3.9 1.2c0 .1-.1.1-.1.1zm10.7-3.3c-.2 0-.4-.1-.5-.4-.1-.3.1-.5.3-.6l3.9-1.2c.3-.1.5.1.6.3s-.1.5-.3.6l-3.9 1.2s0 .1-.1.1zm10.8-3.4c-.2 0-.4-.1-.5-.4-.1-.3.1-.5.3-.6l3.9-1.2c.3-.1.5.1.6.3.1.3-.1.5-.3.6l-3.9 1.2c0 .1-.1.1-.1.1zm10.7-3.3c-.2 0-.4-.1-.5-.4-.1-.3.1-.5.3-.6l3.9-1.2c.3-.1.5.1.6.3.1.3-.1.5-.3.6l-3.9 1.2c0 .1-.1.1-.1.1zm10.7-3.3c-.2 0-.4-.1-.5-.4-.1-.3.1-.5.3-.6l3.9-1.2c.3-.1.5.1.6.3.1.3-.1.5-.3.6l-3.9 1.2c0 .1 0 .1-.1.1zm10.7-3.3c-.2 0-.4-.1-.5-.4-.1-.3.1-.5.3-.6l3.9-1.2c.3-.1.5.1.6.3.1.3-.1.5-.3.6l-3.9 1.2c0 .1 0 .1-.1.1zm10.8-3.3c-.2 0-.4-.1-.5-.4-.1-.3.1-.5.3-.6l3.9-1.2c.3-.1.5.1.6.3s-.1.5-.3.6l-3.9 1.2c0 .1-.1.1-.1.1zm10.7-3.3c-.2 0-.4-.1-.5-.4-.1-.3.1-.5.3-.6l3.9-1.2c.3-.1.5.1.6.3.1.3-.1.5-.3.6l-3.9 1.2c0 .1 0 .1-.1.1zm10.7-3.3c-.2 0-.4-.1-.5-.4-.1-.3.1-.5.3-.6l3.9-1.2c.3-.1.5.1.6.3.1.3-.1.5-.3.6l-3.9 1.2c0 .1 0 .1-.1.1zm10.8-3.3c-.2 0-.4-.1-.5-.4-.1-.3.1-.5.3-.6l3.9-1.2c.3-.1.5.1.6.3.1.3-.1.5-.3.6l-3.9 1.2c0 .1-.1.1-.1.1z"/><path class="st0" d="M324.5 189.6l-12.4.4 10.5-6.5zm-42.7 24.6c-.2 0-.4-.2-.5-.4-.1-.3.1-.5.4-.6l1.9-.4c.3-.1.5.1.6.4.1.3-.1.5-.4.6l-1.9.4h-.1z"/><linearGradient id="SVGID_7_" gradientUnits="userSpaceOnUse" x1="290.174" y1="212.763" x2="470.726" y2="212.763" gradientTransform="matrix(1 0 0 -1 0 404)"><stop offset="0" stop-color="#5e5e5e"/><stop offset=".017" stop-color="#626262"/><stop offset=".166" stop-color="#7f7f7f"/><stop offset=".314" stop-color="#939393"/><stop offset=".46" stop-color="#a0a0a0"/><stop offset=".6" stop-color="#a4a4a4"/><stop offset="1" stop-color="#fff"/></linearGradient><path class="st7" d="M290.7 212.2c-.2 0-.4-.2-.5-.4-.1-.3.1-.5.4-.6l4-.9c.3-.1.5.1.6.4.1.3-.1.5-.4.6l-4 .9h-.1zm11-2.5c-.2 0-.4-.2-.5-.4-.1-.3.1-.5.4-.6l4-.9c.3-.1.5.1.6.4.1.3-.1.5-.4.6l-4 .9h-.1zm10.9-2.5c-.2 0-.4-.2-.5-.4-.1-.3.1-.5.4-.6l4-.9c.3-.1.5.1.6.4.1.3-.1.5-.4.6l-4 .9h-.1zm11-2.5c-.2 0-.4-.2-.5-.4-.1-.3.1-.5.4-.6l4-.9c.3-.1.5.1.6.4.1.3-.1.5-.4.6l-4 .9h-.1zm11-2.5c-.2 0-.4-.2-.5-.4-.1-.3.1-.5.4-.6l4-.9c.3-.1.5.1.6.4.1.3-.1.5-.4.6l-4 .9h-.1zm10.9-2.5c-.2 0-.4-.2-.5-.4-.1-.3.1-.5.4-.6l4-.9c.3-.1.5.1.6.4.1.3-.1.5-.4.6l-4 .9h-.1zm11-2.5c-.2 0-.4-.2-.5-.4-.1-.3.1-.5.4-.6l4-.9c.3-.1.5.1.6.4.1.3-.1.5-.4.6l-4 .9h-.1zm11-2.5c-.2 0-.4-.2-.5-.4-.1-.3.1-.5.4-.6l4-.9c.3-.1.5.1.6.4.1.3-.1.5-.4.6l-4 .9h-.1zm10.9-2.5c-.2 0-.4-.2-.5-.4-.1-.3.1-.5.4-.6l4-.9c.3-.1.5.1.6.4.1.3-.1.5-.4.6l-4 .9h-.1zm11-2.5c-.2 0-.4-.2-.5-.4-.1-.3.1-.5.4-.6l4-.9c.3-.1.5.1.6.4.1.3-.1.5-.4.6l-4 .9h-.1zm11-2.5c-.2 0-.4-.2-.5-.4-.1-.3.1-.5.4-.6l4-.9c.3-.1.5.1.6.4.1.3-.1.5-.4.6l-4 .9h-.1zm11-2.5c-.2 0-.4-.2-.5-.4-.1-.3.1-.5.4-.6l4-.9c.3-.1.5.1.6.4.1.3-.1.5-.4.6l-4 .9h-.1zm10.9-2.5c-.2 0-.4-.2-.5-.4-.1-.3.1-.5.4-.6l4-.9c.3-.1.5.1.6.4.1.3-.1.5-.4.6l-4 .9h-.1zm11-2.5c-.2 0-.4-.2-.5-.4-.1-.3.1-.5.4-.6l4-.9c.3-.1.5.1.6.4.1.3-.1.5-.4.6l-4 .9h-.1zm11-2.5c-.2 0-.4-.2-.5-.4-.1-.3.1-.5.4-.6l4-.9c.3-.1.5.1.6.4.1.3-.1.5-.4.6l-4 .9h-.1zm10.9-2.5c-.2 0-.4-.2-.5-.4-.1-.3.1-.5.4-.6l4-.9c.3-.1.5.1.6.4.1.3-.1.5-.4.6l-4 .9h-.1zm11-2.5c-.2 0-.4-.2-.5-.4-.1-.3.1-.5.4-.6l4-.9c.3-.1.5.1.6.4.1.3-.1.5-.4.6l-4 .9h-.1z"/><path class="st0" d="M284.6 216.4l-12.3-.5 10.9-5.8zm102.7-4.2c-.2 0-.5-.2-.5-.4 0-.3.1-.5.4-.6l2-.3c.3 0 .5.1.6.4s-.1.5-.4.6l-2.1.3z"/><linearGradient id="SVGID_8_" gradientUnits="userSpaceOnUse" x1="395.7" y1="199.6" x2="476.126" y2="199.6" gradientTransform="matrix(1 0 0 -1 0 404)"><stop offset="0" stop-color="#5e5e5e"/><stop offset=".017" stop-color="#626262"/><stop offset=".166" stop-color="#7f7f7f"/><stop offset=".314" stop-color="#939393"/><stop offset=".46" stop-color="#a0a0a0"/><stop offset=".6" stop-color="#a4a4a4"/><stop offset="1" stop-color="#fff"/></linearGradient><path class="st8" d="M396.2 210.9c-.2 0-.5-.2-.5-.4 0-.3.1-.5.4-.6l3.9-.6c.3 0 .5.1.6.4 0 .3-.1.5-.4.6l-4 .6zm10.8-1.6c-.2 0-.5-.2-.5-.4 0-.3.1-.5.4-.6l3.9-.6c.3 0 .5.1.6.4 0 .3-.1.5-.4.6l-4 .6zm10.8-1.7c-.2 0-.5-.2-.5-.4 0-.3.1-.5.4-.6l3.9-.6c.3 0 .5.1.6.4 0 .3-.1.5-.4.6l-4 .6zm10.8-1.6c-.2 0-.5-.2-.5-.4 0-.3.1-.5.4-.6l3.9-.6c.3 0 .5.1.6.4 0 .3-.1.5-.4.6l-4 .6zm10.8-1.6c-.2 0-.5-.2-.5-.4 0-.3.1-.5.4-.6l3.9-.6c.3 0 .5.1.6.4 0 .3-.1.5-.4.6l-4 .6zm10.7-1.6c-.2 0-.5-.2-.5-.4 0-.3.1-.5.4-.6l3.9-.6c.3 0 .5.1.6.4 0 .3-.1.5-.4.6l-4 .6c.1 0 .1 0 0 0zm10.8-1.7c-.2 0-.5-.2-.5-.4 0-.3.1-.5.4-.6l3.9-.6c.3 0 .5.1.6.4 0 .3-.1.5-.4.6l-4 .6c.1 0 .1 0 0 0zm10.8-1.6c-.2 0-.5-.2-.5-.4 0-.3.1-.5.4-.6l3.9-.6c.3 0 .5.1.6.4s-.1.5-.4.6l-4 .6c.1 0 0 0 0 0z"/><path class="st0" d="M390 214.5l-12.3-1.4 11.3-4.9zm-41.6 22.1c-.3 0-.5-.2-.5-.5s.2-.5.5-.5l2-.1c.3 0 .5.2.5.5s-.2.5-.5.5l-2 .1z"/><linearGradient id="SVGID_9_" gradientUnits="userSpaceOnUse" x1="356.7" y1="173.1" x2="479.3" y2="173.1" gradientTransform="matrix(1 0 0 -1 0 404)"><stop offset="0" stop-color="#5e5e5e"/><stop offset=".017" stop-color="#626262"/><stop offset=".166" stop-color="#7f7f7f"/><stop offset=".314" stop-color="#939393"/><stop offset=".46" stop-color="#a0a0a0"/><stop offset=".6" stop-color="#a4a4a4"/><stop offset="1" stop-color="#fff"/></linearGradient><path class="st9" d="M357.2 236c-.3 0-.5-.2-.5-.5s.2-.5.5-.5l3.9-.3c.3 0 .5.2.5.5s-.2.5-.5.5l-3.9.3zm10.7-.8c-.3 0-.5-.2-.5-.5s.2-.5.5-.5l3.9-.3c.3 0 .5.2.5.5s-.2.5-.5.5l-3.9.3zm10.7-.8c-.3 0-.5-.2-.5-.5s.2-.5.5-.5l3.9-.3c.3 0 .5.2.5.5s-.2.5-.5.5l-3.9.3zm10.7-.8c-.3 0-.5-.2-.5-.5s.2-.5.5-.5l3.9-.3c.3 0 .5.2.5.5s-.2.5-.5.5l-3.9.3zm10.7-.8c-.3 0-.5-.2-.5-.5s.2-.5.5-.5l3.9-.3c.3 0 .5.2.5.5s-.2.5-.5.5l-3.9.3zm10.7-.8c-.3 0-.5-.2-.5-.5s.2-.5.5-.5l3.9-.3c.3 0 .5.2.5.5s-.2.5-.5.5l-3.9.3zm10.7-.8c-.3 0-.5-.2-.5-.5s.2-.5.5-.5l3.9-.3c.3 0 .5.2.5.5s-.2.5-.5.5l-3.9.3zm10.7-.8c-.3 0-.5-.2-.5-.5s.2-.5.5-.5l3.9-.3c.3 0 .5.2.5.5s-.2.5-.5.5l-3.9.3zm10.7-.8c-.3 0-.5-.2-.5-.5s.2-.5.5-.5l3.9-.3c.3 0 .5.2.5.5s-.2.5-.5.5l-3.9.3zm10.7-.8c-.3 0-.5-.2-.5-.5s.2-.5.5-.5l3.9-.3c.3 0 .5.2.5.5s-.2.5-.5.5l-3.9.3zm10.7-.8c-.3 0-.5-.2-.5-.5s.2-.5.5-.5l3.9-.3c.3 0 .5.2.5.5s-.2.5-.5.5l-3.9.3zm10.7-.9c-.3 0-.5-.2-.5-.5s.2-.5.5-.5l3.9-.3c.3 0 .5.2.5.5s-.2.5-.5.5l-3.9.3z"/><path class="st0" d="M350.8 239.2l-12.1-2.3 11.6-4.1zm54.5 15.8h-2c-.3 0-.5-.2-.5-.5s.2-.5.5-.5h2c.3 0 .5.2.5.5s-.2.5-.5.5z"/><linearGradient id="SVGID_10_" gradientUnits="userSpaceOnUse" x1="411.6" y1="149.5" x2="480.4" y2="149.5" gradientTransform="matrix(1 0 0 -1 0 404)"><stop offset="0" stop-color="#5e5e5e"/><stop offset=".017" stop-color="#626262"/><stop offset=".166" stop-color="#7f7f7f"/><stop offset=".314" stop-color="#939393"/><stop offset=".46" stop-color="#a0a0a0"/><stop offset=".6" stop-color="#a4a4a4"/><stop offset="1" stop-color="#fff"/></linearGradient><path class="st10" d="M479.9 255H476c-.3 0-.5-.2-.5-.5s.2-.5.5-.5h3.9c.3 0 .5.2.5.5s-.2.5-.5.5zm-10.6 0h-3.9c-.3 0-.5-.2-.5-.5s.2-.5.5-.5h3.9c.3 0 .5.2.5.5s-.2.5-.5.5zm-10.7 0h-3.9c-.3 0-.5-.2-.5-.5s.2-.5.5-.5h3.9c.3 0 .5.2.5.5s-.2.5-.5.5zm-10.6 0h-3.9c-.3 0-.5-.2-.5-.5s.2-.5.5-.5h3.9c.3 0 .5.2.5.5s-.3.5-.5.5zm-10.7 0h-3.9c-.3 0-.5-.2-.5-.5s.2-.5.5-.5h3.9c.3 0 .5.2.5.5s-.2.5-.5.5zm-10.7 0h-3.9c-.3 0-.5-.2-.5-.5s.2-.5.5-.5h3.9c.3 0 .5.2.5.5s-.2.5-.5.5zm-10.6 0h-3.9c-.3 0-.5-.2-.5-.5s.2-.5.5-.5h3.9c.3 0 .5.2.5.5s-.2.5-.5.5z"/><path class="st0" d="M405.5 257.7l-11.9-3.2 11.9-3.2zm-106.5 12l-2-.1c-.3 0-.5-.2-.5-.5s.2-.5.5-.5l2 .1c.3 0 .5.2.5.5s-.2.5-.5.5z"/><linearGradient id="SVGID_11_" gradientUnits="userSpaceOnUse" x1="305.7" y1="127.75" x2="479.1" y2="127.75" gradientTransform="matrix(1 0 0 -1 0 404)"><stop offset="0" stop-color="#5e5e5e"/><stop offset=".017" stop-color="#626262"/><stop offset=".166" stop-color="#7f7f7f"/><stop offset=".314" stop-color="#939393"/><stop offset=".46" stop-color="#a0a0a0"/><stop offset=".6" stop-color="#a4a4a4"/><stop offset="1" stop-color="#fff"/></linearGradient><path class="st11" d="M478.6 283.2c-.1 0-.1 0 0 0l-4.1-.3c-.3 0-.5-.3-.5-.5 0-.3.3-.5.5-.5l4.1.3c.3 0 .5.3.5.5-.1.3-.3.5-.5.5zm-11.3-.8l-4.1-.3c-.3 0-.5-.3-.5-.5 0-.3.3-.5.5-.5l4.1.3c.3 0 .5.3.5.5 0 .3-.2.5-.5.5zm-11.2-.9l-4.1-.3c-.3 0-.5-.3-.5-.5 0-.3.3-.5.5-.5l4.1.3c.3 0 .5.3.5.5 0 .3-.2.5-.5.5zm-11.2-.8l-4.1-.3c-.3 0-.5-.3-.5-.5 0-.3.3-.5.5-.5l4.1.3c.3 0 .5.3.5.5 0 .3-.2.5-.5.5zm-11.2-.8l-4.1-.3c-.3 0-.5-.3-.5-.5 0-.3.3-.5.5-.5l4.1.3c.3 0 .5.3.5.5 0 .3-.3.5-.5.5zm-11.2-.9s-.1 0 0 0l-4.1-.3c-.3 0-.5-.3-.5-.5 0-.3.3-.5.5-.5l4.1.3c.3 0 .5.3.5.5-.1.3-.3.5-.5.5zm-11.3-.8l-4.1-.3c-.3 0-.5-.3-.5-.5 0-.3.3-.5.5-.5l4.1.3c.3 0 .5.3.5.5 0 .3-.2.5-.5.5zm-11.2-.9l-4.1-.3c-.3 0-.5-.3-.5-.5 0-.3.3-.5.5-.5l4.1.3c.3 0 .5.3.5.5 0 .3-.2.5-.5.5zm-11.2-.8l-4.1-.3c-.3 0-.5-.3-.5-.5 0-.3.3-.5.5-.5l4.1.3c.3 0 .5.3.5.5 0 .3-.2.5-.5.5zm-11.2-.8l-4.1-.3c-.3 0-.5-.3-.5-.5 0-.3.3-.5.5-.5l4.1.3c.3 0 .5.3.5.5 0 .3-.3.5-.5.5zm-11.2-.9s-.1 0 0 0l-4.1-.3c-.3 0-.5-.3-.5-.5 0-.3.3-.5.5-.5l4.1.3c.3 0 .5.3.5.5-.1.3-.3.5-.5.5zm-11.2-.8c-.1 0-.1 0 0 0l-4.1-.3c-.3 0-.5-.3-.5-.5 0-.3.3-.5.5-.5l4.1.3c.3 0 .5.3.5.5-.1.3-.3.5-.5.5zm-11.3-.9l-4.1-.3c-.3 0-.5-.3-.5-.5 0-.3.3-.5.5-.5l4.1.3c.3 0 .5.3.5.5 0 .3-.2.5-.5.5zm-11.2-.8l-4.1-.3c-.3 0-.5-.3-.5-.5 0-.3.3-.5.5-.5l4.1.3c.3 0 .5.3.5.5 0 .3-.2.5-.5.5zm-11.2-.9l-4.1-.3c-.3 0-.5-.3-.5-.5 0-.3.3-.5.5-.5l4.1.3c.3 0 .5.3.5.5 0 .3-.2.5-.5.5zm-11.2-.8l-4.1-.3c-.3 0-.5-.3-.5-.5 0-.3.3-.5.5-.5l4.1.3c.3 0 .5.3.5.5 0 .3-.3.5-.5.5z"/><path class="st0" d="M299 272.4l-11.7-4 12.1-2.4zm88.5 25.5s-.1 0 0 0l-2-.3c-.3 0-.5-.3-.4-.6 0-.3.3-.5.6-.4l1.9.3c.3 0 .5.3.4.6 0 .2-.3.4-.5.4z"/><linearGradient id="SVGID_12_" gradientUnits="userSpaceOnUse" x1="393.974" y1="99.413" x2="475.926" y2="99.413" gradientTransform="matrix(1 0 0 -1 0 404)"><stop offset="0" stop-color="#5e5e5e"/><stop offset=".017" stop-color="#626262"/><stop offset=".166" stop-color="#7f7f7f"/><stop offset=".314" stop-color="#939393"/><stop offset=".46" stop-color="#a0a0a0"/><stop offset=".6" stop-color="#a4a4a4"/><stop offset="1" stop-color="#fff"/></linearGradient><path class="st12" d="M475.4 311.2l-4.1-.6c-.3 0-.5-.3-.4-.6 0-.3.3-.5.6-.4l4 .6c.3 0 .5.3.4.6 0 .2-.3.4-.5.4zm-11-1.7l-4.1-.6c-.3 0-.5-.3-.4-.6 0-.3.3-.5.6-.4l4 .6c.3 0 .5.3.4.6 0 .2-.2.4-.5.4zm-11-1.6l-4.1-.6c-.3 0-.5-.3-.4-.6 0-.3.3-.5.6-.4l4 .6c.3 0 .5.3.4.6 0 .2-.2.4-.5.4zm-11-1.7l-4.1-.6c-.3 0-.5-.3-.4-.6 0-.3.3-.5.6-.4l4 .6c.3 0 .5.3.4.6 0 .2-.2.4-.5.4zm-10.9-1.6c-.1 0-.1 0 0 0l-4.1-.6c-.3 0-.5-.3-.4-.6 0-.3.3-.5.6-.4l4 .6c.3 0 .5.3.4.6-.1.2-.3.4-.5.4zm-11-1.7c-.1 0-.1 0 0 0l-4.1-.6c-.3 0-.5-.3-.4-.6 0-.3.3-.5.6-.4l4 .6c.3 0 .5.3.4.6-.1.2-.3.4-.5.4zm-11-1.6s-.1 0 0 0l-4.1-.6c-.3 0-.5-.3-.4-.6 0-.3.3-.5.6-.4l4 .6c.3 0 .5.3.4.6-.1.2-.3.4-.5.4zm-11-1.7s-.1 0 0 0l-4.1-.6c-.3 0-.5-.3-.4-.6 0-.3.3-.5.6-.4l4 .6c.3 0 .5.3.4.6 0 .2-.3.4-.5.4z"/><path class="st0" d="M387.2 300.6l-11.3-4.9 12.3-1.4zm-149.4-14.8s-.1 0 0 0l-2.1-.4c-.3-.1-.4-.3-.4-.6.1-.3.3-.5.6-.4l2 .4c.3.1.4.3.4.6-.1.2-.3.4-.5.4z"/><linearGradient id="SVGID_13_" gradientUnits="userSpaceOnUse" x1="244" y1="91.45" x2="470.8" y2="91.45" gradientTransform="matrix(1 0 0 -1 0 404)"><stop offset="0" stop-color="#5e5e5e"/><stop offset=".017" stop-color="#626262"/><stop offset=".166" stop-color="#7f7f7f"/><stop offset=".314" stop-color="#939393"/><stop offset=".46" stop-color="#a0a0a0"/><stop offset=".6" stop-color="#a4a4a4"/><stop offset="1" stop-color="#fff"/></linearGradient><path class="st13" d="M470.3 338.8h-.1l-3.8-.9c-.3-.1-.4-.3-.4-.6.1-.3.3-.4.6-.4l3.8.9c.3.1.4.3.4.6-.1.3-.3.4-.5.4zm-10.6-2.4h-.1l-3.8-.9c-.3-.1-.4-.3-.4-.6.1-.3.3-.4.6-.4l3.8.9c.3.1.4.3.4.6-.1.2-.3.4-.5.4zm-10.6-2.4h-.1l-3.8-.9c-.3-.1-.4-.3-.4-.6.1-.3.3-.4.6-.4l3.8.9c.3.1.4.3.4.6 0 .2-.2.4-.5.4zm-10.5-2.4h-.1l-3.8-.9c-.3-.1-.4-.3-.4-.6.1-.3.3-.4.6-.4l3.8.9c.3.1.4.3.4.6-.1.2-.3.4-.5.4zm-10.6-2.4h-.1l-3.8-.9c-.3-.1-.4-.3-.4-.6.1-.3.3-.4.6-.4l3.8.9c.3.1.4.3.4.6-.1.2-.3.4-.5.4zm-10.6-2.4h-.1l-3.8-.9c-.3-.1-.4-.3-.4-.6.1-.3.3-.4.6-.4l3.8.9c.3.1.4.3.4.6 0 .2-.2.4-.5.4zm-10.5-2.5h-.1l-3.8-.9c-.3-.1-.4-.3-.4-.6.1-.3.3-.4.6-.4l3.8.9c.3.1.4.3.4.6-.1.3-.3.4-.5.4zm-10.6-2.4h-.1l-3.8-.9c-.3-.1-.4-.3-.4-.6.1-.3.3-.4.6-.4l3.8.9c.3.1.4.3.4.6-.1.3-.3.4-.5.4zm-10.6-2.4h-.1l-3.8-.9c-.3-.1-.4-.3-.4-.6.1-.3.3-.4.6-.4l3.8.9c.3.1.4.3.4.6s-.2.4-.5.4zm-10.5-2.4h-.1l-3.8-.9c-.3-.1-.4-.3-.4-.6.1-.3.3-.4.6-.4l3.8.9c.3.1.4.3.4.6-.1.3-.3.4-.5.4zm-10.6-2.4h-.1l-3.8-.9c-.3-.1-.4-.3-.4-.6.1-.3.3-.4.6-.4l3.8.9c.3.1.4.3.4.6-.1.2-.3.4-.5.4zm-10.6-2.4h-.1l-3.8-.9c-.3-.1-.4-.3-.4-.6.1-.3.3-.4.6-.4l3.8.9c.3.1.4.3.4.6 0 .2-.2.4-.5.4zm-10.5-2.4h-.1l-3.8-.9c-.3-.1-.4-.3-.4-.6.1-.3.3-.4.6-.4l3.8.9c.3.1.4.3.4.6-.1.2-.3.4-.5.4zm-10.6-2.4h-.1l-3.8-.9c-.3-.1-.4-.3-.4-.6.1-.3.3-.4.6-.4l3.8.9c.3.1.4.3.4.6-.1.2-.3.4-.5.4zm-10.6-2.4h-.1l-3.8-.9c-.3-.1-.4-.3-.4-.6.1-.3.3-.4.6-.4l3.8.9c.3.1.4.3.4.6 0 .2-.3.4-.5.4zm-10.5-2.5h-.1l-3.8-.9c-.3-.1-.4-.3-.4-.6.1-.3.3-.4.6-.4l3.8.9c.3.1.4.3.4.6-.1.3-.3.4-.5.4zm-10.6-2.4h-.1l-3.8-.9c-.3-.1-.4-.3-.4-.6.1-.3.3-.4.6-.4l3.8.9c.3.1.4.3.4.6-.1.3-.3.4-.5.4zm-10.6-2.4h-.1l-3.8-.9c-.3-.1-.4-.3-.4-.6.1-.3.3-.4.6-.4l3.8.9c.3.1.4.3.4.6-.1.3-.3.4-.5.4zm-10.6-2.4h-.1l-3.8-.9c-.3-.1-.4-.3-.4-.6.1-.3.3-.4.6-.4l3.8.9c.3.1.4.3.4.6s-.2.4-.5.4zm-10.5-2.4h-.1l-3.8-.9c-.3-.1-.4-.3-.4-.6.1-.3.3-.4.6-.4l3.8.9c.3.1.4.3.4.6-.1.2-.3.4-.5.4zm-10.6-2.4h-.1l-3.8-.9c-.3-.1-.4-.3-.4-.6.1-.3.3-.4.6-.4l3.8.9c.3.1.4.3.4.6-.1.2-.3.4-.5.4zm-10.6-2.4h-.1l-3.8-.9c-.3-.1-.4-.3-.4-.6.1-.3.3-.4.6-.4l3.8.9c.3.1.4.3.4.6 0 .2-.2.4-.5.4z"/><path class="st0" d="M237.2 288.5l-10.9-5.8 12.4-.5zm86.1 34.5h-.2l-1.9-.6c-.3-.1-.4-.4-.3-.6s.4-.4.6-.3l1.9.6c.3.1.4.4.3.6 0 .2-.2.3-.4.3z"/><linearGradient id="SVGID_14_" gradientUnits="userSpaceOnUse" x1="329.762" y1="58.919" x2="463.438" y2="58.919" gradientTransform="matrix(1 0 0 -1 0 404)"><stop offset="0" stop-color="#5e5e5e"/><stop offset=".017" stop-color="#626262"/><stop offset=".166" stop-color="#7f7f7f"/><stop offset=".314" stop-color="#939393"/><stop offset=".46" stop-color="#a0a0a0"/><stop offset=".6" stop-color="#a4a4a4"/><stop offset="1" stop-color="#fff"/></linearGradient><path class="st14" d="M462.9 366h-.1l-3.9-1.2c-.3-.1-.4-.4-.3-.6.1-.3.4-.4.6-.3l3.9 1.2c.3.1.4.4.3.6-.1.2-.3.3-.5.3zm-10.8-3.3h-.1l-3.9-1.2c-.3-.1-.4-.4-.3-.6.1-.3.4-.4.6-.3l3.9 1.2c.3.1.4.4.3.6-.1.2-.3.3-.5.3zm-10.7-3.3h-.1l-3.9-1.2c-.3-.1-.4-.4-.3-.6.1-.3.4-.4.6-.3l3.9 1.2c.3.1.4.4.3.6-.1.2-.3.3-.5.3zm-10.7-3.3h-.1l-3.9-1.2c-.3-.1-.4-.4-.3-.6.1-.3.4-.4.6-.3l3.9 1.2c.3.1.4.4.3.6-.1.2-.3.3-.5.3zm-10.8-3.3h-.1l-3.9-1.2c-.3-.1-.4-.4-.3-.6.1-.3.4-.4.6-.3l3.9 1.2c.3.1.4.4.3.6 0 .2-.2.3-.5.3zm-10.7-3.3h-.1l-3.9-1.2c-.3-.1-.4-.4-.3-.6.1-.3.4-.4.6-.3l3.9 1.2c.3.1.4.4.3.6-.1.1-.3.3-.5.3zm-10.7-3.3h-.1l-3.9-1.2c-.3-.1-.4-.4-.3-.6.1-.3.4-.4.6-.3l3.9 1.2c.3.1.4.4.3.6-.1.1-.3.3-.5.3zm-10.7-3.3h-.1l-3.9-1.2c-.3-.1-.4-.4-.3-.6.1-.3.4-.4.6-.3l3.9 1.2c.3.1.4.4.3.6-.1.1-.3.3-.5.3zm-10.8-3.4h-.1l-3.9-1.2c-.3-.1-.4-.4-.3-.6.1-.3.4-.4.6-.3l3.9 1.2c.3.1.4.4.3.6-.1.2-.3.3-.5.3zm-10.7-3.3h-.1l-3.9-1.2c-.3-.1-.4-.4-.3-.6.1-.3.4-.4.6-.3l3.9 1.2c.3.1.4.4.3.6-.1.2-.3.3-.5.3zm-10.7-3.3h-.1l-3.9-1.2c-.3-.1-.4-.4-.3-.6.1-.3.4-.4.6-.3l3.9 1.2c.3.1.4.4.3.6-.1.2-.3.3-.5.3zm-10.8-3.3h-.1l-3.9-1.2c-.3-.1-.4-.4-.3-.6.1-.3.4-.4.6-.3l3.9 1.2c.3.1.4.4.3.6-.1.2-.3.3-.5.3zm-10.7-3.3h-.1l-3.9-1.2c-.3-.1-.4-.4-.3-.6.1-.3.4-.4.6-.3l3.9 1.2c.3.1.4.4.3.6s-.3.3-.5.3z"/><path class="st0" d="M322.6 325.6l-10.5-6.6 12.4.5zm34 29h-.2l-1.8-.8c-.3-.1-.4-.4-.3-.7.1-.3.4-.4.7-.3l1.8.8c.3.1.4.4.3.7-.1.2-.3.3-.5.3z"/><linearGradient id="SVGID_15_" gradientUnits="userSpaceOnUse" x1="362.962" y1="29.519" x2="453.837" y2="29.519" gradientTransform="matrix(1 0 0 -1 0 404)"><stop offset="0" stop-color="#5e5e5e"/><stop offset=".017" stop-color="#626262"/><stop offset=".166" stop-color="#7f7f7f"/><stop offset=".314" stop-color="#939393"/><stop offset=".46" stop-color="#a0a0a0"/><stop offset=".6" stop-color="#a4a4a4"/><stop offset="1" stop-color="#fff"/></linearGradient><path class="st15" d="M453.4 392.6h-.2l-3.9-1.5c-.3-.1-.4-.4-.3-.6.1-.3.4-.4.6-.3l3.9 1.5c.3.1.4.4.3.6 0 .2-.2.3-.4.3zm-10.7-4.2h-.2l-3.9-1.5c-.3-.1-.4-.4-.3-.6s.4-.4.6-.3l3.9 1.5c.3.1.4.4.3.6 0 .1-.2.3-.4.3zm-10.8-4.3h-.2l-3.9-1.5c-.3-.1-.4-.4-.3-.6.1-.3.4-.4.6-.3l3.9 1.5c.3.1.4.4.3.6 0 .2-.2.3-.4.3zm-10.7-4.2h-.2l-3.9-1.5c-.3-.1-.4-.4-.3-.6.1-.3.4-.4.6-.3l3.9 1.5c.3.1.4.4.3.6 0 .2-.2.3-.4.3zm-10.8-4.2h-.2l-3.9-1.5c-.3-.1-.4-.4-.3-.6.1-.3.4-.4.6-.3l3.9 1.5c.3.1.4.4.3.6 0 .2-.2.3-.4.3zm-10.7-4.2h-.2l-3.9-1.5c-.3-.1-.4-.4-.3-.6s.4-.4.6-.3l3.9 1.5c.3.1.4.4.3.6 0 .2-.2.3-.4.3zm-10.8-4.2h-.2l-3.9-1.5c-.3-.1-.4-.4-.3-.6.1-.3.4-.4.6-.3l3.9 1.5c.3.1.4.4.3.6 0 .1-.2.3-.4.3zm-10.7-4.2h-.2l-3.9-1.5c-.3-.1-.4-.4-.3-.6.1-.3.4-.4.6-.3l3.9 1.5c.3.1.4.4.3.6-.1.1-.2.3-.4.3zm-10.8-4.3h-.2l-3.9-1.5c-.3-.1-.4-.4-.3-.6.1-.3.4-.4.6-.3l3.9 1.5c.3.1.4.4.3.6 0 .2-.2.3-.4.3z"/><path class="st0" d="M355.6 357.1l-9.9-7.3 12.3 1.3zm-7.9 15.8c-.1 0-.2 0-.2-.1l-1.8-.9c-.2-.1-.3-.4-.2-.7.1-.2.4-.3.7-.2l1.8.9c.2.1.3.4.2.7-.1.2-.3.3-.5.3z"/><path class="st0" d="M346.5 375.3l-9.4-8.1 12.1 2.3zm-49-8c-.1 0-.2 0-.3-.1l-1.7-1c-.2-.1-.3-.4-.2-.7.1-.2.4-.3.7-.2l1.7 1c.2.1.3.4.2.7-.1.2-.2.3-.4.3z"/><path class="st0" d="M296 369.7l-8.7-8.8 11.9 3.2z"/><path class="st16" d="M118.7 283.9h-29c-1.8 0-3.4-1-4.3-2.5l-14.5-25.1c-.9-1.5-.9-3.5 0-5l14.5-25.1c.9-1.6 2.5-2.5 4.3-2.5h29c1.8 0 3.5 1 4.4 2.5l14.5 25.1c.9 1.5.9 3.5 0 5l-14.5 25.1c-.9 1.5-2.6 2.5-4.4 2.5z"/><g class="st17"><path class="st16" d="M118.7 284.4h-29c-1.9 0-3.7-1-4.7-2.7l-14.5-25.1c-1-1.6-1-3.9 0-5.5L85 226c1-1.7 2.7-2.8 4.7-2.8h29c1.9 0 3.8 1.1 4.8 2.7L138 251c1 1.6 1 3.9 0 5.5l-14.5 25.1c-1 1.7-2.9 2.8-4.8 2.8zm-29-60.2c-1.7 0-3.1.8-3.9 2.2l-14.5 25.1c-.8 1.3-.8 3.2 0 4.5l14.5 25.1c.8 1.4 2.3 2.2 3.9 2.2h29c1.6 0 3.1-.9 4-2.3l14.5-25.1c.8-1.3.8-3.2 0-4.5l-14.5-25.1c-.8-1.4-2.4-2.2-4-2.2l-29 .1z"/></g><g class="st17"><linearGradient id="SVGID_16_" gradientUnits="userSpaceOnUse" x1="18.575" y1="253.75" x2="189.825" y2="253.75"><stop offset="0" stop-color="#fff"/><stop offset="1" stop-color="#0af"/></linearGradient><path class="st18" d="M140.6 329.7H68c-4.7 0-8.9-2.4-11.3-6.5l-36.4-62.9c-2.3-4-2.3-9.1 0-13.1l36.3-62.9c2.3-4 6.6-6.5 11.3-6.5h72.6c4.7 0 8.9 2.4 11.3 6.5l36.3 62.9c2.3 4 2.3 9.1 0 13.1l-36.3 62.9c-2.1 4-6.4 6.5-11.2 6.5zM21.1 247.6c-2.1 3.7-2.1 8.4 0 12.1l36.4 62.9c2.2 3.8 6.1 6 10.5 6h72.6c4.4 0 8.4-2.3 10.4-6l36.3-62.9c2.1-3.7 2.1-8.4 0-12.1L151 184.8c-2.2-3.8-6.1-6-10.5-6H67.9v-.1c-4.4 0-8.4 2.3-10.5 6"/></g><g class="st19"><path class="st20" d="M92.3 238.4h22.8c.4 0 .7.2 1 .5s.4.6.5 1v5.7c0 .4-.2.7-.5 1s-.6.4-1 .4H92.3c-.4 0-.7-.1-1-.4-.3-.3-.4-.6-.4-1v-5.7c0-.4.1-.7.4-1 .2-.3.6-.5 1-.5zm0 11.4h22.8c.4 0 .7.1 1 .4.3.3.4.6.5 1v1l-3.6-1.6-9.2 4.1v3.7H92.3c-.4 0-.7-.1-1-.4s-.4-.6-.4-1v-5.8c0-.4.1-.7.4-1 .2-.2.6-.4 1-.4zm0 11.5h11.4c0 1.6.4 3.1 1 4.6s1.5 2.8 2.5 4H92.3c-.4 0-.7-.2-1-.5s-.4-.6-.4-1v-5.7c0-.4.1-.7.4-1 .2-.3.6-.4 1-.4zm1.4-20v2.9h2.9v-2.9h-2.9zm0 11.4v2.8h2.9v-2.8h-2.9zm0 11.4v2.9h2.9v-2.9h-2.9zm5.7-20h1.4v-2.9h-1.4v2.9zm0 11.4h1.4v-2.8h-1.4v2.8zm0 11.5h1.4v-2.9h-1.4v2.9zm13.5-12.9l6.4 2.9v4.3c0 2-.7 3.8-1.8 5.4-1.2 1.6-2.7 2.6-4.6 3.2-1.9-.5-3.4-1.6-4.6-3.2s-1.8-3.4-1.8-5.4V257l6.4-2.9zm0 2.8l-3.5 1.6v3.8c0 1.1.3 2.1 1 3s1.5 1.5 2.5 1.7v-10.1z"/></g><linearGradient id="SVGID_17_" gradientUnits="userSpaceOnUse" y1="253.75" x2="241.175" y2="253.75"><stop offset="0" stop-color="#fff"/><stop offset="1" stop-color="#0af"/></linearGradient><path class="st21" d="M46.2 375.1h116.2c7.4 0 14.2-4 17.9-10.3l58.1-100.7c3.7-6.4 3.7-14.2 0-20.6l-58.3-100.7c-3.6-6.4-10.5-10.4-17.8-10.4H46.1c-7.3 0-14.1 4-17.8 10.4L0 191.7v2l29.1-50.5c3.5-6.1 10-9.9 17-9.9h116.2c7.1 0 13.4 3.7 17 9.9L237.6 244c3.5 6 3.5 13.6 0 19.6l-58.1 100.7c-3.5 6.1-10.1 9.9-17.1 9.9H46.2c-7.1 0-13.4-3.7-17-9.8L0 313.7v2l28.4 49.1c3.6 6.3 10.4 10.3 17.8 10.3z"/><path class="st0" d="M401.4 397.7c-.2-.1-.5 0-.7.2s0 .5.2.7l.8.4h2.3l-2.6-1.3zm-38-18.3c-.2-.1-.5 0-.7.2s0 .5.2.7l3.5 1.7h.2c.2 0 .4-.1.5-.3.1-.2 0-.5-.2-.7l-3.5-1.6zm19 9.2c-.2-.1-.5 0-.7.2-.1.2 0 .5.2.7l3.5 1.7h.2c.2 0 .4-.1.5-.3.1-.2 0-.5-.2-.7l-3.5-1.6zm-9.5-4.6c-.2-.1-.5 0-.7.2-.1.2 0 .5.2.7l3.5 1.7h.2c.2 0 .4-.1.5-.3.1-.2 0-.5-.2-.7l-3.5-1.6zm-19-9.2c-.2-.1-.5 0-.7.2s0 .5.2.7l3.5 1.7h.2c.2 0 .4-.1.5-.3.1-.2 0-.5-.2-.7l-3.5-1.6zm37.3 18.6c-.1.2 0 .5.2.7l3.5 1.7h.2c.2 0 .4-.1.5-.3.1-.2 0-.5-.2-.7l-3.5-1.7c-.2-.1-.5 0-.7.3zm-40.4 3.6c-.2-.1-.5-.1-.7.2-.1.2-.1.5.2.7l1.9 1.1h2l-3.4-2zM332 386.2c-.2-.1-.5-.1-.7.2s-.1.5.2.7l3.4 2c.1 0 .2.1.2.1.2 0 .3-.1.4-.2.1-.2.1-.5-.2-.7l-3.3-2.1zm9.4 5.4c-.2-.1-.5-.1-.7.2-.1.2-.1.5.2.7l3.4 2c.1 0 .2.1.2.1.2 0 .3-.1.4-.2.1-.2.1-.5-.2-.7l-3.3-2.1zm-34.2-19.8l-3.4-2c-.2-.1-.5-.1-.7.2s-.1.5.2.7l3.4 2c.1 0 .2.1.2.1.2 0 .3-.1.4-.2.2-.3.1-.6-.1-.8zm9.4 5.5l-3.4-2c-.2-.1-.5-.1-.7.2-.1.2-.1.5.2.7l3.4 2c.1 0 .2.1.2.1.2 0 .3-.1.4-.2.2-.4.1-.7-.1-.8zm6 3.4c-.2-.1-.5-.1-.7.2s-.1.5.2.7l3.3 1.9.5-.9-3.3-1.9z"/><linearGradient id="SVGID_18_" gradientUnits="userSpaceOnUse" y1="243" x2="292.525" y2="243"><stop offset="0" stop-color="#fff"/><stop offset="1" stop-color="#0af"/></linearGradient><path class="st22" d="M24.3 87.9h159.9c9.6 0 18.7 5.2 23.6 13.6l80 138.5c4.9 8.4 4.9 18.8 0 27.2L211.7 399h1.2l75.8-131.2a27.9 27.9 0 0 0 0-28.2l-80-138.5c-5.1-8.7-14.4-14.1-24.4-14.1h-160C14.4 87 5.1 92.3 0 100.9v2l.7-1.3c4.9-8.5 14-13.7 23.6-13.7z"/><linearGradient id="SVGID_19_" gradientUnits="userSpaceOnUse" y1="220.35" x2="343.6" y2="220.35"><stop offset="0" stop-color="#fff"/><stop offset="1" stop-color="#0af"/></linearGradient><path class="st23" d="M206.1 42.7c12.4 0 23.9 6.6 30.1 17.3L338 236.3c6.2 10.7 6.2 24 0 34.8L264.1 399h1.2l73.5-127.3c6.4-11.1 6.4-24.8 0-35.8L237 59.5c-6.4-11-18.2-17.8-30.9-17.8H2.5c-.8 0-1.7 0-2.5.1v1c.8-.1 1.7-.1 2.5-.1h203.6z"/><path class="st16" d="M325.8 383.6c.2 0 .3-.1.4-.2.1-.2.1-.5-.2-.7h-.1l-.5.9h.4z"/><path class="st20" d="M404.6 400.3c.2 0 .4-.1.5-.3.1-.2 0-.5-.2-.7l-.8-.4h-2.3l2.7 1.3c0 .1.1.1.1.1zm-50.6-.4c.2 0 .3-.1.4-.2.1-.2.1-.5-.2-.7h-2l1.5.9h.3zm-38 0l.1-.3-.6-.2zm.1-.3l1 .4.6-1h-1.2z"/><path class="st20" d="M316 399.9l.6.8.5-.7-1-.4z"/><path class="st24" d="M321.9 380.9c-.1.2-.1.5.2.7l3.3 1.9h.1c.1 0 .2.1.2.1.2 0 .3-.1.4-.2.1-.2.1-.5-.2-.7h-.1l-3.3-1.9c-.2-.2-.5-.1-.6.1zm-14.7-9.1l-3.4-2c-.2-.1-.5-.1-.7.2s-.1.5.2.7l3.4 2c.1 0 .2.1.2.1.2 0 .3-.1.4-.2.2-.3.1-.6-.1-.8zm9.4 5.5l-3.4-2c-.2-.1-.5-.1-.7.2-.1.2-.1.5.2.7l3.4 2c.1 0 .2.1.2.1.2 0 .3-.1.4-.2.2-.4.1-.7-.1-.8z"/><path class="st0" d="M290.7 19.2c-.2-.2-.5-.1-.7.1l-2.5 3.1c-.2.2-.1.5.1.7.1.1.2.1.3.1.1 0 .3-.1.4-.2l2.5-3.1c.1-.2.1-.5-.1-.7zm12.9-16.9l-2.5 3.1c-.2.2-.1.5.1.7.1.1.2.1.3.1.1 0 .3-.1.4-.2l2.5-3.1c.2-.2.1-.5-.1-.7-.2-.2-.6-.1-.7.1zm-6.1 8.4c-.2-.2-.5-.1-.7.1l-2.5 3.1c-.2.2-.1.5.1.7.1.1.2.1.3.1.1 0 .3-.1.4-.2l2.5-3.1c.1-.2.1-.5-.1-.7zM290 53.5c.1 0 .3-.1.4-.2l2.7-2.9c.2-.2.2-.5 0-.7s-.5-.2-.7 0l-2.7 2.9c-.2.2-.2.5 0 .7.1.1.2.2.3.2zm40-43.7c-.2-.2-.5-.2-.7 0l-2.7 2.9c-.2.2-.2.5 0 .7.1.1.2.1.3.1.1 0 .3-.1.4-.2l2.7-2.9c.2-.1.2-.4 0-.6z"/><linearGradient id="SVGID_20_" gradientUnits="userSpaceOnUse" x1="333.899" y1="400.375" x2="337.593" y2="400.375" gradientTransform="matrix(1 0 0 -1 0 404)"><stop offset="0" stop-color="#5e5e5e"/><stop offset=".017" stop-color="#626262"/><stop offset=".166" stop-color="#7f7f7f"/><stop offset=".314" stop-color="#939393"/><stop offset=".46" stop-color="#a0a0a0"/><stop offset=".6" stop-color="#a4a4a4"/><stop offset="1" stop-color="#fff"/></linearGradient><path class="st25" d="M337.4 1.8c-.2-.2-.5-.2-.7 0l-2.7 3c-.2.2-.2.5 0 .7.1.1.2.1.3.1.1 0 .3-.1.4-.2l2.7-2.9c.2-.1.2-.5 0-.7z"/><path class="st0" d="M315.3 26.5c.2-.2.2-.5 0-.7s-.5-.2-.7 0l-2.7 2.9c-.2.2-.2.5 0 .7.1.1.2.1.3.1.1 0 .3-.1.4-.2l2.7-2.8zm-17.9 19c.1 0 .3-.1.4-.2l2.7-2.9c.2-.2.2-.5 0-.7s-.5-.2-.7 0l-2.7 2.9c-.2.2-.2.5 0 .7.1.2.2.2.3.2zm7.1-8.1c.1.1.2.1.3.1.1 0 .3-.1.4-.2l2.7-2.9c.2-.2.2-.5 0-.7s-.5-.2-.7 0l-2.7 2.9c-.3.3-.2.6 0 .8zm18.1-19.6c-.2-.2-.5-.2-.7 0l-2.7 2.9c-.2.2-.2.5 0 .7.1.1.2.1.3.1.1 0 .3-.1.4-.2l2.7-2.9c.2-.1.2-.4 0-.6zM219.7 145.6l-2.9 2.7c-.2.2-.2.5 0 .7.1.1.2.2.4.2.1 0 .2 0 .3-.1l2.9-2.7c.2-.2.2-.5 0-.7-.2-.3-.5-.3-.7-.1zm8-7.4l-2.9 2.7c-.2.2-.2.5 0 .7.1.1.2.2.4.2.1 0 .2 0 .3-.1l2.9-2.7c.2-.2.2-.5 0-.7-.2-.3-.5-.3-.7-.1zm7.9-7.4l-2.9 2.7c-.2.2-.2.5 0 .7.1.1.2.2.4.2.1 0 .2 0 .3-.1l2.9-2.7c.2-.2.2-.5 0-.7-.1-.3-.5-.3-.7-.1zm23.9-22.2l-2.9 2.7c-.2.2-.2.5 0 .7.1.1.2.2.4.2.1 0 .2 0 .3-.1l2.9-2.7c.2-.2.2-.5 0-.7-.2-.2-.5-.3-.7-.1zm-47.7 44.3l-2.9 2.7c-.2.2-.2.5 0 .7.1.1.2.2.4.2.1 0 .2 0 .3-.1l2.9-2.7c.2-.2.2-.5 0-.7-.2-.2-.5-.2-.7-.1zm31.8-29.5l-2.9 2.7c-.2.2-.2.5 0 .7.1.1.2.2.4.2.1 0 .2 0 .3-.1l2.9-2.7c.2-.2.2-.5 0-.7-.2-.3-.5-.3-.7-.1zm56.4-51c.2-.2.2-.5 0-.7s-.5-.2-.7 0l-1.9 1.7.5.9 2.1-1.9zM251.6 116l-2.9 2.7c-.2.2-.2.5 0 .7.1.1.2.2.4.2.1 0 .2 0 .3-.1l2.9-2.7c.2-.2.2-.5 0-.7-.2-.3-.5-.3-.7-.1zm77-70.3c.1 0 .2 0 .3-.1l2.9-2.7c.2-.2.2-.5 0-.7s-.5-.2-.7 0l-2.9 2.7c-.2.2-.2.5 0 .7.2.1.3.1.4.1zm-7.9 7.4c.1 0 .2 0 .3-.1l2.9-2.7c.2-.2.2-.5 0-.7s-.5-.2-.7 0l-2.9 2.7c-.2.2-.2.5 0 .7.1 0 .2.1.4.1zm-8 7.4c.1 0 .2 0 .3-.1l2.9-2.7c.2-.2.2-.5 0-.7s-.5-.2-.7 0l-2.9 2.7c-.2.2-.2.5 0 .7.1 0 .3.1.4.1zm-8 7.4c.1 0 .2 0 .3-.1l2.9-2.7c.2-.2.2-.5 0-.7s-.5-.2-.7 0l-2.9 2.7c-.2.2-.2.5 0 .7.2 0 .3.1.4.1z"/><linearGradient id="SVGID_21_" gradientUnits="userSpaceOnUse" x1="336.094" y1="367.525" x2="339.99" y2="367.525" gradientTransform="matrix(1 0 0 -1 0 404)"><stop offset="0" stop-color="#5e5e5e"/><stop offset=".017" stop-color="#626262"/><stop offset=".166" stop-color="#7f7f7f"/><stop offset=".314" stop-color="#939393"/><stop offset=".46" stop-color="#a0a0a0"/><stop offset=".6" stop-color="#a4a4a4"/><stop offset="1" stop-color="#fff"/></linearGradient><path class="st26" d="M336.6 38.3c.1 0 .2 0 .3-.1l2.9-2.7c.2-.2.2-.5 0-.7s-.5-.2-.7 0l-2.9 2.7c-.2.2-.2.5 0 .7.1.1.3.1.4.1z"/><linearGradient id="SVGID_22_" gradientUnits="userSpaceOnUse" x1="375.903" y1="403.3" x2="378.115" y2="403.3" gradientTransform="matrix(1 0 0 -1 0 404)"><stop offset="0" stop-color="#5e5e5e"/><stop offset=".017" stop-color="#626262"/><stop offset=".166" stop-color="#7f7f7f"/><stop offset=".314" stop-color="#939393"/><stop offset=".46" stop-color="#a0a0a0"/><stop offset=".6" stop-color="#a4a4a4"/><stop offset="1" stop-color="#fff"/></linearGradient><path class="st27" d="M376 1.2c.1.1.2.2.4.2.1 0 .2 0 .3-.1l1.4-1.3h-1.5l-.6.5c-.1.2-.2.5 0 .7z"/><linearGradient id="SVGID_23_" gradientUnits="userSpaceOnUse" x1="344.055" y1="374.87" x2="347.951" y2="374.87" gradientTransform="matrix(1 0 0 -1 0 404)"><stop offset="0" stop-color="#5e5e5e"/><stop offset=".017" stop-color="#626262"/><stop offset=".166" stop-color="#7f7f7f"/><stop offset=".314" stop-color="#939393"/><stop offset=".46" stop-color="#a0a0a0"/><stop offset=".6" stop-color="#a4a4a4"/><stop offset="1" stop-color="#fff"/></linearGradient><path class="st28" d="M347.1 27.4l-2.9 2.7c-.2.2-.2.5 0 .7.1.1.2.2.4.2.1 0 .2 0 .3-.1l2.9-2.7c.2-.2.2-.5 0-.7-.2-.3-.5-.3-.7-.1z"/><linearGradient id="SVGID_24_" gradientUnits="userSpaceOnUse" x1="359.979" y1="389.67" x2="363.875" y2="389.67" gradientTransform="matrix(1 0 0 -1 0 404)"><stop offset="0" stop-color="#5e5e5e"/><stop offset=".017" stop-color="#626262"/><stop offset=".166" stop-color="#7f7f7f"/><stop offset=".314" stop-color="#939393"/><stop offset=".46" stop-color="#a0a0a0"/><stop offset=".6" stop-color="#a4a4a4"/><stop offset="1" stop-color="#fff"/></linearGradient><path class="st29" d="M363 12.6l-2.9 2.7c-.2.2-.2.5 0 .7.1.1.2.2.4.2.1 0 .2 0 .3-.1l2.9-2.7c.2-.2.2-.5 0-.7-.1-.3-.5-.3-.7-.1z"/><linearGradient id="SVGID_25_" gradientUnits="userSpaceOnUse" x1="367.942" y1="397.033" x2="371.841" y2="397.033" gradientTransform="matrix(1 0 0 -1 0 404)"><stop offset="0" stop-color="#5e5e5e"/><stop offset=".017" stop-color="#626262"/><stop offset=".166" stop-color="#7f7f7f"/><stop offset=".314" stop-color="#939393"/><stop offset=".46" stop-color="#a0a0a0"/><stop offset=".6" stop-color="#a4a4a4"/><stop offset="1" stop-color="#fff"/></linearGradient><path class="st30" d="M371 5.2l-2.9 2.7c-.2.2-.2.5 0 .7.1.1.2.2.4.2.1 0 .2 0 .3-.1l2.9-2.7c.2-.2.2-.5 0-.7-.2-.2-.5-.2-.7-.1z"/><linearGradient id="SVGID_26_" gradientUnits="userSpaceOnUse" x1="352.017" y1="382.27" x2="355.913" y2="382.27" gradientTransform="matrix(1 0 0 -1 0 404)"><stop offset="0" stop-color="#5e5e5e"/><stop offset=".017" stop-color="#626262"/><stop offset=".166" stop-color="#7f7f7f"/><stop offset=".314" stop-color="#939393"/><stop offset=".46" stop-color="#a0a0a0"/><stop offset=".6" stop-color="#a4a4a4"/><stop offset="1" stop-color="#fff"/></linearGradient><path class="st31" d="M355.1 20l-2.9 2.7c-.2.2-.2.5 0 .7.1.1.2.2.4.2.1 0 .2 0 .3-.1l2.9-2.7c.2-.2.2-.5 0-.7-.2-.3-.5-.3-.7-.1z"/><path class="st24" d="M268.2 102l-2.9 2.7c-.1.1-.2.1-.3.1-.1 0-.3-.1-.4-.2-.2-.2-.2-.5 0-.7l2.9-2.7c.2-.2.5-.2.7 0 .2.3.2.6 0 .8zm2.7-27.7l-2.7 2.9c-.1.1-.2.2-.4.2-.1 0-.2 0-.3-.1-.2-.2-.2-.5 0-.7l2.7-2.9c.2-.2.5-.2.7 0 .1.1.1.4 0 .6zm5.2 20.3l-2.9 2.7c-.1.1-.2.1-.3.1-.1 0-.3-.1-.4-.2-.2-.2-.2-.5 0-.7l2.9-2.7c.2-.2.5-.2.7 0 .2.3.2.6 0 .8zm2.2-28.2l-2.7 2.9c-.1.1-.2.2-.4.2-.1 0-.2 0-.3-.1-.2-.2-.2-.5 0-.7l2.7-2.9c.2-.2.5-.2.7 0 .1 0 .1.4 0 .6zm5.8 20.8l-2.9 2.7c-.1.1-.2.1-.3.1-.1 0-.3-.1-.4-.2-.2-.2-.2-.5 0-.7l2.9-2.7c.2-.2.5-.2.7 0 .2.3.2.6 0 .8zm1.6-28.8l-2.7 2.9c-.1.1-.2.2-.4.2-.1 0-.2 0-.3-.1-.2-.2-.2-.5 0-.7l2.7-2.9c.2-.2.5-.2.7 0 .1.1.1.4 0 .6zm6.4 21.4l-2.9 2.7c-.1.1-.2.1-.3.1-.1 0-.3-.1-.4-.2-.2-.2-.2-.5 0-.7l2.9-2.7c.2-.2.5-.2.7 0 .2.3.2.6 0 .8zm15.3 292.7c-.1.2-.3.2-.4.2s-.2 0-.2-.1l-3.4-2c-.2-.1-.3-.4-.2-.7s.4-.3.7-.2l3.4 2c.1.3.2.6.1.8zm9.4 5.5c-.1.2-.3.2-.4.2s-.2 0-.2-.1l-3.4-2c-.2-.1-.3-.4-.2-.7.1-.2.4-.3.7-.2l3.4 2c.1.2.2.5.1.8z"/><path class="st0" d="M270.1 73.7l-2.7 2.9c-.2.2-.2.5 0 .7.1.1.2.1.3.1.1 0 .3-.1.4-.2l2.7-2.9c.2-.2.2-.5 0-.7-.2-.2-.5-.1-.7.1zm14.8-16l-2.7 2.9c-.2.2-.2.5 0 .7.1.1.2.1.3.1.1 0 .3-.1.4-.2l2.7-2.9c.2-.2.2-.5 0-.7-.2-.1-.5-.1-.7.1zm-7.4 8l-2.7 2.9c-.2.2-.2.5 0 .7.1.1.2.1.3.1.1 0 .3-.1.4-.2l2.7-2.9c.2-.2.2-.5 0-.7-.2-.1-.5-.1-.7.1zm-2 28.2l-2.9 2.7c-.2.2-.2.5 0 .7.1.1.2.2.4.2.1 0 .2 0 .3-.1l2.9-2.7c.2-.2.2-.5 0-.7-.2-.3-.5-.3-.7-.1zm20.9-18.8c.1.1.2.2.4.2.1 0 .2 0 .3-.1l.1-.1-.5-.9-.3.3c-.2.1-.2.4 0 .6zm-13 11.4l-2.9 2.7c-.2.2-.2.5 0 .7.1.1.2.2.4.2.1 0 .2 0 .3-.1l2.9-2.7c.2-.2.2-.5 0-.7-.2-.3-.5-.3-.7-.1zm8-7.4l-2.9 2.7c-.2.2-.2.5 0 .7.1.1.2.2.4.2.1 0 .2 0 .3-.1l2.9-2.7c.2-.2.2-.5 0-.7-.2-.3-.5-.3-.7-.1zm-23.9 22.1l-2.9 2.7c-.2.2-.2.5 0 .7.1.1.2.2.4.2.1 0 .2 0 .3-.1l2.9-2.7c.2-.2.2-.5 0-.7-.2-.2-.5-.2-.7-.1z"/><path class="st16" d="M388.2 232.5c7.5 13 7.5 29.3 0 42.3L326 382.6h.1c.2.1.3.4.2.7-.1.2-.3.2-.4.2s-.2 0-.2-.1h-.1l-8.9 15.5h1.2L389 275.3c7.7-13.4 7.7-29.9 0-43.3L298 74.3l-.8.7 91 157.5z"/><linearGradient id="SVGID_27_" gradientUnits="userSpaceOnUse" x1="270.05" y1="74.2" x2="270.05"><stop offset="0" stop-color="#0af"/><stop offset="1" stop-color="#fff"/></linearGradient><path class="st32" d="M264.6 18.5l32.1 55.7.8-.7-32-55.5c-4.8-8.1-11.9-14.3-20.2-18h-2.7c9.1 3.4 16.9 9.8 22 18.5z"/><path class="st16" d="M297.2 75l.8-.7-.5-.9-.8.7z"/></svg>