<svg id="Layer_1" xmlns="http://www.w3.org/2000/svg" viewBox="0 0 492 340.8"><style>.st0,.st1{stroke-miterlimit:10}.st0{fill:none;stroke:url(#SVGID_1_)}.st1{stroke:#ddd}.st1,.st2{fill:#fff}.st3,.st4{fill:none;stroke:#ddd;stroke-miterlimit:10}.st4{stroke:url(#SVGID_2_)}.st5{fill:#ebebeb}.st6,.st7{stroke-miterlimit:10}.st6{stroke-width:13;fill:#fff;stroke:#fff}.st7{fill:none;stroke:#ebebeb}.st8{enable-background:new}.st9{fill:#0af}.st10{stroke:#0af}.st10,.st11,.st12{fill:none;stroke-width:2;stroke-linecap:round;stroke-linejoin:round}.st11{stroke-dasharray:0,6.92;stroke:#0af}.st12{stroke:#fff}.st13{fill:none;stroke:url(#SVGID_3_);stroke-miterlimit:10}.st14{fill:#a4a4a4}</style><title>Asset 6</title><g id="Layer_2_1_"><g id="Layer_1-2"><linearGradient id="SVGID_1_" gradientUnits="userSpaceOnUse" x1="6.55" y1="42.38" x2="479.75" y2="42.38" gradientTransform="matrix(1 0 0 -1 0 342)"><stop offset="0" stop-color="#fff"/><stop offset=".04" stop-color="#ddd"/><stop offset=".96" stop-color="#ddd"/><stop offset="1" stop-color="#fff"/></linearGradient><path class="st0" d="M479.8 299.6H6.6"/><path class="st1" d="M90.8 34.5h147.8v283.1H90.8z"/><path class="st1" d="M121.9 54h9.1v21.4h-9.1zm19.1 0h9.1v21.4H141zm19.1 0h9.1v21.4h-9.1zm19.1 0h9.1v21.4h-9.1zm19.1 0h9.1v21.4h-9.1zm-76.4 31.2h9.1v21.4h-9.1zm19.1 0h9.1v21.4H141zm19.1 0h9.1v21.4h-9.1zm19.1 0h9.1v21.4h-9.1zm19.1 0h9.1v21.4h-9.1zm-76.4 31.2h9.1v21.4h-9.1zm19.1 0h9.1v21.4H141zm19.1 0h9.1v21.4h-9.1zm19.1 0h9.1v21.4h-9.1zm19.1 0h9.1v21.4h-9.1zm-76.4 31.2h9.1V169h-9.1zm19.1 0h9.1V169H141zm19.1 0h9.1V169h-9.1zm19.1 0h9.1V169h-9.1zm19.1 0h9.1V169h-9.1zm-76.4 31.2h9.1v21.4h-9.1zm19.1 0h9.1v21.4H141zm19.1 0h9.1v21.4h-9.1zm19.1 0h9.1v21.4h-9.1zm19.1 0h9.1v21.4h-9.1zM121.9 210h9.1v21.4h-9.1zm19.1 0h9.1v21.4H141zm19.1 0h9.1v21.4h-9.1zm19.1 0h9.1v21.4h-9.1zm19.1 0h9.1v21.4h-9.1zm-76.4 31.2h9.1v21.4h-9.1zm19.1 0h9.1v21.4H141zm19.1 0h9.1v21.4h-9.1zm19.1 0h9.1v21.4h-9.1zm19.1 0h9.1v21.4h-9.1zm-48.2 54h29v21.4h-29zm70.8-260.7c-7.9-19.7-30-34-56.2-34s-48.3 14.2-56.2 34h112.4zm222.8 249.3l3.2 33.8h-7.8l3.2-33.8z"/><path class="st1" d="M436.3 307c-3.3 0-6-2.7-6-6v-.2c.4-15.6 2.2-56.9 10.2-80.4 8.9 22.4 12.5 64.2 13.5 80.1.2 3.3-2.3 6.2-5.6 6.4h-12.1z"/><path class="st1" d="M436.3 267.2H448c.9 0 1.8-.2 2.7-.6-1-7.6-2.2-15.6-3.8-23.1-2 2.2-3.6 4.8-4.8 7.6-1.5-3.6-3.8-6.9-6.8-9.5-1.4 7.9-2.4 16.2-3.1 24.1 1.3 1 2.7 1.6 4.1 1.5z"/><path class="st1" d="M432 279.7c1.1 1.2 2.7 1.8 4.3 1.8H448c1.6 0 3.1-.6 4.2-1.8-.8-7.5-1.8-15.8-3.1-24.1-3.1 2.6-5.5 5.9-7 9.7-2.1-4.9-5.2-8.8-8.6-10.9-1 8.4-1.8 16.8-2.2 24.3.2.5.4.8.7 1z"/><path class="st1" d="M442.2 278.8c-2.4-5.6-6.1-9.8-10-11.6-.8 8.8-1.3 17-1.5 23.7.8 2.4 3.1 4 5.7 4h11.7c1.7 0 3.3-.7 4.4-1.9.4-.4.7-.9.9-1.3-.5-6.7-1.4-15-2.5-23.8-3.4 2.1-6.6 6-8.7 10.9z"/><path class="st1" d="M448.1 307c1.7 0 3.3-.7 4.4-1.9a6.1 6.1 0 0 0 1.6-4.5c-.3-5-.9-12.6-1.9-21.4-3.9 1.8-7.6 6-10 11.6-2.6-6-6.6-10.4-10.9-12-.6 9.1-.9 16.9-1 22-.1 3.3 2.5 6.1 5.8 6.2h12zm17.3-18.6l2.8 29.2h-6.8l2.8-29.2z"/><path class="st1" d="M459 308.4c-2.9 0-5.2-2.3-5.2-5.2v-.1c.3-13.4 1.9-49.2 8.8-69.4 7.7 19.4 10.8 55.4 11.7 69.2.2 2.8-1.9 5.3-4.8 5.5H459z"/><path class="st1" d="M459 274.1h10.1c.8 0 1.6-.2 2.3-.5-.9-6.6-1.9-13.4-3.3-20-1.7 1.9-3.1 4.1-4.1 6.5-1.3-3.2-3.3-6-5.8-8.2-1.2 6.8-2 14-2.7 20.9 1 .8 2.2 1.3 3.5 1.3z"/><path class="st1" d="M455.3 284.9c1 1 2.3 1.6 3.7 1.6h10.1c1.4 0 2.7-.5 3.6-1.5-.7-6.4-1.5-13.6-2.7-20.8-2.6 2.3-4.7 5.1-6 8.4-1.5-3.8-4.1-7.1-7.5-9.4-.9 7.2-1.5 14.5-1.9 21 .3.2.5.5.7.7z"/><path class="st1" d="M464.1 284.1c-2.1-4.8-5.2-8.4-8.6-10-.7 7.6-1.1 14.7-1.3 20.5.2.7.6 1.4 1.2 1.9 1 1 2.3 1.6 3.7 1.6h10.1c1.4 0 2.8-.6 3.8-1.6.3-.3.6-.7.8-1.2-.5-5.8-1.2-13-2.1-20.6-3.5 2.3-6.1 5.6-7.6 9.4z"/><path class="st1" d="M469.2 308.4c1.4 0 2.8-.6 3.8-1.6s1.5-2.5 1.4-3.9c-.3-4.3-.8-10.9-1.6-18.5-3.4 1.6-6.6 5.2-8.6 10-2.2-5.2-5.7-9-9.4-10.4-.5 7.8-.8 14.6-.9 19-.1 2.9 2.2 5.2 5.1 5.3h.1l10.1.1zm-274-85.9h216.1v95.1H195.2z"/><path class="st1" d="M213.5 237.9h10.9v17.2h-10.9zm24.1 0h10.9v17.2h-10.9zm24.1 0h10.9v17.2h-10.9zm24 0h10.9v17.2h-10.9zm24.1 0h10.9v17.2h-10.9zm24.1 0h10.9v17.2h-10.9zm24.1 0h10.9v17.2H358zm24.1 0H393v17.2h-10.9zm-168.6 34.5h10.9v30.2h-10.9zm24.1 0h10.9v30.2h-10.9zm24.1 0h10.9v30.2h-10.9zm24 0h10.9v30.2h-10.9zm24.1 0h10.9v30.2h-10.9zm24.1 0h10.9v30.2h-10.9zm24.1 0h10.9v30.2H358zm24.1 0H393v30.2h-10.9zM195.2 129.2h216.1v95.1H195.2z"/><path class="st1" d="M213.5 144.6h10.9v17.2h-10.9zm24.1 0h10.9v17.2h-10.9zm24.1 0h10.9v17.2h-10.9zm24 0h10.9v17.2h-10.9zm24.1 0h10.9v17.2h-10.9zm24.1 0h10.9v17.2h-10.9zm24.1 0h10.9v17.2H358zm24.1 0H393v17.2h-10.9zm-168.6 34.5h10.9v30.3h-10.9zm24.1 0h10.9v30.3h-10.9zm24.1 0h10.9v30.3h-10.9zm24 0h10.9v30.3h-10.9zm24.1 0h10.9v30.3h-10.9zm24.1 0h10.9v30.3h-10.9zm24.1 0h10.9v30.3H358zm24.1 0H393v30.3h-10.9z"/><path class="st2" d="M195.2 219.1h216.1v5.2H195.2z"/><path class="st3" d="M195.2 219.1h216.1v5.2H195.2z"/><path class="st1" d="M427.9 129.2H178.6l41.8-27.8h165.7zm-98 127.3h127.3v61.1H329.9z"/><path class="st1" d="M344.9 274.4h10.7v29.1h-10.7zm22.5 0h10.7v29.1h-10.7zm22.4 0h10.7v29.1h-10.7zm52.4 0h10.7v29.1h-10.7zM413.9 288h16v29.6h-16zm-86.3-37.8h131.8v6.3H327.6zm-214.7 67.4h-89c-.9 0-1.6-.7-1.7-1.6V140.4c0-.9.7-1.6 1.6-1.6h89c.9 0 1.6.7 1.6 1.6V316c0 .9-.7 1.6-1.5 1.6z"/><path class="st1" d="M86.6 158.6H41.2v10.5h54.3v-10.5zm-.9 21H41.2v10.5h54.3v-10.5h-8.9zm0 21.1H41.2v10.5h54.3v-10.5h-8.9zm0 21H41.2v10.5h54.3v-10.5h-8.9zm0 21.1H41.2v10.5h54.3v-10.5h-8.9zm0 21H41.2v10.5h54.3v-10.5h-8.9zm0 21H41.2v10.6h54.3v-10.6h-8.9zM154 265c.3-14.6-11.3-26.6-25.9-26.9-14.6-.3-26.6 11.3-26.9 25.9v1c0 14.1 11 33.1 24.9 34.4l-1.8 18.2h6.4l-1.8-18.2c14-1.3 25.1-20.3 25.1-34.4z"/><linearGradient id="SVGID_2_" gradientUnits="userSpaceOnUse" y1="24.38" x2="492" y2="24.38" gradientTransform="matrix(1 0 0 -1 0 342)"><stop offset="0" stop-color="#fff"/><stop offset=".04" stop-color="#ddd"/><stop offset=".96" stop-color="#ddd"/><stop offset="1" stop-color="#fff"/></linearGradient><path class="st4" d="M492 317.6H0"/><path class="st5" d="M136.1 71.8h213.8v262.9H136.1z"/><path class="st6" d="M155.8 93.3H185v24.4h-29.2zm47.5 0h29.2v24.4h-29.2zm47.4 0H280v24.4h-29.3zm47.4 0h29.2v24.4h-29.2zm-142.3 46H185v24.4h-29.2zm47.5 0h29.2v24.4h-29.2zm47.4 0H280v24.4h-29.3zm47.4 0h29.2v24.4h-29.2zm-142.3 45.9H185v24.4h-29.2zm47.5 0h29.2v24.4h-29.2zm47.4 0H280v24.4h-29.3zm47.4 0h29.2v24.4h-29.2zm-142.3 45.9H185v24.4h-29.2zm47.5 0h29.2v24.4h-29.2zm47.4 0H280v24.4h-29.3zm47.4 0h29.2v24.4h-29.2zM155.8 277H185v24.4h-29.2zm47.5 0h29.2v24.4h-29.2zm47.4 0H280v24.4h-29.3z"/><path class="st2" d="M291.2 271.8h43.1v62.9h-43.1z"/><path class="st7" d="M312.8 271.3v63.4"/><g class="st8"><path class="st9" d="M178.5 284.8v9.7L175 291v3.1c0 .2-.1.5-.3.6-.2.2-.4.2-.6.2h-10.7c-.2 0-.5-.1-.6-.2-.2-.2-.2-.4-.2-.6v-8.9c0-.2.1-.5.2-.6.2-.2.4-.2.6-.2H174c.2 0 .5.1.6.2.2.2.3.4.3.6v3.1l3.6-3.5z"/></g><g class="st8"><path class="st9" d="M178.5 239.4v9.7l-3.5-3.5v3.1c0 .2-.1.5-.3.6-.2.2-.4.2-.6.2h-10.7c-.2 0-.5-.1-.6-.2-.2-.2-.2-.4-.2-.6v-8.9c0-.2.1-.5.2-.6.2-.2.4-.2.6-.2H174c.2 0 .5.1.6.2.2.2.3.4.3.6v3.1l3.6-3.5z"/></g><g class="st8"><path class="st9" d="M178.5 193.5v9.7l-3.5-3.5v3.1c0 .2-.1.5-.3.6-.2.2-.4.2-.6.2h-10.7c-.2 0-.5-.1-.6-.2-.2-.2-.2-.4-.2-.6v-8.9c0-.2.1-.5.2-.6.2-.2.4-.2.6-.2H174c.2 0 .5.1.6.2.2.2.3.4.3.6v3.1l3.6-3.5z"/></g><g class="st8"><path class="st9" d="M225.9 193.5v9.7l-3.5-3.5v3.1c0 .2-.1.5-.3.6-.2.2-.4.2-.6.2h-10.7c-.2 0-.5-.1-.6-.2-.2-.2-.2-.4-.2-.6v-8.9c0-.2.1-.5.2-.6.2-.2.4-.2.6-.2h10.7c.2 0 .5.1.6.2.2.2.3.4.3.6v3.1l3.5-3.5z"/></g><g class="st8"><path class="st9" d="M273.3 193.5v9.7l-3.5-3.5v3.1c0 .2-.1.5-.3.6-.2.2-.4.2-.6.2h-10.7c-.2 0-.5-.1-.6-.2-.2-.2-.2-.4-.2-.6v-8.9c0-.2.1-.5.2-.6.2-.2.4-.2.6-.2h10.7c.2 0 .5.1.6.2.2.2.3.4.3.6v3.1l3.5-3.5z"/></g><g class="st8"><path class="st9" d="M256.5 281.7h17.7c.5 0 .9.2 1.2.5s.5.8.5 1.2v12.4c0 .5-.2.9-.5 1.2-.3.3-.8.5-1.2.5h-17.7c-.5 0-.9-.2-1.2-.5-.3-.3-.5-.7-.5-1.2v-12.4c0-.5.2-.9.5-1.2.2-.3.7-.4 1.2-.5zm5.3 9.7c-1 0-2.1.2-3.3.7-1.2.5-1.9 1.2-2 2v.9h10.7v-.9c-.1-.9-.8-1.6-2-2-1.3-.4-2.4-.7-3.4-.7zm0-7c-.8 0-1.4.3-1.9.8s-.8 1.1-.8 1.9.2 1.4.8 1.9 1.1.8 1.9.8 1.4-.2 1.9-.8.8-1.1.8-1.9-.2-1.4-.8-1.9-1.2-.8-1.9-.8zm5.3 0v.9h7.1v-.9h-7.1zm0 1.8v.9h7.1v-.9h-7.1zm0 1.7v.9h6.2v-.9h-6.2z"/></g><g class="st8"><path class="st9" d="M318.1 286.2c.5 0 .9.2 1.2.5.3.3.5.8.5 1.2v8.9c0 .5-.2.9-.5 1.2-.3.3-.7.5-1.2.5h-10.7c-.5 0-.9-.2-1.2-.5s-.5-.8-.5-1.2v-8.9c0-.5.2-.9.5-1.2s.8-.5 1.2-.5h.9v-1.8c0-1.2.5-2.3 1.3-3.1.8-.8 1.9-1.3 3.1-1.3 1.2 0 2.3.5 3.1 1.3.8.8 1.3 1.9 1.3 3.1v1.8h1zm-5.3-4.5c-.8 0-1.4.3-1.9.8s-.8 1.1-.8 1.9v1.8h5.3v-1.8c0-.8-.3-1.4-.8-1.9s-1.1-.7-1.8-.8zm0 12.5c.5 0 .9-.2 1.2-.5.3-.3.5-.8.5-1.2 0-.5-.2-.9-.5-1.2-.3-.3-.8-.5-1.2-.5s-.9.2-1.2.5c-.3.3-.5.8-.5 1.2 0 .5.2.9.5 1.2.2.3.7.5 1.2.5z"/></g><g class="st8"><path class="st9" d="M223.9 285c1.3 1.2 1.9 1.9 1.9 2 .1.3.1.6-.2.8-.1.1-.3.1-.4 0-.1 0-.2-.1-.3-.2 0-.1-.5-.7-1.6-1.8-1.1-1-2.8-1.7-5.2-1.9-2.3.1-4.1.7-5.2 1.8-1.1 1.1-1.7 1.7-1.7 1.9-.2.3-.5.3-.8.2-.1-.1-.2-.2-.2-.3 0-.1 0-.3.1-.4 0-.2.6-.9 1.9-2.1 1.3-1.2 3.3-1.9 5.9-2.1 2.6.2 4.6.9 5.8 2.1zm-4.2.3c.8.2 1.5.5 2.2.9.7.4 1.3 1 1.8 1.6.5.6.9 1.3 1.1 2 .3.7.4 1.4.4 2.1 0 .7-.2 1.3-.5 1.8s-.8.9-1.3 1.1-1.1.2-1.7.1c-.6-.1-1-.4-1.4-.9-.4-.5-.6-1.1-.6-1.8 0-.5-.2-.9-.5-1.1-.3-.2-.6-.4-1-.4s-.7 0-1.1.2c-.3.2-.5.5-.7.9-.2 1 0 2.2.6 3.4.7 1.2 1.9 2.2 3.6 2.7.2.1.3.2.4.3.1.1.1.3 0 .4-.1.2-.1.3-.3.3-.1.1-.3.1-.4 0-2-.7-3.4-1.8-4.2-3.2-.8-1.5-1.1-2.9-.7-4.2.2-.7.6-1.2 1.2-1.6.6-.3 1.2-.4 1.8-.4.6.1 1.2.3 1.7.8s.7 1.1.8 1.8c0 .5.1.9.4 1.1.2.3.5.4.9.5.3.1.7.1 1 0 .3-.1.6-.3.8-.6s.3-.7.3-1.2-.1-1.1-.3-1.7c-.2-.6-.5-1.2-1-1.8-.4-.6-.9-1-1.5-1.4-1.2-.7-2.5-1-3.8-.9-1.3.1-2.4.5-3.4 1.3-.9.8-1.6 1.8-2 3.1-.4 1.3-.3 3 .4 5 .1.1 0 .3 0 .4l-.3.3h-.4c-.1 0-.2-.2-.3-.3-.7-2.2-.8-4-.4-5.6.5-1.6 1.2-2.8 2.3-3.6.6-.5 1.2-.8 1.9-1.1s1.4-.4 2.1-.5c.6 0 1.4 0 2.1.2zm-.6-4.7c1.3.1 2.7.6 4.2 1.3.1.1.2.2.3.4.1.2 0 .3 0 .4s-.2.2-.4.2-.3 0-.4-.1c-2.8-1.2-5-1.6-6.7-1.1-1.7.5-2.6.9-2.6 1.1-.3.2-.6.1-.8-.2-.1-.1-.1-.2-.1-.4s.1-.3.2-.4c0-.1.5-.3 1.4-.7.9-.4 2.1-.6 3.6-.7.4.2.8.2 1.3.2zm.2 6.9c1.1.3 1.9.9 2.6 1.7.7.9 1 1.9 1 3.2-.1.4-.2.6-.6.6-.2 0-.3-.1-.4-.2-.1-.1-.1-.2-.1-.4 0-1-.3-1.9-.8-2.5-.6-.7-1.2-1.1-2-1.4-.8-.2-1.6-.2-2.4.1-.8.3-1.4.9-1.9 1.8s-.7 1.8-.6 2.7c.1.9.3 1.7.7 2.4s.7 1.3 1.1 1.8c.4.4.6.7.6.7.2.3.2.5 0 .8-.1.1-.2.2-.4.1-.1 0-.3-.1-.4-.2-.1 0-.3-.2-.7-.7-.4-.5-.8-1.1-1.2-2s-.7-1.8-.8-2.8c-.1-1.1.1-2.1.6-3.2.5-.9 1.1-1.5 1.8-1.9.7-.4 1.5-.6 2.3-.6.6-.2 1.1-.2 1.6 0zm-.9 4.4c.1.1.1.2.1.4 0 0 0 .2.1.7.1.4.2.9.5 1.4.3.5.7.9 1.3 1.3s1.5.5 2.7.4c.4 0 .6.2.6.5 0 .2 0 .3-.1.4-.1.1-.2.2-.4.2-1.4.1-2.5-.1-3.3-.5-.8-.5-1.4-1-1.8-1.7-.4-.7-.6-1.3-.7-1.8-.1-.5-.1-.8-.1-.8 0-.2 0-.3.1-.4.1-.1.2-.2.4-.2.3-.1.5 0 .6.1z"/></g><g class="st8"><path class="st9" d="M318.8 192.8c1.3 1.2 1.9 1.9 1.9 2 .1.3.1.6-.2.8-.1.1-.3.1-.4 0-.1 0-.2-.1-.3-.2 0-.1-.5-.7-1.6-1.8-1.1-1-2.8-1.7-5.2-1.9-2.3.1-4.1.7-5.2 1.8-1.1 1.1-1.7 1.7-1.7 1.9-.2.3-.5.3-.8.2-.1-.1-.2-.2-.2-.3 0-.1 0-.3.1-.4 0-.2.6-.9 1.9-2.1 1.3-1.2 3.3-1.9 5.9-2.1 2.6.2 4.5.9 5.8 2.1zm-4.2.3c.8.2 1.5.5 2.2.9.7.4 1.3 1 1.8 1.6.5.6.9 1.3 1.1 2 .3.7.4 1.4.4 2.1 0 .7-.2 1.3-.5 1.8s-.8.9-1.3 1.1c-.5.2-1.1.2-1.7.1s-1-.4-1.4-.9c-.4-.5-.6-1.1-.6-1.8 0-.5-.2-.9-.5-1.1-.3-.2-.6-.4-1-.4s-.7 0-1.1.2c-.3.2-.5.5-.7.9-.2 1 0 2.2.6 3.4s1.9 2.2 3.6 2.7c.2.1.3.2.4.3.1.1.1.3 0 .4-.1.2-.1.3-.3.3-.1.1-.3.1-.4 0-2-.7-3.4-1.8-4.2-3.2-.8-1.5-1.1-2.9-.7-4.2.2-.7.6-1.2 1.2-1.6s1.2-.4 1.8-.4 1.2.3 1.7.8.7 1.1.8 1.8c0 .5.1.9.4 1.1.2.3.5.4.9.5.3.1.7.1 1 0 .3-.1.6-.3.8-.6s.3-.7.3-1.2-.1-1.1-.3-1.7-.5-1.2-1-1.8c-.4-.6-.9-1-1.5-1.4-1.2-.7-2.5-1-3.8-.9-1.3.1-2.4.5-3.4 1.3s-1.6 1.8-2 3.1c-.4 1.3-.3 3 .4 5 .1.1 0 .3 0 .4l-.3.3h-.4c-.1 0-.2-.2-.3-.3-.7-2.2-.8-4-.4-5.6s1.2-2.8 2.3-3.6c.6-.5 1.2-.8 1.9-1.1s1.4-.4 2.1-.5c.6-.1 1.3 0 2.1.2zm-.6-4.7c1.3.1 2.7.6 4.2 1.3.1.1.2.2.3.4.1.2 0 .3 0 .4-.1.1-.2.2-.4.2s-.3 0-.4-.1c-2.8-1.2-5-1.6-6.7-1.1-1.7.5-2.6.9-2.6 1.1-.3.2-.6.1-.8-.2-.1-.1-.1-.2-.1-.4s.1-.3.2-.4c0-.1.5-.3 1.4-.7.9-.4 2.1-.6 3.6-.7.3.2.8.2 1.3.2zm.2 6.8c1.1.3 1.9.9 2.6 1.7.7.9 1 1.9 1 3.2-.1.4-.2.6-.6.6-.2 0-.3-.1-.4-.2-.1-.1-.1-.2-.1-.4 0-1-.3-1.9-.8-2.5-.6-.7-1.2-1.1-2-1.4-.8-.2-1.6-.2-2.4.1-.8.3-1.4.9-1.9 1.8s-.7 1.8-.6 2.7c.1.9.3 1.7.7 2.4s.7 1.3 1.1 1.8c.4.4.6.7.6.7.2.3.2.5 0 .8-.1.1-.2.2-.4.1-.1 0-.3-.1-.4-.2-.1 0-.3-.2-.7-.7-.4-.5-.8-1.1-1.2-2-.4-.8-.7-1.8-.8-2.8-.1-1.1.1-2.1.6-3.2.5-.9 1.1-1.5 1.8-1.9.7-.4 1.5-.6 2.3-.6.6-.2 1.1-.1 1.6 0zm-1 4.5c.1.1.1.2.1.4 0 0 0 .2.1.7.1.4.2.9.5 1.4.3.5.7.9 1.3 1.3.6.3 1.5.5 2.7.4.4 0 .6.2.6.5 0 .2 0 .3-.1.4-.1.1-.2.2-.4.2-1.4.1-2.5-.1-3.3-.5-.8-.5-1.4-1-1.8-1.7-.4-.7-.6-1.3-.7-1.8-.1-.5-.1-.8-.1-.8 0-.2 0-.3.1-.4s.2-.2.4-.2c.4-.1.5-.1.6.1z"/></g><path class="st9" d="M136.1 131.8h213.8v40H136.1z"/><g class="st8"><path class="st2" d="M304.8 141.9H319c.2 0 .5.1.6.3.2.2.3.4.3.6v3.5c0 .2-.1.5-.3.6-.2.2-.4.2-.6.2h-14.2c-.2 0-.5-.1-.6-.2-.2-.2-.2-.4-.2-.6v-3.5c0-.2.1-.5.2-.6.1-.2.3-.3.6-.3zm0 7.1H319c.2 0 .5.1.6.2.2.2.3.4.3.6v.6l-2.2-1-5.7 2.5v2.3h-7.1c-.2 0-.5-.1-.6-.2-.2-.2-.2-.4-.2-.6v-3.6c0-.2.1-.5.2-.6 0-.1.2-.2.5-.2zm0 7.1h7.1c0 1 .2 2 .6 2.9.4.9.9 1.7 1.5 2.5h-9.3c-.2 0-.5-.1-.6-.3-.2-.2-.2-.4-.2-.6V157c0-.2.1-.5.2-.6.2-.2.4-.3.7-.3zm.8-12.5v1.8h1.8v-1.8h-1.8zm0 7.2v1.8h1.8v-1.8h-1.8zm0 7v1.8h1.8v-1.8h-1.8zm3.6-12.4h.9v-1.8h-.9v1.8zm0 7.1h.9v-1.8h-.9v1.8zm0 7.1h.9v-1.8h-.9v1.8zm8.4-8l4 1.8v2.7c0 1.2-.4 2.4-1.1 3.4-.7 1-1.7 1.6-2.9 2-1.2-.3-2.1-1-2.9-2-.7-1-1.1-2.1-1.1-3.4v-2.7l4-1.8zm0 1.7l-2.2 1v2.4c0 .7.2 1.3.6 1.9.4.6.9.9 1.6 1.1v-6.4z"/></g><g class="st8"><path class="st2" d="M257.3 141.9h14.2c.2 0 .5.1.6.3.2.2.3.4.3.6v3.5c0 .2-.1.5-.3.6-.2.2-.4.2-.6.2h-14.2c-.2 0-.5-.1-.6-.2-.2-.2-.2-.4-.2-.6v-3.5c0-.2.1-.5.2-.6.2-.2.4-.3.6-.3zm0 7.1h14.2c.2 0 .5.1.6.2s.3.4.3.6v.6l-2.2-1-5.7 2.5v2.3h-7.1c-.2 0-.5-.1-.6-.2-.2-.2-.2-.4-.2-.6v-3.6c0-.2.1-.5.2-.6s.3-.2.5-.2zm0 7.1h7.1c0 1 .2 2 .6 2.9.4.9.9 1.7 1.5 2.5h-9.3c-.2 0-.5-.1-.6-.3-.2-.2-.2-.4-.2-.6V157c0-.2.1-.5.2-.6.3-.2.5-.3.7-.3zm.9-12.5v1.8h1.8v-1.8h-1.8zm0 7.2v1.8h1.8v-1.8h-1.8zm0 7v1.8h1.8v-1.8h-1.8zm3.6-12.4h.9v-1.8h-.9v1.8zm0 7.1h.9v-1.8h-.9v1.8zm0 7.1h.9v-1.8h-.9v1.8zm8.4-8l4 1.8v2.7c0 1.2-.4 2.4-1.1 3.4-.7 1-1.7 1.6-2.9 2-1.2-.3-2.1-1-2.9-2-.7-1-1.1-2.1-1.1-3.4v-2.7l4-1.8zm0 1.7l-2.2 1v2.4c0 .7.2 1.3.6 1.9.4.6.9.9 1.6 1.1v-6.4z"/></g><g class="st8"><path class="st2" d="M209.9 141.9h14.2c.2 0 .5.1.6.3.2.2.3.4.3.6v3.5c0 .2-.1.5-.3.6-.2.2-.4.2-.6.2h-14.2c-.2 0-.5-.1-.6-.2-.2-.2-.2-.4-.2-.6v-3.5c0-.2.1-.5.2-.6.1-.2.3-.3.6-.3zm0 7.1h14.2c.2 0 .5.1.6.2.2.2.3.4.3.6v.6l-2.2-1-5.8 2.6v2.3h-7.1c-.2 0-.5-.1-.6-.2-.2-.2-.2-.4-.2-.6v-3.6c0-.2.1-.5.2-.6.1-.2.3-.3.6-.3zm0 7.1h7.1c0 1 .2 2 .6 2.9.4.9.9 1.7 1.5 2.5h-9.3c-.2 0-.5-.1-.6-.3-.2-.2-.2-.4-.2-.6V157c0-.2.1-.5.2-.6.2-.2.4-.3.7-.3zm.9-12.5v1.8h1.8v-1.8h-1.8zm0 7.2v1.8h1.8v-1.8h-1.8zm0 7v1.8h1.8v-1.8h-1.8zm3.6-12.4h.9v-1.8h-.9v1.8zm0 7.1h.9v-1.8h-.9v1.8zm0 7.1h.9v-1.8h-.9v1.8zm8.4-8l4 1.8v2.7c0 1.2-.4 2.4-1.1 3.4-.7 1-1.7 1.6-2.9 2-1.2-.3-2.1-1-2.9-2-.7-1-1.1-2.1-1.1-3.4v-2.7l4-1.8zm0 1.7l-2.2 1v2.4c0 .7.2 1.3.6 1.9s.9.9 1.6 1.1v-6.4z"/></g><g class="st8"><path class="st2" d="M162.5 141.9h14.2c.2 0 .5.1.6.3.2.2.3.4.3.6v3.5c0 .2-.1.5-.3.6-.2.2-.4.2-.6.2h-14.2c-.2 0-.5-.1-.6-.2-.2-.2-.2-.4-.2-.6v-3.5c0-.2.1-.5.2-.6.1-.2.3-.3.6-.3zm0 7.1h14.2c.2 0 .5.1.6.2.2.2.3.4.3.6v.6l-2.2-1-5.7 2.5v2.3h-7.1c-.2 0-.5-.1-.6-.2-.2-.2-.2-.4-.2-.6v-3.6c0-.2.1-.5.2-.6 0-.1.2-.2.5-.2zm0 7.1h7.1c0 1 .2 2 .6 2.9.4.9.9 1.7 1.5 2.5h-9.3c-.2 0-.5-.1-.6-.3-.2-.2-.2-.4-.2-.6V157c0-.2.1-.5.2-.6.2-.2.4-.3.7-.3zm.8-12.5v1.8h1.8v-1.8h-1.8zm0 7.2v1.8h1.8v-1.8h-1.8zm0 7v1.8h1.8v-1.8h-1.8zm3.6-12.4h.9v-1.8h-.9v1.8zm0 7.1h.9v-1.8h-.9v1.8zm0 7.1h.9v-1.8h-.9v1.8zm8.4-8l4 1.8v2.7c0 1.2-.4 2.4-1.1 3.4-.7 1-1.7 1.6-2.9 2-1.2-.3-2.1-1-2.9-2-.7-1-1.1-2.1-1.1-3.4v-2.7l4-1.8zm0 1.7l-2.2 1v2.4c0 .7.2 1.3.6 1.9s.9.9 1.6 1.1v-6.4z"/></g><path class="st11" d="M194.3 198.3h3.5m44.2 0h3.4m43.4 0h3.5m-98 90.9h3.5m-27.4-23.5v-3.5m0-42.7V216m141-42.1v-3.5M242 289.2h3.4m43.4 0h3.5"/><linearGradient id="SVGID_3_" gradientUnits="userSpaceOnUse" x1="91" y1="6.78" x2="401" y2="6.78" gradientTransform="matrix(1 0 0 -1 0 342)"><stop offset="0" stop-color="#fff"/><stop offset=".04" stop-color="#ddd"/><stop offset=".96" stop-color="#ddd"/><stop offset="1" stop-color="#fff"/></linearGradient><path class="st13" d="M401 335.2H91"/><g class="st8"><path class="st14" d="M328 316.1h-8.3v-3h6.1l3.4-5.7c.5-.9 1.4-1.4 2.5-1.4.3 0 .5.1.8.2l9.2 2.9v8.8h-3v-6.3l-3.6-1.1 6.6 26.1h-3l-4.9-13.8-3.9 5.3v8.4h-3.1v-10.8l4.2-7.7-1.2-4.9-1.8 3zm.2-10.6c-.8 0-1.6-.3-2.2-.9-.6-.6-.9-1.3-.9-2.2 0-.9.3-1.6.9-2.2.6-.6 1.3-.8 2.2-.8.9 0 1.6.3 2.2.8.6.6.8 1.3.8 2.2 0 .9-.3 1.6-.8 2.2-.6.6-1.3.9-2.2.9z"/></g></g></g></svg>