<svg id="Layer_1" xmlns="http://www.w3.org/2000/svg" viewBox="0 0 467.4 413.1"><style>.st0{opacity:0}.st1{fill:#a4a4a4}.st2{opacity:.1}.st3{opacity:.2}.st4{opacity:.3}.st5{opacity:.4}.st6{opacity:.5}.st7{opacity:.6}.st8{opacity:.7}.st9{opacity:.8}.st10{opacity:.9}.st11{fill:#5e5e5e}.st12{fill:#0af}.st13{fill:#fff}</style><title>web-application-firewall</title><g class="st0"><path class="st1" d="M334.9 413.1c-.3 0-.5-.2-.5-.5s.2-.5.5-.5c10.8 0 20.8-5.8 26.2-15.1l101.2-175.3c5.4-9.4 5.4-20.9 0-30.2l-16.6-28.7c-.1-.2 0-.5.2-.7.2-.1.5-.1.7.2l16.6 28.7c5.6 9.7 5.6 21.6 0 31.2L362 397.5c-5.6 9.7-15.9 15.6-27.1 15.6zm-202.4 0c-11.2 0-21.5-6-27.1-15.6L43.8 290.8c-.1-.2-.1-.5.2-.7.2-.1.5-.1.7.2L106.3 397c5.4 9.3 15.4 15.1 26.2 15.1.3 0 .5.2.5.5s-.3.5-.5.5zM19.2 247.8c-.2 0-.3-.1-.4-.2L4.2 222.2c-5.6-9.7-5.6-21.6 0-31.2L105.4 15.6C111 6 121.3 0 132.5 0h3.9c.3 0 .5.2.5.5s-.3.5-.5.5h-3.9c-10.8 0-20.8 5.8-26.2 15.1L5.1 191.4c-5.4 9.4-5.4 20.9 0 30.2L19.7 247c.1.2 0 .5-.2.7-.1 0-.2.1-.3.1zm402-128.1c-.2 0-.3-.1-.4-.2L361.1 16.1C355.7 6.8 345.7 1 334.9 1H186.4c-.3 0-.5-.2-.5-.5s.2-.5.5-.5h148.5c11.2 0 21.5 6 27.1 15.6l59.6 103.3c.1.2.1.5-.2.7 0 0-.1.1-.2.1z"/></g><g class="st2"><path class="st1" d="M326.9 396.7H140.5c-10.3 0-19.8-5.5-24.9-14.4L22.4 221c-5.1-8.9-5.1-19.9 0-28.8l.3-.5c.1-.3.4-.4.7-.2s.4.4.2.7c0 0 0 .1-.1.1l-.3.5c-5 8.6-5 19.2 0 27.8L116.4 382c5 8.6 14.1 13.9 24.1 13.9h186.3c9.9 0 19.1-5.3 24.1-13.9l30-52c.1-.3.4-.4.7-.2s.4.4.2.7c0 0 0 .1-.1.1l-30 52c-5.1 8.7-14.6 14.1-24.8 14.1zm91.4-130.1c-.1 0-.2 0-.2-.1-.2-.1-.3-.4-.2-.7l26.2-45.4c5-8.6 5-19.2 0-27.8L350.9 31.3c-1.2-2.2-2.8-4.1-4.5-5.9-.2-.2-.2-.5 0-.7.2-.2.5-.2.7 0 1.8 1.8 3.4 3.9 4.7 6.1L445 192.2c5.1 8.9 5.1 19.9 0 28.8l-26.2 45.4c-.1.1-.3.2-.5.2zM60.1 128.4c-.1 0-.2 0-.2-.1-.2-.1-.3-.4-.2-.7l55.9-96.9c5.2-8.9 14.7-14.4 24.9-14.4H275c.3 0 .5.2.5.5s-.2.5-.5.5H140.5c-9.9 0-19.1 5.3-24.1 13.9l-55.9 96.9c-.1.2-.3.3-.4.3z"/></g><g class="st3"><path class="st1" d="M318.8 380.4H148.6c-9.4 0-18.1-5-22.8-13.2l-27.3-47.3c-.1-.2-.1-.5.2-.7.2-.1.5-.1.7.2l27.3 47.3c4.5 7.8 12.9 12.7 22 12.7h170.2c9.1 0 17.5-4.8 22-12.7l53.7-93.1c.2-.2.5-.3.7-.1.2.1.3.4.2.6l-53.7 93.1c-4.9 8.1-13.6 13.2-23 13.2zm-268.9-145c-.2 0-.3-.1-.4-.2l-8.9-15.4c-4.7-8.2-4.7-18.2 0-26.4L125.7 46c4.7-8.1 13.4-13.2 22.8-13.2h9.8c.3 0 .5.2.5.5s-.2.5-.5.5h-9.8c-9.1 0-17.4 4.8-22 12.7l-85 147.4c-4.5 7.8-4.5 17.5 0 25.4l8.9 15.4c.1.2.1.5-.2.7h-.3zm372.4-48.2c-.2 0-.3-.1-.4-.2L340.8 46.4c-4.6-7.8-12.9-12.7-22-12.7h-62.6c-.3 0-.5-.2-.5-.5s.2-.5.5-.5h62.6c9.4 0 18.1 5 22.8 13.2l81.1 140.6c.1.2.1.5-.2.7h-.2z"/></g><g class="st4"><path class="st1" d="M310.8 364H156.6c-8 0-15.4-4-19.9-10.6-.2-.2-.1-.5.1-.7.2-.2.5-.1.7.1 4.2 6.3 11.4 10.1 19 10.1h154.2c8.2 0 15.7-4.4 19.9-11.5l24.7-42.7c.1-.2.4-.3.7-.2.2.1.3.4.2.7L331.5 352c-4.3 7.4-12.2 12-20.7 12zM76.3 248.2c-.2 0-.3-.1-.4-.2l-17-29.5c-4.3-7.4-4.3-16.5 0-23.9L136 61.1c2.6-4.5 6.7-8.1 11.5-10.1.3-.1.6 0 .7.3s0 .6-.3.7c-4.6 1.9-8.5 5.3-11.1 9.7L59.7 195.1c-4.1 7.1-4.1 15.8 0 22.9l17 29.5c.1.2.1.5-.2.7h-.2zm334.5-45.7c-.2 0-.4-.2-.5-.4-.5-2.5-1.4-4.8-2.6-7L330.6 61.6c-4.1-7.1-11.7-11.4-19.9-11.5H269c-.3 0-.5-.2-.5-.5s.2-.5.5-.5h41.7c8.6 0 16.4 4.6 20.7 12l77.1 133.5c1.3 2.3 2.2 4.7 2.8 7.3 0 .3-.1.6-.5.6z"/></g><g class="st5"><path class="st1" d="M302.7 347.6H164.6c-7.7 0-14.8-4.1-18.6-10.7l-22-38.1c-.1-.2 0-.5.2-.7.2-.1.5-.1.7.2l22 38.1c3.7 6.3 10.4 10.2 17.7 10.2h138.1c.3 0 .5.2.5.5s-.2.5-.5.5zm35.7-40.8c-.1 0-.2 0-.2-.1-.2-.1-.3-.4-.2-.7l51.5-89.3c3.7-6.3 3.7-14.1 0-20.5L350 128c-.1-.2-.1-.5.2-.7s.5-.1.7.2l39.5 68.4c3.8 6.6 3.8 14.8 0 21.5l-51.5 89.3c-.2.1-.4.1-.5.1zM92.2 171c-.1 0-.2 0-.2-.1-.2-.1-.3-.4-.2-.7l54.2-94c3.8-6.6 10.9-10.7 18.6-10.7h73.5c.3 0 .5.2.5.5s-.2.5-.5.5h-73.5c-7.3 0-14.1 3.9-17.7 10.2l-54.2 94c-.1.2-.3.3-.5.3z"/></g><g class="st6"><path class="st1" d="M294.7 331.2h-122c-6.8 0-13.1-3.6-16.5-9.5l-61-105.6c-1.3-2.3-2.2-4.9-2.4-7.6 0-.3.2-.5.4-.5.3 0 .5.2.5.4.3 2.5 1 5 2.3 7.2l61 105.6c3.2 5.6 9.2 9 15.6 9h122c6.4 0 12.4-3.4 15.6-9l19.3-33.5c.1-.2.4-.3.7-.2s.3.4.2.7l-19.3 33.5c-3.4 5.9-9.6 9.5-16.4 9.5zM338.3 140c-.2 0-.3-.1-.4-.2L310.3 92c-3.2-5.6-9.2-9-15.6-9H189.3c-.3 0-.5-.2-.5-.5s.2-.5.5-.5h105.4c6.8 0 13.1 3.6 16.5 9.5l27.6 47.8c.1.2 0 .5-.2.7h-.3z"/></g><g class="st7"><path class="st1" d="M286.6 314.8H180.8c-5.9 0-11.4-3.2-14.4-8.3l-10.3-17.9c-.1-.2-.1-.5.2-.7.2-.1.5 0 .7.2l10.3 17.9c2.8 4.8 7.9 7.8 13.5 7.8h105.9c5.6 0 10.7-3 13.5-7.8l16.6-28.8c.2-.2.5-.3.7-.1.2.1.3.4.2.6L301 306.5c-3 5.2-8.5 8.3-14.4 8.3zm-127-194.9c-.1 0-.2 0-.2-.1-.2-.1-.3-.4-.2-.7l7.3-12.6c3-5.1 8.4-8.3 14.4-8.3h105.9c5.9 0 11.4 3.2 14.4 8.3l1 1.7c.1.3 0 .5-.2.7-.2.1-.5 0-.6-.2l-1-1.7c-2.8-4.8-7.9-7.8-13.5-7.8H180.8c-5.6 0-10.7 3-13.5 7.8l-7.2 12.6c-.2.2-.4.3-.5.3z"/></g><g class="st8"><path class="st1" d="M278.6 298.5h-89.8c-.3 0-.5-.2-.5-.5s.2-.5.5-.5h89.8c4.7 0 9.1-2.5 11.4-6.6l14-24.2c.1-.2.4-.3.7-.2.2.1.3.4.2.7l-14 24.2c-2.6 4.4-7.3 7.1-12.3 7.1zM144.5 178.8c-.1 0-.2 0-.2-.1-.2-.1-.3-.4-.2-.7l32.5-56.3c2.5-4.4 7.2-7.1 12.2-7.1h52.7c.3 0 .5.2.5.5s-.2.5-.5.5h-52.7c-4.7 0-9 2.5-11.4 6.6l-32.5 56.3c-.1.2-.3.3-.4.3z"/></g><g class="st9"><path class="st1" d="M270.5 282.1h-73.7c-.3 0-.5-.2-.5-.5s.2-.5.5-.5h73.7c3.8 0 7.4-2 9.3-5.4l11.3-19.6c.1-.2.4-.3.7-.2.2.1.3.4.2.7l-11.3 19.6c-2.1 3.6-6 5.9-10.2 5.9zm-105.1-43.3c-.2 0-.3-.1-.4-.2l-15.1-26.1c-2.1-3.6-2.1-8.1 0-11.7l33.1-57.3c.1-.2.4-.3.7-.2s.3.4.2.7l-33.1 57.3c-1.9 3.3-1.9 7.4 0 10.7l15.1 26.1c.1.2 0 .5-.2.7-.2-.1-.3 0-.3 0z"/></g><g class="st10"><path class="st1" d="M262.5 265.7h-57.6c-3.3 0-6.3-1.8-8-4.6l-21.1-36.6c-.1-.2-.1-.5.2-.7.2-.1.6-.1.7.2l21.1 36.6c1.5 2.6 4.2 4.1 7.2 4.1h57.6c3 0 5.7-1.6 7.2-4.1l8.6-14.9c.2-.2.5-.3.7-.1.2.1.3.4.2.6l-8.6 14.9c-1.9 2.8-4.9 4.6-8.2 4.6z"/></g><path class="st1" d="M254.4 249.3h-41.5c-.3 0-.5-.2-.5-.5s.2-.5.5-.5h41.5c2.1 0 4-1.1 5-2.9l6-10.3c.1-.2.4-.3.7-.2s.3.4.2.7l-6 10.3c-1.2 2.1-3.4 3.4-5.9 3.4z"/><path class="st11" d="M218.1 59H251c.5 0 .9.3 1.3.6.3.3.5.8.5 1.3V81c0 .5-.2 1-.5 1.3-.3.3-.8.6-1.3.6h1.8l3.7 5.5v1.8h-43.8v-1.8l3.7-5.5h1.8c-.5 0-.9-.3-1.3-.6-.3-.3-.5-.8-.5-1.3V60.9c0-.5.2-.9.5-1.3.3-.3.7-.6 1.2-.6zm1.8 3.7v16.5h29.3V62.7h-29.3zm11.2 49.3V95.8c0-.6-.4-1-1-1s-1 .4-1 1V112h-1.9l2.9 10.8L233 112h-1.9zm9.1-5.4l-2.9-10.8-2.9 10.8h1.9v16.2c0 .6.4 1 1 1s1-.4 1-1v-16.2h1.9z"/><path class="st12" d="M231.1 138.2c0-.6-.4-1-1-1s-1 .4-1 1v16.2h-1.9l2.9 10.8 2.9-10.8h-1.9v-16.2zm9.1 10.8l-2.9-10.8-2.9 10.8h1.9v16.2c0 .6.4 1 1 1s1-.5 1-1V149h1.9zm9.3 89.9h-31.6c-2 0-3.8-1-4.7-2.7l-15.8-27.4c-1-1.7-1-3.8 0-5.5l15.8-27.4c1-1.7 2.8-2.7 4.7-2.7h31.6c2 0 3.8 1 4.7 2.7l15.8 27.4c1 1.7 1 3.8 0 5.5l-15.8 27.4c-1 1.6-2.8 2.6-4.7 2.7z"/><path class="st13" d="M220.6 189.2h24.9c.9.1 1.5.8 1.6 1.6v6.2c0 .4-.2.8-.5 1.1-.3.3-.7.4-1.1.4h-24.9c-.4 0-.8-.1-1.1-.4-.3-.3-.4-.7-.4-1.1v-6.2c0-.4.1-.8.4-1.1.3-.2.6-.4 1.1-.5zm0 12.5h24.9c.4 0 .8.1 1.1.4.3.3.5.7.5 1.1v1.1l-3.9-1.8-10.1 4.5v4h-12.5c-.4 0-.8-.1-1.1-.4-.3-.3-.4-.7-.4-1.1v-6.3c0-.4.2-.8.4-1.1.3-.2.7-.4 1.1-.4zm0 12.5h12.5c0 1.7.4 3.4 1.1 5 .7 1.6 1.6 3 2.7 4.3h-16.3c-.4 0-.8-.2-1.1-.5-.3-.3-.4-.6-.5-1v-6.2c0-.4.2-.8.4-1.1.3-.3.7-.5 1.2-.5zm1.5-21.8v3.1h3.1v-3.1h-3.1zm0 12.5v3.1h3.1v-3.1h-3.1zm0 12.4v3.1h3.1v-3.1h-3.1zm6.3-21.8h1.5v-3.1h-1.5v3.1zm0 12.5h1.5v-3.1h-1.5v3.1zm0 12.4h1.5v-3.1h-1.5v3.1zm14.7-14l7 3.1v4.7c0 2.1-.7 4.2-2 5.9-1.2 1.7-3 2.9-5 3.5-2-.6-3.8-1.8-5-3.5-1.3-1.7-2-3.8-2-5.9v-4.7l7-3.1zm0 3l-3.9 1.8v4.2c0 1.2.4 2.3 1.1 3.3.7.9 1.7 1.6 2.8 1.9v-11.2z"/><path class="st12" d="M269.8 282.1h-72.3c-4.8 0-9.3-2.6-11.7-6.8l-36.1-62.6c-2.4-4.2-2.4-9.3 0-13.5l36.1-62.6c2.4-4.2 6.9-6.8 11.7-6.8h72.3c4.8 0 9.3 2.6 11.7 6.8l36.1 62.6c2.4 4.2 2.4 9.3 0 13.5l-36.1 62.6c-2.4 4.2-6.9 6.8-11.7 6.8zm-72.2-150.2c-4.1 0-7.9 2.2-10 5.8l-36.1 62.6c-2 3.6-2 7.9 0 11.5l36.1 62.6c2.1 3.6 5.9 5.8 10 5.8h72.3c4.1 0 7.9-2.2 10-5.8l36.1-62.6c2-3.6 2-7.9 0-11.5l-36.1-62.6c-2.1-3.6-5.9-5.8-10-5.8h-72.3z"/></svg>