<svg width="497" height="448" viewBox="0 0 497 448" xmlns="http://www.w3.org/2000/svg" xmlns:xlink="http://www.w3.org/1999/xlink"><defs><rect id="b" x="85" width="158" height="152" rx="4"/><filter x="-33.2%" y="-24.7%" width="166.5%" height="169.1%" filterUnits="objectBoundingBox" id="a"><feOffset dy="15" in="SourceAlpha" result="shadowOffsetOuter1"/><feGaussianBlur stdDeviation="15" in="shadowOffsetOuter1" result="shadowBlurOuter1"/><feColorMatrix values="0 0 0 0 0.101960784 0 0 0 0 0.203921569 0 0 0 0 0.176470588 0 0 0 0.1 0" in="shadowBlurOuter1"/></filter><rect id="c" x="4.772" y="9.533" width="41.42" height="64.859" rx=".9"/><rect id="e" x="276" y="33" width="161" height="165" rx="4"/><filter x="-32.6%" y="-22.7%" width="165.2%" height="163.6%" filterUnits="objectBoundingBox" id="d"><feOffset dy="15" in="SourceAlpha" result="shadowOffsetOuter1"/><feGaussianBlur stdDeviation="15" in="shadowOffsetOuter1" result="shadowBlurOuter1"/><feColorMatrix values="0 0 0 0 0.101960784 0 0 0 0 0.203921569 0 0 0 0 0.176470588 0 0 0 0.1 0" in="shadowBlurOuter1"/></filter><rect id="g" y="151" width="161" height="165" rx="4"/><filter x="-32.6%" y="-22.7%" width="165.2%" height="163.6%" filterUnits="objectBoundingBox" id="f"><feOffset dy="15" in="SourceAlpha" result="shadowOffsetOuter1"/><feGaussianBlur stdDeviation="15" in="shadowOffsetOuter1" result="shadowBlurOuter1"/><feColorMatrix values="0 0 0 0 0.101960784 0 0 0 0 0.203921569 0 0 0 0 0.176470588 0 0 0 0.1 0" in="shadowBlurOuter1"/></filter><rect id="i" x="235" y="245" width="139" height="143" rx="4"/><filter x="-37.8%" y="-26.2%" width="175.5%" height="173.4%" filterUnits="objectBoundingBox" id="h"><feOffset dy="15" in="SourceAlpha" result="shadowOffsetOuter1"/><feGaussianBlur stdDeviation="15" in="shadowOffsetOuter1" result="shadowBlurOuter1"/><feColorMatrix values="0 0 0 0 0.101960784 0 0 0 0 0.203921569 0 0 0 0 0.176470588 0 0 0 0.1 0" in="shadowBlurOuter1"/></filter><rect id="k" x="125" y="125" width="171" height="165" rx="4"/><filter x="-30.7%" y="-22.7%" width="161.4%" height="163.6%" filterUnits="objectBoundingBox" id="j"><feOffset dy="15" in="SourceAlpha" result="shadowOffsetOuter1"/><feGaussianBlur stdDeviation="15" in="shadowOffsetOuter1" result="shadowBlurOuter1"/><feColorMatrix values="0 0 0 0 0.101960784 0 0 0 0 0.203921569 0 0 0 0 0.176470588 0 0 0 0.1 0" in="shadowBlurOuter1"/></filter></defs><g fill="none" fill-rule="evenodd"><g transform="translate(30 15)"><use fill="#000" filter="url(#a)" xlink:href="#b"/><use fill="#8CDBFE" xlink:href="#b"/></g><g transform="translate(168 51)"><path d="M6.267 0h38.73c3.462 0 6.268 2.475 6.268 5.527v79.81c0 3.052-2.807 5.526-6.267 5.526H6.267C2.806 90.863 0 88.388 0 85.336V5.526C0 2.475 2.806 0 6.267 0z" fill="#1AB8FD"/><ellipse fill="#8CDBFE" cx="25.571" cy="81.471" rx="4.262" ry="4.294"/><use fill="#8CDBFE" xlink:href="#c"/></g><g transform="translate(30 15)"><use fill="#000" filter="url(#d)" xlink:href="#e"/><use fill="#FFE5BC" xlink:href="#e"/></g><g transform="translate(30 15)"><use fill="#000" filter="url(#f)" xlink:href="#g"/><use fill="#BDF4D3" xlink:href="#g"/></g><g transform="translate(30 15)"><use fill="#000" filter="url(#h)" xlink:href="#i"/><use fill="#FFF" xlink:href="#i"/></g><path d="M359 91v76.642a4 4 0 0 0 4 4h53.74a4 4 0 0 0 4-4v-58.594L398.784 87H363a4 4 0 0 0-4 4z" fill="#FFBE58" fill-rule="nonzero"/><path d="M398.783 87l21.958 22.048h-17.958a4 4 0 0 1-4-4V87z" fill="#FFA313"/><g transform="translate(368 117.942)" fill-rule="nonzero" fill="#FFF"><rect x="23.859" y="21.02" width="20.215" height="4.096" rx="2.048"/><rect x=".007" y="21.02" width="20.215" height="4.096" rx="2.048"/><rect x=".007" y="10.779" width="44.474" height="4.096" rx="2.048"/><rect x=".007" y=".537" width="44.474" height="4.096" rx="2.048"/></g><path d="M382.424 335.576c0-11.262-9.173-20.424-20.45-20.424-.595 0-1.183.032-1.765.081C356.79 304.666 346.852 297 335.15 297c-13.42 0-24.52 10.081-26.122 23.059a18.107 18.107 0 0 0-1.98-.111c-9.952 0-18.048 8.087-18.048 18.026 0 9.94 8.096 18.026 18.047 18.026.274 0 .544-.009.815-.021V356h54.576v-.012c11.062-.248 19.986-9.305 19.986-20.412z" fill="#41D67C"/><path d="M328.402 358.966h13.637a1.62 1.62 0 0 0 1.62-1.62v-15.33h7.353a1.62 1.62 0 0 0 1.148-2.764l-15.791-15.86a1.62 1.62 0 0 0-2.296 0l-15.79 15.86a1.62 1.62 0 0 0 1.147 2.763h7.352v15.33c0 .895.726 1.62 1.62 1.62z" fill="#FFF" fill-rule="nonzero"/><g transform="translate(30 15)"><use fill="#000" filter="url(#j)" xlink:href="#k"/><use fill="#FFF" xlink:href="#k"/></g><g><rect width="67" height="23.165" rx="4" fill="#1AB6FB" transform="translate(208 178)"/><rect width="67" height="23.165" rx="4" transform="translate(208 206.911)" fill="#1AB6FB"/><rect width="67" height="23.165" rx="4" transform="translate(208 236.604)" fill="#1AB6FB"/><g fill="#FFF"><path d="M217.349 187.377h8.323v3.675h-8.323z"/><path d="M229.239 187.377h8.323v3.675h-8.323z"/></g><g fill="#FFF"><path d="M217.349 216.288h8.323v3.675h-8.323z"/><path d="M229.239 216.288h8.323v3.675h-8.323z"/></g><g fill="#FFF"><path d="M217.349 245.981h8.323v3.675h-8.323z"/><path d="M229.239 245.981h8.323v3.675h-8.323z"/></g></g><g><path d="M88 204h46.409a4 4 0 0 1 4 4v87.355H84V208a4 4 0 0 1 4-4z" fill="#41D57C"/><g fill="#BDF4D3"><path d="M89.593 216.18h43.73v8.12h-43.73z"/><path d="M89.593 227.346h43.73v8.12h-43.73z"/><path d="M89.593 238.512h43.73v8.12h-43.73z"/></g><path d="M89.593 260.843h43.73v18.271h-43.73z" fill="#BDF4D3"/><path d="M119.439 219.334h4.411v1.708h-4.411v-1.708zm5.637 0h4.411v1.708h-4.411v-1.708zm-5.637 11.165h4.411v1.709h-4.411v-1.709zm5.637 0h4.411v1.709h-4.411v-1.709zm-5.637 11.166h4.411v1.708h-4.411v-1.708zm5.637 0h4.411v1.708h-4.411v-1.708zm-2.18 26.443h2.827v3.996h-2.826v-3.996zm-20.461 1.599h7.222v1.198h-7.222v-1.198zm24.858-1.599h2.826v3.996h-2.826v-3.996zm-32.56 3.838c-.843 0-1.526-.68-1.526-1.52 0-.838.683-1.519 1.525-1.519.843 0 1.526.68 1.526 1.52 0 .838-.683 1.519-1.526 1.519zm4.305 0c-.842 0-1.525-.68-1.525-1.52 0-.838.683-1.519 1.525-1.519.843 0 1.526.68 1.526 1.52 0 .838-.683 1.519-1.526 1.519z" fill="#41D57C"/></g></g></svg>