<svg id="Layer_1" xmlns="http://www.w3.org/2000/svg" xmlns:xlink="http://www.w3.org/1999/xlink" viewBox="0 0 2560 912" enable-background="new 0 0 2560 912"><style>.st0{fill:none}.st1{stroke-width:1.5;stroke-miterlimit:10}.st1,.st2,.st3{fill:none;stroke:#fff}.st2{stroke-width:1.5;stroke-miterlimit:10;stroke-dasharray:19.4569,24.3211}.st3{stroke-linecap:round;stroke-linejoin:round}.st4,.st5{stroke-width:3}.st4{fill:none;stroke:#fff;stroke-linecap:round;stroke-linejoin:round}.st5{stroke-dasharray:0,8.681}.st5,.st6,.st7{fill:none;stroke:#fff;stroke-linecap:round;stroke-linejoin:round}.st6{stroke-miterlimit:10;stroke-width:1.5}.st7{stroke-width:3;stroke-dasharray:0,8.6859}.st8{fill:url(#SVGID_1_)}.st9{filter:url(#Adobe_OpacityMaskFilter)}.st10{fill:url(#SVGID_3_)}.st11{mask:url(#SVGID_2_);fill:url(#SVGID_5_)}</style><pattern y="912" width="312.7" height="180.4" patternUnits="userSpaceOnUse" id="SVGID_4_" viewBox="52.8 -271.4 312.7 180.4" overflow="visible"><path class="st0" d="M52.8-271.4h312.7V-91H52.8z"/><path class="st0" d="M52.9-271.4h312.7V-91H52.9z"/><path class="st1" d="M270.4-287l-9.2 15.5 9.2 15.7"/><path class="st2" d="M282.5-234.8l15.7 27.4"/><path class="st1" d="M304.4-196.9l9 15.7h18.1"/><path class="st2" d="M355.8-181.2h31.7"/><path class="st5" d="M361.2-263.9L315.6-185"/><path class="st6" d="M365.6-271.4l-52.2-90.2"/><path class="st1" d="M148.1-287l9 15.5h18"/><path class="st2" d="M199.4-271.5h31.7"/><path class="st1" d="M243.2-271.5h18l9.2-15.5"/><path class="st2" d="M43-181.2h31.8"/><path class="st1" d="M86.8-181.2h18.1l9-15.7"/><path class="st2" d="M126.1-217.9l15.8-27.3"/><path class="st1" d="M148.1-255.8l9-15.7-9-15.5"/><path class="st6" d="M52.9-271.4L.8-361.6"/><path class="st7" d="M61.5-271.4h91.3"/><path class="st1" d="M331.5-181.2h-18.1l-9 15.6"/><path class="st2" d="M292.2-144.6l-15.8 27.4"/><path class="st1" d="M270.4-106.7L261.2-91l9.2 15.6"/><path class="st2" d="M375.2-181.2h-31.5"/><path class="st6" d="M365.6-91l-52.2-90.2"/><path class="st1" d="M175.1-271.5h-18l-9 15.7"/><path class="st2" d="M135.8-234.8L120-207.4"/><path class="st1" d="M113.9-196.9l-9 15.7 9 15.6"/><path class="st2" d="M126.1-144.6l15.8 27.4"/><path class="st1" d="M148.1-106.7l9 15.7h18"/><path class="st2" d="M199.4-91h31.7"/><path class="st1" d="M243.2-91h18l9.2-15.7"/><path class="st2" d="M282.5-127.7l15.7-27.4"/><path class="st1" d="M304.4-165.6l9-15.6-9-15.7"/><path class="st2" d="M292.2-217.9l-15.8-27.3"/><path class="st1" d="M270.4-255.8l-9.2-15.7h-18"/><path class="st2" d="M218.8-271.5h-31.6"/><path class="st5" d="M204.8-173.7l-45.6 78.9"/><path class="st6" d="M209.1-181.2l-52-90.3"/><path class="st7" d="M217.8-181.2h91.3"/><path class="st1" d="M148.1-75.4l9-15.6-9-15.7"/><path class="st2" d="M135.8-127.7L120-155.1"/><path class="st1" d="M113.9-165.6l-9-15.6H86.8"/><path class="st2" d="M62.5-181.2H31"/><path class="st6" d="M52.9-91L.8-181.2"/><path class="st7" d="M61.5-91h91.3"/><path class="st1" d="M175.1-91h-18l-9 15.6m122.3 0L261.2-91h-18"/><path class="st2" d="M218.8-91h-31.6"/><path class="st6" d="M209.1-.8l-52-90.2"/></pattern><linearGradient id="SVGID_1_" gradientUnits="userSpaceOnUse" x1="854.559" y1="881.441" x2="1712.098" y2="23.902" gradientTransform="matrix(1 0 0 -1 0 912)"><stop offset="0" stop-color="#FFF"/><stop offset="1" stop-color="#D2D2D2"/></linearGradient><path class="st8" d="M0 0h2560v912H0z"/><defs><filter id="Adobe_OpacityMaskFilter" filterUnits="userSpaceOnUse" x="0" y="0" width="2560" height="912"><feColorMatrix values="1 0 0 0 0 0 1 0 0 0 0 0 1 0 0 0 0 0 1 0"/></filter></defs><mask maskUnits="userSpaceOnUse" x="0" y="0" width="2560" height="912" id="SVGID_2_"><g class="st9"><linearGradient id="SVGID_3_" gradientUnits="userSpaceOnUse" x1="1280" x2="1280" y2="912" gradientTransform="matrix(1 0 0 -1 0 912)"><stop offset="0" stop-color="#FFF"/><stop offset="1"/></linearGradient><path class="st10" d="M0 0h2560v912H0z"/></g></mask><pattern id="SVGID_5_" xlink:href="#SVGID_4_" patternTransform="rotate(-15 -37188.523 9530.19) scale(.5)" mask="url(#SVGID_2_)"/><path class="st11" d="M0 0h2560v912H0z"/><path class="st0" d="M0 0h2560v912H0z"/></svg>