<svg id="Layer_1" xmlns="http://www.w3.org/2000/svg" viewBox="0 0 459.9 336.8"><style>.st0{fill:#ebebeb}.st0,.st1{stroke:#fff;stroke-miterlimit:10}.st1,.st2{fill:#e5e5e5}.st3{fill:#91daff}.st4{fill:none;stroke:#5e5e5e;stroke-linecap:round;stroke-linejoin:round;stroke-dasharray:4,7}.st5{enable-background:new}.st6{fill:#fff}.st10,.st7,.st8,.st9{fill:none;stroke:#fff;stroke-width:2;stroke-linecap:round;stroke-linejoin:round}.st8{stroke-dasharray:0,6.07}.st9{stroke-dasharray:0,6.15}.st10{stroke-dasharray:0,5.86}.st11,.st12,.st13{stroke:#5e5e5e}.st11,.st12,.st13,.st14,.st15,.st16,.st17,.st18,.st19,.st20,.st21{fill:none;stroke-width:2;stroke-linecap:round;stroke-linejoin:round}.st12{stroke-dasharray:0,5.99}.st13{stroke-dasharray:0,6.06}.st14{stroke-dasharray:0,5.37}.st14,.st15,.st16{stroke:#fff}.st15{stroke-dasharray:0,6.16}.st16{stroke-dasharray:0,6.06}.st17,.st18{stroke:#5e5e5e;stroke-dasharray:0,6.08}.st18{stroke-dasharray:0,5.92}.st19{stroke-dasharray:0,6.11}.st19,.st20,.st21{stroke:#fff}.st20{stroke-dasharray:0,5.82}.st21{stroke-dasharray:0,5.96}.st22{fill:#0af}.st23{fill:#5e5e5e}.st24,.st25{fill:none;stroke:#5e5e5e;stroke-width:2;stroke-linecap:round;stroke-linejoin:round;stroke-dasharray:0,6.1}.st25{stroke-dasharray:0,6.01}.st26,.st27{fill:none;stroke:url(#SVGID_1_);stroke-miterlimit:10}.st27{fill:#5e5e5e;stroke:#fff}</style><title>Asset 11</title><g id="Layer_2_1_"><g id="Layer_1-2"><path class="st0" d="M14.8 57.2h326c5.2 0 9.3 4.2 9.3 9.3v195.4H5.4V66.5c0-5.1 4.2-9.3 9.4-9.3z"/><path class="st1" d="M5.4 261.9h344.7v24.9c0 5.2-4.2 9.3-9.3 9.3h-326c-5.2 0-9.3-4.2-9.3-9.3l-.1-24.9z"/><path class="st0" d="M210 331.9l-3.4-35.7H149l-3.4 35.7-9.3 1.5c-.5.1-.8 1.5-.8 2s.4 1 .9 1H219c.6 0 1-.4 1-1 0-.5-.4-1.9-.8-2l-9.2-1.5z"/><path class="st2" d="M207.1 302.4l-.6-6.2H149l-.6 6.2z"/><path class="st3" d="M18.1 69.9h319.3v179.3H18.1z"/><path class="st4" d="M396.9 41.1c23.6 40.3 36 86.2 35.9 132.9 0 3.7-.1 7.3-.2 10.9"/><circle class="st0" cx="428.9" cy="129.7" r="30.5"/><g class="st5"><path class="st6" d="M441.6 125.1h-3.3c.1.5.1 1.1.1 1.6v1.6h3.2v3.2h-3.2v1.6c0 .5 0 1.1-.1 1.6h3.3v3.2h-4.5c-.8 1.4-2 2.6-3.4 3.5-1.4.9-3 1.3-4.8 1.3s-3.4-.4-4.8-1.3-2.6-2-3.4-3.5h-4.5v-3.2h3.3c-.1-.5-.1-1-.1-1.6v-1.6h-3.2v-3.2h3.2v-1.6c0-.5 0-1.1.1-1.6h-3.3V122h4.5c.7-1.3 1.7-2.3 2.9-3.1l-2.6-2.6 2.2-2.2 3.5 3.4c.7-.1 1.4-.2 2.2-.2.8 0 1.5.1 2.2.2l3.5-3.4 2.2 2.2-2.6 2.6c1.2.8 2.2 1.8 2.9 3.1h4.5v3.1zm-9.5 0h-6.4v3.2h6.4v-3.2zm0 6.4h-6.4v3.1h6.4v-3.1z"/></g><circle class="st0" cx="396.6" cy="40.8" r="30.5"/><g class="st5"><path class="st6" d="M409.3 36.2H406c.1.5.1 1.1.1 1.6v1.6h3.2v3.2h-3.2v1.6c0 .5 0 1.1-.1 1.6h3.3V49h-4.5c-.8 1.4-2 2.6-3.4 3.5-1.4.9-3 1.3-4.8 1.3s-3.4-.4-4.8-1.3-2.6-2-3.4-3.5H384v-3.2h3.3c-.1-.5-.1-1-.1-1.6v-1.6H384v-3.2h3.2v-1.6c0-.5 0-1.1.1-1.6H384v-3.1h4.5c.7-1.3 1.7-2.3 2.9-3.1l-2.6-2.6 2.2-2.2 3.5 3.4c.7-.1 1.4-.2 2.2-.2.8 0 1.5.1 2.2.2l3.5-3.4 2.2 2.2L402 30c1.2.8 2.2 1.8 2.9 3.1h4.5v3.1zm-9.5 0h-6.4v3.2h6.4v-3.2zm0 6.4h-6.4v3.1h6.4v-3.1z"/></g><path class="st8" d="M105.6 186.9l-67.4 18.2"/><path class="st9" d="M97.3 198.1L53 210.8"/><path class="st10" d="M87.9 209.8l-25.2 7.5"/><path class="st12" d="M121.5 186.1l-72.9 83.6"/><path class="st13" d="M125.9 193.4l-69.7 80m74.1-72.9l-69.7 80"/><path class="st14" d="M228 204.5l7.1 17.4"/><path class="st15" d="M235.9 206.8l8.1 20"/><path class="st16" d="M243.2 208.5l10.2 25.3"/><path class="st17" d="M229.2 193.7l159 26.9"/><path class="st18" d="M232.9 186.2l154.6 26.1m-150.8-33.5l154.6 26"/><path class="st19" d="M194.8 71.7l-14.5 15.7"/><path class="st20" d="M205.6 69.7l-21.7 23.6"/><path class="st21" d="M217.8 65.3l-29.4 33.6"/><path class="st22" d="M202.9 211.7h-50.1c-3.1 0-6-1.7-7.5-4.4l-25.1-43.4c-1.6-2.7-1.6-6 0-8.7l25.1-43.4c1.6-2.7 4.4-4.3 7.5-4.3h50.1c3.1 0 6 1.7 7.5 4.3l25.1 43.4c1.6 2.7 1.6 6 0 8.7l-25.1 43.4c-1.6 2.7-4.4 4.4-7.5 4.4z"/><path class="st6" d="M151.4 152.6h50.1v10.3h-50.1zm0 14.4h50.1v10.3h-50.1z"/><path class="st23" d="M180.3 181.5h21.2v10.3h-21.2z"/><path class="st24" d="M130.4 69.2l29.8 34.8"/><path class="st25" d="M137.1 65l33 39"/><path class="st18" d="M144.5 60.4L180 104"/><g class="st5"><path class="st6" d="M183.7 127.4c.7 0 1.3.2 1.7.7.5.5.7 1 .7 1.7V142c0 .7-.3 1.3-.7 1.7-.5.5-1 .7-1.7.7h-14.6c-.7 0-1.3-.2-1.7-.7-.5-.5-.7-1-.7-1.7v-12.2c0-.7.3-1.3.7-1.7.5-.5 1-.7 1.7-.7h1.2V125c0-1.7.6-3.1 1.8-4.3 1.2-1.2 2.6-1.8 4.3-1.8 1.7 0 3.1.6 4.3 1.8 1.2 1.2 1.8 2.6 1.8 4.3v2.4h1.2zm-7.3-6.1c-1 0-1.9.4-2.6 1.1-.7.7-1 1.5-1.1 2.6v2.4h7.3V125c0-1-.4-1.9-1.1-2.6-.6-.7-1.4-1.1-2.5-1.1zm0 17c.7 0 1.3-.3 1.7-.7.5-.5.7-1 .7-1.7s-.2-1.3-.7-1.7c-.5-.5-1-.7-1.7-.7s-1.3.2-1.7.7c-.5.5-.7 1-.7 1.7s.2 1.3.7 1.7c.5.4 1.1.7 1.7.7z"/></g><linearGradient id="SVGID_1_" gradientUnits="userSpaceOnUse" x1="-6652.99" y1="1494.02" x2="-6411.32" y2="1494.02" gradientTransform="matrix(-1 0 0 1 -6354.38 -1157.71)"><stop offset="0" stop-color="#fff"/><stop offset=".17" stop-color="#ddd"/><stop offset=".83" stop-color="#ddd"/><stop offset="1" stop-color="#fff"/></linearGradient><path class="st26" d="M56.9 336.3h241.7"/><circle class="st27" cx="114.6" cy="31" r="30.5"/><g class="st5"><path class="st6" d="M127.2 26.3h-3.3c.1.5.1 1.1.1 1.6v1.6h3.2v3.2H124v1.6c0 .5 0 1.1-.1 1.6h3.3V39h-4.5c-.8 1.4-2 2.6-3.4 3.5-1.4.9-3 1.3-4.8 1.3s-3.4-.4-4.8-1.3-2.6-2-3.4-3.5h-4.5v-3.2h3.3c-.1-.5-.1-1-.1-1.6v-1.6h-3.2v-3.2h3.2V28c0-.5 0-1.1.1-1.6h-3.3v-3.1h4.5c.7-1.3 1.7-2.3 2.9-3.1l-2.6-2.6 2.2-2.2 3.5 3.4c.7-.1 1.4-.2 2.2-.2.8 0 1.5.1 2.2.2l3.5-3.4 2.2 2.2-2.6 2.6c1.2.8 2.2 1.8 2.9 3.1h4.5v3zm-9.5 0h-6.4v3.2h6.4v-3.2zm0 6.4h-6.4v3.1h6.4v-3.1z"/></g><circle class="st27" cx="31" cy="303.2" r="30.5"/><g class="st5"><path class="st6" d="M43.7 298.5h-3.3c.1.5.1 1.1.1 1.6v1.6h3.2v3.2h-3.2v1.6c0 .5 0 1.1-.1 1.6h3.3v3.2h-4.5c-.8 1.4-2 2.6-3.4 3.5-1.4.9-3 1.3-4.8 1.3s-3.4-.4-4.8-1.3-2.6-2-3.4-3.5h-4.5V308h3.3c-.1-.5-.1-1-.1-1.6v-1.6h-3.2v-3.2h3.2V300c0-.5 0-1.1.1-1.6h-3.3v-3.1h4.5c.7-1.3 1.7-2.3 2.9-3.1l-2.6-2.6 2.2-2.2 3.5 3.4c.7-.1 1.4-.2 2.2-.2.8 0 1.5.1 2.2.2l3.5-3.4 2.2 2.2-2.6 2.6c1.2.8 2.2 1.8 2.9 3.1h4.5v3.2zm-9.5 0h-6.4v3.2h6.4v-3.2zm0 6.4h-6.4v3.1h6.4v-3.1z"/></g><circle class="st27" cx="428.1" cy="221.5" r="30.5"/><g class="st5"><path class="st6" d="M440.8 216.9h-3.3c.1.5.1 1.1.1 1.6v1.6h3.2v3.2h-3.2v1.6c0 .5 0 1.1-.1 1.6h3.3v3.2h-4.5c-.8 1.4-2 2.6-3.4 3.5-1.4.9-3 1.3-4.8 1.3s-3.4-.4-4.8-1.3-2.6-2-3.4-3.5h-4.5v-3.2h3.3c-.1-.5-.1-1-.1-1.6v-1.6h-3.2v-3.2h3.2v-1.6c0-.5 0-1.1.1-1.6h-3.3v-3.1h4.5c.7-1.3 1.7-2.3 2.9-3.1l-2.6-2.6 2.2-2.2 3.5 3.4c.7-.1 1.4-.2 2.2-.2.8 0 1.5.1 2.2.2l3.5-3.4 2.2 2.2-2.6 2.6c1.2.8 2.2 1.8 2.9 3.1h4.5v3.1zm-9.5 0h-6.4v3.2h6.4v-3.2zm0 6.4h-6.4v3.1h6.4v-3.1z"/></g></g></g></svg>