<svg id="Layer_1" xmlns="http://www.w3.org/2000/svg" xmlns:xlink="http://www.w3.org/1999/xlink" viewBox="0 0 487.8 266"><style>.st0{clip-path:url(#SVGID_2_)}.st1{fill:#e5e5e5}.st2{enable-background:new}.st3{fill:#0af}.st4{clip-path:url(#SVGID_4_)}.st5{clip-path:url(#SVGID_6_)}.st6{fill:#cfcfcf}.st7{clip-path:url(#SVGID_8_)}.st8{fill:#e3e3e3}.st9{fill:#fff}.st10{clip-path:url(#SVGID_10_)}.st11{fill:#f9f9f9}.st12{clip-path:url(#SVGID_12_)}.st13{clip-path:url(#SVGID_14_)}.st14{clip-path:url(#SVGID_16_)}.st15{fill:url(#SVGID_17_)}.st16{fill:url(#SVGID_18_)}.st17{fill:#e4e4e3}.st18{fill:url(#SVGID_19_)}.st19{fill:url(#SVGID_20_)}.st20{fill:url(#SVGID_21_)}.st21{fill:url(#SVGID_22_)}.st22{fill:#5e5e5e}</style><title>Asset 12</title><defs><path id="SVGID_1_" d="M.5 148.6h102.3v72.3H.5z"/></defs><clipPath id="SVGID_2_"><use xlink:href="#SVGID_1_" overflow="visible"/></clipPath><g class="st0"><path class="st1" d="M17.6 162.7h30.1c.9 0 1.6.7 1.6 1.6v28.6c0 .9-.7 1.6-1.6 1.6H17.6c-.9 0-1.6-.7-1.6-1.6v-28.6c0-.9.7-1.6 1.6-1.6z"/><g class="st2"><path class="st3" d="M32.6 180.5c2.1 0 3.8.4 5.2 1.1s2.1 1.5 2.1 2.6v1.8H25.3v-1.8c.1-1 .8-1.9 2.1-2.6s3.1-1 5.2-1.1zm0-9.1c1 0 1.9.4 2.6 1.1s1 1.6 1 2.6-.3 1.9-1 2.6-1.5 1-2.6 1-1.9-.3-2.6-1-1-1.6-1-2.6.3-1.9 1-2.6 1.6-1.1 2.6-1.1z"/></g><g class="st2"><path class="st1" d="M16.3 202v-3.1h2.5v3.1h-2.5zm2.5 0v-3.1h2.5v3.1h-2.5zm2.5 0v-3.1h2.5v3.1h-2.5zm2.5 0v-3.1h2.5v3.1h-2.5zm2.5 0v-3.1h2.5v3.1h-2.5zm3.7 0v-3.1h2.5v3.1H30zm2.5 0v-3.1H35v3.1h-2.5zm2.5 0v-3.1h2.5v3.1H35zm3.8 0v-3.1h2.5v3.1h-2.5zm2.5 0v-3.1h2.5v3.1h-2.5zm2.5 0v-3.1h2.5v3.1h-2.5zm2.5 0v-3.1h2.5v3.1h-2.5zm3.7 0v-3.1h2.5v3.1H50zm2.5 0v-3.1H55v3.1h-2.5zm2.5 0v-3.1h2.5v3.1H55zm2.5 0v-3.1H60v3.1h-2.5zm3.8 0v-3.1h2.5v3.1h-2.5zm2.5 0v-3.1h2.5v3.1h-2.5zm2.5 0v-3.1h2.5v3.1h-2.5zm2.5 0v-3.1h2.5v3.1h-2.5zm2.5 0v-3.1h2.5v3.1h-2.5zm2.5 0v-3.1h2.5v3.1h-2.5zm2.5 0v-3.1h2.5v3.1h-2.5zm2.5 0v-3.1h2.5v3.1h-2.5zm2.5 0v-3.1h2.5v3.1h-2.5z"/></g><g class="st2"><path class="st1" d="M16.3 208v-3.1h2.5v3.1h-2.5zm2.5 0v-3.1h2.5v3.1h-2.5zm2.5 0v-3.1h2.5v3.1h-2.5zm2.5 0v-3.1h2.5v3.1h-2.5zm2.5 0v-3.1h2.5v3.1h-2.5zm2.5 0v-3.1h2.5v3.1h-2.5z"/><path class="st1" d="M31.3 208v-3.1h2.5v3.1h-2.5zm3.7 0v-3.1h2.5v3.1H35zm2.5 0v-3.1H40v3.1h-2.5zm2.5 0v-3.1h2.5v3.1H40zm2.5 0v-3.1H45v3.1h-2.5zm2.5 0v-3.1h2.5v3.1H45zm2.5 0v-3.1H50v3.1h-2.5zm3.8 0v-3.1h2.5v3.1h-2.5zm2.5 0v-3.1h2.5v3.1h-2.5zm2.5 0v-3.1h2.5v3.1h-2.5zm2.5 0v-3.1h2.5v3.1h-2.5zm2.5 0v-3.1h2.5v3.1h-2.5zm2.5 0v-3.1h2.5v3.1h-2.5zm2.5 0v-3.1h2.5v3.1h-2.5zm2.5 0v-3.1h2.5v3.1h-2.5zm2.5 0v-3.1h2.5v3.1h-2.5zm2.5 0v-3.1h2.5v3.1h-2.5z"/></g><g class="st2"><path class="st1" d="M16.3 214v-3.1h2.5v3.1h-2.5zm2.5 0v-3.1h2.5v3.1h-2.5zm2.5 0v-3.1h2.5v3.1h-2.5zm2.5 0v-3.1h2.5v3.1h-2.5zm2.5 0v-3.1h2.5v3.1h-2.5zm2.5 0v-3.1h2.5v3.1h-2.5z"/><path class="st1" d="M31.3 214v-3.1h2.5v3.1h-2.5zm3.7 0v-3.1h2.5v3.1H35zm2.5 0v-3.1H40v3.1h-2.5zm2.5 0v-3.1h2.5v3.1H40zm2.5 0v-3.1H45v3.1h-2.5zm2.5 0v-3.1h2.5v3.1H45zm2.5 0v-3.1H50v3.1h-2.5zm2.5 0v-3.1h2.5v3.1H50zm3.8 0v-3.1h2.5v3.1h-2.5zm2.5 0v-3.1h2.5v3.1h-2.5zm2.5 0v-3.1h2.5v3.1h-2.5zm2.5 0v-3.1h2.5v3.1h-2.5zm3.7 0v-3.1h2.5v3.1H65zm3.8 0v-3.1h2.5v3.1h-2.5zm2.5 0v-3.1h2.5v3.1h-2.5zm2.5 0v-3.1h2.5v3.1h-2.5zm2.5 0v-3.1h2.5v3.1h-2.5z"/></g><g class="st2"><path class="st1" d="M16.3 220v-3.1h2.5v3.1h-2.5zm2.5 0v-3.1h2.5v3.1h-2.5zm2.5 0v-3.1h2.5v3.1h-2.5zm2.5 0v-3.1h2.5v3.1h-2.5zm2.5 0v-3.1h2.5v3.1h-2.5zm2.5 0v-3.1h2.5v3.1h-2.5z"/><path class="st1" d="M31.3 220v-3.1h2.5v3.1h-2.5zm2.5 0v-3.1h2.5v3.1h-2.5zm2.5 0v-3.1h2.5v3.1h-2.5zm3.7 0v-3.1h2.5v3.1H40zm2.5 0v-3.1H45v3.1h-2.5zm2.5 0v-3.1h2.5v3.1H45zm2.5 0v-3.1H50v3.1h-2.5zm2.5 0v-3.1h2.5v3.1H50zm2.5 0v-3.1H55v3.1h-2.5zm2.5 0v-3.1h2.5v3.1H55zm3.8 0v-3.1h2.5v3.1h-2.5zm2.5 0v-3.1h2.5v3.1h-2.5zm2.5 0v-3.1h2.5v3.1h-2.5zm2.5 0v-3.1h2.5v3.1h-2.5zm2.5 0v-3.1h2.5v3.1h-2.5zm2.5 0v-3.1h2.5v3.1h-2.5zm2.5 0v-3.1h2.5v3.1h-2.5z"/></g><g class="st2"><path class="st1" d="M16.3 226v-3.1h2.5v3.1h-2.5zm2.5 0v-3.1h2.5v3.1h-2.5zm2.5 0v-3.1h2.5v3.1h-2.5zm2.5 0v-3.1h2.5v3.1h-2.5zm2.5 0v-3.1h2.5v3.1h-2.5zm3.7 0v-3.1h2.5v3.1H30zm2.5 0v-3.1H35v3.1h-2.5zm2.5 0v-3.1h2.5v3.1H35zm2.5 0v-3.1H40v3.1h-2.5zm2.5 0v-3.1h2.5v3.1H40zm2.5 0v-3.1H45v3.1h-2.5zm2.5 0v-3.1h2.5v3.1H45zm2.5 0v-3.1H50v3.1h-2.5z"/></g><g class="st2"><path class="st1" d="M53.7 169.5v-3.1h2.5v3.1h-2.5zm2.5 0v-3.1h2.5v3.1h-2.5zm2.5 0v-3.1h2.5v3.1h-2.5zm3.7 0v-3.1h2.5v3.1h-2.5zm2.5 0v-3.1h2.5v3.1h-2.5zm2.5 0v-3.1h2.5v3.1h-2.5zm2.5 0v-3.1h2.5v3.1h-2.5zm2.5 0v-3.1h2.5v3.1h-2.5zm2.5 0v-3.1h2.5v3.1h-2.5zm2.5 0v-3.1h2.5v3.1h-2.5z"/></g><g class="st2"><path class="st1" d="M53.7 175.5v-3.1h2.5v3.1h-2.5zm2.5 0v-3.1h2.5v3.1h-2.5zm2.5 0v-3.1h2.5v3.1h-2.5zm2.5 0v-3.1h2.5v3.1h-2.5zm2.5 0v-3.1h2.5v3.1h-2.5zm2.5 0v-3.1h2.5v3.1h-2.5zm2.5 0v-3.1h2.5v3.1h-2.5zm2.5 0v-3.1h2.5v3.1h-2.5zm2.5 0v-3.1h2.5v3.1h-2.5zm2.5 0v-3.1h2.5v3.1h-2.5zm2.5 0v-3.1h2.5v3.1h-2.5z"/></g><g class="st2"><path class="st3" d="M53.7 181.5v-3.1h2.5v3.1h-2.5zm2.5 0v-3.1h2.5v3.1h-2.5zm2.5 0v-3.1h2.5v3.1h-2.5zm2.5 0v-3.1h2.5v3.1h-2.5zm2.5 0v-3.1h2.5v3.1h-2.5zm2.5 0v-3.1h2.5v3.1h-2.5zm2.5 0v-3.1h2.5v3.1h-2.5z"/></g><g class="st2"><path class="st3" d="M53.7 187.5v-3.1h2.5v3.1h-2.5zm2.5 0v-3.1h2.5v3.1h-2.5zm2.5 0v-3.1h2.5v3.1h-2.5zm2.5 0v-3.1h2.5v3.1h-2.5zm2.5 0v-3.1h2.5v3.1h-2.5zm2.5 0v-3.1h2.5v3.1h-2.5z"/></g><g class="st2"><path class="st3" d="M53.7 193.5v-3.1h2.5v3.1h-2.5zm2.5 0v-3.1h2.5v3.1h-2.5zm2.5 0v-3.1h2.5v3.1h-2.5zm2.5 0v-3.1h2.5v3.1h-2.5zm2.5 0v-3.1h2.5v3.1h-2.5zm2.5 0v-3.1h2.5v3.1h-2.5zm2.5 0v-3.1h2.5v3.1h-2.5zm2.5 0v-3.1h2.5v3.1h-2.5zm2.5 0v-3.1h2.5v3.1h-2.5zm2.5 0v-3.1h2.5v3.1h-2.5z"/></g></g><defs><path id="SVGID_3_" d="M128.7 148.6H231v72.3H128.7z"/></defs><clipPath id="SVGID_4_"><use xlink:href="#SVGID_3_" overflow="visible"/></clipPath><g class="st4"><path class="st1" d="M195.5 188.8l9.9 9.9h-19.8l9.9-9.9zm10.7-15.2l-19.9 19.9-26.7-26.3 4.9-4.9h30.3l11.4 11.3zm-48.8-4.1l26.6 26.3-2.9 2.9h-36.9v-15.8l13.2-13.4zm-13.2 8.9v-16h15.9l-15.9 16zm55-16.1h16.2v16.2l-16.2-16.2zm9.2 13.5l7 7v15.8h-5.6l-12.1-12.1 10.7-10.7z"/><path class="st3" d="M164.4 176c-2.7 0-4.8 2.1-4.9 4.7 0 .7.2 1.5.4 2.1 1.2 2.1 2.7 4 4.4 5.6 1.8-1.6 3.3-3.5 4.4-5.6.3-.7.4-1.4.4-2.2.1-2.5-2.1-4.6-4.7-4.6zm0 6.3c-.8 0-1.4-.6-1.4-1.4 0-.8.6-1.4 1.4-1.4.8 0 1.4.6 1.4 1.4-.1.7-.7 1.4-1.4 1.4z"/><path class="st1" d="M145.8 212.4h30.1c.9 0 1.6-.7 1.6-1.6v-5.9c0-.9-.7-1.6-1.6-1.6h-30.1c-.9 0-1.6.7-1.6 1.5v5.9c0 1 .7 1.7 1.6 1.7zm68 4.7h-68.1c-.9 0-1.6.7-1.6 1.5v5.9c0 .9.7 1.6 1.6 1.6h68.1c.9 0 1.6-.7 1.6-1.6v-5.9c0-.8-.7-1.5-1.6-1.5.1 0 .1 0 0 0zm0-13.7h-30.1c-.9 0-1.6.7-1.6 1.6v5.9c0 .9.7 1.6 1.6 1.6h30.1c.9 0 1.6-.7 1.6-1.5v-5.9c0-1-.7-1.7-1.6-1.7.1 0 .1 0 0 0z"/></g><defs><path id="SVGID_5_" d="M256.9 148.6h102.3v72.3H256.9z"/></defs><clipPath id="SVGID_6_"><use xlink:href="#SVGID_5_" overflow="visible"/></clipPath><g class="st5"><path class="st1" d="M342.8 195.4c0-.8-.6-1.4-1.4-1.4h-49.1v-5.1c0-.9-.7-1.6-1.6-1.6h-17.6c-.9 0-1.6.7-1.6 1.5v74.7c0 .9.7 1.6 1.6 1.6h68.1c.9 0 1.6-.7 1.6-1.6v-68.1c0 .1 0 0 0 0z"/><path class="st6" d="M313.9 187.4h-17.6c-.9 0-1.6.7-1.6 1.5v5.1h20.7v-5.1c0-.9-.7-1.6-1.5-1.5zm23 0h-17.6c-.9 0-1.6.7-1.6 1.5v5.1h20.7v-5.1c.1-.9-.6-1.6-1.5-1.5z"/><path class="st3" d="M315.5 207.9l-7.1-6.9c-.2-.2-.5-.2-.8 0-.1.1-.1.1-.1.2l-1.6 3c-.2.3-.6.5-.9.3 0 0-.1 0-.1-.1l-1.1-.7c-.3-.2-.7-.1-.8.2l-.1.1-3 7.1c-.2.4 0 .7.5.6l14.9-3.1c.2 0 .4-.2.4-.4 0-.1-.1-.3-.2-.3zm-2.8-6.7c.9-.3 1.4-1.3 1.1-2.2-.3-.8-1-1.3-1.8-1.2-1 .2-1.6 1.1-1.4 2.1.2.9 1.2 1.5 2.1 1.3z"/></g><defs><path id="SVGID_7_" d="M385 148.6h102.3v72.3H385z"/></defs><clipPath id="SVGID_8_"><use xlink:href="#SVGID_7_" overflow="visible"/></clipPath><g class="st7"><path class="st8" d="M401 197.4h33.2v-36.8H401v36.8zm37.9-36.8v36.8h33.3v-36.8h-33.3zM401 238.8h33.2V202H401v36.8zm37.9 0h33.3V202h-33.3v36.8z"/><g class="st2"><path class="st9" d="M403.8 182.1V179h2.5v3.1h-2.5zm2.5 0V179h2.5v3.1h-2.5zm2.5 0V179h2.5v3.1h-2.5zm3.7 0V179h2.5v3.1h-2.5zm2.5 0V179h2.5v3.1H415zm2.5 0V179h2.5v3.1h-2.5zm2.5 0V179h2.5v3.1H420zm2.5 0V179h2.5v3.1h-2.5zm2.5 0V179h2.5v3.1H425zm2.5 0V179h2.5v3.1h-2.5z"/></g><g class="st2"><path class="st9" d="M403.8 188.1V185h2.5v3.1h-2.5zm2.5 0V185h2.5v3.1h-2.5zm2.5 0V185h2.5v3.1h-2.5zm2.5 0V185h2.5v3.1h-2.5zm2.5 0V185h2.5v3.1h-2.5zm2.5 0V185h2.5v3.1h-2.5zm2.5 0V185h2.5v3.1h-2.5zm2.5 0V185h2.5v3.1h-2.5zm2.5 0V185h2.5v3.1h-2.5zm2.5 0V185h2.5v3.1h-2.5zm2.5 0V185h2.5v3.1h-2.5z"/></g><g class="st2"><path class="st9" d="M403.8 194.1V191h2.5v3.1h-2.5zm2.5 0V191h2.5v3.1h-2.5zm2.5 0V191h2.5v3.1h-2.5zm2.5 0V191h2.5v3.1h-2.5zm2.5 0V191h2.5v3.1h-2.5zm2.5 0V191h2.5v3.1h-2.5zm2.5 0V191h2.5v3.1h-2.5z"/></g><g class="st2"><path class="st9" d="M414.4 169.8c.5.9 1.1 1.7 1.7 2.4.7.7 1.5 1.3 2.4 1.7l1.4-1.4c.2-.2.4-.2.6-.1.7.2 1.4.4 2.2.4.2 0 .3.1.4.2s.2.3.2.4v2.2c0 .2-.1.3-.2.4s-.3.2-.4.2c-3-.1-5.5-1.1-7.5-3.1s-3-4.5-3.1-7.5c0-.2.1-.3.2-.4s.3-.2.4-.2h2.2c.2 0 .3.1.4.2s.2.3.2.4c0 .8.1 1.5.4 2.2.1.2 0 .4-.1.6l-1.4 1.4z"/></g><g class="st2"><path class="st9" d="M441.7 182.1V179h2.5v3.1h-2.5zm2.5 0V179h2.5v3.1h-2.5zm2.5 0V179h2.5v3.1h-2.5zm3.8 0V179h2.5v3.1h-2.5zm2.5 0V179h2.5v3.1H453zm2.5 0V179h2.5v3.1h-2.5zm2.5 0V179h2.5v3.1H458zm2.5 0V179h2.5v3.1h-2.5zm2.5 0V179h2.5v3.1H463zm2.5 0V179h2.5v3.1h-2.5z"/></g><g class="st2"><path class="st9" d="M441.7 188.1V185h2.5v3.1h-2.5zm2.5 0V185h2.5v3.1h-2.5zm2.5 0V185h2.5v3.1h-2.5zm2.5 0V185h2.5v3.1h-2.5zm2.5 0V185h2.5v3.1h-2.5zm2.5 0V185h2.5v3.1h-2.5zm2.5 0V185h2.5v3.1h-2.5zm2.5 0V185h2.5v3.1h-2.5zm2.5 0V185h2.5v3.1h-2.5zm2.5 0V185h2.5v3.1h-2.5zm2.5 0V185h2.5v3.1h-2.5z"/></g><g class="st2"><path class="st9" d="M441.7 194.1V191h2.5v3.1h-2.5zm2.5 0V191h2.5v3.1h-2.5zm2.5 0V191h2.5v3.1h-2.5zm2.5 0V191h2.5v3.1h-2.5zm2.5 0V191h2.5v3.1h-2.5zm2.5 0V191h2.5v3.1h-2.5zm2.5 0V191h2.5v3.1h-2.5z"/></g><g class="st2"><path class="st9" d="M452.3 169.8c.5.9 1 1.7 1.7 2.4s1.5 1.3 2.4 1.7l1.4-1.4c.2-.2.4-.2.6-.1.7.2 1.4.4 2.2.4.2 0 .3.1.4.2s.2.3.2.4v2.2c0 .2-.1.3-.2.4s-.3.2-.4.2c-3-.1-5.5-1.1-7.5-3.1s-3-4.5-3.1-7.5c0-.2.1-.3.2-.4s.3-.2.4-.2h2.2c.2 0 .3.1.4.2s.2.3.2.4c0 .8.1 1.5.4 2.2.1.2 0 .4-.1.6l-1.4 1.4z"/></g><g class="st2"><path class="st9" d="M403.8 223.4v-3.1h2.5v3.1h-2.5zm2.5 0v-3.1h2.5v3.1h-2.5zm2.5 0v-3.1h2.5v3.1h-2.5zm3.7 0v-3.1h2.5v3.1h-2.5zm2.5 0v-3.1h2.5v3.1H415zm2.5 0v-3.1h2.5v3.1h-2.5zm2.5 0v-3.1h2.5v3.1H420zm2.5 0v-3.1h2.5v3.1h-2.5zm2.5 0v-3.1h2.5v3.1H425zm2.5 0v-3.1h2.5v3.1h-2.5z"/></g><g class="st2"><path class="st9" d="M403.8 229.4v-3.1h2.5v3.1h-2.5zm2.5 0v-3.1h2.5v3.1h-2.5zm2.5 0v-3.1h2.5v3.1h-2.5zm2.5 0v-3.1h2.5v3.1h-2.5zm2.5 0v-3.1h2.5v3.1h-2.5zm2.5 0v-3.1h2.5v3.1h-2.5zm2.5 0v-3.1h2.5v3.1h-2.5zm2.5 0v-3.1h2.5v3.1h-2.5zm2.5 0v-3.1h2.5v3.1h-2.5zm2.5 0v-3.1h2.5v3.1h-2.5zm2.5 0v-3.1h2.5v3.1h-2.5z"/></g><g class="st2"><path class="st9" d="M403.8 235.4v-3.1h2.5v3.1h-2.5zm2.5 0v-3.1h2.5v3.1h-2.5zm2.5 0v-3.1h2.5v3.1h-2.5zm2.5 0v-3.1h2.5v3.1h-2.5zm2.5 0v-3.1h2.5v3.1h-2.5zm2.5 0v-3.1h2.5v3.1h-2.5zm2.5 0v-3.1h2.5v3.1h-2.5z"/></g><g class="st2"><path class="st9" d="M414.4 211.1c.5.9 1.1 1.7 1.7 2.4.7.7 1.5 1.3 2.4 1.7l1.4-1.4c.2-.2.4-.2.6-.1.7.2 1.4.4 2.2.4.2 0 .3.1.4.2s.2.3.2.4v2.2c0 .2-.1.3-.2.4s-.3.2-.4.2c-3-.1-5.5-1.1-7.5-3.1s-3-4.5-3.1-7.5c0-.2.1-.3.2-.4s.3-.2.4-.2h2.2c.2 0 .3.1.4.2s.2.3.2.4c0 .8.1 1.5.4 2.2.1.2 0 .4-.1.6l-1.4 1.4z"/></g><g class="st2"><path class="st9" d="M441.7 223.4v-3.1h2.5v3.1h-2.5zm2.5 0v-3.1h2.5v3.1h-2.5zm2.5 0v-3.1h2.5v3.1h-2.5zm3.8 0v-3.1h2.5v3.1h-2.5zm2.5 0v-3.1h2.5v3.1H453zm2.5 0v-3.1h2.5v3.1h-2.5zm2.5 0v-3.1h2.5v3.1H458zm2.5 0v-3.1h2.5v3.1h-2.5zm2.5 0v-3.1h2.5v3.1H463zm2.5 0v-3.1h2.5v3.1h-2.5z"/></g><g class="st2"><path class="st9" d="M441.7 229.4v-3.1h2.5v3.1h-2.5zm2.5 0v-3.1h2.5v3.1h-2.5zm2.5 0v-3.1h2.5v3.1h-2.5zm2.5 0v-3.1h2.5v3.1h-2.5zm2.5 0v-3.1h2.5v3.1h-2.5zm2.5 0v-3.1h2.5v3.1h-2.5zm2.5 0v-3.1h2.5v3.1h-2.5zm2.5 0v-3.1h2.5v3.1h-2.5zm2.5 0v-3.1h2.5v3.1h-2.5zm2.5 0v-3.1h2.5v3.1h-2.5zm2.5 0v-3.1h2.5v3.1h-2.5z"/></g><g class="st2"><path class="st9" d="M441.7 235.4v-3.1h2.5v3.1h-2.5zm2.5 0v-3.1h2.5v3.1h-2.5zm2.5 0v-3.1h2.5v3.1h-2.5zm2.5 0v-3.1h2.5v3.1h-2.5zm2.5 0v-3.1h2.5v3.1h-2.5zm2.5 0v-3.1h2.5v3.1h-2.5zm2.5 0v-3.1h2.5v3.1h-2.5z"/></g><g class="st2"><path class="st9" d="M452.3 211.1c.5.9 1 1.7 1.7 2.4s1.5 1.3 2.4 1.7l1.4-1.4c.2-.2.4-.2.6-.1.7.2 1.4.4 2.2.4.2 0 .3.1.4.2s.2.3.2.4v2.2c0 .2-.1.3-.2.4s-.3.2-.4.2c-3-.1-5.5-1.1-7.5-3.1s-3-4.5-3.1-7.5c0-.2.1-.3.2-.4s.3-.2.4-.2h2.2c.2 0 .3.1.4.2s.2.3.2.4c0 .8.1 1.5.4 2.2.1.2 0 .4-.1.6l-1.4 1.4z"/></g></g><defs><path id="SVGID_9_" d="M.5 49.6h102.3v72.3H.5z"/></defs><clipPath id="SVGID_10_"><use xlink:href="#SVGID_9_" overflow="visible"/></clipPath><g class="st10"><path class="st1" d="M15.7 66.2v49.3h68.8V66.2z"/><path class="st9" d="M25.2 108.4h53.2c.8 0 1.4.6 1.4 1.4s-.6 1.4-1.4 1.4H25.2c-.8 0-1.4-.6-1.4-1.4.1-.8.7-1.4 1.4-1.4z"/><circle class="st9" cx="50.5" cy="90.8" r="4.1"/><path class="st11" d="M21.7 108.4h21.5c.8 0 1.4.6 1.4 1.4s-.6 1.4-1.4 1.4H21.7c-.8 0-1.4-.6-1.4-1.4.1-.8.7-1.4 1.4-1.4z"/><path class="st3" d="M50.5 84.2c-3.7 0-6.6 3-6.6 6.7s3 6.7 6.6 6.7c3.7 0 6.7-3 6.7-6.7s-3.1-6.7-6.7-6.7zm2.1 7l-3.2 1.9c-.1.1-.3.1-.5 0-.1-.1-.1-.1-.1-.2v-4c0-.2.1-.3.3-.3.1 0 .2 0 .2.1l3.2 2c.2.1.2.3.1.5.1-.1.1-.1 0 0z"/><path class="st9" d="M83.3 63c-2.4 0-4.3 2-4.3 4.4s1.9 4.3 4.3 4.3 4.3-1.9 4.3-4.3-1.9-4.4-4.3-4.4z"/><path class="st1" d="M83.3 63.8c-1.9 0-3.5 1.6-3.5 3.5s1.6 3.5 3.5 3.5 3.5-1.6 3.5-3.5-1.5-3.5-3.5-3.5zm1.5 5c-.2.2-.4.2-.6 0l-.9-.8-.9.9c-.2.2-.4.2-.6 0s-.2-.4 0-.6l.9-.9-.9-.9c-.2-.2-.2-.4 0-.6.2-.1.4-.1.6 0l.9.9.9-.9c.2-.2.4-.2.6 0s.2.4 0 .6l-.9.9.9.9c.1.1.1.3 0 .5z"/></g><defs><path id="SVGID_11_" d="M128.7 49.6H231v72.3H128.7z"/></defs><clipPath id="SVGID_12_"><use xlink:href="#SVGID_11_" overflow="visible"/></clipPath><g class="st12"><path class="st1" d="M144 63.8h71.6v50.6H144z"/><path class="st1" d="M165.9 59.9h27.8v58.4h-27.8V59.9z"/><path class="st9" d="M194.2 118.8h-28.8V59.4h28.8v59.4zm-27.8-1h26.8V60.4h-26.8v57.4z"/><path class="st3" d="M148.3 106.8h13.3v4.7h-13.3v-4.7z"/><g class="st2"><path class="st3" d="M150 73.9v-3.1h2.5v3.1H150zm2.5 0v-3.1h2.5v3.1h-2.5zm2.5 0v-3.1h2.5v3.1H155zm2.5 0v-3.1h2.5v3.1h-2.5z"/></g><g class="st2"><path class="st3" d="M149.4 79.9v-3.1h2.5v3.1h-2.5zm3.7 0v-3.1h2.5v3.1h-2.5zm2.5 0v-3.1h2.5v3.1h-2.5zm2.5 0v-3.1h2.5v3.1h-2.5z"/></g><path class="st3" d="M173.6 106.8h13.3v4.7h-13.3v-4.7z"/><g class="st2"><path class="st3" d="M175.2 73.9v-3.1h2.5v3.1h-2.5zm2.5 0v-3.1h2.5v3.1h-2.5zm2.5 0v-3.1h2.5v3.1h-2.5zm2.5 0v-3.1h2.5v3.1h-2.5z"/></g><g class="st2"><path class="st3" d="M174.6 79.9v-3.1h2.5v3.1h-2.5zm3.8 0v-3.1h2.5v3.1h-2.5zm2.5 0v-3.1h2.5v3.1h-2.5zm2.5 0v-3.1h2.5v3.1h-2.5z"/></g><g class="st2"><path class="st3" d="M175.2 85.9v-3.1h2.5v3.1h-2.5zm2.5 0v-3.1h2.5v3.1h-2.5zm2.5 0v-3.1h2.5v3.1h-2.5zm2.5 0v-3.1h2.5v3.1h-2.5z"/></g><g class="st2"><path class="st3" d="M175.2 91.9v-3.1h2.5v3.1h-2.5zm2.5 0v-3.1h2.5v3.1h-2.5zm2.5 0v-3.1h2.5v3.1h-2.5zm2.5 0v-3.1h2.5v3.1h-2.5z"/></g><path class="st3" d="M198.8 106.8h13.3v4.7h-13.3v-4.7z"/><g class="st2"><path class="st3" d="M200.5 73.9v-3.1h2.5v3.1h-2.5zm2.5 0v-3.1h2.5v3.1H203zm2.5 0v-3.1h2.5v3.1h-2.5zm2.5 0v-3.1h2.5v3.1H208z"/></g><g class="st2"><path class="st3" d="M199.8 79.9v-3.1h2.5v3.1h-2.5zm3.8 0v-3.1h2.5v3.1h-2.5zm2.5 0v-3.1h2.5v3.1h-2.5zm2.5 0v-3.1h2.5v3.1h-2.5z"/></g><g class="st2"><path class="st3" d="M200.5 85.9v-3.1h2.5v3.1h-2.5zm2.5 0v-3.1h2.5v3.1H203zm2.5 0v-3.1h2.5v3.1h-2.5zm2.5 0v-3.1h2.5v3.1H208z"/></g><g class="st2"><path class="st3" d="M200.5 91.9v-3.1h2.5v3.1h-2.5zm2.5 0v-3.1h2.5v3.1H203zm2.5 0v-3.1h2.5v3.1h-2.5zm2.5 0v-3.1h2.5v3.1H208z"/></g><g class="st2"><path class="st3" d="M200.5 97.9v-3.1h2.5v3.1h-2.5zm2.5 0v-3.1h2.5v3.1H203zm2.5 0v-3.1h2.5v3.1h-2.5zm2.5 0v-3.1h2.5v3.1H208z"/></g></g><defs><path id="SVGID_13_" d="M256.9 49.6h102.3v72.3H256.9z"/></defs><clipPath id="SVGID_14_"><use xlink:href="#SVGID_13_" overflow="visible"/></clipPath><g class="st13"><path class="st8" d="M291.6 121.9H274c-.9 0-1.6.7-1.6 1.5v15.7c0 .9.7 1.6 1.5 1.6h17.6c.9 0 1.6-.7 1.6-1.6v-15.7c.1-.8-.6-1.5-1.5-1.5zm25-7.8h-17.2c-.9 0-1.6.7-1.6 1.6v23.5c0 .9.7 1.6 1.6 1.6h17.2c.9 0 1.6-.7 1.6-1.6v-23.5c0-.9-.7-1.6-1.6-1.6zm25.4 6.3h-17.6c-.9 0-1.6.7-1.6 1.6v17.2c0 .9.7 1.6 1.5 1.6H342c.9 0 1.6-.7 1.6-1.6V122c0-.9-.7-1.6-1.6-1.6zm-50.4-26.2H274c-.9 0-1.6.7-1.6 1.5v20.1c0 .9.7 1.6 1.6 1.6h17.6c.9 0 1.6-.7 1.6-1.5v-20c-.1-1-.7-1.7-1.6-1.7zm25-7.9h-17.2c-.9 0-1.6.7-1.6 1.5v20c0 .9.7 1.6 1.6 1.6h17.2c.9 0 1.6-.7 1.6-1.6v-20c0-.8-.7-1.5-1.6-1.5zm25.4 3.9h-17.6c-.9 0-1.6.7-1.6 1.6v22.3c0 .9.7 1.6 1.5 1.6H342c.9 0 1.6-.7 1.6-1.6V91.8c0-.9-.7-1.6-1.6-1.6zm-50.4-27.7H274c-.9 0-1.6.7-1.6 1.5v23.9c0 .9.7 1.6 1.6 1.6h17.6c.9 0 1.6-.7 1.6-1.6V64c0-.8-.7-1.5-1.6-1.5zm25 0h-17.2c-.9 0-1.6.7-1.6 1.5v16c0 .9.7 1.6 1.6 1.6h17.2c.9 0 1.6-.7 1.6-1.6V64c0-.8-.7-1.5-1.6-1.5zm25.4 0h-17.6c-.9 0-1.6.7-1.6 1.6v20c0 .9.7 1.6 1.5 1.6H342c.9 0 1.6-.7 1.6-1.6V64c0-.8-.7-1.5-1.6-1.5z"/></g><defs><path id="SVGID_15_" d="M385 49.6h102.3v72.3H385z"/></defs><clipPath id="SVGID_16_"><use xlink:href="#SVGID_15_" overflow="visible"/></clipPath><g class="st14"><linearGradient id="SVGID_17_" gradientUnits="userSpaceOnUse" x1="401.4" y1="68.6" x2="470.6" y2="68.6"><stop offset="0" stop-color="#fafafa"/><stop offset=".191" stop-color="#f0f0f0"/><stop offset=".494" stop-color="#e8e8e8"/><stop offset="1" stop-color="#e5e5e5"/></linearGradient><path class="st15" d="M401.4 64.9h69.2v7.4h-69.2z"/><linearGradient id="SVGID_18_" gradientUnits="userSpaceOnUse" x1="401.4" y1="84" x2="470.6" y2="84"><stop offset="0" stop-color="#fafafa"/><stop offset=".191" stop-color="#f0f0f0"/><stop offset=".494" stop-color="#e8e8e8"/><stop offset="1" stop-color="#e5e5e5"/></linearGradient><path class="st16" d="M401.4 80.3h69.2v7.4h-69.2z"/><path class="st17" d="M446.8 95.8h23.8v7.4h-23.8z"/><g class="st2"><path class="st9" d="M403.6 70.2v-3.1h2.5v3.1h-2.5zm2.5 0v-3.1h2.5v3.1h-2.5zm2.5 0v-3.1h2.5v3.1h-2.5zm2.5 0v-3.1h2.5v3.1h-2.5zm2.5 0v-3.1h2.5v3.1h-2.5zm2.5 0v-3.1h2.5v3.1h-2.5zm3.8 0v-3.1h2.5v3.1h-2.5zm2.5 0v-3.1h2.5v3.1h-2.5zm2.5 0v-3.1h2.5v3.1h-2.5zm2.5 0v-3.1h2.5v3.1h-2.5zm2.5 0v-3.1h2.5v3.1h-2.5zm2.5 0v-3.1h2.5v3.1h-2.5zm2.5 0v-3.1h2.5v3.1h-2.5zm2.5 0v-3.1h2.5v3.1h-2.5zm2.5 0v-3.1h2.5v3.1h-2.5zm2.5 0v-3.1h2.5v3.1h-2.5z"/></g><g class="st2"><path class="st9" d="M403.6 85.5v-3.1h2.5v3.1h-2.5zm2.5 0v-3.1h2.5v3.1h-2.5zm2.5 0v-3.1h2.5v3.1h-2.5zm2.5 0v-3.1h2.5v3.1h-2.5zm2.5 0v-3.1h2.5v3.1h-2.5zm2.5 0v-3.1h2.5v3.1h-2.5zm2.5 0v-3.1h2.5v3.1h-2.5zm2.5 0v-3.1h2.5v3.1h-2.5zm2.5 0v-3.1h2.5v3.1h-2.5zm2.5 0v-3.1h2.5v3.1h-2.5zm2.5 0v-3.1h2.5v3.1h-2.5zm2.5 0v-3.1h2.5v3.1h-2.5z"/></g></g><path class="st1" d="M103.3 122.4H0V49.1h103.3v73.3zM1 121.4h101.3V50.1H1v71.3z"/><path class="st1" d="M.5 44.7h102.3v4.9H.5z"/><path class="st1" d="M103.3 50.1H0v-5.9h103.3v5.9zM1 49.1h101.3v-3.9H1v3.9zm230.5 73.3H128.2V49.1h103.3v73.3zm-102.3-1h101.3V50.1H129.2v71.3z"/><path class="st1" d="M128.7 44.7H231v4.9H128.7z"/><path class="st1" d="M231.5 50.1H128.2v-5.9h103.3v5.9zm-102.3-1h101.3v-3.9H129.2v3.9z"/><linearGradient id="SVGID_19_" gradientUnits="userSpaceOnUse" x1="256.4" y1="83.3" x2="359.7" y2="83.3"><stop offset="0" stop-color="#e5e5e5"/><stop offset=".506" stop-color="#e8e8e8"/><stop offset=".809" stop-color="#f0f0f0"/><stop offset="1" stop-color="#fafafa"/></linearGradient><path class="st18" d="M256.4 44.2v78.2h103.3V44.2H256.4zm102.3 77.2H257.4V50.1h101.3v71.3z"/><linearGradient id="SVGID_20_" gradientUnits="userSpaceOnUse" x1="384.5" y1="83.3" x2="487.8" y2="83.3"><stop offset="0" stop-color="#fafafa"/><stop offset=".191" stop-color="#f0f0f0"/><stop offset=".494" stop-color="#e8e8e8"/><stop offset="1" stop-color="#e5e5e5"/></linearGradient><path class="st19" d="M384.5 44.2v78.2h103.3V44.2H384.5zm102.3 77.2H385.5V50.1h101.3v71.3z"/><path class="st1" d="M103.3 221.4H0v-73.3h103.3v73.3zM1 220.4h101.3v-71.3H1v71.3z"/><path class="st1" d="M.5 143.7h102.3v4.9H.5z"/><path class="st1" d="M103.3 149.1H0v-5.9h103.3v5.9zM1 148.1h101.3v-3.9H1v3.9zm230.5 73.3H128.2v-73.3h103.3v73.3zm-102.3-1h101.3v-71.3H129.2v71.3z"/><path class="st1" d="M128.7 143.7H231v4.9H128.7z"/><path class="st1" d="M231.5 149.1H128.2v-5.9h103.3v5.9zm-102.3-1h101.3v-3.9H129.2v3.9z"/><linearGradient id="SVGID_21_" gradientUnits="userSpaceOnUse" x1="256.4" y1="182.3" x2="359.7" y2="182.3"><stop offset="0" stop-color="#e5e5e5"/><stop offset=".506" stop-color="#e8e8e8"/><stop offset=".809" stop-color="#f0f0f0"/><stop offset="1" stop-color="#fafafa"/></linearGradient><path class="st20" d="M256.4 143.2v78.2h103.3v-78.2H256.4zm102.3 77.2H257.4v-71.3h101.3v71.3z"/><linearGradient id="SVGID_22_" gradientUnits="userSpaceOnUse" x1="384.5" y1="182.3" x2="487.8" y2="182.3"><stop offset="0" stop-color="#fafafa"/><stop offset=".191" stop-color="#f0f0f0"/><stop offset=".494" stop-color="#e8e8e8"/><stop offset="1" stop-color="#e5e5e5"/></linearGradient><path class="st21" d="M384.5 143.2v78.2h103.3v-78.2H384.5zm102.3 77.2H385.5v-71.3h101.3v71.3z"/><path class="st22" d="M326.6 120.5h18.8c7.6 0 13.8 6.2 13.8 13.8s-6.2 13.8-13.8 13.8h-18.8v20h18.8c18.6 0 33.8-15.1 33.8-33.8s-15.1-33.8-33.8-33.8h-18.8v20m-22.5-20h17.5v20h-17.5zm0 47.5h17.5v20h-17.5z"/><path class="st3" d="M301 97.5c2 .7 3.5 1.6 4.6 2.6 1.1 1.1 1.5 2.1 1.2 3.1l-.6 1.8-14-4.6.6-1.8c.4-1 1.3-1.6 2.8-1.8 1.7-.2 3.4 0 5.4.7zm2.9-8.8c1 .3 1.7 1 2.1 1.8.4.9.5 1.8.2 2.8s-.9 1.7-1.8 2.2c-.9.4-1.8.5-2.8.2s-1.7-.9-2.1-1.8-.5-1.8-.2-2.8.9-1.7 1.8-2.1c.9-.5 1.8-.6 2.8-.3zm-13.3 81c.7-.8 1.5-1.3 2.4-1.4s1.9.1 2.7.7c.8.6 1.3 1.4 1.5 2.4s-.1 1.9-.7 2.7-1.4 1.3-2.4 1.4c-1 .1-1.9-.1-2.7-.7-.8-.6-1.3-1.4-1.5-2.4-.2-.9.1-1.8.7-2.7zm7.3 5.6c1.3-1.7 2.6-2.8 4-3.5s2.5-.7 3.4-.2l1.5 1.1-9 11.8-1.5-1.1c-.8-.7-1-1.8-.8-3.3.4-1.6 1.2-3.2 2.4-4.8zm9.8-68.7l1.7 3.3-1.6.8 1.6 3.3-3.3 1.6-1.6-3.3-3.6 1.8c.1 1.2-.1 2.2-.6 3.2s-1.3 1.8-2.4 2.4c-1.4.7-2.8.8-4.2.3-1.4-.5-2.5-1.4-3.2-2.7-.6-1.4-.7-2.8-.3-4.2.4-1.4 1.4-2.5 2.7-3.2 1.1-.5 2.2-.7 3.3-.5 1.1.2 2.1.7 2.9 1.4l8.6-4.2zm-10.5 8.8c.2-.5.1-.9-.1-1.4s-.6-.8-1.1-.9-.9-.1-1.4.1-.8.6-.9 1c-.2.5-.1.9.1 1.4s.6.8 1 .9c.5.2.9.1 1.4-.1.5-.1.8-.5 1-1zm29.3-30.8l-.6 1.7.8.3c.5.2.8.5 1.1.9s.2.9.1 1.4l-4.4 12c-.2.5-.5.8-1 1s-.9.2-1.4.1l-12-4.4c-.5-.2-.8-.5-1-1s-.2-.9-.1-1.4l4.4-12c.2-.5.5-.9.9-1.1s.9-.2 1.4 0l.8.3.6-1.7 1.7.6-.6 1.7 6.9 2.5.6-1.7 1.8.8zm-1.3 6.3l-12-4.4-3.4 9.5 12 4.4 3.4-9.5zm-4.5 7.2l-4.3-1.6 1.6-4.3 4.3 1.6-1.6 4.3zm-17.3 43.3c.5.1.8.4 1.1.8l5.7 9.5c.3.4.3.9.2 1.4-.1.5-.4.9-.8 1.1l-12.6 7.6c-.5.2-.9.3-1.4.2s-.8-.4-1.1-.8l-5.7-9.5c-.3-.4-.3-.9-.2-1.4s.4-.9.8-1.2l12.6-7.6c.4-.2.9-.3 1.4-.1zm-.5 1.7l-3.9 7.8-8.7-.1 1 1.6 8.7.1 4-7.7-1.1-1.7zm27.5 23.8c.2.5.1.9-.1 1.4l-3.9 8.3c-.2.5-.6.8-1 .9-.5.2-.9.1-1.4-.1l-13.3-6.3c-.5-.2-.8-.6-.9-1.1-.2-.5-.1-.9.1-1.4l4.7-9.9c.2-.5.6-.8 1-.9.5-.2.9-.1 1.4 0l5 2.4.9 2.5 6.6 3.2c.4.2.7.6.9 1zm-5.8 6.9c.2-.6 0-1.2-.6-1.8s-1.3-1.1-1.9-1.4c-.6-.3-1.4-.5-2.3-.6s-1.5.1-1.8.6l-.4.9 6.6 3.1.4-.8zm-1.9-7.5c-.5.2-.8.5-1 1s-.3.9-.1 1.4c.2.5.5.8.9 1 .5.2.9.3 1.4.1s.8-.5 1-.9c.2-.5.3-.9.1-1.4s-.5-.8-.9-1-.9-.3-1.4-.2zM284 95.4c-.8 1.3-1.4 2.6-1.8 4s-.5 2.8-.5 4.3l2.8.7c.4.1.6.4.7.7.2 1.1.6 2.1 1.2 3.1.1.2.2.5.1.7s-.2.4-.4.5l-2.8 1.6c-.2.1-.5.2-.7.1s-.4-.2-.5-.4c-2.1-3.9-2.6-7.9-1.5-11.9s3.5-7.2 7.3-9.5c.2-.1.5-.2.7-.1s.4.2.5.4l1.6 2.8c.1.2.2.5.1.7s-.2.4-.4.5c-1 .6-1.9 1.3-2.6 2.1-.2.3-.6.4-.9.3l-2.9-.6zm-8.6 69.3c1.2 1 2.8 1.7 4.9 2.1 2 .4 3.8.5 5.3.1s2.4-1.1 2.6-2.1l-.6 2.7c-.3 1-1.2 1.7-2.6 2.1-1.5.4-3.3.4-5.3-.1-2-.4-3.7-1.1-4.9-2.1-1.2-1-1.7-2-1.6-3l.6-2.7c-.1 1.1.4 2.1 1.6 3zm1-4.5c1.2 1 2.8 1.7 4.9 2.1 2 .4 3.8.5 5.3.1s2.4-1.1 2.6-2.1l-.6 2.7c-.3 1-1.2 1.7-2.6 2.1-1.5.4-3.3.4-5.3-.1-2-.4-3.7-1.1-4.9-2.1s-1.7-2-1.6-3l.6-2.7c-.1 1.1.4 2.1 1.6 3zm11.7-4.6c1.2 1 1.7 2 1.6 3-.3 1-1.2 1.7-2.7 2.1-1.5.4-3.3.4-5.3-.1-2-.4-3.7-1.1-4.9-2.1-1.2-1-1.7-2-1.6-3 .3-1 1.2-1.7 2.6-2.1 1.5-.4 3.3-.4 5.3 0 2.1.5 3.8 1.2 5 2.2z"/><path class="st22" d="M381 101h-21c-.3 0-.5-.2-.5-.5s.2-.5.5-.5h21c.3 0 .5.2.5.5s-.2.5-.5.5zm13.6 11.2h-21c-.3 0-.5-.2-.5-.5s.2-.5.5-.5h21c.3 0 .5.2.5.5s-.2.5-.5.5zm25.3 11.3h-39c-.3 0-.5-.2-.5-.5s.2-.5.5-.5h39c.3 0 .5.2.5.5s-.2.5-.5.5zm28.9 11.2h-66c-.3 0-.5-.2-.5-.5s.2-.5.5-.5h66c.3 0 .5.2.5.5s-.2.5-.5.5zM381 168.5h-21c-.3 0-.5-.2-.5-.5s.2-.5.5-.5h21c.3 0 .5.2.5.5s-.2.5-.5.5zm13.6-11.3h-21c-.3 0-.5-.2-.5-.5s.2-.5.5-.5h21c.3 0 .5.2.5.5s-.2.5-.5.5zm25.3-11.2h-39c-.3 0-.5-.2-.5-.5s.2-.5.5-.5h39c.3 0 .5.2.5.5s-.2.5-.5.5z"/><path class="st22" d="M448.8 134.7h-66c-.3 0-.5-.2-.5-.5s.2-.5.5-.5h66c.3 0 .5.2.5.5s-.2.5-.5.5zM407.1 101h-4c-.3 0-.5-.2-.5-.5s.2-.5.5-.5h4c.3 0 .5.2.5.5s-.2.5-.5.5zm-11 0h-4c-.3 0-.5-.2-.5-.5s.2-.5.5-.5h4c.3 0 .5.2.5.5s-.2.5-.5.5zm-11 0h-4c-.3 0-.5-.2-.5-.5s.2-.5.5-.5h4c.3 0 .5.2.5.5s-.2.5-.5.5zm35.6 11.2h-4c-.3 0-.5-.2-.5-.5s.2-.5.5-.5h4c.3 0 .5.2.5.5s-.2.5-.5.5zm-11 0h-4c-.3 0-.5-.2-.5-.5s.2-.5.5-.5h4c.3 0 .5.2.5.5s-.2.5-.5.5zm-11 0h-4c-.3 0-.5-.2-.5-.5s.2-.5.5-.5h4c.3 0 .5.2.5.5s-.2.5-.5.5zm47.3 11.3h-4c-.3 0-.5-.2-.5-.5s.2-.5.5-.5h4c.3 0 .5.2.5.5s-.2.5-.5.5zm-11 0h-4c-.3 0-.5-.2-.5-.5s.2-.5.5-.5h4c.3 0 .5.2.5.5s-.2.5-.5.5zm-11 0h-4c-.3 0-.5-.2-.5-.5s.2-.5.5-.5h4c.3 0 .5.2.5.5s-.2.5-.5.5z"/><path class="st22" d="M448.8 134.7h-66c-.3 0-.5-.2-.5-.5s.2-.5.5-.5h66c.3 0 .5.2.5.5s-.2.5-.5.5zm-41.7 33.8h-4c-.3 0-.5-.2-.5-.5s.2-.5.5-.5h4c.3 0 .5.2.5.5s-.2.5-.5.5zm-11 0h-4c-.3 0-.5-.2-.5-.5s.2-.5.5-.5h4c.3 0 .5.2.5.5s-.2.5-.5.5zm-11 0h-4c-.3 0-.5-.2-.5-.5s.2-.5.5-.5h4c.3 0 .5.2.5.5s-.2.5-.5.5zm35.6-11.3h-4c-.3 0-.5-.2-.5-.5s.2-.5.5-.5h4c.3 0 .5.2.5.5s-.2.5-.5.5zm-11 0h-4c-.3 0-.5-.2-.5-.5s.2-.5.5-.5h4c.3 0 .5.2.5.5s-.2.5-.5.5zm-11 0h-4c-.3 0-.5-.2-.5-.5s.2-.5.5-.5h4c.3 0 .5.2.5.5s-.2.5-.5.5zM446 146h-4c-.3 0-.5-.2-.5-.5s.2-.5.5-.5h4c.3 0 .5.2.5.5s-.2.5-.5.5zm-11 0h-4c-.3 0-.5-.2-.5-.5s.2-.5.5-.5h4c.3 0 .5.2.5.5s-.2.5-.5.5zm-11 0h-4c-.3 0-.5-.2-.5-.5s.2-.5.5-.5h4c.3 0 .5.2.5.5s-.2.5-.5.5z"/><path class="st22" d="M474.9 134.7h-4c-.3 0-.5-.2-.5-.5s.2-.5.5-.5h4c.3 0 .5.2.5.5s-.2.5-.5.5zm-11 0h-4c-.3 0-.5-.2-.5-.5s.2-.5.5-.5h4c.3 0 .5.2.5.5s-.2.5-.5.5zm-11 0h-4c-.3 0-.5-.2-.5-.5s.2-.5.5-.5h4c.3 0 .5.2.5.5s-.2.5-.5.5z"/></svg>