<svg xmlns="http://www.w3.org/2000/svg" xmlns:xlink="http://www.w3.org/1999/xlink" viewBox="0 0 461 388.14"><defs><style>.cls-1,.cls-10,.cls-11,.cls-12,.cls-13,.cls-14,.cls-15,.cls-16,.cls-17,.cls-18,.cls-19,.cls-2,.cls-20,.cls-21,.cls-22,.cls-23,.cls-24,.cls-25,.cls-26,.cls-27,.cls-28,.cls-29,.cls-3,.cls-30,.cls-31,.cls-32,.cls-33,.cls-34,.cls-35,.cls-36,.cls-37,.cls-38,.cls-39,.cls-4,.cls-40,.cls-41,.cls-45,.cls-47,.cls-5,.cls-6,.cls-7,.cls-8,.cls-9{fill:none}.cls-1,.cls-10,.cls-11,.cls-12,.cls-13,.cls-14,.cls-15,.cls-16,.cls-17,.cls-18,.cls-19,.cls-2,.cls-20,.cls-21,.cls-22,.cls-23,.cls-24,.cls-25,.cls-26,.cls-27,.cls-28,.cls-29,.cls-3,.cls-30,.cls-31,.cls-32,.cls-33,.cls-34,.cls-35,.cls-36,.cls-37,.cls-38,.cls-39,.cls-4,.cls-40,.cls-41,.cls-45,.cls-5,.cls-6,.cls-7,.cls-8,.cls-9{stroke-linecap:round;stroke-linejoin:round}.cls-1{stroke:url(#linear-gradient)}.cls-2{stroke-dasharray:3.2 5.6;stroke:url(#linear-gradient-2)}.cls-3{stroke:url(#linear-gradient-3)}.cls-4{stroke:url(#linear-gradient-4)}.cls-5{stroke-dasharray:3.77 6.59;stroke:url(#linear-gradient-5)}.cls-6{stroke:url(#linear-gradient-6)}.cls-7{stroke:url(#linear-gradient-7)}.cls-8{stroke-dasharray:3.94 6.9;stroke:url(#linear-gradient-8)}.cls-9{stroke:url(#linear-gradient-9)}.cls-10{stroke:url(#linear-gradient-10)}.cls-11{stroke-dasharray:4.03 7.06;stroke:url(#linear-gradient-11)}.cls-12{stroke:url(#linear-gradient-12)}.cls-13{stroke:url(#linear-gradient-13)}.cls-14{stroke-dasharray:4.08 7.15;stroke:url(#linear-gradient-14)}.cls-15{stroke:url(#linear-gradient-15)}.cls-16{stroke:url(#linear-gradient-16)}.cls-17{stroke-dasharray:3.9 6.82;stroke:url(#linear-gradient-17)}.cls-18{stroke:url(#linear-gradient-18)}.cls-19{stroke:url(#linear-gradient-19)}.cls-20{stroke:url(#linear-gradient-20)}.cls-21{stroke:url(#linear-gradient-21)}.cls-22{stroke-dasharray:4.01 7.01;stroke:url(#linear-gradient-22)}.cls-23{stroke:url(#linear-gradient-23)}.cls-24{stroke:url(#linear-gradient-24)}.cls-25{stroke-dasharray:3.97 6.95;stroke:url(#linear-gradient-25)}.cls-26{stroke:url(#linear-gradient-26)}.cls-27{stroke:url(#linear-gradient-27)}.cls-28{stroke-dasharray:3.96 6.92;stroke:url(#linear-gradient-28)}.cls-29{stroke:url(#linear-gradient-29)}.cls-30{stroke:url(#linear-gradient-30)}.cls-31{stroke-dasharray:3.95 6.91;stroke:url(#linear-gradient-31)}.cls-32{stroke:url(#linear-gradient-32)}.cls-33{stroke:url(#linear-gradient-33)}.cls-34{stroke-dasharray:3.94 6.9;stroke:url(#linear-gradient-34)}.cls-35{stroke:url(#linear-gradient-35)}.cls-36{stroke:url(#linear-gradient-36)}.cls-37{stroke-dasharray:3.94 6.9;stroke:url(#linear-gradient-37)}.cls-38{stroke:url(#linear-gradient-38)}.cls-39{stroke:url(#linear-gradient-39)}.cls-40{stroke-dasharray:3.94 6.89;stroke:url(#linear-gradient-40)}.cls-41{stroke:url(#linear-gradient-41)}.cls-42,.cls-43,.cls-46{fill:#fff}.cls-42,.cls-47{stroke:#0af}.cls-42,.cls-43,.cls-47{stroke-miterlimit:10}.cls-42,.cls-43,.cls-44{opacity:.6}.cls-43{stroke:url(#linear-gradient-42)}.cls-44,.cls-48{fill:#0af}.cls-45{stroke:#fff;stroke-width:8px}</style><linearGradient id="linear-gradient" x1="434.43" y1="164.04" x2="461" y2="164.04" gradientUnits="userSpaceOnUse"><stop offset="0" stop-color="#5e5e5e"/><stop offset="1" stop-color="#fff"/></linearGradient><linearGradient id="linear-gradient-2" x1="434.43" y1="159.29" y2="159.29" xlink:href="#linear-gradient"/><linearGradient id="linear-gradient-3" x1="434.43" y1="155.5" y2="155.5" xlink:href="#linear-gradient"/><linearGradient id="linear-gradient-4" x1="357.81" y1="205.03" x2="415.69" y2="205.03" xlink:href="#linear-gradient"/><linearGradient id="linear-gradient-5" x1="357.81" y1="191.96" x2="415.69" y2="191.96" xlink:href="#linear-gradient"/><linearGradient id="linear-gradient-6" x1="357.81" y1="180.23" x2="415.69" y2="180.23" xlink:href="#linear-gradient"/><linearGradient id="linear-gradient-7" x1="281.19" y1="246.08" x2="370.38" y2="246.08" xlink:href="#linear-gradient"/><linearGradient id="linear-gradient-8" x1="281.19" y1="224.76" x2="370.38" y2="224.76" xlink:href="#linear-gradient"/><linearGradient id="linear-gradient-9" x1="281.19" y1="204.92" x2="370.38" y2="204.92" xlink:href="#linear-gradient"/><linearGradient id="linear-gradient-10" x1="204.57" y1="287.13" x2="325.06" y2="287.13" xlink:href="#linear-gradient"/><linearGradient id="linear-gradient-11" x1="204.57" y1="257.59" x2="325.06" y2="257.59" xlink:href="#linear-gradient"/><linearGradient id="linear-gradient-12" x1="204.57" y1="229.6" x2="325.06" y2="229.6" xlink:href="#linear-gradient"/><linearGradient id="linear-gradient-13" x1="127.95" y1="328.19" x2="279.75" y2="328.19" xlink:href="#linear-gradient"/><linearGradient id="linear-gradient-14" x1="127.95" y1="290.44" x2="279.75" y2="290.44" xlink:href="#linear-gradient"/><linearGradient id="linear-gradient-15" x1="127.95" y1="254.27" x2="279.75" y2="254.27" xlink:href="#linear-gradient"/><linearGradient id="linear-gradient-16" x1="51.33" y1="369.25" x2="234.44" y2="369.25" xlink:href="#linear-gradient"/><linearGradient id="linear-gradient-17" x1="51.33" y1="323.33" x2="234.44" y2="323.33" xlink:href="#linear-gradient"/><linearGradient id="linear-gradient-18" x1="51.33" y1="278.94" x2="234.44" y2="278.94" xlink:href="#linear-gradient"/><linearGradient id="linear-gradient-19" x1="448.15" y1="136.01" x2="453.36" y2="136.01" gradientUnits="userSpaceOnUse"><stop offset="0" stop-color="#fff"/><stop offset=".5" stop-color="#5e5e5e"/><stop offset="1" stop-color="#fff"/></linearGradient><linearGradient id="linear-gradient-20" x1="448.15" y1="145.29" x2="453.36" y2="145.29" xlink:href="#linear-gradient-19"/><linearGradient id="linear-gradient-21" x1="384.13" y1="130.76" x2="406.25" y2="130.76" xlink:href="#linear-gradient-19"/><linearGradient id="linear-gradient-22" x1="384.13" y1="156.89" x2="406.25" y2="156.89" xlink:href="#linear-gradient-19"/><linearGradient id="linear-gradient-23" x1="384.13" y1="179.79" x2="406.25" y2="179.79" xlink:href="#linear-gradient-19"/><linearGradient id="linear-gradient-24" x1="320.11" y1="125.51" x2="359.14" y2="125.51" xlink:href="#linear-gradient-19"/><linearGradient id="linear-gradient-25" x1="320.11" y1="171.49" x2="359.14" y2="171.49" xlink:href="#linear-gradient-19"/><linearGradient id="linear-gradient-26" x1="320.11" y1="214.28" x2="359.14" y2="214.28" xlink:href="#linear-gradient-19"/><linearGradient id="linear-gradient-27" x1="256.09" y1="120.27" x2="312.03" y2="120.27" xlink:href="#linear-gradient-19"/><linearGradient id="linear-gradient-28" x1="256.09" y1="186.11" x2="312.03" y2="186.11" xlink:href="#linear-gradient-19"/><linearGradient id="linear-gradient-29" x1="256.09" y1="248.76" x2="312.03" y2="248.76" xlink:href="#linear-gradient-19"/><linearGradient id="linear-gradient-30" x1="192.06" y1="115.02" x2="264.92" y2="115.02" xlink:href="#linear-gradient-19"/><linearGradient id="linear-gradient-31" x1="192.06" y1="200.73" x2="264.92" y2="200.73" xlink:href="#linear-gradient-19"/><linearGradient id="linear-gradient-32" x1="192.06" y1="283.25" x2="264.92" y2="283.25" xlink:href="#linear-gradient-19"/><linearGradient id="linear-gradient-33" x1="128.04" y1="109.78" x2="217.81" y2="109.78" xlink:href="#linear-gradient-19"/><linearGradient id="linear-gradient-34" x1="128.04" y1="215.35" x2="217.81" y2="215.35" xlink:href="#linear-gradient-19"/><linearGradient id="linear-gradient-35" x1="128.04" y1="317.74" x2="217.81" y2="317.74" xlink:href="#linear-gradient-19"/><linearGradient id="linear-gradient-36" x1="64.02" y1="104.54" x2="170.7" y2="104.54" xlink:href="#linear-gradient-19"/><linearGradient id="linear-gradient-37" x1="64.02" y1="229.97" x2="170.7" y2="229.97" xlink:href="#linear-gradient-19"/><linearGradient id="linear-gradient-38" x1="64.02" y1="352.23" x2="170.7" y2="352.23" xlink:href="#linear-gradient-19"/><linearGradient id="linear-gradient-39" y1="99.29" x2="123.59" y2="99.29" xlink:href="#linear-gradient-19"/><linearGradient id="linear-gradient-40" y1="244.59" x2="123.59" y2="244.59" xlink:href="#linear-gradient-19"/><linearGradient id="linear-gradient-41" y1="386.71" x2="123.59" y2="386.71" xlink:href="#linear-gradient-19"/><linearGradient id="linear-gradient-42" x1="248.97" y1="89.49" x2="248.97" gradientUnits="userSpaceOnUse"><stop offset="0" stop-color="#0af"/><stop offset=".76" stop-color="#fff"/></linearGradient></defs><title>Asset 10</title><g id="Layer_2" data-name="Layer 2"><g id="Layer_1-2" data-name="Layer 1"><path class="cls-1" d="M460.5 164.38l-1.88-.68"/><path class="cls-2" d="M453.35 161.8l-13.91-5.02"/><path class="cls-3" d="M436.81 155.83l-1.88-.67"/><path class="cls-4" d="M415.19 205.44l-1.83-.82"/><path class="cls-5" d="M407.35 201.92L363.14 182"/><path class="cls-6" d="M360.13 180.65l-1.82-.83"/><path class="cls-7" d="M369.88 246.51l-1.81-.86"/><path class="cls-8" d="M361.84 242.68l-75.23-35.84"/><path class="cls-9" d="M283.49 205.35l-1.8-.86"/><path class="cls-10" d="M324.56 287.57l-1.79-.88"/><path class="cls-11" d="M316.43 283.59l-106.39-52"/><path class="cls-12" d="M206.87 230.04l-1.8-.88"/><path class="cls-13" d="M279.25 328.63l-1.79-.88"/><path class="cls-14" d="M271.06 324.57L133.44 256.3"/><path class="cls-15" d="M130.24 254.72l-1.79-.89"/><path class="cls-16" d="M233.94 369.7l-1.79-.9"/><path class="cls-17" d="M226.06 365.75L56.67 280.92"/><path class="cls-18" d="M53.62 279.39l-1.79-.89"/><path class="cls-19" d="M448.65 135.08l.71 1.87"/><path class="cls-20" d="M452.16 144.35l.7 1.87"/><path class="cls-21" d="M384.63 129.83l.77 1.85"/><path class="cls-22" d="M388.09 138.16l15.55 37.46"/><path class="cls-23" d="M404.99 178.86l.76 1.85"/><path class="cls-24" d="M320.61 124.59l.77 1.84"/><path class="cls-25" d="M324.07 132.84l32.45 77.31"/><path class="cls-26" d="M357.87 213.35l.77 1.85"/><path class="cls-27" d="M256.59 119.35l.77 1.84"/><path class="cls-28" d="M260.05 127.57l49.36 117.08"/><path class="cls-29" d="M310.76 247.84l.77 1.84"/><path class="cls-30" d="M192.56 114.1l.78 1.85"/><path class="cls-31" d="M196.03 122.31l66.27 156.84"/><path class="cls-32" d="M263.64 282.33l.78 1.84"/><path class="cls-33" d="M128.54 108.86l.78 1.84"/><path class="cls-34" d="M132.01 117.06l83.18 196.58"/><path class="cls-35" d="M216.53 316.82l.78 1.84"/><path class="cls-36" d="M64.52 103.62l.78 1.84"/><path class="cls-37" d="M67.99 111.81l100.09 236.32"/><path class="cls-38" d="M169.42 351.31l.78 1.84"/><path class="cls-39" d="M.5 98.37l.78 1.84"/><path class="cls-40" d="M3.97 106.56l117 276.06"/><path class="cls-41" d="M122.31 385.79l.78 1.85"/><path class="cls-42" d="M91.73 257.75l110.89-35.61-33.27-79.69-124.78 4.88 47.16 110.42z"/><path class="cls-42" d="M130.79 260.49l108.86-40.22-31.24-75.08-124.78 4.88 47.16 110.42z"/><path class="cls-42" d="M169.85 263.23l107.63-48.43-30.01-68.27-124.78 6.28 47.16 110.42z"/><path class="cls-43" d="M286.09 88.94l-100.34-17.8L225.14.65l87.14 41.74-26.19 46.55z"/><path class="cls-42" d="M197.18 110.14l-96.21-6.15 20.19-68.79 88.81 22.39-12.79 52.55zm149.4 229.83l51.85-75.04-62.83-29.7-86.59 58.15 97.57 46.59z"/><path class="cls-42" d="M241.55 359.25l67.46-59.3-54.79-28.85-87.04 48.44 74.37 39.71z"/><path class="cls-44" d="M412.81 165.74l22.12-10.58-7.18-17.25-25.33 2.1 10.39 25.73z"/><path class="cls-42" d="M404.71 108.63l6.02-15.13-25.86-11.75-8.92 21 28.76 5.88z"/><path class="cls-45" d="M373.68 160.11l-51.84 13.45"/><path class="cls-46" d="M369.44 156.41l17.96.14-15.62 8.86-2.34-9zm-45.7 11.86l-15.62 8.86 17.95.14-2.33-9z"/><path class="cls-45" d="M235.89 133.65a159.71 159.71 0 0 1 18.88-75.58 8.9 8.9 0 0 1 10.86-4.2l92.5 32.34"/><path class="cls-46" d="M353.6 89.55l17.91 1.34-14.84-10.12-3.07 8.78z"/><path class="cls-45" d="M239.59 194.91c-7.3-18.34-12.09-40.32-12.09-61.26a160.71 160.71 0 0 1 5.69-42.52l-10.94-1.62"/><path class="cls-46" d="M226.07 85.38l-17.84 2.06 16.48 7.13 1.36-9.19z"/><path class="cls-45" d="M154.67 78.15a212.47 212.47 0 0 0-3.09 102.27"/><path class="cls-46" d="M146.36 178.44l8.69 15.72.34-17.96-9.03 2.24z"/><path class="cls-45" d="M247.2 192.93a161 161 0 0 0 77.63 84.39"/><path class="cls-46" d="M320.06 280.18l17.72 2.9-13.89-11.38-3.83 8.48z"/><path class="cls-45" d="M241.59 91.13a161.19 161.19 0 0 0 5.61 101.8"/><path class="cls-47" d="M378.83 158.78l-62.14 16.12"/><path class="cls-48" d="M376.18 156.46l11.22.09-9.76 5.54-1.46-5.63zm-58.3 15.13l-9.76 5.54 11.22.08-1.46-5.62z"/><path class="cls-47" d="M235.89 133.65a159.76 159.76 0 0 1 22.7-82.32L363.15 88"/><path class="cls-48" d="M360.32 90.04l11.19.85-9.27-6.33-1.92 5.48z"/><path class="cls-47" d="M239.59 194.91c-7.3-18.34-12.09-40.32-12.09-61.26a160.71 160.71 0 0 1 5.69-42.52L217 88.73"/><path class="cls-48" d="M219.38 86.15l-11.15 1.29 10.3 4.46.85-5.75z"/><path class="cls-47" d="M154.67 78.15a212.44 212.44 0 0 0-1.9 107.45"/><path class="cls-48" d="M149.5 184.4l5.55 9.76.08-11.23-5.63 1.47z"/><path class="cls-47" d="M247.2 192.93a161 161 0 0 0 82.43 86.69"/><path class="cls-48" d="M326.68 281.45l11.1 1.63-8.8-6.96-2.3 5.33z"/><path class="cls-47" d="M241.59 91.13a161.19 161.19 0 0 0 5.61 101.8"/><path class="cls-44" d="M201.6 268.24l103.36-50.05-30.33-68.47-120.18 8.1 47.15 110.42z"/><path class="cls-48" d="M271.47 154.94l27 60.86-94.29 45.66-42.33-99.13 109.66-7.39m3.15-5.22l-120.17 8.1 47.16 110.42L305 218.19l-30.34-68.47zm72.47 27.04a3.68 3.68 0 0 1-1.8-.48 4.2 4.2 0 0 1-1.75-1.84l-4.79-11.09a3 3 0 0 1 0-2.52 2.58 2.58 0 0 1 1.89-1.38l-.45-1a5.81 5.81 0 0 1 0-5 5.09 5.09 0 0 1 4-2.7h.89a8.2 8.2 0 0 1 4.32 1.28 8.93 8.93 0 0 1 3.59 4.06l.62 1.46h.27a4.55 4.55 0 0 1 .52 0 3.62 3.62 0 0 1 1.87.55 4.27 4.27 0 0 1 1.65 1.82l4.45 10.63a3 3 0 0 1 0 2.4 2.5 2.5 0 0 1-1.9 1.43l-12.7 2.49a3.23 3.23 0 0 1-.68-.11zm3.29-11a1.14 1.14 0 0 0-.26 0c-.4.07-.48.23-.53.32s-.14.3.07.8a1.88 1.88 0 0 0 .83.93 1.83 1.83 0 0 0 1 .28h.16a.67.67 0 0 0 .5-.37.93.93 0 0 0-.06-.79 1.93 1.93 0 0 0-.82-.94 1.74 1.74 0 0 0-.89-.19zm-4.64-10.91h-.33a1.45 1.45 0 0 0-1.12.76 2 2 0 0 0 .05 1.66l.63 1.47 4.49-.69-.43-1a3.86 3.86 0 0 0-1.52-1.69 3.41 3.41 0 0 0-1.77-.47z"/><path class="cls-46" d="M345.15 151.65a7.17 7.17 0 0 1 3.8 1.14 8 8 0 0 1 3.2 3.6l.91 2.17 1-.16a2.31 2.31 0 0 1 .37 0 2.64 2.64 0 0 1 1.35.4 3.22 3.22 0 0 1 1.26 1.4l4.44 10.59a2 2 0 0 1 0 1.59 1.53 1.53 0 0 1-1.19.87l-12.7 2.49a2.92 2.92 0 0 1-.5 0 2.64 2.64 0 0 1-1.31-.36 3.18 3.18 0 0 1-1.34-1.4L339.71 163a2 2 0 0 1 0-1.67 1.65 1.65 0 0 1 1.32-.87l1.1-.17-.93-2.29a4.78 4.78 0 0 1 0-4.15 4.09 4.09 0 0 1 3.24-2.17h.74m-.76 8.25l6.53-1-.92-2.18a4.9 4.9 0 0 0-1.93-2.15 4.36 4.36 0 0 0-2.29-.67 3.1 3.1 0 0 0-.43 0 2.49 2.49 0 0 0-1.91 1.3 2.91 2.91 0 0 0 0 2.47l.94 2.22m7.09 9.25h.34a1.72 1.72 0 0 0 1.22-.93 1.86 1.86 0 0 0 0-1.61 3 3 0 0 0-1.24-1.41 2.6 2.6 0 0 0-1.34-.38 3 3 0 0 0-.42 0 1.57 1.57 0 0 0-1.26.87 1.87 1.87 0 0 0 0 1.63 3 3 0 0 0 2.7 1.82m-6.33-19.5h-1.09a6 6 0 0 0-4.71 3.22 6.76 6.76 0 0 0-.05 5.82l.05.12a3.45 3.45 0 0 0-1.44 1.49 4 4 0 0 0-.11 3.28l4.76 11v.05a5.1 5.1 0 0 0 2.16 2.27 4.56 4.56 0 0 0 2.28.61 4.38 4.38 0 0 0 .88-.09l12.7-2.48a3.55 3.55 0 0 0 2.62-2 4 4 0 0 0 .07-3.12v-.05l-4.43-10.59v-.05a5.26 5.26 0 0 0-2-2.25 4.65 4.65 0 0 0-2.39-.69h-.16l-.32-.76a9.94 9.94 0 0 0-4-4.54 9.24 9.24 0 0 0-4.85-1.43zm.48 6.24h.15a2.38 2.38 0 0 1 1.25.38 2.93 2.93 0 0 1 1 1l-2.44.37-.32-.75a1 1 0 0 1-.07-.81c0-.06.08-.16.4-.23z"/></g></g></svg>