<svg id="Layer_1" xmlns="http://www.w3.org/2000/svg" viewBox="0 0 375 375"><style>.st0{enable-background:new}.st1{fill:#5e5e5e}.st2{fill:#f6f6f6}.st3{fill:#0af}.st4{fill:#fff}.st5{fill:#a4a4a4}</style><title>Asset 9</title><g id="Layer_2_1_"><g id="Layer_1-2"><g class="st0"><path class="st1" d="M187.7 37.1c1.8 0 3.2.3 4.4.9s1.8 1.3 1.8 2.2v1.6h-12.5v-1.6c0-.9.7-1.6 1.8-2.2 1.2-.6 2.7-.9 4.5-.9zm0-7.8c.9 0 1.6.3 2.2.9.6.6.9 1.3.9 2.2 0 .9-.3 1.6-.9 2.2-.6.6-1.3.9-2.2.9-.9 0-1.6-.3-2.2-.9-.6-.6-.9-1.3-.9-2.2 0-.9.3-1.6.9-2.2.6-.6 1.3-.9 2.2-.9z"/></g><g class="st0"><path class="st1" d="M141.3 44.5c1.7-.5 3.2-.7 4.5-.5 1.3.2 2.1.7 2.4 1.5l.5 1.5-11.9 3.9-.5-1.5c-.2-.8.1-1.7 1.1-2.6s2.2-1.8 3.9-2.3zm-2.4-7.5c.8-.2 1.6-.2 2.4.2.7.4 1.2 1 1.5 1.8.3.8.2 1.6-.2 2.4-.4.7-1 1.2-1.8 1.5-.8.3-1.6.2-2.4-.2-.7-.4-1.2-1-1.5-1.8-.3-.8-.2-1.6.2-2.4.3-.7.9-1.2 1.8-1.5z"/></g><g class="st0"><path class="st1" d="M94.8 59.5c.7-.5 1.5-.7 2.3-.5.8.1 1.5.6 2 1.3.5.7.7 1.5.6 2.3-.1.8-.5 1.5-1.3 2-.7.5-1.5.7-2.3.6-.8-.1-1.5-.6-2-1.3-.5-.7-.7-1.5-.6-2.3.1-.9.6-1.6 1.3-2.1zm4.5 6.3c1.5-1 2.8-1.6 4.1-1.9 1.3-.2 2.2 0 2.8.7l.9 1.3L97 73.2l-.9-1.2c-.5-.7-.4-1.7.2-2.8.6-1.2 1.6-2.3 3-3.4z"/></g><g class="st0"><path class="st1" d="M59.7 94.5c.5-.7 1.2-1.1 2-1.2.8-.1 1.6.1 2.3.6.7.5 1.1 1.2 1.3 2 .1.8-.1 1.6-.6 2.3-.5.7-1.2 1.1-2 1.3-.8.1-1.6-.1-2.3-.6-.7-.5-1.1-1.2-1.3-2-.1-1 .1-1.7.6-2.4zM66 99c1.1-1.4 2.2-2.4 3.3-3 1.2-.6 2.1-.7 2.8-.2l1.3.9-7.3 10.1-1.3-.9c-.7-.6-.9-1.5-.7-2.8s.9-2.6 1.9-4.1z"/></g><g class="st0"><path class="st1" d="M37.1 138.5c.3-.8.8-1.4 1.5-1.8.7-.4 1.5-.4 2.4-.2.8.3 1.5.8 1.8 1.5.4.7.4 1.5.2 2.4-.3.8-.8 1.4-1.5 1.8-.7.4-1.5.4-2.4.2-.8-.3-1.5-.8-1.8-1.5-.4-.8-.4-1.6-.2-2.4zm7.5 2.4c.6-1.7 1.3-3 2.2-3.9s1.8-1.3 2.6-1.1l1.5.5-3.9 11.9-1.5-.5c-.8-.3-1.3-1.1-1.5-2.4-.1-1.3 0-2.8.6-4.5z"/></g><g class="st0"><path class="st1" d="M29.3 187.3c0-.9.3-1.6.9-2.2.6-.6 1.3-.9 2.2-.9.9 0 1.6.3 2.2.9.6.6.9 1.3.9 2.2 0 .9-.3 1.6-.9 2.2-.6.6-1.3.9-2.2.9-.9 0-1.6-.3-2.2-.9-.6-.6-.9-1.4-.9-2.2zm7.8 0c0-1.8.3-3.2.9-4.4.6-1.2 1.3-1.8 2.2-1.8h1.6v12.5h-1.6c-.9 0-1.6-.7-2.2-1.8-.6-1.3-.9-2.8-.9-4.5z"/></g><g class="st0"><path class="st1" d="M37 236.2c-.2-.8-.2-1.6.2-2.4.4-.7 1-1.2 1.8-1.5.8-.3 1.6-.2 2.4.2.7.4 1.2 1 1.5 1.8.3.8.2 1.6-.2 2.4-.4.7-1 1.2-1.8 1.5-.8.3-1.6.2-2.4-.2-.6-.3-1.2-.9-1.5-1.8zm7.5-2.4c-.5-1.7-.7-3.2-.5-4.5.2-1.3.7-2.1 1.5-2.4l1.5-.5 3.9 11.9-1.5.5c-.8.2-1.7-.1-2.6-1.1s-1.7-2.2-2.3-3.9z"/></g><g class="st0"><path class="st1" d="M59.5 280.4c-.5-.7-.7-1.5-.5-2.3.1-.8.6-1.5 1.3-2 .7-.5 1.5-.7 2.3-.6.8.1 1.5.5 2 1.3.5.7.7 1.5.6 2.3-.1.8-.6 1.5-1.3 2-.7.5-1.5.7-2.3.6-.9-.2-1.6-.6-2.1-1.3zm6.3-4.6c-1-1.5-1.6-2.8-1.9-4.1-.2-1.3 0-2.2.7-2.8l1.3-.9 7.3 10.1-1.2.9c-.7.5-1.7.4-2.8-.2-1.2-.6-2.3-1.6-3.4-3z"/></g><g class="st0"><path class="st1" d="M94.4 315.4c-.7-.5-1.1-1.2-1.2-2-.1-.8.1-1.6.6-2.3.5-.7 1.2-1.1 2-1.3.8-.1 1.6.1 2.3.6.7.5 1.1 1.2 1.3 2 .1.8-.1 1.6-.6 2.3-.5.7-1.2 1.1-2 1.3-.9.1-1.7-.1-2.4-.6zm4.6-6.3c-1.4-1.1-2.4-2.2-3-3.3-.6-1.2-.7-2.1-.2-2.8l.9-1.3 10.1 7.3-.9 1.3c-.6.7-1.5.9-2.8.7s-2.7-.9-4.1-1.9z"/></g><g class="st0"><path class="st1" d="M140.9 330.5c-1.7-.6-3-1.3-3.9-2.2s-1.3-1.8-1.1-2.6l.5-1.5 11.9 3.9-.5 1.5c-.3.8-1.1 1.3-2.4 1.5-1.4.1-2.9-.1-4.5-.6zm-2.5 7.4c-.8-.3-1.4-.8-1.8-1.5-.4-.7-.4-1.5-.2-2.4.3-.8.8-1.5 1.5-1.8.7-.4 1.5-.4 2.4-.2.8.3 1.4.8 1.8 1.5.4.7.4 1.5.2 2.4-.3.8-.8 1.5-1.5 1.8-.7.4-1.5.5-2.4.2z"/></g><g class="st0"><path class="st1" d="M187.3 337.8c-1.8 0-3.2-.3-4.4-.9-1.2-.6-1.8-1.3-1.8-2.2v-1.6h12.5v1.6c0 .9-.7 1.6-1.8 2.2-1.3.6-2.8.9-4.5.9zm0 7.8c-.9 0-1.6-.3-2.2-.9-.6-.6-.9-1.3-.9-2.2 0-.9.3-1.6.9-2.2.6-.6 1.3-.9 2.2-.9.9 0 1.6.3 2.2.9.6.6.9 1.3.9 2.2 0 .9-.3 1.6-.9 2.2-.6.6-1.4.9-2.2.9z"/></g><g class="st0"><path class="st1" d="M233.8 330.6c-1.7.5-3.2.7-4.5.5-1.3-.2-2.1-.7-2.4-1.5l-.5-1.5 11.9-3.9.5 1.5c.2.8-.1 1.7-1.1 2.6s-2.2 1.7-3.9 2.3zm2.4 7.4c-.8.2-1.6.2-2.4-.2-.7-.4-1.2-1-1.5-1.8-.3-.8-.2-1.6.2-2.4s1-1.2 1.8-1.5c.8-.3 1.6-.2 2.4.2.7.4 1.2 1 1.5 1.8.3.8.2 1.6-.2 2.4-.3.7-.9 1.2-1.8 1.5z"/></g><g class="st0"><path class="st1" d="M275.8 309.3c-1.5 1-2.8 1.6-4.1 1.9-1.3.2-2.2 0-2.8-.7l-.9-1.3 10.1-7.3.9 1.3c.5.7.4 1.7-.2 2.8s-1.6 2.3-3 3.3zm4.6 6.3c-.7.5-1.5.7-2.3.5-.8-.1-1.5-.6-2-1.3-.5-.7-.7-1.5-.6-2.3s.5-1.5 1.3-2c.7-.5 1.5-.7 2.3-.6.8.1 1.5.6 2 1.3.5.7.7 1.5.6 2.3-.2.9-.6 1.6-1.3 2.1z"/></g><g class="st0"><path class="st1" d="M309 276.1c-1.1 1.4-2.2 2.4-3.3 3-1.2.6-2.1.7-2.8.2l-1.3-.9 7.3-10.1 1.3.9c.7.6.9 1.5.7 2.8s-.8 2.7-1.9 4.1zm6.4 4.6c-.5.7-1.2 1.1-2 1.2-.8.1-1.6-.1-2.3-.6-.7-.5-1.1-1.2-1.3-2-.1-.8.1-1.6.6-2.3.5-.7 1.2-1.1 2-1.3.8-.1 1.6.1 2.3.6.7.5 1.1 1.2 1.3 2 0 .9-.1 1.7-.6 2.4z"/></g><g class="st0"><path class="st1" d="M330.4 234.2c-.6 1.7-1.3 3-2.2 3.9s-1.8 1.3-2.6 1.1l-1.5-.5 3.9-11.9 1.5.5c.8.3 1.3 1.1 1.5 2.4.1 1.3 0 2.8-.6 4.5zm7.5 2.4c-.3.8-.8 1.4-1.5 1.8-.7.4-1.5.4-2.4.2-.8-.3-1.5-.8-1.8-1.5-.4-.7-.4-1.5-.2-2.4.3-.8.8-1.4 1.5-1.8.7-.4 1.5-.4 2.4-.2.8.3 1.5.8 1.8 1.5.4.8.4 1.6.2 2.4z"/></g><g class="st0"><path class="st1" d="M337.8 187.7c0 1.8-.3 3.2-.9 4.4s-1.3 1.8-2.2 1.8h-1.6v-12.5h1.6c.9 0 1.6.7 2.2 1.8.6 1.2.9 2.7.9 4.5zm7.8 0c0 .9-.3 1.6-.9 2.2-.6.6-1.3.9-2.2.9-.9 0-1.6-.3-2.2-.9-.6-.6-.9-1.3-.9-2.2 0-.9.3-1.6.9-2.2.6-.6 1.3-.9 2.2-.9.9 0 1.6.3 2.2.9.6.6.9 1.3.9 2.2z"/></g><g class="st0"><path class="st1" d="M330.6 141.3c.5 1.7.7 3.2.5 4.5-.2 1.3-.7 2.1-1.5 2.4l-1.5.5-3.9-11.9 1.5-.5c.8-.2 1.7.1 2.6 1.1s1.7 2.2 2.3 3.9zm7.4-2.4c.2.8.2 1.6-.2 2.4-.4.7-1 1.2-1.8 1.5-.8.3-1.6.2-2.4-.2s-1.2-1-1.5-1.8c-.3-.8-.2-1.6.2-2.4.4-.7 1-1.2 1.8-1.5.8-.3 1.6-.2 2.4.2.7.3 1.2.9 1.5 1.8z"/></g><g class="st0"><path class="st1" d="M309.3 99.3c1 1.5 1.6 2.8 1.9 4.1.2 1.3 0 2.2-.7 2.8l-1.3.9-7.3-10.1 1.3-.9c.7-.5 1.7-.4 2.8.2s2.3 1.6 3.3 3zm6.3-4.6c.5.7.7 1.5.5 2.3-.1.8-.6 1.5-1.3 2-.7.5-1.5.7-2.3.6s-1.5-.5-2-1.3c-.5-.7-.7-1.5-.6-2.3.1-.8.6-1.5 1.3-2 .7-.5 1.5-.7 2.3-.6.9.2 1.6.6 2.1 1.3z"/></g><g class="st0"><path class="st1" d="M276.1 66.1c1.4 1.1 2.4 2.2 3 3.3.6 1.2.7 2.1.2 2.8l-.9 1.3-10.1-7.3.9-1.3c.6-.7 1.5-.9 2.8-.7 1.2.2 2.6.8 4.1 1.9zm4.5-6.4c.7.5 1.1 1.2 1.2 2s-.1 1.6-.6 2.3c-.5.7-1.2 1.1-2 1.3-.8.1-1.6-.1-2.3-.6-.7-.5-1.1-1.2-1.3-2-.1-.8.1-1.6.6-2.3.5-.7 1.2-1.1 2-1.3 1 0 1.7.1 2.4.6z"/></g><g class="st0"><path class="st1" d="M234.2 44.6c1.7.6 3 1.3 3.9 2.2s1.3 1.8 1.1 2.6l-.5 1.5-11.9-3.9.5-1.5c.3-.8 1.1-1.3 2.4-1.5 1.3-.1 2.8.1 4.5.6zm2.4-7.4c.8.3 1.4.8 1.8 1.5.4.7.4 1.5.2 2.4-.3.8-.8 1.5-1.5 1.8-.7.4-1.5.4-2.4.2-.8-.3-1.4-.8-1.8-1.5-.4-.7-.4-1.5-.2-2.4.3-.8.8-1.5 1.5-1.8.7-.4 1.5-.5 2.4-.2z"/></g><g class="st0"><path class="st1" d="M304.2 71.1c1 1 1.7 2.1 2 3.1.3 1 .3 1.8-.2 2.3l-.9.9-7.2-7.2.9-.9c.5-.5 1.3-.5 2.3-.2 1 .3 2.1 1 3.1 2zm4.5-4.5c.5.5.7 1.1.7 1.8s-.3 1.3-.8 1.8-1.1.8-1.8.8-1.3-.3-1.8-.8-.8-1.1-.8-1.8.3-1.3.8-1.8 1.1-.8 1.8-.8c.8 0 1.4.3 1.9.8z"/></g><g class="st0"><path class="st1" d="M262.5 40.8c1.3.7 2.3 1.4 2.9 2.3.6.9.8 1.6.5 2.3l-.6 1.1-9.1-4.6.6-1.1c.4-.6 1.1-.9 2.1-.9 1.1-.1 2.3.2 3.6.9zm2.9-5.7c.6.3 1.1.8 1.3 1.5.2.6.1 1.3-.2 1.9-.3.6-.8 1.1-1.5 1.3-.6.2-1.3.2-1.9-.2s-1.1-.8-1.3-1.5c-.2-.6-.1-1.3.2-1.9.3-.6.8-1.1 1.5-1.3.7-.2 1.3-.1 1.9.2z"/></g><g class="st0"><path class="st1" d="M213.5 24.7c1.4.2 2.6.7 3.5 1.3s1.3 1.3 1.2 2l-.2 1.3-10.1-1.6.2-1.3c.2-.7.7-1.2 1.8-1.5s2.2-.4 3.6-.2zm1-6.3c.7.1 1.3.5 1.7 1 .4.5.5 1.2.4 1.9-.1.7-.4 1.3-1 1.7s-1.2.5-1.9.4c-.7-.1-1.3-.4-1.7-1-.4-.5-.5-1.2-.4-1.9.1-.7.4-1.3 1-1.7.6-.3 1.2-.5 1.9-.4z"/></g><g class="st0"><path class="st1" d="M161.8 24.7c1.4-.2 2.7-.2 3.7.2 1 .3 1.6.8 1.8 1.5l.2 1.3-10.1 1.6-.2-1.3c-.1-.7.3-1.4 1.2-2 .8-.6 2-1.1 3.4-1.3zm-1-6.3c.7-.1 1.3.1 1.9.5.5.4.9 1 1 1.7.1.7 0 1.4-.4 1.9s-1 .9-1.7 1-1.3 0-1.9-.4c-.5-.4-.9-1-1-1.7-.1-.7 0-1.4.4-1.9.5-.7 1-1 1.7-1.1z"/></g><g class="st0"><path class="st1" d="M109.9 34.9c.6-.3 1.3-.4 1.9-.1.6.2 1.1.6 1.5 1.3s.4 1.3.2 1.9c-.2.6-.6 1.1-1.3 1.5s-1.3.4-1.9.2c-.6-.2-1.1-.6-1.5-1.3s-.4-1.3-.2-1.9c.2-.8.7-1.3 1.3-1.6zm2.9 5.7c1.3-.6 2.5-1 3.6-1s1.8.3 2.1.9l.6 1.1-9.1 4.6-.6-1.1c-.3-.7-.1-1.4.5-2.3.6-.8 1.6-1.6 2.9-2.2z"/></g><g class="st0"><path class="st1" d="M66.5 66.3c.5-.5 1.1-.7 1.8-.7s1.3.3 1.8.8.8 1.1.8 1.8-.3 1.3-.8 1.8-1.1.8-1.8.8-1.3-.3-1.8-.8-.8-1.1-.8-1.8c.1-.8.3-1.4.8-1.9zm4.6 4.5c1-1 2.1-1.7 3.1-2 1-.3 1.8-.3 2.3.2l.9.9-7.2 7.2-.9-.9c-.5-.5-.5-1.3-.2-2.3.3-1 .9-2.1 2-3.1z"/></g><g class="st0"><path class="st1" d="M35 109.6c.3-.6.8-1.1 1.5-1.3.6-.2 1.3-.1 1.9.2.6.3 1.1.8 1.3 1.5.2.6.2 1.3-.2 1.9s-.8 1.1-1.5 1.3c-.6.2-1.3.1-1.9-.2s-1.1-.8-1.3-1.5c-.2-.6-.1-1.2.2-1.9zm5.7 2.9c.7-1.3 1.4-2.3 2.3-2.9.9-.6 1.6-.8 2.3-.5l1.1.6-4.6 9.1-1.1-.6c-.6-.4-.9-1.1-.9-2.1-.1-1.1.3-2.3.9-3.6z"/></g><g class="st0"><path class="st1" d="M18.4 160.5c.1-.7.5-1.3 1-1.7.5-.4 1.2-.5 1.9-.4.7.1 1.3.4 1.7 1 .4.5.5 1.2.4 1.9-.1.7-.4 1.3-1 1.7-.5.4-1.2.5-1.9.4-.7-.1-1.3-.4-1.7-1-.4-.5-.5-1.2-.4-1.9zm6.3 1c.2-1.4.7-2.6 1.3-3.5s1.3-1.3 2-1.2l1.3.2-1.6 10.1-1.3-.2c-.7-.2-1.2-.7-1.5-1.8s-.4-2.1-.2-3.6z"/></g><g class="st0"><path class="st1" d="M18.2 214.1c-.1-.7.1-1.3.5-1.9.4-.5 1-.9 1.7-1 .7-.1 1.4 0 1.9.4s.9 1 1 1.7 0 1.3-.4 1.9c-.4.5-1 .9-1.7 1-.7.1-1.4 0-1.9-.4-.6-.4-1-.9-1.1-1.7zm6.3-1c-.2-1.4-.2-2.7.2-3.7.3-1 .8-1.6 1.5-1.8l1.3-.2 1.6 10.1-1.3.2c-.7.1-1.4-.3-2-1.2-.6-.8-1-1.9-1.3-3.4z"/></g><g class="st0"><path class="st1" d="M34.7 265.1c-.3-.6-.4-1.3-.1-1.9.2-.6.6-1.1 1.3-1.5.6-.3 1.3-.4 1.9-.2.6.2 1.1.6 1.5 1.3s.4 1.3.2 1.9c-.2.6-.6 1.1-1.3 1.5-.6.3-1.3.4-1.9.2-.7-.2-1.2-.7-1.6-1.3zm5.8-2.9c-.6-1.3-1-2.5-1-3.6s.3-1.8.9-2.1l1.1-.6 4.6 9.1-1.1.6c-.7.3-1.4.1-2.3-.5-.8-.7-1.6-1.6-2.2-2.9z"/></g><g class="st0"><path class="st1" d="M66.2 308.5c-.5-.5-.7-1.1-.7-1.8s.3-1.3.8-1.8 1.1-.8 1.8-.8 1.3.3 1.8.8.8 1.1.8 1.8-.3 1.3-.8 1.8-1.1.8-1.8.8c-.7-.1-1.3-.4-1.9-.8zm4.6-4.6c-1-1-1.7-2.1-2-3.1-.3-1-.3-1.8.2-2.3l.9-.9 7.2 7.2-.9.9c-.5.5-1.3.5-2.3.2-1.1-.3-2.1-1-3.1-2z"/></g><g class="st0"><path class="st1" d="M109.6 340.1c-.6-.3-1.1-.8-1.3-1.5-.2-.6-.1-1.3.2-1.9.3-.6.8-1.1 1.5-1.3.6-.2 1.3-.2 1.9.2s1.1.8 1.3 1.5c.2.6.1 1.3-.2 1.9s-.8 1.1-1.5 1.3c-.7.1-1.3.1-1.9-.2zm2.9-5.7c-1.3-.7-2.3-1.4-2.9-2.3-.6-.9-.8-1.6-.5-2.3l.6-1.1 9.1 4.6-.6 1.1c-.4.6-1.1.9-2.1.9-1.1 0-2.3-.3-3.6-.9z"/></g><g class="st0"><path class="st1" d="M161.5 350.3c-1.4-.2-2.6-.7-3.5-1.3s-1.3-1.3-1.2-2l.2-1.3 10.1 1.6-.2 1.3c-.2.7-.7 1.2-1.8 1.5s-2.2.4-3.6.2zm-1 6.4c-.7-.1-1.3-.5-1.7-1-.4-.5-.5-1.2-.4-1.9.1-.7.4-1.3 1-1.7.5-.4 1.2-.5 1.9-.4.7.1 1.3.4 1.7 1 .4.5.5 1.2.4 1.9-.1.7-.4 1.3-1 1.7-.6.3-1.2.5-1.9.4z"/></g><g class="st0"><path class="st1" d="M213 350.4c-1.4.2-2.7.2-3.7-.2s-1.6-.8-1.8-1.5l-.2-1.3 10.1-1.6.2 1.3c.1.7-.3 1.4-1.2 2-.8.7-2 1.1-3.4 1.3zm1 6.4c-.7.1-1.3-.1-1.9-.5-.5-.4-.9-1-1-1.7-.1-.7 0-1.4.4-1.9s1-.9 1.7-1c.7-.1 1.3 0 1.9.4.5.4.9 1 1 1.7.1.7 0 1.4-.4 1.9-.5.6-1 .9-1.7 1.1z"/></g><g class="st0"><path class="st1" d="M262.1 334.5c-1.3.6-2.5 1-3.6 1s-1.8-.3-2.1-.9l-.6-1.1 9.1-4.6.6 1.1c.3.7.1 1.4-.5 2.3-.7.8-1.6 1.6-2.9 2.2zm2.9 5.7c-.6.3-1.3.4-1.9.1-.6-.2-1.1-.6-1.5-1.3s-.4-1.3-.2-1.9c.2-.6.6-1.1 1.3-1.5s1.3-.4 1.9-.2c.6.2 1.1.6 1.5 1.3.3.6.4 1.3.2 1.9-.3.8-.7 1.3-1.3 1.6z"/></g><g class="st0"><path class="st1" d="M303.9 304.2c-1 1-2.1 1.7-3.1 2-1 .3-1.8.3-2.3-.2l-.9-.9 7.2-7.2.9.9c.5.5.5 1.3.2 2.3s-1 2.1-2 3.1zm4.5 4.6c-.5.5-1.1.7-1.8.7s-1.3-.3-1.8-.8-.8-1.1-.8-1.8.3-1.3.8-1.8 1.1-.8 1.8-.8 1.3.3 1.8.8.8 1.1.8 1.8-.3 1.3-.8 1.9z"/></g><g class="st0"><path class="st1" d="M334.3 262.6c-.7 1.3-1.4 2.2-2.3 2.9-.9.6-1.6.8-2.3.5l-1.1-.6 4.6-9.1 1.1.6c.6.4.9 1.1.9 2.1.1 1.1-.3 2.3-.9 3.6zm5.7 2.9c-.3.6-.8 1.1-1.5 1.3-.6.2-1.3.1-1.9-.2-.6-.3-1.1-.8-1.3-1.5-.2-.6-.2-1.3.2-1.9s.8-1.1 1.5-1.3c.6-.2 1.3-.1 1.9.2s1.1.8 1.3 1.5c.2.6.1 1.3-.2 1.9z"/></g><g class="st0"><path class="st1" d="M350.3 213.5c-.2 1.4-.7 2.6-1.3 3.5s-1.3 1.3-2 1.2l-1.3-.2 1.6-10.1 1.3.2c.7.2 1.2.7 1.5 1.8.4 1 .4 2.2.2 3.6zm6.3 1c-.1.7-.5 1.3-1 1.7-.5.4-1.2.5-1.9.4-.7-.1-1.3-.4-1.7-1s-.5-1.2-.4-1.9c.1-.7.4-1.3 1-1.7.5-.4 1.2-.5 1.9-.4.7.1 1.3.4 1.7 1 .4.6.5 1.2.4 1.9z"/></g><g class="st0"><path class="st1" d="M350.3 162c.2 1.4.2 2.7-.2 3.7s-.8 1.6-1.5 1.8l-1.3.2-1.6-10.1 1.3-.2c.7-.1 1.4.3 2 1.2.6.8 1 2 1.3 3.4zm6.3-1c.1.7-.1 1.3-.5 1.9-.4.5-1 .9-1.7 1-.7.1-1.4 0-1.9-.4s-.9-1-1-1.7c-.1-.7 0-1.3.4-1.9.4-.5 1-.9 1.7-1 .7-.1 1.4 0 1.9.4.6.4 1 1 1.1 1.7z"/></g><g class="st0"><path class="st1" d="M334.4 112.9c.6 1.3 1 2.5 1 3.6s-.3 1.8-.9 2.1l-1.1.6-4.6-9.1 1.1-.6c.7-.3 1.4-.1 2.3.5.8.7 1.6 1.6 2.2 2.9zm5.7-2.9c.3.6.4 1.3.1 1.9-.2.6-.6 1.1-1.3 1.5-.6.3-1.3.4-1.9.2-.6-.2-1.1-.6-1.5-1.3s-.4-1.3-.2-1.9c.2-.6.6-1.1 1.3-1.5s1.3-.4 1.9-.2c.8.2 1.3.7 1.6 1.3z"/></g><g class="st0"><path class="st1" d="M368.7 187.8c0 1-.2 1.9-.5 2.5-.3.7-.8 1-1.3 1.1h-.9v-7.2h.9c.5 0 .9.4 1.3 1.1.3.6.5 1.4.5 2.5zm4.5 0c0 .5-.2.9-.5 1.3-.3.3-.8.5-1.3.5s-.9-.2-1.3-.5c-.3-.3-.5-.8-.5-1.3s.2-.9.5-1.3c.3-.3.8-.5 1.3-.5s.9.2 1.3.5c.3.3.5.7.5 1.3z"/></g><g class="st0"><path class="st1" d="M359.9 131.9c.3 1 .4 1.8.3 2.6-.1.7-.4 1.2-.9 1.4l-.9.3-2.2-6.9.9-.3c.5-.1 1 .1 1.5.6s.9 1.3 1.3 2.3zm4.3-1.4c.1.5.1.9-.1 1.4-.2.4-.6.7-1.1.9-.5.2-.9.1-1.4-.1-.4-.2-.7-.6-.9-1s-.1-.9.1-1.4c.2-.4.6-.7 1.1-.9.5-.2.9-.1 1.4.1.4.2.7.5.9 1z"/></g><g class="st0"><path class="st1" d="M334.2 81.4c.6.8.9 1.6 1.1 2.4.1.7 0 1.3-.4 1.6l-.7.5-4.2-5.8.7-.5c.4-.3 1-.2 1.6.1s1.3.8 1.9 1.7zm3.7-2.7c.3.4.4.9.3 1.3-.1.5-.3.9-.7 1.2s-.9.4-1.3.3c-.5-.1-.9-.3-1.2-.7-.3-.4-.4-.8-.3-1.3.1-.5.3-.9.7-1.2.4-.3.9-.4 1.3-.3.5.1.8.3 1.2.7z"/></g><g class="st0"><path class="st1" d="M294.1 41.2c.8.6 1.4 1.3 1.8 1.9.3.7.4 1.2.1 1.6l-.5.7-5.8-4.2.5-.7c.3-.4.9-.5 1.6-.4s1.5.5 2.3 1.1zm2.7-3.7c.4.3.6.7.7 1.2.1.5 0 .9-.3 1.3s-.7.7-1.2.7-.9 0-1.3-.3-.7-.7-.7-1.2c-.1-.5 0-.9.3-1.3s.7-.7 1.2-.7c.4-.1.9 0 1.3.3z"/></g><g class="st0"><path class="st1" d="M243.7 15.4c1 .3 1.7.8 2.3 1.3.5.5.7 1 .6 1.5l-.3.9-6.9-2.2.3-.9c.2-.5.6-.8 1.4-.9.7-.1 1.6-.1 2.6.3zm1.4-4.3c.5.2.8.5 1 .9.2.4.2.9.1 1.4-.2.5-.4.8-.9 1.1s-.9.2-1.4.1c-.5-.2-.8-.4-1-.9-.2-.4-.2-.9-.1-1.4.2-.5.5-.8.9-1.1.4-.2.9-.3 1.4-.1z"/></g><g class="st0"><path class="st1" d="M187.8 6.4c1 0 1.9.2 2.5.5.7.3 1 .8 1.1 1.3V9h-7.2v-.9c0-.5.4-.9 1.1-1.3.6-.3 1.4-.4 2.5-.4zm0-4.6c.5 0 .9.2 1.3.5.3.3.5.8.5 1.3s-.2.9-.5 1.3c-.3.3-.8.5-1.3.5s-.9-.2-1.3-.5c-.3-.3-.5-.8-.5-1.3s.2-.9.5-1.3c.3-.3.7-.4 1.3-.5z"/></g><g class="st0"><path class="st1" d="M131.8 15.2c1-.3 1.8-.4 2.6-.3.7.1 1.2.4 1.4.9l.3.9-6.9 2.2-.3-.9c-.1-.5.1-1 .6-1.5s1.3-.9 2.3-1.3zm-1.4-4.2c.5-.1.9-.1 1.4.1.4.2.7.6.9 1.1.2.5.1.9-.1 1.4-.2.4-.6.7-1 .9-.5.2-.9.1-1.4-.1-.4-.2-.7-.6-.9-1.1-.2-.5-.1-.9.1-1.4.1-.5.5-.8 1-.9z"/></g><g class="st0"><path class="st1" d="M78.6 37.3c.4-.3.9-.4 1.3-.3.5.1.9.3 1.2.7.3.4.4.9.3 1.3-.1.5-.3.9-.7 1.2-.4.3-.8.4-1.3.3-.5-.1-.9-.3-1.2-.7-.3-.4-.4-.9-.3-1.3 0-.5.3-.9.7-1.2zm2.6 3.6c.8-.6 1.6-.9 2.4-1.1.7-.1 1.3 0 1.6.4l.5.7-5.8 4.2-.5-.7c-.3-.4-.2-1 .1-1.6s.9-1.2 1.7-1.9z"/></g><g class="st0"><path class="st1" d="M37.4 78.2c.3-.4.7-.6 1.2-.7s.9 0 1.3.3.7.7.7 1.2c.1.5 0 .9-.3 1.3s-.7.7-1.2.7c-.5.1-.9 0-1.3-.3s-.7-.7-.7-1.2c-.1-.4 0-.8.3-1.3zm3.6 2.7c.6-.8 1.3-1.4 1.9-1.8.7-.3 1.2-.4 1.6-.1l.7.5-4.2 5.8-.7-.5c-.3-.3-.5-.8-.3-1.5.1-.8.4-1.6 1-2.4z"/></g><g class="st0"><path class="st1" d="M11 130c.2-.5.5-.8.9-1 .4-.2.9-.2 1.4-.1s.8.4 1.1.9.2.9.1 1.4c-.2.5-.4.8-.9 1-.4.2-.9.2-1.4.1-.5-.2-.8-.5-1.1-.9-.3-.5-.3-.9-.1-1.4zm4.2 1.4c.3-1 .8-1.7 1.3-2.3.5-.5 1-.7 1.5-.6l.9.3-2.2 6.9-.9-.3c-.5-.2-.8-.6-.9-1.4-.1-.8 0-1.7.3-2.6z"/></g><g class="st0"><path class="st1" d="M1.8 187.3c0-.5.2-.9.5-1.3.3-.3.8-.5 1.3-.5s.9.2 1.3.5c.3.3.5.8.5 1.3s-.2.9-.5 1.3c-.3.3-.8.5-1.3.5s-.9-.2-1.3-.5c-.3-.4-.4-.8-.5-1.3zm4.6 0c0-1 .2-1.9.5-2.5s.8-1 1.3-1.1H9v7.2h-.9c-.5 0-.9-.4-1.3-1.1-.3-.6-.4-1.5-.4-2.5z"/></g><g class="st0"><path class="st1" d="M10.8 244.8c-.1-.5-.1-.9.1-1.4.2-.4.6-.7 1.1-.9.5-.2.9-.1 1.4.1.4.2.7.6.9 1 .2.5.1.9-.1 1.4-.2.4-.6.7-1.1.9-.5.2-.9.1-1.4-.1-.4-.2-.7-.6-.9-1zm4.3-1.4c-.3-1-.4-1.8-.3-2.6.1-.7.4-1.2.9-1.4l.9-.3 2.2 6.9-.9.3c-.5.1-1-.1-1.5-.6-.5-.6-.9-1.4-1.3-2.3z"/></g><g class="st0"><path class="st1" d="M37.1 296.6c-.3-.4-.4-.9-.3-1.3.1-.5.3-.9.7-1.2.4-.3.9-.4 1.3-.3.5.1.9.3 1.2.7.3.4.4.8.3 1.3-.1.5-.3.9-.7 1.2-.4.3-.9.4-1.3.3-.5-.1-.9-.3-1.2-.7zm3.7-2.7c-.6-.8-.9-1.6-1.1-2.4-.1-.7 0-1.3.4-1.6l.7-.5 4.2 5.8-.7.5c-.4.3-1 .2-1.6-.1s-1.3-.8-1.9-1.7z"/></g><g class="st0"><path class="st1" d="M78.1 337.7c-.4-.3-.6-.7-.7-1.2s0-.9.3-1.3.7-.7 1.2-.7c.5-.1.9 0 1.3.3s.7.7.7 1.2c.1.5 0 .9-.3 1.3s-.7.7-1.2.7c-.4 0-.9-.1-1.3-.3zm2.7-3.7c-.8-.6-1.4-1.3-1.8-1.9-.3-.7-.4-1.2-.1-1.6l.5-.7 5.8 4.2-.5.7c-.3.4-.9.5-1.6.4-.7-.1-1.5-.5-2.3-1.1z"/></g><g class="st0"><path class="st1" d="M131.2 359.8c-1-.3-1.7-.8-2.3-1.3-.5-.5-.7-1-.6-1.5l.3-.9 6.9 2.2-.3.9c-.2.5-.6.8-1.4.9-.7.1-1.6 0-2.6-.3zm-1.3 4.3c-.5-.2-.8-.5-1-.9-.2-.4-.2-.9-.1-1.4s.4-.8.9-1.1.9-.2 1.4-.1c.5.2.8.4 1 .9.2.4.2.9.1 1.4-.2.5-.5.8-.9 1.1-.5.2-1 .2-1.4.1z"/></g><g class="st0"><path class="st1" d="M187.3 368.7c-1 0-1.9-.2-2.5-.5s-1-.8-1.1-1.3v-.9h7.2v.9c0 .5-.4.9-1.1 1.3-.7.3-1.5.5-2.5.5zm0 4.5c-.5 0-.9-.2-1.3-.5-.3-.3-.5-.8-.5-1.3s.2-.9.5-1.3c.3-.3.8-.5 1.3-.5s.9.2 1.3.5c.3.3.5.8.5 1.3s-.2.9-.5 1.3c-.4.3-.8.5-1.3.5z"/></g><g class="st0"><path class="st1" d="M243.2 360c-1 .3-1.8.4-2.6.3-.7-.1-1.2-.4-1.4-.9l-.3-.9 6.9-2.2.3.9c.1.5-.1 1-.6 1.5s-1.3 1-2.3 1.3zm1.4 4.3c-.5.1-.9.1-1.4-.1-.4-.2-.7-.6-.9-1.1-.2-.5-.1-.9.1-1.4.2-.4.6-.7 1-.9.5-.2.9-.1 1.4.1.4.2.7.6.9 1.1.2.5.1.9-.1 1.4-.1.4-.5.7-1 .9z"/></g><g class="st0"><path class="st1" d="M293.8 334.4c-.8.6-1.6.9-2.4 1.1-.7.1-1.3 0-1.6-.4l-.5-.7 5.8-4.2.5.7c.3.4.2 1-.1 1.6s-.9 1.2-1.7 1.9zm2.6 3.6c-.4.3-.9.4-1.3.3-.5-.1-.9-.3-1.2-.7s-.4-.9-.3-1.3c.1-.5.3-.9.7-1.2.4-.3.8-.4 1.3-.3.5.1.9.3 1.2.7.3.4.4.9.3 1.3 0 .5-.3.9-.7 1.2z"/></g><g class="st0"><path class="st1" d="M333.9 294.3c-.6.8-1.3 1.4-1.9 1.8-.7.3-1.2.4-1.6.1l-.7-.5 4.2-5.8.7.5c.4.3.5.9.4 1.6-.2.6-.5 1.4-1.1 2.3zm3.6 2.6c-.3.4-.7.6-1.2.7-.5.1-.9 0-1.3-.3s-.7-.7-.7-1.2c-.1-.5 0-.9.3-1.3s.7-.7 1.2-.7.9 0 1.3.3.7.7.7 1.2 0 .9-.3 1.3z"/></g><g class="st0"><path class="st1" d="M359.7 243.8c-.3 1-.8 1.7-1.3 2.3-.5.5-1 .7-1.5.6l-.9-.3 2.2-6.9.9.3c.5.2.8.6.9 1.4.1.7 0 1.6-.3 2.6zm4.3 1.4c-.2.5-.5.8-.9 1s-.9.2-1.4.1c-.5-.2-.8-.5-1.1-.9s-.2-.9-.1-1.4c.2-.5.4-.8.9-1s.9-.2 1.4-.1c.5.2.8.5 1.1.9.2.4.2.9.1 1.4z"/></g><circle class="st2" cx="187.5" cy="187.5" r="63.9"/><path class="st3" d="M187.5 69.4c-.3 0-.5-.2-.5-.5V46.2c0-.3.2-.5.5-.5s.5.2.5.5v22.7c0 .3-.3.5-.5.5zm0-42.8c-.3 0-.5-.2-.5-.5V11.6c0-.3.2-.5.5-.5s.5.2.5.5v14.6c0 .2-.3.4-.5.4z"/><path class="st3" d="M187.5 69.4c-.2 0-.4-.1-.5-.3-.1-.3 0-.5.3-.6l43.3-16.6c.3-.1.5 0 .6.3.1.3 0 .5-.3.6l-43.3 16.6h-.1z"/><path class="st3" d="M187.5 69.4c-.1 0-.2 0-.3-.1-.2-.1-.3-.5-.1-.7l23.5-36.3c.2-.2.5-.3.7-.1.2.1.3.5.1.7l-23.5 36.3c-.1.1-.3.2-.4.2z"/><path class="st3" d="M187.5 69.4h-.2L144 52.8c-.3-.1-.4-.4-.3-.6.1-.3.4-.4.6-.3l43.3 16.6c.3.1.4.4.3.6 0 .2-.2.3-.4.3z"/><path class="st3" d="M187.5 69.4c-.2 0-.3-.1-.4-.2l-23.5-36.3c-.1-.2-.1-.5.1-.7.2-.1.5-.1.7.1l23.5 36.3c.1.2.1.5-.1.7-.2.1-.2.1-.3.1z"/><path class="st3" d="M187.5 69.4c-.1 0-.2 0-.3-.1l-53.3-48.4c-.2-.2-.2-.5 0-.7.2-.2.5-.2.7 0l53.3 48.4c.2.2.2.5 0 .7-.2.1-.3.1-.4.1z"/><path class="st3" d="M187.5 69.4c-.1 0-.3-.1-.4-.2-.2-.2-.2-.5 0-.7l53.3-48.4c.2-.2.5-.2.7 0 .2.2.2.5 0 .7l-53.3 48.4c-.1.2-.2.2-.3.2zm-69.7 22.7c-.2 0-.3-.1-.4-.2L104 73.5c-.2-.2-.1-.5.1-.7.2-.2.5-.1.7.1l13.4 18.4c.2.2.1.5-.1.7-.1 0-.2.1-.3.1zM92.7 57.5c-.2 0-.3-.1-.4-.2l-8.6-11.8c-.2-.2-.1-.5.1-.7.2-.2.5-.1.7.1l8.6 11.8c.2.2.1.5-.1.7-.1 0-.2.1-.3.1z"/><path class="st3" d="M117.8 92.1c-.3 0-.5-.2-.5-.5L115 48.4c0-.3.2-.5.5-.5s.5.2.5.5l2.3 43.2c0 .2-.2.4-.5.5z"/><path class="st3" d="M117.8 92.1h-.2L77.3 76.5c-.3-.1-.4-.4-.3-.6.1-.3.4-.4.6-.3L118 91.1c.3.1.4.4.3.6-.1.2-.3.4-.5.4zm-43.1 59.2h-.2l-21.6-7c-.3-.1-.4-.4-.3-.6.1-.3.4-.4.6-.3l21.6 7c.3.1.4.4.3.6 0 .2-.2.3-.4.3zM34 138.1h-.2L20 133.6c-.3-.1-.4-.4-.3-.6.1-.3.4-.4.6-.3l13.9 4.5c.3.1.4.4.3.6-.1.2-.2.3-.5.3z"/><path class="st3" d="M74.7 151.3c-.3 0-.5-.2-.5-.5l-2.4-46.3c0-.3.2-.5.5-.5s.5.2.5.5l2.4 46.3c0 .3-.2.5-.5.5z"/><path class="st3" d="M74.7 151.3c-.1 0-.3-.1-.4-.2L47 117.6c-.2-.2-.1-.5.1-.7.2-.2.5-.1.7.1l27.3 33.5c.2.2.1.5-.1.7 0 .1-.2.1-.3.1z"/><path class="st3" d="M45.6 187.4c-.1 0-.2 0-.3-.1-.2-.2-.2-.5-.1-.7l29.1-36c.2-.2.5-.2.7-.1.2.2.2.5.1.7l-29.1 36c-.1.1-.3.2-.4.2z"/><path class="st3" d="M33 162.5c-.2 0-.4-.1-.5-.4-.1-.3.1-.5.4-.6l41.8-11.1c.3-.1.5.1.6.4.1.3-.1.5-.4.6l-41.8 11.1c-.1-.1-.1 0-.1 0z"/><path class="st3" d="M12.2 187.1c-.2 0-.3-.1-.4-.3-.1-.2-.1-.5.2-.7l62.5-35.7c.2-.1.5-.1.7.2.1.2.1.5-.2.7L12.4 187s-.1.1-.2.1z"/><path class="st3" d="M74.7 151.3c-.2 0-.4-.1-.5-.3L44.7 85.4c-.1-.3 0-.5.3-.7.3-.1.5 0 .7.3l29.6 65.7c.1.3 0 .5-.3.7-.1-.1-.2-.1-.3-.1zm-21.6 80.3c-.2 0-.4-.1-.5-.3-.1-.3.1-.5.3-.6l21.6-7c.3-.1.5.1.6.3.1.3-.1.5-.3.6l-21.6 7h-.1zm-32.9 10.7c-.2 0-.4-.1-.5-.3-.1-.3.1-.5.3-.6l13.9-4.5c.3-.1.5.1.6.3.1.3-.1.5-.3.6l-13.9 4.5h-.1z"/><path class="st3" d="M74.7 224.6h-.1l-41.8-11.1c-.3-.1-.4-.3-.4-.6.1-.3.3-.4.6-.4l41.8 11.1c.3.1.4.3.4.6-.1.2-.3.4-.5.4z"/><path class="st3" d="M47.5 258.1c-.1 0-.2 0-.3-.1-.2-.2-.2-.5-.1-.7l27.3-33.5c.2-.2.5-.2.7-.1.2.2.2.5.1.7L47.8 258c-.1.1-.2.1-.3.1zm56.9 44.2c-.1 0-.2 0-.3-.1-.2-.2-.3-.5-.1-.7l13.4-18.4c.2-.2.5-.3.7-.1.2.2.3.5.1.7l-13.4 18.4c-.1.1-.2.2-.4.2zm-20.3 28c-.1 0-.2 0-.3-.1-.2-.2-.3-.5-.1-.7l8.6-11.8c.2-.2.5-.3.7-.1.2.2.3.5.1.7l-8.6 11.8c-.1.1-.3.2-.4.2z"/><path class="st3" d="M117.8 283.9h-.1l-44.8-12c-.3-.1-.4-.3-.4-.6.1-.3.3-.4.6-.4l44.8 12c.3.1.4.3.4.6-.1.2-.3.4-.5.4z"/><path class="st3" d="M77.5 299.4c-.2 0-.4-.1-.5-.3-.1-.3 0-.5.3-.6l40.3-15.6c.3-.1.5 0 .6.3.1.3 0 .5-.3.6l-40.3 15.6h-.1z"/><path class="st3" d="M143.1 322.7c-.2 0-.3-.1-.4-.2l-25.3-38.8c-.2-.2-.1-.5.1-.7s.5-.1.7.1l25.3 38.8c.2.2.1.5-.1.7-.2.1-.3.1-.3.1z"/><path class="st3" d="M115.5 327c-.1 0-.1 0 0 0-.3 0-.5-.3-.5-.5l2.3-43.2c0-.3.3-.5.5-.5.3 0 .5.2.5.5l-2.3 43.2c-.1.3-.3.5-.5.5z"/><path class="st3" d="M132.4 354.4c-.2 0-.4-.2-.5-.4l-14.7-70.5c-.1-.3.1-.5.4-.6.3-.1.5.1.6.4l14.7 70.5c.1.3-.1.5-.4.6h-.1z"/><path class="st3" d="M46.2 291.7c-.3 0-.5-.2-.5-.4 0-.3.2-.5.4-.6l71.6-7.9c.3 0 .5.2.6.4 0 .3-.2.5-.4.6l-71.7 7.9zm141.3 37.5c-.3 0-.5-.2-.5-.5V306c0-.3.2-.5.5-.5s.5.2.5.5v22.7c0 .3-.3.5-.5.5zm0 34.6c-.3 0-.5-.2-.5-.5v-14.6c0-.3.2-.5.5-.5s.5.2.5.5v14.6c0 .3-.3.5-.5.5z"/><path class="st3" d="M164 342.8c-.1 0-.2 0-.3-.1-.2-.2-.3-.5-.1-.7l23.5-36.3c.2-.2.5-.3.7-.1.2.2.3.5.1.7l-23.5 36.3c-.1.1-.3.2-.4.2z"/><path class="st3" d="M210.9 342.8c-.2 0-.3-.1-.4-.2L187 306.3c-.1-.2-.1-.5.1-.7.2-.2.5-.1.7.1l23.5 36.3c.1.2.1.5-.1.7-.1.1-.2.1-.3.1zm59.6-40.5c-.2 0-.3-.1-.4-.2l-13.4-18.4c-.2-.2-.1-.5.1-.7s.5-.1.7.1l13.4 18.4c.2.2.1.5-.1.7-.1 0-.2.1-.3.1zm20.3 28c-.2 0-.3-.1-.4-.2l-8.6-11.8c-.2-.2-.1-.5.1-.7.2-.2.5-.1.7.1l8.6 11.8c.2.2.1.5-.1.7-.1 0-.2.1-.3.1z"/><path class="st3" d="M231.9 322.7c-.1 0-.2 0-.3-.1-.2-.2-.3-.5-.1-.7l25.3-38.8c.2-.2.5-.3.7-.1.2.2.3.5.1.7l-25.3 38.8c-.1.1-.3.2-.4.2z"/><path class="st3" d="M259.5 327c-.3 0-.5-.2-.5-.5l-2.3-43.2c0-.3.2-.5.5-.5s.5.2.5.5l2.3 43.2c0 .3-.2.5-.5.5z"/><path class="st3" d="M257.1 283.9c-.2 0-.4-.1-.5-.4-.1-.3.1-.5.4-.6l44.7-12c.3-.1.5.1.6.4.1.3-.1.5-.4.6l-44.7 12h-.1z"/><path class="st3" d="M297.5 299.4h-.2L257 283.8c-.3-.1-.4-.4-.3-.6.1-.3.4-.4.6-.3l40.3 15.6c.3.1.4.4.3.6-.1.2-.2.3-.4.3z"/><path class="st3" d="M328.7 291.7l-71.6-7.9c-.3 0-.5-.3-.4-.6 0-.3.3-.5.6-.4l71.6 7.9c.3 0 .5.3.4.6-.1.2-.3.4-.6.4z"/><path class="st3" d="M242.5 354.4h-.1c-.3-.1-.4-.3-.4-.6l14.7-70.5c.1-.3.3-.4.6-.4.3.1.4.3.4.6L243 354c-.1.2-.3.4-.5.4zm79.3-122.8h-.2l-21.6-7c-.3-.1-.4-.4-.3-.6s.4-.4.6-.3l21.6 7c.3.1.4.4.3.6 0 .2-.2.3-.4.3zm32.9 10.7h-.2l-13.9-4.5c-.3-.1-.4-.4-.3-.6s.4-.4.6-.3l13.9 4.5c.3.1.4.4.3.6 0 .2-.1.3-.4.3z"/><path class="st3" d="M327.5 258.2c-.1 0-.3-.1-.4-.2l-27.3-33.6c-.2-.2-.1-.5.1-.7.2-.2.5-.1.7.1l27.3 33.6c.2.2.1.5-.1.7-.1 0-.2.1-.3.1z"/><path class="st3" d="M300.2 224.6c-.2 0-.4-.1-.5-.4-.1-.3.1-.5.4-.6l41.8-11.1c.3-.1.5.1.6.4.1.3-.1.5-.4.6l-41.8 11.1h-.1zm0-73.3c-.2 0-.4-.1-.5-.3-.1-.3.1-.5.3-.6l21.6-7c.3-.1.5.1.6.3.1.3-.1.5-.3.6l-21.6 7h-.1zm40.7-13.2c-.2 0-.4-.1-.5-.3-.1-.3.1-.5.3-.6l13.9-4.5c.3-.1.5.1.6.3.1.3-.1.5-.3.6l-13.9 4.5h-.1z"/><path class="st3" d="M329.3 187.4c-.1 0-.3-.1-.4-.2l-29.1-36c-.2-.2-.1-.5.1-.7s.5-.1.7.1l29.1 36c.2.2.1.5-.1.7 0 0-.2.1-.3.1z"/><path class="st3" d="M342 162.5h-.1l-41.8-11.1c-.3-.1-.4-.3-.4-.6s.3-.4.6-.4l41.8 11.1c.3.1.4.3.4.6-.1.2-.3.4-.5.4z"/><path class="st3" d="M300.2 151.3c-.3 0-.5-.2-.5-.5l2.4-46.3c0-.3.2-.5.5-.5s.5.2.5.5l-2.4 46.3c0 .3-.2.5-.5.5z"/><path class="st3" d="M300.2 151.3c-.1 0-.2 0-.3-.1-.2-.2-.2-.5-.1-.7l27.3-33.5c.2-.2.5-.2.7-.1.2.2.2.5.1.7l-27.3 33.5c-.1.2-.3.2-.4.2z"/><path class="st3" d="M300.2 151.3h-.2c-.3-.1-.4-.4-.3-.7L329.3 85c.1-.3.4-.4.7-.3.3.1.4.4.3.7L300.7 151c-.1.2-.3.3-.5.3z"/><path class="st3" d="M362.7 187.1c-.1 0-.2 0-.2-.1L300 151.3c-.2-.1-.3-.4-.2-.7.1-.2.4-.3.7-.2l62.5 35.7c.2.1.3.4.2.7-.1.2-.3.3-.5.3zm-105.6-95c-.1 0-.2 0-.3-.1-.2-.2-.3-.5-.1-.7l13.4-18.4c.2-.2.5-.3.7-.1.2.2.3.5.1.7l-13.4 18.4c-.1.1-.2.2-.4.2zm25.2-34.6c-.1 0-.2 0-.3-.1-.2-.2-.3-.5-.1-.7l8.6-11.8c.2-.2.5-.3.7-.1.2.2.3.5.1.7l-8.6 11.8c-.1.1-.3.2-.4.2z"/><path class="st3" d="M257.1 92.1c-.2 0-.4-.1-.5-.3-.1-.3 0-.5.3-.6l40.3-15.6c.3-.1.5 0 .6.3.1.3 0 .5-.3.6L257.3 92c0 .1-.1.1-.2.1z"/><path class="st3" d="M257.1 92.1c-.3 0-.5-.3-.5-.5l2.3-43.2c0-.3.2-.5.5-.5s.5.3.5.5l-2.3 43.2c0 .3-.2.5-.5.5z"/><circle class="st4" cx="187.5" cy="68.9" r="4.7"/><circle class="st4" cx="117.8" cy="91.6" r="4.7"/><circle class="st4" cx="74.7" cy="150.8" r="4.7"/><circle class="st4" cx="74.7" cy="224.1" r="4.7"/><circle class="st4" cx="117.8" cy="283.4" r="4.7"/><circle class="st4" cx="187.5" cy="306" r="4.7"/><circle class="st4" cx="257.1" cy="283.4" r="4.7"/><circle class="st4" cx="300.2" cy="224.1" r="4.7"/><circle class="st4" cx="300.2" cy="150.8" r="4.7"/><circle class="st4" cx="257.1" cy="91.6" r="4.7"/><g class="st0"><path class="st3" d="M177.9 74.4h17.3c.3 0 .6.2.8.4.2.2.3.5.4.8v4.3c0 .3-.2.6-.4.8-.2.2-.5.3-.8.3h-17.3c-.3 0-.6-.1-.8-.3-.2-.2-.3-.5-.3-.8v-4.3c0-.3.1-.6.3-.8.2-.2.5-.4.8-.4zm0 8.7h17.3c.3 0 .6.1.8.3s.3.5.4.8v.8l-2.7-1.2-7 3.1v2.8H178c-.3 0-.6-.1-.8-.3-.2-.2-.3-.5-.3-.8v-4.4c0-.3.1-.6.3-.8s.4-.3.7-.3zm0 8.6h8.7c0 1.2.3 2.4.8 3.5s1.1 2.1 1.9 3H178c-.3 0-.6-.2-.8-.4s-.3-.5-.3-.8v-4.3c0-.3.1-.6.3-.8s.4-.2.7-.2zm1.1-15.1v2.2h2.2v-2.2H179zm0 8.7v2.1h2.2v-2.1H179zm0 8.6V96h2.2v-2.2H179zm4.3-15.1h1.1v-2.2h-1.1v2.2zm0 8.6h1.1v-2.1h-1.1v2.1zm0 8.6h1.1v-2.2h-1.1V96zm10.2-9.7l4.9 2.2v3.2c0 1.5-.5 2.9-1.4 4.1-.9 1.2-2.1 2-3.5 2.4-1.4-.4-2.6-1.2-3.5-2.4-.9-1.2-1.4-2.6-1.4-4.1v-3.2l4.9-2.2zm0 2.1l-2.7 1.2v2.9c0 .8.3 1.6.8 2.3.5.7 1.1 1.1 1.9 1.3v-7.7z"/></g><g class="st0"><path class="st3" d="M113.4 101.7l14-10.2c.3-.2.5-.2.8-.2.3 0 .5.2.7.4l2.5 3.5c.2.3.2.5.2.8s-.2.5-.4.7l-14 10.2c-.2.2-.5.2-.8.2-.3 0-.5-.2-.7-.4l-2.5-3.5c-.2-.2-.2-.5-.2-.8s.1-.5.4-.7zm2.1 1.1l1.3 1.8 1.8-1.3-1.3-1.8-1.8 1.3zm3 5.9l14-10.2c.2-.2.5-.2.8-.2.3 0 .5.2.7.4l.4.6-2.9.6-3.8 6.6 1.6 2.3-7 5.1c-.2.2-.5.2-.8.2s-.5-.2-.7-.4l-2.6-3.5c-.2-.2-.2-.5-.2-.8.1-.3.2-.5.5-.7zm1.8-6.7l.9-.6-1.3-1.8-.9.6 1.3 1.8zm.3 7.8l1.2 1.7 1.8-1.3-1.2-1.7-1.8 1.3zm3 5.9l7-5.1c.7 1 1.6 1.8 2.7 2.4 1 .6 2.1 1.1 3.3 1.3l-9.1 6.6c-.3.2-.5.2-.8.2-.3 0-.5-.2-.7-.4l-2.5-3.5c-.2-.2-.2-.5-.2-.8-.1-.3 0-.5.3-.7zm1.8-6.7l.9-.6-1.2-1.7-.9.6 1.2 1.7zm.3 7.8l1.3 1.8 1.8-1.3-1.3-1.8-1.8 1.3zm4.8-.8l.9-.6-1.3-1.8-.9.6 1.3 1.8zm2.5-13.9l5.2-1.1 1.9 2.6c.9 1.2 1.3 2.6 1.3 4.1 0 1.5-.5 2.8-1.4 4-1.4.5-2.8.5-4.2.1-1.4-.4-2.6-1.3-3.5-2.5l-1.9-2.6 2.6-4.6zm1.2 1.7l-1.5 2.6 1.7 2.3c.5.7 1.1 1.1 2 1.4.8.2 1.6.2 2.3-.1l-4.5-6.2z"/></g><g class="st0"><path class="st3" d="M77 161.7l5.3-16.4c.1-.3.3-.5.6-.6.3-.1.5-.2.8-.1l4.1 1.3c.3.1.5.3.6.6.1.3.1.5.1.8l-5.3 16.4c-.1.3-.3.5-.5.6-.3.1-.5.1-.8.1l-4.1-1.3c-.3-.1-.5-.3-.6-.5-.2-.3-.3-.6-.2-.9zm2.4-.4l2.1.7.7-2.1-2.1-.7-.7 2.1zm3.4-3.4l.3-1-2.1-.7-.3 1 2.1.7zm2.4 6.5l5.3-16.4c.1-.3.3-.5.5-.6.3-.1.5-.2.8-.1l.7.2-2 2.2.8 7.6 2.6.9-2.7 8.2c-.1.3-.3.5-.5.6-.3.1-.5.1-.8.1l-4.1-1.3c-.3-.1-.5-.3-.6-.5 0-.4-.1-.7 0-.9zm2.4-.4l2 .7.7-2.1-2-.7-.7 2.1zm3.4-3.5l.3-1-2-.7-.3 1 2 .7zm2.2-10l3.6-4 3.1 1c1.4.5 2.6 1.4 3.4 2.6.9 1.2 1.3 2.6 1.2 4-.8 1.2-1.9 2.1-3.4 2.6-1.4.5-2.9.5-4.3.1l-3.1-1-.5-5.3zm.3 16.5l2.7-8.2c1.2.3 2.4.5 3.6.4s2.3-.4 3.4-.9L99.6 169c-.1.3-.3.5-.6.6-.3.1-.5.1-.8.1l-4.1-1.3c-.3-.1-.5-.3-.6-.5-.1-.3-.1-.6 0-.9zm1.6-15.9l.3 2.9 2.7.9c.8.3 1.6.3 2.4 0 .8-.3 1.4-.7 1.8-1.4l-7.2-2.4zm.7 15.6l2.1.7.7-2.1-2.1-.7-.7 2.1zm3.4-3.5l.3-1-2.1-.7-.3 1 2.1.7z"/></g><g class="st0"><path class="st3" d="M82.9 231.5l-5.3-16.4c-.1-.3 0-.6.1-.8.1-.3.3-.4.6-.6l4.1-1.3c.3-.1.6 0 .8.1.3.1.4.3.5.6l5.3 16.4c.1.3.1.6-.1.8-.1.3-.3.4-.6.5l-4.1 1.3c-.3.1-.6.1-.8-.1-.2 0-.4-.2-.5-.5zm2.5-6.5l-.3-1-2.1.7.3 1 2.1-.7zm-.7 4.8l2.1-.7-.7-2.1-2.1.7.7 2.1zm6.4-1l-5.3-16.4c-.1-.3-.1-.6.1-.8.1-.3.3-.4.6-.6l.7-.2-.3 3 5.1 5.7 2.6-.9 2.7 8.2c.1.3.1.6-.1.8-.1.3-.3.4-.6.5l-4.1 1.3c-.3.1-.6.1-.8-.1-.3 0-.5-.2-.6-.5zM89.4 213l.6-5.3 3.1-1c1.5-.4 2.9-.4 4.3.1s2.5 1.3 3.4 2.6c.1 1.5-.4 2.8-1.2 4-.9 1.2-2 2.1-3.4 2.6l-3.1 1-3.7-4zm4.2 9.4l-.3-1-2 .7.3 1 2-.7zm-2.2-10.1l2 2.2 2.7-.9c.8-.3 1.4-.7 1.9-1.4s.7-1.4.7-2.2l-7.3 2.3zm1.5 14.9l2-.7-.7-2.1-2 .7.7 2.1zm6.5-1l-2.7-8.2c1.1-.4 2.2-1 3.1-1.8.9-.8 1.7-1.7 2.3-2.7l3.5 10.7c.1.3 0 .6-.1.8-.1.3-.3.4-.6.5l-4.1 1.3c-.3.1-.6.1-.8-.1-.3 0-.5-.2-.6-.5zm2.4-6.5l-.3-1-2.1.7.3 1 2.1-.7zm-.7 4.8l2.1-.7-.7-2.1-2.1.7.7 2.1z"/></g><g class="st0"><path class="st3" d="M128.7 284.6l-14-10.2c-.2-.2-.4-.4-.4-.7 0-.3 0-.6.2-.8l2.5-3.5c.2-.2.5-.4.7-.4.3 0 .5 0 .8.2l14 10.2c.2.2.4.4.4.7 0 .3 0 .5-.2.8l-2.5 3.5c-.2.2-.4.4-.7.4-.3 0-.5 0-.8-.2zm5.1-7l-14-10.2c-.2-.2-.4-.4-.4-.7 0-.3 0-.6.2-.8l.4-.6 1.5 2.6 7.5 1.6 1.6-2.3 7 5.1c.2.2.4.4.4.7 0 .3 0 .5-.2.8l-2.6 3.5c-.2.2-.4.4-.7.4-.2.2-.5.1-.7-.1zM123 265.8l-2.7-4.6 1.9-2.6c.9-1.2 2.1-2 3.5-2.5 1.4-.4 2.8-.4 4.2.1.9 1.2 1.4 2.5 1.4 4s-.4 2.9-1.3 4.1l-1.9 2.6-5.1-1.1zm1.3-1.7l2.9.6 1.7-2.3c.5-.7.7-1.4.7-2.3 0-.8-.3-1.6-.8-2.2l-4.5 6.2zm2.6 13.8l-.9-.6-1.3 1.8.9.6 1.3-1.8zm2.2 4.4l1.3-1.8-1.8-1.3-1.3 1.8 1.8 1.3zm2.8-11.3l-.9-.6-1.2 1.7.9.6 1.2-1.7zm7-.4l-7-5.1c.7-1 1.2-2.1 1.4-3.3.3-1.2.4-2.4.2-3.5l9.1 6.6c.2.2.4.5.4.7 0 .3 0 .5-.2.8l-2.5 3.5c-.2.2-.4.4-.7.4-.2.2-.5.1-.7-.1zm-4.7 4.6l1.2-1.7-1.8-1.3-1.2 1.7 1.8 1.3zM137 264l-.9-.6-1.3 1.8.9.6 1.3-1.8zm2.3 4.3l1.3-1.8-1.8-1.3-1.3 1.8 1.8 1.3z"/></g><g class="st0"><path class="st3" d="M181.3 288.6l-4.9-2.2v-3.2c0-1.5.5-2.9 1.4-4.1.9-1.2 2.1-2 3.5-2.4 1.4.4 2.6 1.2 3.5 2.4.9 1.2 1.4 2.6 1.4 4.1v3.2l-4.9 2.2zm15.6 3.3h-17.3c-.3 0-.6-.1-.8-.3-.2-.2-.3-.5-.4-.8v-.8l2.7 1.2 7-3.1v-2.8h8.7c.3 0 .6.1.8.3.2.2.3.5.3.8v4.4c0 .3-.1.6-.3.8s-.4.3-.7.3zm0 8.6h-17.3c-.3 0-.6-.2-.8-.4-.2-.2-.3-.5-.4-.8V295c0-.3.2-.6.4-.8.2-.2.5-.3.8-.3h17.3c.3 0 .6.1.8.3.2.2.3.5.3.8v4.3c0 .3-.1.6-.3.8-.2.3-.5.4-.8.4zm-15.6-14l2.7-1.2v-2.9c0-.8-.3-1.6-.8-2.3s-1.1-1.1-1.9-1.3v7.7zm15.6-3.3h-8.7c0-1.2-.3-2.4-.8-3.5s-1.1-2.1-1.9-3h11.3c.3 0 .6.2.8.4s.3.5.3.8v4.3c0 .3-.1.6-.3.8s-.4.2-.7.2zm-5.4-4.3h-1.1v2.2h1.1v-2.2zm0 8.7h-1.1v2.1h1.1v-2.1zm0 8.6h-1.1v2.2h1.1v-2.2zm4.4-15.1v-2.2h-2.2v2.2h2.2zm0 8.6v-2.1h-2.2v2.1h2.2zm0 8.6v-2.2h-2.2v2.2h2.2z"/></g><g class="st0"><path class="st3" d="M242 273l-5.2 1.1-1.9-2.6c-.9-1.2-1.3-2.6-1.3-4.1s.5-2.8 1.4-4c1.4-.5 2.8-.5 4.2-.1 1.4.4 2.6 1.3 3.5 2.5l1.9 2.6-2.6 4.6zm-1.2-1.7l1.5-2.6-1.7-2.3c-.5-.7-1.1-1.1-2-1.4s-1.6-.2-2.3.1l4.5 6.2zm10.7-11.9l-7 5.1c-.7-1-1.6-1.8-2.7-2.4-1-.6-2.1-1.1-3.3-1.3l9.1-6.6c.3-.2.5-.2.8-.2.3 0 .5.2.7.4l2.5 3.5c.2.2.2.5.2.8s-.1.5-.3.7zm5.1 7l-14 10.2c-.2.2-.5.2-.8.2-.3 0-.5-.2-.7-.4l-.4-.6 2.9-.6 3.8-6.6-1.6-2.3 7-5.1c.2-.2.5-.2.8-.2s.5.2.7.4l2.6 3.5c.2.2.2.5.2.8-.2.3-.3.5-.5.7zm5 7l-14 10.2c-.3.2-.5.2-.8.2-.3 0-.5-.2-.7-.4l-2.5-3.5c-.2-.3-.2-.5-.2-.8s.2-.5.4-.7l14-10.2c.2-.2.5-.2.8-.2.3 0 .5.2.7.4l2.5 3.5c.2.2.2.5.2.8s-.1.5-.4.7zm-17-14.3l-.9.6 1.3 1.8.9-.6-1.3-1.8zm4.8-.8l-1.3-1.8-1.8 1.3 1.3 1.8 1.8-1.3zm.2 7.8l-.9.6 1.2 1.7.9-.6-1.2-1.7zm4.8-.8l-1.2-1.7-1.8 1.3 1.2 1.7 1.8-1.3zm.3 7.8l-.9.6 1.3 1.8.9-.6-1.3-1.8zm4.8-.8l-1.3-1.8-1.8 1.3 1.3 1.8 1.8-1.3z"/></g><g class="st0"><path class="st3" d="M281.7 224.7l-3.6 4-3.1-1c-1.4-.5-2.6-1.4-3.4-2.6-.9-1.2-1.3-2.6-1.2-4 .8-1.2 1.9-2.1 3.4-2.6 1.4-.5 2.9-.5 4.3-.1l3.1 1 .5 5.3zm-.3-16.6l-2.7 8.2c-1.2-.3-2.4-.5-3.6-.4s-2.3.4-3.4.9l3.5-10.7c.1-.3.3-.5.6-.6.3-.1.5-.1.8-.1l4.1 1.3c.3.1.5.3.6.5.2.3.2.6.1.9zm-1.6 15.9l-.3-2.9-2.7-.9c-.8-.3-1.6-.3-2.4 0-.8.3-1.4.7-1.8 1.4l7.2 2.4zm-4.1-12.1l-.3 1 2.1.7.3-1-2.1-.7zm3.4-3.4l-2.1-.7-.7 2.1 2.1.7.7-2.1zm10.6 2.3l-5.3 16.4c-.1.3-.3.5-.5.6s-.5.2-.8.1l-.7-.2 2-2.2-.8-7.6-2.6-.9 2.7-8.2c.1-.3.3-.5.5-.6.3-.1.5-.1.8-.1l4.1 1.3c.3.1.5.3.6.5 0 .3.1.6 0 .9zm-5.8 3.8l-.3 1 2 .7.3-1-2-.7zm3.4-3.5l-2-.7-.7 2.1 2 .7.7-2.1zm10.6 2.4l-5.3 16.4c-.1.3-.3.5-.6.6-.3.1-.5.2-.8.1l-4.1-1.3c-.3-.1-.5-.3-.6-.6-.1-.3-.1-.5-.1-.8l5.3-16.4c.1-.3.3-.5.5-.6.3-.1.5-.1.8-.1l4.1 1.3c.3.1.5.3.6.5.2.3.3.6.2.9zm-5.8 3.8l-.3 1 2.1.7.3-1-2.1-.7zm3.4-3.5l-2.1-.7-.7 2.1 2.1.7.7-2.1z"/></g><g class="st0"><path class="st3" d="M275.6 148.9l2.7 8.2c-1.1.4-2.2 1-3.1 1.8s-1.7 1.7-2.3 2.7l-3.5-10.7c-.1-.3 0-.6.1-.8.1-.3.3-.4.6-.5l4.1-1.3c.3-.1.6-.1.8.1.3 0 .5.2.6.5zm-1.7 1.7l-2.1.7.7 2.1 2.1-.7-.7-2.1zm-.7 4.8l.3 1 2.1-.7-.3-1-2.1.7zm12.4 6.7l-.6 5.3-3.1 1c-1.5.4-2.9.4-4.3-.1s-2.5-1.3-3.4-2.6c-.1-1.5.4-2.8 1.2-4 .9-1.2 2-2.1 3.4-2.6l3.1-1 3.7 4zm-2 .7l-2-2.2-2.7.9c-.8.3-1.4.7-1.9 1.4s-.7 1.4-.7 2.2l7.3-2.3zm.2-16.6l5.3 16.4c.1.3.1.6-.1.8-.1.3-.3.4-.6.6l-.7.2.3-3-5.1-5.7-2.6.9-2.7-8.2c-.1-.3-.1-.6.1-.8.1-.3.3-.4.6-.5l4.1-1.3c.3-.1.6-.1.8.1.4 0 .5.2.6.5zm-1.7 1.7l-2 .7.7 2.1 2-.7-.7-2.1zm-.7 4.8l.3 1 2-.7-.3-1-2 .7zm10.7-9.1l5.3 16.4c.1.3 0 .6-.1.8-.1.3-.3.4-.6.6l-4.1 1.3c-.3.1-.6 0-.8-.1-.3-.1-.4-.3-.5-.6l-5.3-16.4c-.1-.3-.1-.6.1-.8.1-.3.3-.4.6-.5l4.1-1.3c.3-.1.6-.1.8.1s.3.2.5.5zm-1.8 1.6l-2.1.7.7 2.1 2.1-.7-.7-2.1zm-.7 4.9l.3 1 2.1-.7-.3-1-2.1.7z"/></g><g class="st0"><path class="st3" d="M236 104.6l7 5.1c-.7 1-1.2 2.1-1.4 3.3-.3 1.2-.4 2.4-.2 3.5l-9.1-6.6c-.2-.2-.4-.5-.4-.7 0-.3 0-.5.2-.8l2.5-3.5c.2-.2.4-.4.7-.4.2-.2.5-.1.7.1zm-.4 2.3l-1.3 1.8 1.8 1.3 1.3-1.8-1.8-1.3zm5.5-9.3l14 10.2c.2.2.4.4.4.7 0 .3 0 .6-.2.8l-.4.6-1.5-2.6-7.5-1.6-1.6 2.3-7-5.1c-.2-.2-.4-.4-.4-.7 0-.3 0-.5.2-.8l2.6-3.5c.2-.2.4-.4.7-.4.2-.2.5-.1.7.1zm-3.2 13.6l.9.6 1.3-1.8-.9-.6-1.3 1.8zm2.8-11.3l-1.2 1.7 1.8 1.3 1.2-1.7-1.8-1.3zm5.5-9.4l14 10.2c.2.2.4.4.4.7 0 .3 0 .6-.2.8l-2.5 3.5c-.2.2-.5.4-.7.4-.3 0-.5 0-.8-.2l-14-10.2c-.2-.2-.4-.4-.4-.7 0-.3 0-.5.2-.8l2.5-3.5c.2-.2.4-.4.7-.4.3 0 .5.1.8.2zm-3.2 13.7l.9.6 1.2-1.7-.9-.6-1.2 1.7zm8.9 5.2l2.7 4.6-1.9 2.6c-.9 1.2-2.1 2-3.5 2.5-1.4.4-2.8.4-4.2-.1-.9-1.2-1.4-2.5-1.4-4s.4-2.9 1.3-4.1l1.9-2.6 5.1 1.1zm-6.1-16.5l-1.3 1.8 1.8 1.3 1.3-1.8-1.8-1.3zm4.9 18.2l-2.9-.6-1.7 2.3c-.5.7-.7 1.4-.7 2.3 0 .8.3 1.6.8 2.2l4.5-6.2zM248 97.3l.9.6 1.3-1.8-.9-.6-1.3 1.8z"/></g><g class="st0"><path class="st1" d="M167.4 164.6h35.4c.6.1 1.1.3 1.6.7.4.4.6.9.6 1.6v8.8c0 .6-.2 1.1-.6 1.6-.4.4-.9.6-1.6.6h-35.4c-.6 0-1.1-.2-1.6-.6-.4-.4-.6-.9-.6-1.6v-8.8c0-.6.2-1.1.6-1.6.4-.4.9-.7 1.6-.7zm0 17.7h35.4c.6 0 1.1.2 1.6.6.4.4.6.9.6 1.6v8.9c0 .6-.2 1.1-.6 1.6-.4.4-.9.6-1.6.6h-35.4c-.6 0-1.1-.2-1.6-.6-.4-.4-.6-.9-.6-1.6v-8.9c0-.6.2-1.1.6-1.6.4-.4.9-.6 1.6-.6zm0 17.7h35.4c.6 0 1.1.2 1.6.6.4.4.6.9.6 1.6v8.8c0 .6-.2 1.1-.6 1.6-.4.4-.9.7-1.6.7h-35.4c-.6-.1-1.1-.3-1.6-.7-.4-.4-.6-.9-.6-1.6v-8.8c0-.6.2-1.1.6-1.6.4-.4.9-.6 1.6-.6zm2.2-31v4.5h4.3V169h-4.3zm0 17.7v4.3h4.3v-4.3h-4.3zm0 17.6v4.4h4.3v-4.4h-4.3zm8.8-30.8h2.2V169h-2.2v4.5zm0 17.6h2.2v-4.3h-2.2v4.3zm0 17.7h2.2v-4.4h-2.2v4.4z"/></g><path class="st5" d="M184.5 115.1h1v2h-1zm1 22.4h-1v-3.7h1v3.7zm0-10.2h-1v-3.7h1v3.7zm-1 16.7h1v2h-1z"/><path class="st5" d="M182.1 117.1l2.9-10.8 2.9 10.8z"/><path transform="rotate(-35.833 143.526 131.217)" class="st5" d="M143 130.2h1v2h-1z"/><path class="st5" d="M155.7 148.8l-2.2-3 .8-.6 2.2 3-.8.6zm-6-8.2l-2.2-3 .8-.6 2.2 3-.8.6z"/><path transform="rotate(-36.225 160.473 154.553)" class="st5" d="M160 153.6h1v2h-1z"/><path class="st5" d="M141.7 133.7l-4-10.5 8.7 7.1z"/><path transform="rotate(-72.205 118.843 167.793)" class="st5" d="M118.3 166.8h1v2h-1z"/><path class="st5" d="M139 174.9l-3.5-1.1.3-1 3.5 1.1-.3 1zm-9.7-3.2l-3.5-1.1.3-1 3.5 1.1-.3 1z"/><path transform="rotate(-72.013 146.305 176.716)" class="st5" d="M145.8 175.7h1v2h-1z"/><path class="st5" d="M118.9 170.9l-9.4-6.2 11.2.6z"/><path transform="rotate(-18.084 120.358 211.86)" class="st5" d="M119.4 211.4h2v1h-2z"/><path class="st5" d="M127.7 210l-.3-1 3.5-1.1.3 1-3.5 1.1zm9.7-3.1l-.3-1 3.5-1.1.3 1-3.5 1.1z"/><path transform="rotate(-18.029 147.82 202.95)" class="st5" d="M146.8 202.5h2v1h-2z"/><path class="st5" d="M122.2 214.3l-11.2.6 9.4-6.1z"/><path transform="rotate(-53.978 147.555 246.655)" class="st5" d="M146.5 246.2h2v1h-2z"/><path class="st5" d="M152.3 240.9l-.8-.6 2.2-3 .8.6-2.2 3zm6-8.3l-.8-.6 2.2-3 .8.6-2.2 3z"/><path transform="rotate(-53.893 164.5 223.289)" class="st5" d="M163.5 222.8h2v1h-2z"/><path class="st5" d="M150.5 247.6l-8.7 7 4-10.5zm39 10.2h1v2h-1zm1-6.5h-1v-3.7h1v3.7zm0-10.2h-1v-3.7h1v3.7zm-1-12.2h1v2h-1z"/><path class="st5" d="M192.9 257.8l-3 10.9-2.8-10.9z"/><path transform="rotate(-36.06 231.419 243.737)" class="st5" d="M230.9 242.7h1v2h-1z"/><path class="st5" d="M226.6 238l-2.2-3 .8-.6 2.2 3-.8.6zm-6-8.3l-2.2-3 .8-.6 2.2 3-.8.6z"/><path transform="rotate(-35.833 214.462 220.382)" class="st5" d="M213.9 219.4h1v2h-1z"/><path class="st5" d="M233.2 241.2l4 10.5-8.7-7.1z"/><path transform="rotate(-72.279 256.076 207.134)" class="st5" d="M255.6 206.1h1v2h-1z"/><path class="st5" d="M248.8 205.3l-3.5-1.1.3-1 3.5 1.1-.3 1zm-9.7-3.1l-3.5-1.1.3-1 3.5 1.1-.3 1zm-9.7-3.2l-1.9-.6.3-1 1.9.7zm26.6 5.1l9.5 6.1-11.3-.6z"/><path transform="rotate(-18.084 254.514 163.04)" class="st5" d="M253.6 162.5h2v1h-2z"/><path class="st5" d="M234.4 170.1l-.3-1 3.5-1.1.3 1-3.5 1.1zm9.7-3.1l-.3-1 3.5-1.1.3 1-3.5 1.1z"/><path transform="rotate(-18.084 227.057 171.959)" class="st5" d="M226.1 171.5h2v1h-2z"/><path class="st5" d="M252.7 160.6l11.2-.6-9.4 6.1z"/><path transform="rotate(-54.139 227.388 128.285)" class="st5" d="M226.4 127.8h2v1h-2z"/><path class="st5" d="M215.2 145.9l-.8-.6 2.2-3 .8.6-2.2 3zm6-8.3l-.8-.6 2.2-3 .8.6-2.2 3z"/><path transform="rotate(-54.183 210.412 151.637)" class="st5" d="M209.4 151.1h2v1h-2z"/><path class="st5" d="M224.5 127.4l8.7-7.1-4 10.5z"/></g></g></svg>