<svg id="Layer_1" xmlns="http://www.w3.org/2000/svg" viewBox="0 0 418 330.5"><style>.st0{fill:#0af}.st1{fill:#5e5e5e}.st2{fill:url(#SVGID_1_)}.st3{fill:url(#SVGID_2_)}.st4{fill:url(#SVGID_3_)}.st5{fill:url(#SVGID_4_)}.st6{fill:url(#SVGID_5_)}.st7{fill:url(#SVGID_6_)}.st8{fill:url(#SVGID_7_)}.st9{fill:url(#SVGID_8_)}.st10{fill:url(#SVGID_9_)}.st11{fill:url(#SVGID_10_)}.st12{fill:url(#SVGID_11_)}.st13{fill:url(#SVGID_12_)}.st14{fill:url(#SVGID_13_)}.st15{fill:url(#SVGID_14_)}.st16{fill:url(#SVGID_15_)}.st17{fill:url(#SVGID_16_)}.st18{fill:url(#SVGID_17_)}.st19{fill:url(#SVGID_18_)}.st20{fill:url(#SVGID_19_)}.st21{fill:#a4a4a4}</style><path class="st0" d="M416.9 39.1H131.6L110.5 2.7l.9-.5 20.7 35.9h284.8zM111.4 328l-.9-.5 21.1-36.4h285.3v1H132.1z"/><path class="st1" d="M15.4 299.3c-.1 0-.2 0-.2-.1-.2-.1-.3-.4-.2-.7l9.4-16.2c.1-.2.3-.2.4-.2h392.1c.3 0 .5.2.5.5s-.2.5-.5.5H25l-9.2 16c-.1.2-.2.2-.4.2zm401.5-123.4H24.7c-.2 0-.3-.1-.4-.2L15 159.4c-.1-.2-.1-.5.2-.7.2-.1.5-.1.7.2l9.2 16H417c.3 0 .5.2.5.5s-.3.5-.6.5z"/><path class="st0" d="M198.2 165.6h-2c-.3 0-.5-.2-.5-.5s.2-.5.5-.5h2c.3 0 .5.2.5.5s-.2.5-.5.5zm75.7 0H270c-.3 0-.5-.2-.5-.5s.2-.5.5-.5h3.9c.3 0 .5.2.5.5s-.3.5-.5.5zm-10.8 0h-3.9c-.3 0-.5-.2-.5-.5s.2-.5.5-.5h3.9c.3 0 .5.2.5.5s-.3.5-.5.5zm-10.8 0h-3.9c-.3 0-.5-.2-.5-.5s.2-.5.5-.5h3.9c.3 0 .5.2.5.5s-.3.5-.5.5zm-10.9 0h-3.9c-.3 0-.5-.2-.5-.5s.2-.5.5-.5h3.9c.3 0 .5.2.5.5s-.2.5-.5.5zm-10.8 0h-3.9c-.3 0-.5-.2-.5-.5s.2-.5.5-.5h3.9c.3 0 .5.2.5.5s-.2.5-.5.5zm-10.8 0h-3.9c-.3 0-.5-.2-.5-.5s.2-.5.5-.5h3.9c.3 0 .5.2.5.5s-.2.5-.5.5zm-10.8 0h-3.9c-.3 0-.5-.2-.5-.5s.2-.5.5-.5h3.9c.3 0 .5.2.5.5s-.2.5-.5.5zm73.7 0h-2c-.3 0-.5-.2-.5-.5s.2-.5.5-.5h2c.3 0 .5.2.5.5s-.2.5-.5.5z"/><path class="st0" d="M280.6 168.3l11.9-3.2-11.9-3.2z"/><linearGradient id="SVGID_1_" gradientUnits="userSpaceOnUse" x1="9.58" y1="2.5" x2="94.58" y2="2.5"><stop offset=".059" stop-color="#fff"/><stop offset=".49" stop-color="#0af"/></linearGradient><path class="st2" d="M89.6 2.5c0-1.4 1.1-2.5 2.5-2.5s2.5 1.1 2.5 2.5S93.5 5 92.1 5s-2.5-1.1-2.5-2.5zm-20 0c0-1.4 1.1-2.5 2.5-2.5s2.5 1.1 2.5 2.5S73.5 5 72.1 5s-2.5-1.1-2.5-2.5zm-20 0c0-1.4 1.1-2.5 2.5-2.5s2.5 1.1 2.5 2.5S53.5 5 52.1 5s-2.5-1.1-2.5-2.5zm-20 0c0-1.4 1.1-2.5 2.5-2.5s2.5 1.1 2.5 2.5S33.5 5 32.1 5s-2.5-1.1-2.5-2.5zm-20 0c0-1.4 1.1-2.5 2.5-2.5s2.5 1.1 2.5 2.5S13.5 5 12.1 5 9.6 3.9 9.6 2.5z"/><linearGradient id="SVGID_2_" gradientUnits="userSpaceOnUse" y1="20.57" x2="105" y2="20.57"><stop offset=".059" stop-color="#fff"/><stop offset=".49" stop-color="#0af"/></linearGradient><path class="st3" d="M100 20.6c0-1.4 1.1-2.5 2.5-2.5s2.5 1.1 2.5 2.5-1.1 2.5-2.5 2.5-2.5-1.1-2.5-2.5zm-20 0c0-1.4 1.1-2.5 2.5-2.5s2.5 1.1 2.5 2.5-1.1 2.5-2.5 2.5S80 22 80 20.6zm-20 0c0-1.4 1.1-2.5 2.5-2.5s2.5 1.1 2.5 2.5-1.1 2.5-2.5 2.5S60 22 60 20.6zm-20 0c0-1.4 1.1-2.5 2.5-2.5s2.5 1.1 2.5 2.5-1.1 2.5-2.5 2.5S40 22 40 20.6zm-20 0c0-1.4 1.1-2.5 2.5-2.5s2.5 1.1 2.5 2.5-1.1 2.5-2.5 2.5S20 22 20 20.6zm-20 0c0-1.4 1.1-2.5 2.5-2.5S5 19.2 5 20.6s-1.1 2.5-2.5 2.5S0 22 0 20.6z"/><linearGradient id="SVGID_3_" gradientUnits="userSpaceOnUse" x1="10.42" y1="38.64" x2="115.42" y2="38.64"><stop offset=".059" stop-color="#fff"/><stop offset=".49" stop-color="#0af"/></linearGradient><path class="st4" d="M110.4 38.6c0-1.4 1.1-2.5 2.5-2.5s2.5 1.1 2.5 2.5-1.1 2.5-2.5 2.5-2.5-1.1-2.5-2.5zm-20 0c0-1.4 1.1-2.5 2.5-2.5s2.5 1.1 2.5 2.5-1.1 2.5-2.5 2.5-2.5-1.1-2.5-2.5zm-20 0c0-1.4 1.1-2.5 2.5-2.5s2.5 1.1 2.5 2.5-1.1 2.5-2.5 2.5-2.5-1.1-2.5-2.5zm-20 0c0-1.4 1.1-2.5 2.5-2.5s2.5 1.1 2.5 2.5-1.1 2.5-2.5 2.5-2.5-1.1-2.5-2.5zm-20 0c0-1.4 1.1-2.5 2.5-2.5s2.5 1.1 2.5 2.5-1.1 2.5-2.5 2.5-2.5-1.1-2.5-2.5zm-20 0c0-1.4 1.1-2.5 2.5-2.5s2.5 1.1 2.5 2.5-1.1 2.5-2.5 2.5-2.5-1.1-2.5-2.5z"/><linearGradient id="SVGID_4_" gradientUnits="userSpaceOnUse" x1=".85" y1="56.71" x2="125.85" y2="56.71"><stop offset=".059" stop-color="#fff"/><stop offset=".49" stop-color="#0af"/></linearGradient><path class="st5" d="M120.9 56.7c0-1.4 1.1-2.5 2.5-2.5s2.5 1.1 2.5 2.5-1.1 2.5-2.5 2.5-2.5-1.1-2.5-2.5zm-20 0c0-1.4 1.1-2.5 2.5-2.5s2.5 1.1 2.5 2.5-1.1 2.5-2.5 2.5-2.5-1.1-2.5-2.5zm-20 0c0-1.4 1.1-2.5 2.5-2.5s2.5 1.1 2.5 2.5-1.1 2.5-2.5 2.5-2.5-1.1-2.5-2.5zm-20 0c0-1.4 1.1-2.5 2.5-2.5s2.5 1.1 2.5 2.5-1.1 2.5-2.5 2.5-2.5-1.1-2.5-2.5zm-20 0c0-1.4 1.1-2.5 2.5-2.5s2.5 1.1 2.5 2.5-1.1 2.5-2.5 2.5-2.5-1.1-2.5-2.5zm-20 0c0-1.4 1.1-2.5 2.5-2.5s2.5 1.1 2.5 2.5-1.1 2.5-2.5 2.5-2.5-1.1-2.5-2.5zm-20 0c0-1.4 1.1-2.5 2.5-2.5s2.5 1.1 2.5 2.5-1.1 2.5-2.5 2.5S.9 58.1.9 56.7z"/><linearGradient id="SVGID_5_" gradientUnits="userSpaceOnUse" x1="11.27" y1="74.78" x2="136.27" y2="74.78"><stop offset=".059" stop-color="#fff"/><stop offset=".49" stop-color="#0af"/></linearGradient><path class="st6" d="M131.3 74.8c0-1.4 1.1-2.5 2.5-2.5s2.5 1.1 2.5 2.5-1.1 2.5-2.5 2.5-2.5-1.1-2.5-2.5zm-20 0c0-1.4 1.1-2.5 2.5-2.5s2.5 1.1 2.5 2.5-1.1 2.5-2.5 2.5-2.5-1.1-2.5-2.5zm-20 0c0-1.4 1.1-2.5 2.5-2.5s2.5 1.1 2.5 2.5-1.1 2.5-2.5 2.5-2.5-1.1-2.5-2.5zm-20 0c0-1.4 1.1-2.5 2.5-2.5s2.5 1.1 2.5 2.5-1.1 2.5-2.5 2.5-2.5-1.1-2.5-2.5zm-20 0c0-1.4 1.1-2.5 2.5-2.5s2.5 1.1 2.5 2.5-1.1 2.5-2.5 2.5-2.5-1.1-2.5-2.5zm-20 0c0-1.4 1.1-2.5 2.5-2.5s2.5 1.1 2.5 2.5-1.1 2.5-2.5 2.5-2.5-1.1-2.5-2.5zm-20 0c0-1.4 1.1-2.5 2.5-2.5s2.5 1.1 2.5 2.5-1.1 2.5-2.5 2.5-2.5-1.1-2.5-2.5z"/><linearGradient id="SVGID_6_" gradientUnits="userSpaceOnUse" x1="1.69" y1="92.855" x2="146.69" y2="92.855"><stop offset=".059" stop-color="#fff"/><stop offset=".49" stop-color="#0af"/></linearGradient><path class="st7" d="M141.7 92.9c0-1.4 1.1-2.5 2.5-2.5s2.5 1.1 2.5 2.5-1.1 2.5-2.5 2.5-2.5-1.2-2.5-2.5zm-20 0c0-1.4 1.1-2.5 2.5-2.5s2.5 1.1 2.5 2.5-1.1 2.5-2.5 2.5-2.5-1.2-2.5-2.5zm-20 0c0-1.4 1.1-2.5 2.5-2.5s2.5 1.1 2.5 2.5-1.1 2.5-2.5 2.5-2.5-1.2-2.5-2.5zm-20 0c0-1.4 1.1-2.5 2.5-2.5s2.5 1.1 2.5 2.5-1.1 2.5-2.5 2.5-2.5-1.2-2.5-2.5zm-20 0c0-1.4 1.1-2.5 2.5-2.5s2.5 1.1 2.5 2.5-1.1 2.5-2.5 2.5-2.5-1.2-2.5-2.5zm-20 0c0-1.4 1.1-2.5 2.5-2.5s2.5 1.1 2.5 2.5-1.1 2.5-2.5 2.5-2.5-1.2-2.5-2.5zm-20 0c0-1.4 1.1-2.5 2.5-2.5s2.5 1.1 2.5 2.5-1.1 2.5-2.5 2.5-2.5-1.2-2.5-2.5zm-20 0c0-1.4 1.1-2.5 2.5-2.5s2.5 1.1 2.5 2.5-1.1 2.5-2.5 2.5-2.5-1.2-2.5-2.5z"/><linearGradient id="SVGID_7_" gradientUnits="userSpaceOnUse" x1="12.12" y1="110.93" x2="157.12" y2="110.93"><stop offset=".059" stop-color="#fff"/><stop offset=".49" stop-color="#0af"/></linearGradient><path class="st8" d="M152.1 110.9c0-1.4 1.1-2.5 2.5-2.5s2.5 1.1 2.5 2.5-1.1 2.5-2.5 2.5-2.5-1.1-2.5-2.5zm-20 0c0-1.4 1.1-2.5 2.5-2.5s2.5 1.1 2.5 2.5-1.1 2.5-2.5 2.5-2.5-1.1-2.5-2.5zm-20 0c0-1.4 1.1-2.5 2.5-2.5s2.5 1.1 2.5 2.5-1.1 2.5-2.5 2.5-2.5-1.1-2.5-2.5zm-20 0c0-1.4 1.1-2.5 2.5-2.5s2.5 1.1 2.5 2.5-1.1 2.5-2.5 2.5-2.5-1.1-2.5-2.5zm-20 0c0-1.4 1.1-2.5 2.5-2.5s2.5 1.1 2.5 2.5-1.1 2.5-2.5 2.5-2.5-1.1-2.5-2.5zm-20 0c0-1.4 1.1-2.5 2.5-2.5s2.5 1.1 2.5 2.5-1.1 2.5-2.5 2.5-2.5-1.1-2.5-2.5zm-20 0c0-1.4 1.1-2.5 2.5-2.5s2.5 1.1 2.5 2.5-1.1 2.5-2.5 2.5-2.5-1.1-2.5-2.5zm-20 0c0-1.4 1.1-2.5 2.5-2.5s2.5 1.1 2.5 2.5-1.1 2.5-2.5 2.5-2.5-1.1-2.5-2.5z"/><linearGradient id="SVGID_8_" gradientUnits="userSpaceOnUse" x1="2.54" y1="129" x2="167.54" y2="129"><stop offset=".059" stop-color="#fff"/><stop offset=".49" stop-color="#0af"/></linearGradient><path class="st9" d="M162.5 129c0-1.4 1.1-2.5 2.5-2.5s2.5 1.1 2.5 2.5-1.1 2.5-2.5 2.5c-1.3 0-2.5-1.1-2.5-2.5zm-20 0c0-1.4 1.1-2.5 2.5-2.5s2.5 1.1 2.5 2.5-1.1 2.5-2.5 2.5c-1.3 0-2.5-1.1-2.5-2.5zm-20 0c0-1.4 1.1-2.5 2.5-2.5s2.5 1.1 2.5 2.5-1.1 2.5-2.5 2.5c-1.3 0-2.5-1.1-2.5-2.5zm-20 0c0-1.4 1.1-2.5 2.5-2.5s2.5 1.1 2.5 2.5-1.1 2.5-2.5 2.5c-1.3 0-2.5-1.1-2.5-2.5zm-20 0c0-1.4 1.1-2.5 2.5-2.5s2.5 1.1 2.5 2.5-1.1 2.5-2.5 2.5c-1.3 0-2.5-1.1-2.5-2.5zm-20 0c0-1.4 1.1-2.5 2.5-2.5s2.5 1.1 2.5 2.5-1.1 2.5-2.5 2.5c-1.3 0-2.5-1.1-2.5-2.5zm-20 0c0-1.4 1.1-2.5 2.5-2.5s2.5 1.1 2.5 2.5-1.1 2.5-2.5 2.5c-1.3 0-2.5-1.1-2.5-2.5zm-20 0c0-1.4 1.1-2.5 2.5-2.5s2.5 1.1 2.5 2.5-1.1 2.5-2.5 2.5c-1.3 0-2.5-1.1-2.5-2.5zm-20 0c0-1.4 1.1-2.5 2.5-2.5s2.5 1.1 2.5 2.5-1.1 2.5-2.5 2.5c-1.3 0-2.5-1.1-2.5-2.5z"/><linearGradient id="SVGID_9_" gradientUnits="userSpaceOnUse" x1="12.97" y1="147.07" x2="177.97" y2="147.07"><stop offset=".059" stop-color="#fff"/><stop offset=".49" stop-color="#0af"/></linearGradient><path class="st10" d="M173 147.1c0-1.4 1.1-2.5 2.5-2.5s2.5 1.1 2.5 2.5-1.1 2.5-2.5 2.5-2.5-1.1-2.5-2.5zm-20 0c0-1.4 1.1-2.5 2.5-2.5s2.5 1.1 2.5 2.5-1.1 2.5-2.5 2.5-2.5-1.1-2.5-2.5zm-20 0c0-1.4 1.1-2.5 2.5-2.5s2.5 1.1 2.5 2.5-1.1 2.5-2.5 2.5-2.5-1.1-2.5-2.5zm-20 0c0-1.4 1.1-2.5 2.5-2.5s2.5 1.1 2.5 2.5-1.1 2.5-2.5 2.5-2.5-1.1-2.5-2.5zm-20 0c0-1.4 1.1-2.5 2.5-2.5s2.5 1.1 2.5 2.5-1.1 2.5-2.5 2.5-2.5-1.1-2.5-2.5zm-20 0c0-1.4 1.1-2.5 2.5-2.5s2.5 1.1 2.5 2.5-1.1 2.5-2.5 2.5-2.5-1.1-2.5-2.5zm-20 0c0-1.4 1.1-2.5 2.5-2.5s2.5 1.1 2.5 2.5-1.1 2.5-2.5 2.5-2.5-1.1-2.5-2.5zm-20 0c0-1.4 1.1-2.5 2.5-2.5s2.5 1.1 2.5 2.5-1.1 2.5-2.5 2.5-2.5-1.1-2.5-2.5zm-20 0c0-1.4 1.1-2.5 2.5-2.5s2.5 1.1 2.5 2.5-1.1 2.5-2.5 2.5-2.5-1.1-2.5-2.5z"/><linearGradient id="SVGID_10_" gradientUnits="userSpaceOnUse" x1="3.39" y1="165.14" x2="188.39" y2="165.14"><stop offset=".059" stop-color="#fff"/><stop offset=".49" stop-color="#0af"/></linearGradient><path class="st11" d="M183.4 165.1c0-1.4 1.1-2.5 2.5-2.5s2.5 1.1 2.5 2.5-1.1 2.5-2.5 2.5-2.5-1.1-2.5-2.5zm-20 0c0-1.4 1.1-2.5 2.5-2.5s2.5 1.1 2.5 2.5-1.1 2.5-2.5 2.5-2.5-1.1-2.5-2.5zm-20 0c0-1.4 1.1-2.5 2.5-2.5s2.5 1.1 2.5 2.5-1.1 2.5-2.5 2.5-2.5-1.1-2.5-2.5zm-20 0c0-1.4 1.1-2.5 2.5-2.5s2.5 1.1 2.5 2.5-1.1 2.5-2.5 2.5-2.5-1.1-2.5-2.5zm-20 0c0-1.4 1.1-2.5 2.5-2.5s2.5 1.1 2.5 2.5-1.1 2.5-2.5 2.5-2.5-1.1-2.5-2.5zm-20 0c0-1.4 1.1-2.5 2.5-2.5s2.5 1.1 2.5 2.5-1.1 2.5-2.5 2.5-2.5-1.1-2.5-2.5zm-20 0c0-1.4 1.1-2.5 2.5-2.5s2.5 1.1 2.5 2.5-1.1 2.5-2.5 2.5-2.5-1.1-2.5-2.5zm-20 0c0-1.4 1.1-2.5 2.5-2.5s2.5 1.1 2.5 2.5-1.1 2.5-2.5 2.5-2.5-1.1-2.5-2.5zm-20 0c0-1.4 1.1-2.5 2.5-2.5s2.5 1.1 2.5 2.5-1.1 2.5-2.5 2.5-2.5-1.1-2.5-2.5zm-20 0c0-1.4 1.1-2.5 2.5-2.5s2.5 1.1 2.5 2.5-1.1 2.5-2.5 2.5-2.5-1.1-2.5-2.5z"/><linearGradient id="SVGID_11_" gradientUnits="userSpaceOnUse" x1="12.97" y1="183.21" x2="177.96" y2="183.21"><stop offset=".043" stop-color="#fff"/><stop offset=".5" stop-color="#5e5e5e"/></linearGradient><path class="st12" d="M173 183.2c0-1.4 1.1-2.5 2.5-2.5s2.5 1.1 2.5 2.5-1.1 2.5-2.5 2.5-2.5-1.1-2.5-2.5zm-20 0c0-1.4 1.1-2.5 2.5-2.5s2.5 1.1 2.5 2.5-1.1 2.5-2.5 2.5-2.5-1.1-2.5-2.5zm-20 0c0-1.4 1.1-2.5 2.5-2.5s2.5 1.1 2.5 2.5-1.1 2.5-2.5 2.5-2.5-1.1-2.5-2.5zm-20 0c0-1.4 1.1-2.5 2.5-2.5s2.5 1.1 2.5 2.5-1.1 2.5-2.5 2.5-2.5-1.1-2.5-2.5zm-20 0c0-1.4 1.1-2.5 2.5-2.5s2.5 1.1 2.5 2.5-1.1 2.5-2.5 2.5-2.5-1.1-2.5-2.5zm-20 0c0-1.4 1.1-2.5 2.5-2.5s2.5 1.1 2.5 2.5-1.1 2.5-2.5 2.5-2.5-1.1-2.5-2.5zm-20 0c0-1.4 1.1-2.5 2.5-2.5s2.5 1.1 2.5 2.5-1.1 2.5-2.5 2.5-2.5-1.1-2.5-2.5zm-20 0c0-1.4 1.1-2.5 2.5-2.5s2.5 1.1 2.5 2.5-1.1 2.5-2.5 2.5-2.5-1.1-2.5-2.5zm-20 0c0-1.4 1.1-2.5 2.5-2.5s2.5 1.1 2.5 2.5-1.1 2.5-2.5 2.5-2.5-1.1-2.5-2.5z"/><linearGradient id="SVGID_12_" gradientUnits="userSpaceOnUse" x1="2.54" y1="201.28" x2="167.54" y2="201.28"><stop offset=".043" stop-color="#fff"/><stop offset=".5" stop-color="#5e5e5e"/></linearGradient><path class="st13" d="M162.5 201.3c0-1.4 1.1-2.5 2.5-2.5s2.5 1.1 2.5 2.5-1.1 2.5-2.5 2.5c-1.3 0-2.5-1.1-2.5-2.5zm-20 0c0-1.4 1.1-2.5 2.5-2.5s2.5 1.1 2.5 2.5-1.1 2.5-2.5 2.5c-1.3 0-2.5-1.1-2.5-2.5zm-20 0c0-1.4 1.1-2.5 2.5-2.5s2.5 1.1 2.5 2.5-1.1 2.5-2.5 2.5c-1.3 0-2.5-1.1-2.5-2.5zm-20 0c0-1.4 1.1-2.5 2.5-2.5s2.5 1.1 2.5 2.5-1.1 2.5-2.5 2.5c-1.3 0-2.5-1.1-2.5-2.5zm-20 0c0-1.4 1.1-2.5 2.5-2.5s2.5 1.1 2.5 2.5-1.1 2.5-2.5 2.5c-1.3 0-2.5-1.1-2.5-2.5zm-20 0c0-1.4 1.1-2.5 2.5-2.5s2.5 1.1 2.5 2.5-1.1 2.5-2.5 2.5c-1.3 0-2.5-1.1-2.5-2.5zm-20 0c0-1.4 1.1-2.5 2.5-2.5s2.5 1.1 2.5 2.5-1.1 2.5-2.5 2.5c-1.3 0-2.5-1.1-2.5-2.5zm-20 0c0-1.4 1.1-2.5 2.5-2.5s2.5 1.1 2.5 2.5-1.1 2.5-2.5 2.5c-1.3 0-2.5-1.1-2.5-2.5zm-20 0c0-1.4 1.1-2.5 2.5-2.5s2.5 1.1 2.5 2.5-1.1 2.5-2.5 2.5c-1.3 0-2.5-1.1-2.5-2.5z"/><linearGradient id="SVGID_13_" gradientUnits="userSpaceOnUse" x1="12.12" y1="219.35" x2="157.12" y2="219.35"><stop offset=".043" stop-color="#fff"/><stop offset=".5" stop-color="#5e5e5e"/></linearGradient><path class="st14" d="M152.1 219.4c0-1.4 1.1-2.5 2.5-2.5s2.5 1.1 2.5 2.5-1.1 2.5-2.5 2.5-2.5-1.2-2.5-2.5zm-20 0c0-1.4 1.1-2.5 2.5-2.5s2.5 1.1 2.5 2.5-1.1 2.5-2.5 2.5-2.5-1.2-2.5-2.5zm-20 0c0-1.4 1.1-2.5 2.5-2.5s2.5 1.1 2.5 2.5-1.1 2.5-2.5 2.5-2.5-1.2-2.5-2.5zm-20 0c0-1.4 1.1-2.5 2.5-2.5s2.5 1.1 2.5 2.5-1.1 2.5-2.5 2.5-2.5-1.2-2.5-2.5zm-20 0c0-1.4 1.1-2.5 2.5-2.5s2.5 1.1 2.5 2.5-1.1 2.5-2.5 2.5-2.5-1.2-2.5-2.5zm-20 0c0-1.4 1.1-2.5 2.5-2.5s2.5 1.1 2.5 2.5-1.1 2.5-2.5 2.5-2.5-1.2-2.5-2.5zm-20 0c0-1.4 1.1-2.5 2.5-2.5s2.5 1.1 2.5 2.5-1.1 2.5-2.5 2.5-2.5-1.2-2.5-2.5zm-20 0c0-1.4 1.1-2.5 2.5-2.5s2.5 1.1 2.5 2.5-1.1 2.5-2.5 2.5-2.5-1.2-2.5-2.5z"/><linearGradient id="SVGID_14_" gradientUnits="userSpaceOnUse" x1="1.7" y1="237.425" x2="146.69" y2="237.425"><stop offset=".043" stop-color="#fff"/><stop offset=".5" stop-color="#5e5e5e"/></linearGradient><path class="st15" d="M141.7 237.4c0-1.4 1.1-2.5 2.5-2.5s2.5 1.1 2.5 2.5-1.1 2.5-2.5 2.5-2.5-1.1-2.5-2.5zm-20 0c0-1.4 1.1-2.5 2.5-2.5s2.5 1.1 2.5 2.5-1.1 2.5-2.5 2.5-2.5-1.1-2.5-2.5zm-20 0c0-1.4 1.1-2.5 2.5-2.5s2.5 1.1 2.5 2.5-1.1 2.5-2.5 2.5-2.5-1.1-2.5-2.5zm-20 0c0-1.4 1.1-2.5 2.5-2.5s2.5 1.1 2.5 2.5-1.1 2.5-2.5 2.5-2.5-1.1-2.5-2.5zm-20 0c0-1.4 1.1-2.5 2.5-2.5s2.5 1.1 2.5 2.5-1.1 2.5-2.5 2.5-2.5-1.1-2.5-2.5zm-20 0c0-1.4 1.1-2.5 2.5-2.5s2.5 1.1 2.5 2.5-1.1 2.5-2.5 2.5-2.5-1.1-2.5-2.5zm-20 0c0-1.4 1.1-2.5 2.5-2.5s2.5 1.1 2.5 2.5-1.1 2.5-2.5 2.5-2.5-1.1-2.5-2.5zm-20 0c0-1.4 1.1-2.5 2.5-2.5s2.5 1.1 2.5 2.5-1.1 2.5-2.5 2.5-2.5-1.1-2.5-2.5z"/><linearGradient id="SVGID_15_" gradientUnits="userSpaceOnUse" x1="11.27" y1="255.5" x2="136.27" y2="255.5"><stop offset=".043" stop-color="#fff"/><stop offset=".5" stop-color="#5e5e5e"/></linearGradient><path class="st16" d="M131.3 255.5c0-1.4 1.1-2.5 2.5-2.5s2.5 1.1 2.5 2.5-1.1 2.5-2.5 2.5-2.5-1.1-2.5-2.5zm-20 0c0-1.4 1.1-2.5 2.5-2.5s2.5 1.1 2.5 2.5-1.1 2.5-2.5 2.5-2.5-1.1-2.5-2.5zm-20 0c0-1.4 1.1-2.5 2.5-2.5s2.5 1.1 2.5 2.5-1.1 2.5-2.5 2.5-2.5-1.1-2.5-2.5zm-20 0c0-1.4 1.1-2.5 2.5-2.5s2.5 1.1 2.5 2.5-1.1 2.5-2.5 2.5-2.5-1.1-2.5-2.5zm-20 0c0-1.4 1.1-2.5 2.5-2.5s2.5 1.1 2.5 2.5-1.1 2.5-2.5 2.5-2.5-1.1-2.5-2.5zm-20 0c0-1.4 1.1-2.5 2.5-2.5s2.5 1.1 2.5 2.5-1.1 2.5-2.5 2.5-2.5-1.1-2.5-2.5zm-20 0c0-1.4 1.1-2.5 2.5-2.5s2.5 1.1 2.5 2.5-1.1 2.5-2.5 2.5-2.5-1.1-2.5-2.5z"/><linearGradient id="SVGID_16_" gradientUnits="userSpaceOnUse" x1=".85" y1="273.57" x2="125.85" y2="273.57"><stop offset=".043" stop-color="#fff"/><stop offset=".5" stop-color="#5e5e5e"/></linearGradient><path class="st17" d="M120.9 273.6c0-1.4 1.1-2.5 2.5-2.5s2.5 1.1 2.5 2.5-1.1 2.5-2.5 2.5-2.5-1.1-2.5-2.5zm-20 0c0-1.4 1.1-2.5 2.5-2.5s2.5 1.1 2.5 2.5-1.1 2.5-2.5 2.5-2.5-1.1-2.5-2.5zm-20 0c0-1.4 1.1-2.5 2.5-2.5s2.5 1.1 2.5 2.5-1.1 2.5-2.5 2.5-2.5-1.1-2.5-2.5zm-20 0c0-1.4 1.1-2.5 2.5-2.5s2.5 1.1 2.5 2.5-1.1 2.5-2.5 2.5-2.5-1.1-2.5-2.5zm-20 0c0-1.4 1.1-2.5 2.5-2.5s2.5 1.1 2.5 2.5-1.1 2.5-2.5 2.5-2.5-1.1-2.5-2.5zm-20 0c0-1.4 1.1-2.5 2.5-2.5s2.5 1.1 2.5 2.5-1.1 2.5-2.5 2.5-2.5-1.1-2.5-2.5zm-20 0c0-1.4 1.1-2.5 2.5-2.5s2.5 1.1 2.5 2.5-1.1 2.5-2.5 2.5-2.5-1.1-2.5-2.5z"/><linearGradient id="SVGID_17_" gradientUnits="userSpaceOnUse" x1="10.42" y1="291.64" x2="115.42" y2="291.64"><stop offset=".059" stop-color="#fff"/><stop offset=".49" stop-color="#0af"/></linearGradient><path class="st18" d="M110.4 291.6c0-1.4 1.1-2.5 2.5-2.5s2.5 1.1 2.5 2.5-1.1 2.5-2.5 2.5-2.5-1.1-2.5-2.5zm-20 0c0-1.4 1.1-2.5 2.5-2.5s2.5 1.1 2.5 2.5-1.1 2.5-2.5 2.5-2.5-1.1-2.5-2.5zm-20 0c0-1.4 1.1-2.5 2.5-2.5s2.5 1.1 2.5 2.5-1.1 2.5-2.5 2.5-2.5-1.1-2.5-2.5zm-20 0c0-1.4 1.1-2.5 2.5-2.5s2.5 1.1 2.5 2.5-1.1 2.5-2.5 2.5-2.5-1.1-2.5-2.5zm-20 0c0-1.4 1.1-2.5 2.5-2.5s2.5 1.1 2.5 2.5-1.1 2.5-2.5 2.5-2.5-1.1-2.5-2.5zm-20 0c0-1.4 1.1-2.5 2.5-2.5s2.5 1.1 2.5 2.5-1.1 2.5-2.5 2.5-2.5-1.1-2.5-2.5z"/><linearGradient id="SVGID_18_" gradientUnits="userSpaceOnUse" y1="309.71" x2="105" y2="309.71"><stop offset=".059" stop-color="#fff"/><stop offset=".49" stop-color="#0af"/></linearGradient><path class="st19" d="M100 309.7c0-1.4 1.1-2.5 2.5-2.5s2.5 1.1 2.5 2.5-1.1 2.5-2.5 2.5-2.5-1.1-2.5-2.5zm-20 0c0-1.4 1.1-2.5 2.5-2.5s2.5 1.1 2.5 2.5-1.1 2.5-2.5 2.5-2.5-1.1-2.5-2.5zm-20 0c0-1.4 1.1-2.5 2.5-2.5s2.5 1.1 2.5 2.5-1.1 2.5-2.5 2.5-2.5-1.1-2.5-2.5zm-20 0c0-1.4 1.1-2.5 2.5-2.5s2.5 1.1 2.5 2.5-1.1 2.5-2.5 2.5-2.5-1.1-2.5-2.5zm-20 0c0-1.4 1.1-2.5 2.5-2.5s2.5 1.1 2.5 2.5-1.1 2.5-2.5 2.5-2.5-1.1-2.5-2.5zm-20 0c0-1.4 1.1-2.5 2.5-2.5s2.5 1.1 2.5 2.5-1.1 2.5-2.5 2.5-2.5-1.1-2.5-2.5z"/><linearGradient id="SVGID_19_" gradientUnits="userSpaceOnUse" x1="9.58" y1="327.78" x2="94.58" y2="327.78"><stop offset=".059" stop-color="#fff"/><stop offset=".49" stop-color="#0af"/></linearGradient><path class="st20" d="M89.6 327.8c0-1.4 1.1-2.5 2.5-2.5s2.5 1.1 2.5 2.5-1.1 2.5-2.5 2.5-2.5-1.1-2.5-2.5zm-20 0c0-1.4 1.1-2.5 2.5-2.5s2.5 1.1 2.5 2.5-1.1 2.5-2.5 2.5-2.5-1.1-2.5-2.5zm-20 0c0-1.4 1.1-2.5 2.5-2.5s2.5 1.1 2.5 2.5-1.1 2.5-2.5 2.5-2.5-1.1-2.5-2.5zm-20 0c0-1.4 1.1-2.5 2.5-2.5s2.5 1.1 2.5 2.5-1.1 2.5-2.5 2.5-2.5-1.1-2.5-2.5zm-20 0c0-1.4 1.1-2.5 2.5-2.5s2.5 1.1 2.5 2.5-1.1 2.5-2.5 2.5-2.5-1.1-2.5-2.5z"/><path class="st0" d="M186.5 147.6h-2c-.3 0-.5-.2-.5-.5s.2-.5.5-.5h2c.3 0 .5.2.5.5s-.2.5-.5.5zm87.3 0h-4c-.3 0-.5-.2-.5-.5s.2-.5.5-.5h4c.3 0 .5.2.5.5s-.2.5-.5.5zm-10.9 0h-4c-.3 0-.5-.2-.5-.5s.2-.5.5-.5h4c.3 0 .5.2.5.5s-.2.5-.5.5zm-10.9 0h-4c-.3 0-.5-.2-.5-.5s.2-.5.5-.5h4c.3 0 .5.2.5.5s-.3.5-.5.5zm-10.9 0h-4c-.3 0-.5-.2-.5-.5s.2-.5.5-.5h4c.3 0 .5.2.5.5s-.3.5-.5.5zm-11 0h-4c-.3 0-.5-.2-.5-.5s.2-.5.5-.5h4c.3 0 .5.2.5.5s-.2.5-.5.5zm-10.9 0h-4c-.3 0-.5-.2-.5-.5s.2-.5.5-.5h4c.3 0 .5.2.5.5s-.2.5-.5.5zm-10.9 0h-4c-.3 0-.5-.2-.5-.5s.2-.5.5-.5h4c.3 0 .5.2.5.5s-.2.5-.5.5zm-10.9 0h-4c-.3 0-.5-.2-.5-.5s.2-.5.5-.5h4c.3 0 .5.2.5.5s-.2.5-.5.5zm85.3 0h-2c-.3 0-.5-.2-.5-.5s.2-.5.5-.5h2c.3 0 .5.2.5.5s-.2.5-.5.5z"/><path class="st0" d="M280.6 150.3l11.9-3.2-11.9-3.2zm-104.4-20.7h-2c-.3 0-.5-.2-.5-.5s.2-.5.5-.5h2c.3 0 .5.2.5.5s-.2.5-.5.5zm97.6 0h-3.9c-.3 0-.5-.2-.5-.5s.2-.5.5-.5h3.9c.3 0 .5.2.5.5s-.2.5-.5.5zm-10.8 0h-4c-.3 0-.5-.2-.5-.5s.2-.5.5-.5h3.9c.3 0 .5.2.5.5s-.1.5-.4.5zm-10.9 0h-3.9c-.3 0-.5-.2-.5-.5s.2-.5.5-.5h3.9c.3 0 .5.2.5.5s-.2.5-.5.5zm-10.8 0h-3.9c-.3 0-.5-.2-.5-.5s.2-.5.5-.5h3.9c.3 0 .5.2.5.5s-.2.5-.5.5zm-10.8 0h-3.9c-.3 0-.5-.2-.5-.5s.2-.5.5-.5h3.9c.3 0 .5.2.5.5s-.3.5-.5.5zm-10.9 0h-3.9c-.3 0-.5-.2-.5-.5s.2-.5.5-.5h3.9c.3 0 .5.2.5.5s-.2.5-.5.5zm-10.8 0h-3.9c-.3 0-.5-.2-.5-.5s.2-.5.5-.5h3.9c.3 0 .5.2.5.5s-.3.5-.5.5zm-10.9 0H194c-.3 0-.5-.2-.5-.5s.2-.5.5-.5h3.9c.3 0 .5.2.5.5s-.2.5-.5.5zm-10.8 0h-3.9c-.3 0-.5-.2-.5-.5s.2-.5.5-.5h3.9c.3 0 .5.2.5.5s-.2.5-.5.5zm95.6 0h-2c-.3 0-.5-.2-.5-.5s.2-.5.5-.5h2c.3 0 .5.2.5.5s-.2.5-.5.5z"/><path class="st0" d="M280.6 132.3l11.9-3.2-11.9-3.2zm-116.3-20.8h-2c-.3 0-.5-.2-.5-.5s.2-.5.5-.5h2c.3 0 .5.2.5.5s-.2.5-.5.5zm109.5 0h-4c-.3 0-.5-.2-.5-.5s.2-.5.5-.5h4c.3 0 .5.2.5.5s-.3.5-.5.5zm-11 0h-4c-.3 0-.5-.2-.5-.5s.2-.5.5-.5h4c.3 0 .5.2.5.5s-.2.5-.5.5zm-10.9 0h-4c-.3 0-.5-.2-.5-.5s.2-.5.5-.5h4c.3 0 .5.2.5.5s-.2.5-.5.5zm-11 0h-4c-.3 0-.5-.2-.5-.5s.2-.5.5-.5h4c.3 0 .5.2.5.5s-.2.5-.5.5zm-10.9 0h-4c-.3 0-.5-.2-.5-.5s.2-.5.5-.5h4c.3 0 .5.2.5.5s-.2.5-.5.5zm-10.9 0h-4c-.3 0-.5-.2-.5-.5s.2-.5.5-.5h4c.3 0 .5.2.5.5s-.3.5-.5.5zm-11 0h-4c-.3 0-.5-.2-.5-.5s.2-.5.5-.5h4c.3 0 .5.2.5.5s-.2.5-.5.5zm-10.9 0h-4c-.3 0-.5-.2-.5-.5s.2-.5.5-.5h4c.3 0 .5.2.5.5s-.3.5-.5.5zm-11 0h-4c-.3 0-.5-.2-.5-.5s.2-.5.5-.5h4c.3 0 .5.2.5.5s-.2.5-.5.5zm-10.9 0h-4c-.3 0-.5-.2-.5-.5s.2-.5.5-.5h4c.3 0 .5.2.5.5s-.2.5-.5.5zm107.4 0h-2c-.3 0-.5-.2-.5-.5s.2-.5.5-.5h2c.3 0 .5.2.5.5s-.2.5-.5.5z"/><path class="st0" d="M280.6 114.2l11.9-3.2-11.9-3.2zM154.9 93.5h-2c-.3 0-.5-.2-.5-.5s.2-.5.5-.5h2c.3 0 .5.2.5.5s-.2.5-.5.5zm119 0H270c-.3 0-.5-.2-.5-.5s.2-.5.5-.5h3.9c.3 0 .5.2.5.5s-.3.5-.5.5zm-10.9 0h-3.9c-.3 0-.5-.2-.5-.5s.2-.5.5-.5h3.9c.3 0 .5.2.5.5s-.2.5-.5.5zm-10.8 0h-3.9c-.3 0-.5-.2-.5-.5s.2-.5.5-.5h3.9c.3 0 .5.2.5.5s-.2.5-.5.5zm-10.8 0h-3.9c-.3 0-.5-.2-.5-.5s.2-.5.5-.5h3.9c.3 0 .5.2.5.5s-.2.5-.5.5zm-10.8 0h-3.9c-.3 0-.5-.2-.5-.5s.2-.5.5-.5h3.9c.3 0 .5.2.5.5s-.2.5-.5.5zm-10.8 0h-3.9c-.3 0-.5-.2-.5-.5s.2-.5.5-.5h3.9c.3 0 .5.2.5.5s-.2.5-.5.5zm-10.8 0h-3.9c-.3 0-.5-.2-.5-.5s.2-.5.5-.5h3.9c.3 0 .5.2.5.5s-.2.5-.5.5zm-10.8 0h-3.9c-.3 0-.5-.2-.5-.5s.2-.5.5-.5h3.9c.3 0 .5.2.5.5s-.2.5-.5.5zm-10.8 0h-3.9c-.3 0-.5-.2-.5-.5s.2-.5.5-.5h3.9c.3 0 .5.2.5.5s-.3.5-.5.5zm-10.8 0h-3.9c-.3 0-.5-.2-.5-.5s.2-.5.5-.5h3.9c.3 0 .5.2.5.5s-.3.5-.5.5zm-10.9 0h-3.9c-.3 0-.5-.2-.5-.5s.2-.5.5-.5h3.9c.3 0 .5.2.5.5s-.2.5-.5.5zm117 0h-2c-.3 0-.5-.2-.5-.5s.2-.5.5-.5h2c.3 0 .5.2.5.5s-.2.5-.5.5z"/><path class="st0" d="M280.6 96.2l11.9-3.2-11.9-3.2zM145.5 75.5h-2c-.3 0-.5-.2-.5-.5s.2-.5.5-.5h2c.3 0 .5.2.5.5s-.2.5-.5.5zm128.4 0H270c-.3 0-.5-.2-.5-.5s.2-.5.5-.5h3.9c.3 0 .5.2.5.5s-.2.5-.5.5zm-10.7 0h-3.9c-.3 0-.5-.2-.5-.5s.2-.5.5-.5h3.9c.3 0 .5.2.5.5s-.2.5-.5.5zm-10.7 0h-3.9c-.3 0-.5-.2-.5-.5s.2-.5.5-.5h3.9c.3 0 .5.2.5.5s-.2.5-.5.5zm-10.7 0h-3.9c-.3 0-.5-.2-.5-.5s.2-.5.5-.5h3.9c.3 0 .5.2.5.5s-.2.5-.5.5zm-10.7 0h-3.9c-.3 0-.5-.2-.5-.5s.2-.5.5-.5h3.9c.3 0 .5.2.5.5s-.2.5-.5.5zm-10.7 0h-3.9c-.3 0-.5-.2-.5-.5s.2-.5.5-.5h3.9c.3 0 .5.2.5.5s-.2.5-.5.5zm-10.7 0h-3.9c-.3 0-.5-.2-.5-.5s.2-.5.5-.5h3.9c.3 0 .5.2.5.5s-.2.5-.5.5zm-10.7 0h-3.9c-.3 0-.5-.2-.5-.5s.2-.5.5-.5h3.9c.3 0 .5.2.5.5s-.2.5-.5.5zm-10.7 0h-3.9c-.3 0-.5-.2-.5-.5s.2-.5.5-.5h3.9c.3 0 .5.2.5.5s-.2.5-.5.5zm-10.7 0h-3.9c-.3 0-.5-.2-.5-.5s.2-.5.5-.5h3.9c.3 0 .5.2.5.5s-.2.5-.5.5zm-10.7 0H163c-.3 0-.5-.2-.5-.5s.2-.5.5-.5h3.9c.3 0 .5.2.5.5s-.2.5-.5.5zm-10.7 0h-3.9c-.3 0-.5-.2-.5-.5s.2-.5.5-.5h3.9c.3 0 .5.2.5.5s-.2.5-.5.5zm126.5 0h-2c-.3 0-.5-.2-.5-.5s.2-.5.5-.5h2c.3 0 .5.2.5.5s-.2.5-.5.5z"/><path class="st0" d="M280.6 78.2l11.9-3.2-11.9-3.2z"/><path class="st21" d="M186.5 183.7h-2c-.3 0-.5-.2-.5-.5s.2-.5.5-.5h2c.3 0 .5.2.5.5s-.2.5-.5.5zm87.3 0h-4c-.3 0-.5-.2-.5-.5s.2-.5.5-.5h4c.3 0 .5.2.5.5s-.2.5-.5.5zm-10.9 0h-4c-.3 0-.5-.2-.5-.5s.2-.5.5-.5h4c.3 0 .5.2.5.5s-.2.5-.5.5zm-10.9 0h-4c-.3 0-.5-.2-.5-.5s.2-.5.5-.5h4c.3 0 .5.2.5.5s-.3.5-.5.5zm-10.9 0h-4c-.3 0-.5-.2-.5-.5s.2-.5.5-.5h4c.3 0 .5.2.5.5s-.3.5-.5.5zm-11 0h-4c-.3 0-.5-.2-.5-.5s.2-.5.5-.5h4c.3 0 .5.2.5.5s-.2.5-.5.5zm-10.9 0h-4c-.3 0-.5-.2-.5-.5s.2-.5.5-.5h4c.3 0 .5.2.5.5s-.2.5-.5.5zm-10.9 0h-4c-.3 0-.5-.2-.5-.5s.2-.5.5-.5h4c.3 0 .5.2.5.5s-.2.5-.5.5zm-10.9 0h-4c-.3 0-.5-.2-.5-.5s.2-.5.5-.5h4c.3 0 .5.2.5.5s-.2.5-.5.5zm85.3 0h-2c-.3 0-.5-.2-.5-.5s.2-.5.5-.5h2c.3 0 .5.2.5.5s-.2.5-.5.5z"/><path class="st21" d="M280.6 186.4l11.9-3.2-11.9-3.2zm-104.4 15.3h-2c-.3 0-.5-.2-.5-.5s.2-.5.5-.5h2c.3 0 .5.2.5.5s-.2.5-.5.5zm97.6 0h-3.9c-.3 0-.5-.2-.5-.5s.2-.5.5-.5h3.9c.3 0 .5.2.5.5s-.2.5-.5.5zm-10.8 0h-4c-.3 0-.5-.2-.5-.5s.2-.5.5-.5h3.9c.3 0 .5.2.5.5s-.1.5-.4.5zm-10.9 0h-3.9c-.3 0-.5-.2-.5-.5s.2-.5.5-.5h3.9c.3 0 .5.2.5.5s-.2.5-.5.5zm-10.8 0h-3.9c-.3 0-.5-.2-.5-.5s.2-.5.5-.5h3.9c.3 0 .5.2.5.5s-.2.5-.5.5zm-10.8 0h-3.9c-.3 0-.5-.2-.5-.5s.2-.5.5-.5h3.9c.3 0 .5.2.5.5s-.3.5-.5.5zm-10.9 0h-3.9c-.3 0-.5-.2-.5-.5s.2-.5.5-.5h3.9c.3 0 .5.2.5.5s-.2.5-.5.5zm-10.8 0h-3.9c-.3 0-.5-.2-.5-.5s.2-.5.5-.5h3.9c.3 0 .5.2.5.5s-.3.5-.5.5zm-10.9 0H194c-.3 0-.5-.2-.5-.5s.2-.5.5-.5h3.9c.3 0 .5.2.5.5s-.2.5-.5.5zm-10.8 0h-3.9c-.3 0-.5-.2-.5-.5s.2-.5.5-.5h3.9c.3 0 .5.2.5.5s-.2.5-.5.5zm95.6 0h-2c-.3 0-.5-.2-.5-.5s.2-.5.5-.5h2c.3 0 .5.2.5.5s-.2.5-.5.5z"/><path class="st21" d="M280.6 204.4l11.9-3.2-11.9-3.2zm-125.7 33.4h-2c-.3 0-.5-.2-.5-.5s.2-.5.5-.5h2c.3 0 .5.2.5.5s-.2.5-.5.5zm119 0H270c-.3 0-.5-.2-.5-.5s.2-.5.5-.5h3.9c.3 0 .5.2.5.5s-.3.5-.5.5zm-10.9 0h-3.9c-.3 0-.5-.2-.5-.5s.2-.5.5-.5h3.9c.3 0 .5.2.5.5s-.2.5-.5.5zm-10.8 0h-3.9c-.3 0-.5-.2-.5-.5s.2-.5.5-.5h3.9c.3 0 .5.2.5.5s-.2.5-.5.5zm-10.8 0h-3.9c-.3 0-.5-.2-.5-.5s.2-.5.5-.5h3.9c.3 0 .5.2.5.5s-.2.5-.5.5zm-10.8 0h-3.9c-.3 0-.5-.2-.5-.5s.2-.5.5-.5h3.9c.3 0 .5.2.5.5s-.2.5-.5.5zm-10.8 0h-3.9c-.3 0-.5-.2-.5-.5s.2-.5.5-.5h3.9c.3 0 .5.2.5.5s-.2.5-.5.5zm-10.8 0h-3.9c-.3 0-.5-.2-.5-.5s.2-.5.5-.5h3.9c.3 0 .5.2.5.5s-.2.5-.5.5zm-10.8 0h-3.9c-.3 0-.5-.2-.5-.5s.2-.5.5-.5h3.9c.3 0 .5.2.5.5s-.2.5-.5.5zm-10.8 0h-3.9c-.3 0-.5-.2-.5-.5s.2-.5.5-.5h3.9c.3 0 .5.2.5.5s-.3.5-.5.5zm-10.8 0h-3.9c-.3 0-.5-.2-.5-.5s.2-.5.5-.5h3.9c.3 0 .5.2.5.5s-.3.5-.5.5zm-10.9 0h-3.9c-.3 0-.5-.2-.5-.5s.2-.5.5-.5h3.9c.3 0 .5.2.5.5s-.2.5-.5.5zm117 0h-2c-.3 0-.5-.2-.5-.5s.2-.5.5-.5h2c.3 0 .5.2.5.5s-.2.5-.5.5z"/><path class="st21" d="M280.6 240.5l11.9-3.2-11.9-3.2zm-135.1 15.3h-2c-.3 0-.5-.2-.5-.5s.2-.5.5-.5h2c.3 0 .5.2.5.5s-.2.5-.5.5zm128.4 0H270c-.3 0-.5-.2-.5-.5s.2-.5.5-.5h3.9c.3 0 .5.2.5.5s-.2.5-.5.5zm-10.7 0h-3.9c-.3 0-.5-.2-.5-.5s.2-.5.5-.5h3.9c.3 0 .5.2.5.5s-.2.5-.5.5zm-10.7 0h-3.9c-.3 0-.5-.2-.5-.5s.2-.5.5-.5h3.9c.3 0 .5.2.5.5s-.2.5-.5.5zm-10.7 0h-3.9c-.3 0-.5-.2-.5-.5s.2-.5.5-.5h3.9c.3 0 .5.2.5.5s-.2.5-.5.5zm-10.7 0h-3.9c-.3 0-.5-.2-.5-.5s.2-.5.5-.5h3.9c.3 0 .5.2.5.5s-.2.5-.5.5zm-10.7 0h-3.9c-.3 0-.5-.2-.5-.5s.2-.5.5-.5h3.9c.3 0 .5.2.5.5s-.2.5-.5.5zm-10.7 0h-3.9c-.3 0-.5-.2-.5-.5s.2-.5.5-.5h3.9c.3 0 .5.2.5.5s-.2.5-.5.5zm-10.7 0h-3.9c-.3 0-.5-.2-.5-.5s.2-.5.5-.5h3.9c.3 0 .5.2.5.5s-.2.5-.5.5zm-10.7 0h-3.9c-.3 0-.5-.2-.5-.5s.2-.5.5-.5h3.9c.3 0 .5.2.5.5s-.2.5-.5.5zm-10.7 0h-3.9c-.3 0-.5-.2-.5-.5s.2-.5.5-.5h3.9c.3 0 .5.2.5.5s-.2.5-.5.5zm-10.7 0H163c-.3 0-.5-.2-.5-.5s.2-.5.5-.5h3.9c.3 0 .5.2.5.5s-.2.5-.5.5zm-10.7 0h-3.9c-.3 0-.5-.2-.5-.5s.2-.5.5-.5h3.9c.3 0 .5.2.5.5s-.2.5-.5.5zm126.5 0h-2c-.3 0-.5-.2-.5-.5s.2-.5.5-.5h2c.3 0 .5.2.5.5s-.2.5-.5.5z"/><path class="st21" d="M280.6 258.5l11.9-3.2-11.9-3.2zm-144.8 15.6h-2c-.3 0-.5-.2-.5-.5s.2-.5.5-.5h2c.3 0 .5.2.5.5s-.3.5-.5.5zm138.2 0h-3.9c-.3 0-.5-.2-.5-.5s.2-.5.5-.5h3.9c.3 0 .5.2.5.5s-.3.5-.5.5zm-10.7 0h-3.9c-.3 0-.5-.2-.5-.5s.2-.5.5-.5h3.9c.3 0 .5.2.5.5s-.2.5-.5.5zm-10.6 0h-3.9c-.3 0-.5-.2-.5-.5s.2-.5.5-.5h3.9c.3 0 .5.2.5.5s-.2.5-.5.5zm-10.6 0h-3.9c-.3 0-.5-.2-.5-.5s.2-.5.5-.5h3.9c.3 0 .5.2.5.5s-.2.5-.5.5zm-10.7 0h-3.9c-.3 0-.5-.2-.5-.5s.2-.5.5-.5h3.9c.3 0 .5.2.5.5s-.2.5-.5.5zm-10.6 0H217c-.3 0-.5-.2-.5-.5s.2-.5.5-.5h3.9c.3 0 .5.2.5.5s-.3.5-.6.5zm-10.6 0h-3.9c-.3 0-.5-.2-.5-.5s.2-.5.5-.5h3.9c.3 0 .5.2.5.5s-.2.5-.5.5zm-10.6 0h-3.9c-.3 0-.5-.2-.5-.5s.2-.5.5-.5h3.9c.3 0 .5.2.5.5s-.3.5-.5.5zm-10.7 0H185c-.3 0-.5-.2-.5-.5s.2-.5.5-.5h3.9c.3 0 .5.2.5.5s-.2.5-.5.5zm-10.6 0h-3.9c-.3 0-.5-.2-.5-.5s.2-.5.5-.5h3.9c.3 0 .5.2.5.5s-.2.5-.5.5zm-10.6 0h-3.9c-.3 0-.5-.2-.5-.5s.2-.5.5-.5h3.9c.3 0 .5.2.5.5s-.3.5-.5.5zm-10.7 0h-3.9c-.3 0-.5-.2-.5-.5s.2-.5.5-.5h3.9c.3 0 .5.2.5.5s-.2.5-.5.5zm-10.6 0h-3.9c-.3 0-.5-.2-.5-.5s.2-.5.5-.5h3.9c.3 0 .5.2.5.5s-.2.5-.5.5zm136.3 0h-2c-.3 0-.5-.2-.5-.5s.2-.5.5-.5h2c.3 0 .5.2.5.5s-.2.5-.5.5z"/><path class="st21" d="M280.6 276.8l11.9-3.2-11.9-3.2z"/><circle class="st0" cx="303.1" cy="74.8" r="2.5"/><circle class="st0" cx="303.1" cy="56.7" r="2.5"/><circle class="st0" cx="303.1" cy="92.9" r="2.5"/><circle class="st0" cx="303.1" cy="110.9" r="2.5"/><circle class="st0" cx="303.1" cy="129" r="2.5"/><circle class="st0" cx="303.1" cy="147.1" r="2.5"/><circle class="st0" cx="303.1" cy="165.1" r="2.5"/><circle class="st1" cx="303.1" cy="183.2" r="2.5"/><circle class="st1" cx="303.1" cy="201.3" r="2.5"/><circle class="st1" cx="303.1" cy="219.4" r="2.5"/><circle class="st1" cx="303.1" cy="237.4" r="2.5"/><circle class="st1" cx="303.1" cy="255.5" r="2.5"/><circle class="st1" cx="303.1" cy="273.6" r="2.5"/><path class="st0" d="M355.7 46.8h10v229.8h-10z"/><path class="st1" d="M395.7 183.2h10v93.4h-10z"/><path class="st0" d="M133.4 57.2h-2c-.3 0-.5-.2-.5-.5s.2-.5.5-.5h2c.3 0 .5.2.5.5s-.2.5-.5.5zm140.5 0H270c-.3 0-.5-.2-.5-.5s.2-.5.5-.5h3.9c.3 0 .5.2.5.5s-.3.5-.5.5zm-10.8 0h-3.9c-.3 0-.5-.2-.5-.5s.2-.5.5-.5h3.9c.3 0 .5.2.5.5s-.3.5-.5.5zm-10.8 0h-3.9c-.3 0-.5-.2-.5-.5s.2-.5.5-.5h3.9c.3 0 .5.2.5.5s-.3.5-.5.5zm-10.8 0h-3.9c-.3 0-.5-.2-.5-.5s.2-.5.5-.5h3.9c.3 0 .5.2.5.5s-.3.5-.5.5zm-10.8 0h-3.9c-.3 0-.5-.2-.5-.5s.2-.5.5-.5h3.9c.3 0 .5.2.5.5s-.3.5-.5.5zm-10.8 0H216c-.3 0-.5-.2-.5-.5s.2-.5.5-.5h3.9c.3 0 .5.2.5.5s-.3.5-.5.5zm-10.8 0h-3.9c-.3 0-.5-.2-.5-.5s.2-.5.5-.5h3.9c.3 0 .5.2.5.5s-.3.5-.5.5zm-10.9 0h-3.9c-.3 0-.5-.2-.5-.5s.2-.5.5-.5h3.9c.3 0 .5.2.5.5s-.2.5-.5.5zm-10.8 0h-3.9c-.3 0-.5-.2-.5-.5s.2-.5.5-.5h3.9c.3 0 .5.2.5.5s-.2.5-.5.5zm-10.8 0h-3.9c-.3 0-.5-.2-.5-.5s.2-.5.5-.5h3.9c.3 0 .5.2.5.5s-.2.5-.5.5zm-10.8 0h-3.9c-.3 0-.5-.2-.5-.5s.2-.5.5-.5h3.9c.3 0 .5.2.5.5s-.2.5-.5.5zm-10.8 0h-3.9c-.3 0-.5-.2-.5-.5s.2-.5.5-.5h3.9c.3 0 .5.2.5.5s-.2.5-.5.5zm-10.8 0h-3.9c-.3 0-.5-.2-.5-.5s.2-.5.5-.5h3.9c.3 0 .5.2.5.5s-.2.5-.5.5zm138.5 0h-2c-.3 0-.5-.2-.5-.5s.2-.5.5-.5h2c.3 0 .5.2.5.5s-.2.5-.5.5z"/><path class="st0" d="M280.6 59.9l11.9-3.2-11.9-3.2z"/><path class="st21" d="M166.3 219.9h-2c-.3 0-.5-.2-.5-.5s.2-.5.5-.5h2c.3 0 .5.2.5.5s-.2.5-.5.5zm107.6 0H270c-.3 0-.5-.2-.5-.5s.2-.5.5-.5h3.9c.3 0 .5.2.5.5s-.2.5-.5.5zm-10.8 0h-3.9c-.3 0-.5-.2-.5-.5s.2-.5.5-.5h3.9c.3 0 .5.2.5.5s-.2.5-.5.5zm-10.7 0h-3.9c-.3 0-.5-.2-.5-.5s.2-.5.5-.5h3.9c.3 0 .5.2.5.5s-.2.5-.5.5zm-10.8 0h-3.9c-.3 0-.5-.2-.5-.5s.2-.5.5-.5h3.9c.3 0 .5.2.5.5s-.2.5-.5.5zm-10.7 0H227c-.3 0-.5-.2-.5-.5s.2-.5.5-.5h3.9c.3 0 .5.2.5.5s-.3.5-.5.5zm-10.8 0h-3.9c-.3 0-.5-.2-.5-.5s.2-.5.5-.5h3.9c.3 0 .5.2.5.5s-.2.5-.5.5zm-10.7 0h-3.9c-.3 0-.5-.2-.5-.5s.2-.5.5-.5h3.9c.3 0 .5.2.5.5s-.3.5-.5.5zm-10.8 0h-3.9c-.3 0-.5-.2-.5-.5s.2-.5.5-.5h3.9c.3 0 .5.2.5.5s-.2.5-.5.5zm-10.8 0h-3.9c-.3 0-.5-.2-.5-.5s.2-.5.5-.5h3.9c.3 0 .5.2.5.5s-.2.5-.5.5zm-10.7 0h-3.9c-.3 0-.5-.2-.5-.5s.2-.5.5-.5h3.9c.3 0 .5.2.5.5s-.2.5-.5.5zm105.6 0h-2c-.3 0-.5-.2-.5-.5s.2-.5.5-.5h2c.3 0 .5.2.5.5s-.2.5-.5.5z"/><path class="st21" d="M280.6 222.5l11.9-3.1-11.9-3.2z"/></svg>