<?xml version="1.0" standalone="no"?><!DOCTYPE svg PUBLIC "-//W3C//DTD SVG 1.1//EN" "http://www.w3.org/Graphics/SVG/1.1/DTD/svg11.dtd"><svg t="1531715098582" class="icon" style="" viewBox="0 0 3765 1024" version="1.1" xmlns="http://www.w3.org/2000/svg" p-id="1772" xmlns:xlink="http://www.w3.org/1999/xlink" width="176.484375" height="48"><defs><style type="text/css"></style></defs><path d="M0 372.040949C29.959562 236.512742 132.340668 167.823756 244.234844 108.697388c29.629247-15.673442 61.686309-26.788539 92.289985-39.852494 2.840708 3.947263 4.294094 5.169428 4.789566 6.705393 9.661711 31.875389 9.397459 31.445979-20.363914 47.102906-45.352237 23.898284-89.680498 49.794973-123.653386 89.118962-13.410785 15.524801-24.37724 33.626058-33.956373 51.875956-21.93291 41.751804-0.908366 71.942587 24.57543 92.223923 25.731531 20.463009 89.531856 38.745939 124.743425 36.532829 8.85244-42.148182 16.350588-84.725774 26.871118-126.576673 18.481119-73.660225 42.759265-145.206434 95.543587-202.499555C467.560753 28.084034 506.04244 3.855436 557.043062 7.984372c26.491256 2.130531 49.18389 12.783187 69.729477 28.836492 39.951588 31.198243 64.939911 73.32991 88.177565 119.805217-21.321827 5.54929-38.861549 17.192891-60.860522 1.486417-18.745371-13.377754-36.285093-8.885471-54.997432 7.894526-42.148182 37.754994-62.379971 87.384809-74.948453 140.846277-4.987755 21.189701-7.977105 42.841844-12.799702 69.3331 29.001649-6.688877 54.402865-11.329801 79.077389-18.481119 79.30861-23.022949 154.917692-54.61757 218.47028-108.706637a250.048386 250.048386 0 0 0 52.090662-62.313907c23.287201-39.390053 7.977105-86.047034-31.891905-108.591027-8.208325-4.624409-17.110312-10.801298-25.92972-11.197675-43.370348-1.948858-46.409245-32.618597-48.225977-66.294202a388.219112 388.219112 0 0 1 117.757265 11.775726c58.465739 14.831139 112.88512 37.721963 153.398244 84.890932 32.370861 37.6559 40.793891 79.870145 24.426787 127.897933-26.309582 77.227626-77.343236 134.091337-142.861198 179.526152-86.592053 60.034735-183.787215 96.006028-284.434168 123.669902-33.163617 9.133207-66.888769 16.201946-100.085417 25.203028-5.218976 1.420354-12.832734 8.208325-12.832734 12.518935 0.033031 73.263847 1.734153 146.77543 29.100743 215.91034 8.621219 21.767752 23.947831 42.66017 41.025112 58.829085 21.800784 20.61165 44.410839 16.862576 59.241979-9.380943 14.715529-26.061846 25.467279-54.749696 34.78216-83.321936 8.389999-25.847142 12.089526-53.197216 18.745371-79.638924 1.354291-5.252007 5.945668-12.320746 10.553561-13.741101 21.899878-6.837519 44.344777-12.023463 68.507312-18.332477-5.813542 59.291526-17.556237 115.378998-35.707042 170.062631-17.704879 53.345858-40.826923 104.115259-77.359751 147.485607-25.6985 30.488066-55.2782 55.377294-97.04652 61.355994-36.912691 5.252007-69.44871-4.65744-98.731127-26.35913-50.73637-37.589837-78.912232-91.166915-101.836086-147.832437-31.231275-77.244141-47.598378-157.857495-50.984106-241.129884-1.073523-26.260035-1.156102-25.549858-26.755508-28.605271-66.789675-7.960589-132.935235-19.042654-193.564536-50.472118C42.990485 496.387996 9.579132 460.796565 2.361752 405.452302c-0.23122-1.66809-1.535964-3.187539-2.312205-4.789566C0 391.083603 0 381.554018 0 372.040949z m1369.188329-125.767402c38.696392-16.515745 78.780106-31.297338 116.204784-51.165779 10.09112-5.351102 16.334072-25.92972 16.92864-39.802947 2.031437-48.225977 0.759724-96.584079 0.759724-146.775429 30.834897 6.424625 58.432707 21.15667 77.376267 49.927098 4.855629 7.399054 8.769861 15.541316 12.205136 23.71661 17.539722 41.933478 18.134288 42.511529 64.708691 51.149264 2.312204-22.791729 20.165725-11.940884 31.79281-12.997892 5.31807-0.495472 11.445412 7.53118 17.837005 12.172105 13.873226 0.726693 30.24033 1.651575 46.640465 2.411299 1.701122 0.082579 3.468307-0.495472 5.119881-0.990945 24.03041-7.382538 41.454521 8.323936 38.134856 34.270172-3.253602 25.252575-6.358562 50.488634-9.562616 75.724693-0.297283 2.361752 0.049547 5.351102-1.255197 6.903581-19.917989 23.914799-13.377754 54.468928-20.92545 81.373078-5.400649 19.224328-12.816218 38.349561-22.577024 55.658062-3.897716 6.903582-16.251494 11.709664-25.26909 12.584998-30.636708 2.972834-43.651115 23.947831-54.584539 48.391134a368.796596 368.796596 0 0 1-17.50669 34.963833c-9.793837 16.879092-14.434762 34.352751-13.642006 54.221193 1.354291 33.692121-6.540235 65.402352-21.652142 96.121638-6.672361 13.559427-7.399054 31.148696-7.035707 46.789107 0.809272 36.053872-16.119368 65.732667-29.298933 97.16213-21.668658-10.388404-25.021354-22.577024-14.979781-47.895661l-23.188107-48.853575c-2.114015 0.66063-4.211515 1.271712-6.309014 1.932342v41.008596c-2.32872 0.165157-4.640924 0.330315-6.986161 0.528504-1.849763-23.072496-3.666495-46.144993-5.565806-69.21749-2.939803-36.004325-5.565806-72.041682-9.034113-108.012975-2.378267-24.624976-5.9787-49.150858-9.546101-77.723098-31.181727 9.463522-59.04379 18.993107-87.500419 26.094878a133.612381 133.612381 0 0 1-44.807217 3.187539c-6.606298-0.66063-15.607379-9.149723-17.853521-15.95421-5.516259-16.581808-13.229112-25.434248-32.288282-26.805055-33.57651-2.394783-55.492905-43.188674-51.330937-80.894121 5.08685-46.442276 30.372456-84.131207 47.350642-125.404055 10.074605-24.476335 22.560508-47.961725 33.972888-71.876525 1.783701-0.066063 3.567401-0.11561 5.384133-0.214704l18.282931 68.292607z m126.279389 11.759211c-68.176997 42.709718-137.741317 77.706582-152.605488 166.247494 4.65744-1.849763 7.266928-2.840708 9.843385-3.897716 26.094878-10.586593 51.413516-24.195567 78.44979-30.933992 30.009109-7.481633 53.676173-21.173186 70.257982-46.690012 3.286633-5.020787 5.54929-12.254683 4.822597-18.05171-2.592972-21.057575-6.63933-41.949993-10.768266-66.674064z m166.759482-28.737397c0.611083 4.508799 1.981889 13.906258 3.055413 23.336748 3.253602 28.869523 6.771456 31.479011 34.683065 24.37724 3.749074-0.957913 7.64679-3.171023 10.40492-5.896121 10.949939-10.801298 22.973402-20.974997 31.79281-33.394837 10.63614-14.963265 18.679308-31.79281 27.317043-48.093851 4.607893-8.703798 9.166239-17.704879 11.742695-27.135369 1.469901-5.351102-1.156102-11.792242-1.932342-17.754427-7.250412 0.957913-14.996297 0.644114-21.652143 3.154508-16.383619 6.160373-31.743263 15.425706-48.457197 20.231788-29.860468 8.571672-47.978241 28.638303-46.954264 61.174321z m1450.462312 375.700177c-14.599919 25.434248-34.567455 41.124206-62.181782 48.027788-49.96013 12.518935-98.929315 31.049601-149.583106 38.217435a200.286445 200.286445 0 0 1-122.662442-21.899879c-31.578105-17.143344-46.756075-49.96013-58.118908-82.776916-6.110826-17.655332-11.891337-30.455035-33.031491-35.343695-13.658521-3.137992-24.856197-16.680903-37.292553-25.401216-5.152913-3.567401-10.305825-7.547696-16.053305-9.793838-21.536532-8.373483-33.031491-30.256846-24.955291-51.62822 14.120962-37.375132 19.422517-75.642114 14.897202-115.32945-2.21311-19.372969 0.033031-36.896175 13.030924-53.511015 9.215786-11.775726 13.658521-27.317043 20.429977-41.619679 11.230707 14.913718 24.046925 29.5797 33.857278 46.045898 3.930747 6.556751 1.734153 17.060765 1.469901 25.764563-0.445925 13.906258-1.618543 27.796-2.477362 41.949994 30.190783-1.734153 58.961211-42.66017 62.297392-79.671956l-48.622354-5.499744-1.189134-6.936613c13.823679-9.843384 26.408677-23.055981 41.751804-28.819975 26.573834-9.909447 33.906825-30.967023 34.798676-54.023004 1.189134-30.174267 14.616435-55.82322 24.063441-82.991621 1.222165-3.517854 5.896121-7.630274 9.496554-8.208325 20.974997-3.352696 48.159914 18.332477 48.655386 39.4396 0.330315 14.120962-2.246141 28.307988-2.807677 42.461982-0.198189 5.499743-0.165157 13.708069 3.055413 15.904662 3.418759 2.32872 11.346317 0.330315 16.168915-2.031436a330.645224 330.645224 0 0 0 35.541884-20.281336c30.273361-19.984052 60.662333-16.086336 90.621895-0.34683 7.266928 3.815137 12.948344 11.362833 18.398541 17.952615 34.848223 42.263793 24.03041 88.85471 12.139073 135.346534a139.888364 139.888364 0 0 1-9.413975 26.838086c-10.041573 20.529072-14.897202 38.613813 1.189133 60.464144 8.951534 12.106041 6.044763 30.554129-2.543424 46.987296-16.350588 31.346885-45.104501 36.929207-75.229221 41.999541-19.290391 3.253602-38.333045 7.960589-57.706014 10.834329-15.805568 2.32872-27.680389 9.281849-39.852494 20.033599-15.029328 13.212596-14.864171 25.599405-9.017597 42.197729 6.110826 17.358048 16.400135 24.14602 35.029896 26.24352 53.461468 5.9787 101.819571-11.924368 150.77224-28.043736 10.140668-3.352696 20.017083-7.481633 30.025625-11.131612 21.173186-7.7624 30.983538-4.442736 42.561076 14.996297 4.591377 7.663306 8.373483 15.72299 12.485904 23.584484z m-146.924072-365.741183c-10.537046-5.615353-18.596729-11.841789-27.680389-14.319151-32.998459-9.067144-58.92818 11.230707-86.014002 24.079957-6.408109 3.038897-12.750155 18.662792-10.256278 25.004839 3.071929 7.844979 15.029328 12.717124 23.914799 17.473658 3.633464 1.981889 9.397459 1.090039 13.906258 0.198189 33.725152-6.622814 60.464144-24.790134 86.129612-52.437492z m-32.816786 99.68904c-25.434248-0.099094-47.532315 8.125747-67.780619 20.61165-22.378835 13.807163-25.103933 36.483282-8.026652 59.836546 12.568482-4.079389 26.144425-6.854034 38.217434-12.717124 31.148696-15.128423 46.85517-28.159346 37.589837-67.731072z m-202.681228 87.236167c-0.89185-1.717638-3.071929-11.561022-7.167833-12.436356-9.08366-1.981889-21.074091-2.642519-28.407083 1.849763-20.231788 12.386809-27.13537 33.741668-29.100743 56.351724-1.123071 12.750155 6.655845 16.367104 18.332477 14.500824 29.761373-4.756535 45.715583-23.567969 46.343182-60.28247z m-427.70826 152.803677c12.96486 7.299959 25.979268 14.566887 40.793892 22.907339 0.578051-6.556751 2.064468-12.816218 1.535964-18.894013-1.602027-18.778403-0.099094-36.582376 11.016002-52.734775 2.147047-3.10496 3.121476-7.944074 2.675551-11.775726-5.004271-42.296824-10.40492-84.560617-15.673443-126.857441l-73.164752 14.104446 26.144425-66.343749c20.314367-4.442736 33.791215 10.63614 48.638871 25.004839 1.651575-2.890255 3.468307-4.624409 3.633464-6.507204 2.642519-38.977159 4.888661-78.003866 7.597242-116.997541 2.0975-30.042141 5.879605-60.018219 6.606299-90.076875 0.247736-11.841789-4.442736-24.459819-9.413975-35.591432-5.516259-12.386809-14.979781-20.314367-30.834897-19.05917-28.737397 2.312204-57.672983 2.21311-86.377349 4.822598-10.140668 0.941397-20.743776 5.43368-29.612731 10.768266-45.616489 27.449169-96.303312 36.99527-148.030627 40.711312-11.561022 0.825787-23.964347-10.239762-40.21584-17.770942 9.645195-3.848169 14.203541-6.787971 19.092202-7.465117 48.143398-6.589782 85.947939-38.944128 131.085471-52.305366 28.80346-8.555156 59.126369-11.792242 88.606975-18.200351 24.212083-5.235491 47.945209-12.931829 72.289418-17.04425 17.985647-3.022381 36.615408-2.411299 54.980916-2.526909 3.99681-0.033031 8.720314 3.005866 11.924368 5.929153 5.681416 5.20246 10.289309 11.511475 15.590864 17.126828 18.794918 19.934505 30.141235 41.124206 22.312772 70.57178-3.600433 13.542911 1.635059 29.265901 1.568996 43.997946-0.049547 12.931829-3.187539 25.863657-2.708582 38.712907 2.427815 63.47001 6.441141 126.890472 8.257872 190.376998 1.486417 51.611705 0.710177 103.289472 0.875335 154.934208 0.11561 42.66017 0.495472 85.320341 0.099094 127.980512-0.181673 20.215272-1.073523 40.513124-15.310096 57.309636-7.712853 9.116691-14.814624 12.816218-27.350074 7.035708-23.353264-10.685687-43.023517-23.221138-52.982511-49.035248-15.310096-39.753399-32.833302-78.664496-49.415111-117.922423l5.780511-5.185944z m-77.293688-147.320449c9.711258 0.66063 17.853521 1.073523 25.995783 1.816732 15.095391 1.354291 22.131099 12.816218 23.534937 24.988323 0.677146 6.011731-7.514664 14.864171-13.823679 19.571158-55.82322 41.322395-120.036438 63.882903-186.264577 81.521719-16.053305 4.261062-25.467279-1.271712-28.407082-17.589268-4.987755-27.91161-0.23122-53.015543 22.857792-72.636249 19.571158-16.598324 17.126828-27.13537-5.367617-39.720368-12.254683-6.87055-22.742181-17.143344-33.097554-26.854602-2.312204-2.163563-1.932342-8.885471-0.743209-12.882281 6.738424-22.70915 24.509366-33.989404 45.121017-41.999541 9.942479-3.8812 20.529072-6.622814 29.612731-11.973915 5.152913-3.022381 10.454467-9.876416 11.247223-15.60738 4.31061-31.594621 1.965374-35.574916-29.381511-34.35275-25.03787 1.00746-33.807731-17.870037-47.235032-31.512043-5.31807-5.384133-8.918503-12.469388-15.689958-22.230193 24.988323-12.898797 47.895662-27.746452 72.9005-36.99527 45.517394-16.796513 92.124828-30.752318 138.600136-44.807217 17.787458-5.417165 43.386863 14.269604 42.362887 32.734207-0.842303 15.72299 0.561535 32.090093-15.144939 44.922828-11.940884 9.777321-19.323422 25.269091-28.307987 38.531234-6.98616 10.322341-6.903582 18.860981 5.516259 26.293067 9.579132 5.730964 17.176375 14.63295 26.210488 21.354859 8.340451 6.176889 10.75175 12.84925 6.507203 22.70915-8.489093 19.686769-16.218462 39.588242-35.591431 51.892472-16.631356 10.586593-8.059684 27.531748-11.41238 42.825328z m1389.040254 90.17597c-21.255764 8.356967-42.676686 15.855116-63.090147 25.549858-4.475767 2.147047-7.7624 12.172104-7.399054 18.332478 2.493878 42.495013 0.165157 84.230302-15.227518 124.446141-1.684606 4.409704-3.550885 8.769861-5.499743 13.080471-0.478957 0.990945-1.66809 1.66809-2.55994 2.510393-12.634545-7.299959-25.715016-14.120962-37.903636-22.312772-4.31061-2.890255-8.637735-8.85244-9.149723-13.807163-4.938208-48.804028-9.034113-97.723666-13.476848-146.593757-1.486417-16.350588-4.409704-32.701176-4.459252-49.051764-0.016516-7.432085 3.451791-18.514151 8.769861-21.27228 4.723503-2.44433 15.425706 2.774645 21.338343 7.366023 9.74429 7.547696 19.240843 16.301041 26.094878 26.408677 9.546101 14.120962 20.61165 14.566887 33.659089 7.7624a5686.007809 5686.007809 0 0 0 79.936208-42.693202c23.617516-12.832734 50.373024-9.447006 70.687391 7.894526 22.956886 19.554643 34.881254 41.702257 27.217948 73.230816-4.987755 20.61165-6.011731 42.247277-7.7624 63.552588-0.396378 4.921692 2.047952 11.825274 5.681416 15.06236 14.649466 13.130018 12.882281 28.407082 7.002676 44.130072-1.337775 3.583917-6.077794 7.911042-9.645195 8.30742-36.549345 4.194999-73.082174 9.248817-109.763644 10.784781-33.989404 1.43687-56.203082-37.028301-38.911096-66.459359 8.901987-15.144939 20.941965-28.836492 33.427868-41.355427 15.970726-16.053305 19.026139-25.962752 11.032518-44.889796z m-389.177025-45.748615c-7.432085-31.412948-18.200351-56.979322-18.068226-82.463117 0.132126-20.396946 11.709664-41.619679 21.420922-60.877038 19.785863-39.142317 41.933478-77.0955 62.446034-115.857954 2.87374-5.417165 1.55248-12.882281 3.121475-19.158265 2.642519-10.702203 6.077794-21.255764 9.149723-31.858873l5.780511-1.073523c8.323936 15.855116 16.416651 31.842357 25.070902 47.5158 14.17051 25.615921 18.927044 52.222787 8.208325 80.101365-4.756535 12.419841-0.528504 16.482714 11.395865 19.752832 9.992026 2.725098 18.976592 9.380943 28.126314 14.74856 11.478443 6.705393 12.651061 17.39108 11.29677 29.447574-2.890255 25.566374-5.285039 51.198811-7.729369 76.814732-3.137992 32.436924-6.507204 64.873848-9.067144 97.36032-2.0975 26.59035-2.114015 53.345858-4.872145 79.837113-2.262657 21.553048-12.254683 39.373537-32.271767 50.439087-4.409704 2.44433-7.019192 7.993621-11.164643 11.181159-5.664901 4.376673-11.973915 7.878011-18.035194 11.792243-3.071929-6.771456-8.637735-13.493364-8.753346-20.314367-0.379862-22.461414-0.561535-45.203595 2.477362-67.384242 4.624409-33.444385 14.467793-66.261171 17.50669-99.788134 2.526909-27.977673 0.495472-56.847196-3.303149-84.808352-2.708582-19.884958-11.148128-23.36978-25.92972-10.850845-20.479524 17.341533-37.754994 38.481687-56.137019 58.251034-3.303149 3.53437-5.235491 8.30742-10.669171 17.176375z m360.621301-336.425735c-20.363914-36.483282-52.932964-32.436924-88.210596-34.23714 18.299446-18.580214 31.743263-37.969699 50.158319-49.101311 13.542911-8.208325 33.956373-8.85244 50.637275-6.936613 15.855116 1.849763 30.768834 11.660116 46.277119 17.457143 16.697419 6.275983 20.859386 18.448088 19.984052 35.178538-1.453386 27.515232 0.66063 28.753913 28.704366 28.159345 19.868442-0.396378 39.769915-0.066063 62.181781-0.066062-7.432085 18.976592-12.717124 32.56905-19.785863 50.670307-39.390053 2.857224-81.75294 7.64679-124.148858 8.555156-49.877551 1.106555-99.80465-0.974429-148.162753 14.368698-9.579132 3.055413-18.745371 8.439546-28.473145 9.62868-11.230707 1.403838-23.468874 1.32126-34.038951-2.047953-5.004271-1.585512-9.001081-12.089526-9.694743-18.910528-0.330315-3.237086 7.7624-9.513069 12.882282-10.718719 35.5584-8.30742 71.414083-15.359643 107.02203-23.402811 24.179051-5.483227 48.110366-11.9574 74.667685-18.59673z m35.409759 810.691881c8.571672-25.6985 17.9361-51.198811 25.368185-77.21111 3.633464-12.651061 9.595648-16.84606 22.378835-16.102852 17.704879 1.040492 35.508853 0.247736 54.683633 0.247737v147.8985h-40.711313v-115.081714l-5.119881-1.403839c-2.21311 4.029842-5.053818 7.828463-6.474172 12.122558-10.107636 30.388972-20.974997 60.612786-29.398027 91.480713-4.624409 17.011218-16.185431 13.311691-27.581295 14.401731-12.006947 1.156102-17.787458-2.725098-21.255764-14.94675-8.456062-29.662279-18.580214-58.862117-28.374051-88.094986-1.783701-5.334586-5.252007-10.074605-7.927558-15.06236l-5.450196 1.387322v112.703447c-3.699527 2.114015-4.65744 3.137992-5.697932 3.187539-36.532829 2.774645-36.549345 2.774645-36.549344-33.956372v-114.437601c23.683579 0 45.467847-0.445925 67.186052 0.495473 3.468307 0.132126 8.241357 6.011731 9.694743 10.173699 7.729369 21.800784 14.500824 43.964914 21.850331 65.897824 1.932342 5.763995 4.839113 11.230707 7.299959 16.846061 2.031437-0.165157 4.046358-0.379862 6.077795-0.54502z m-1767.845392-27.713421c0 21.140154-0.908366 42.346371 0.297283 63.420463 0.941397 16.515745-4.756535 21.833815-21.239249 20.793323-29.100743-1.800216-27.796 4.971239-27.878578-27.862062-0.082579-35.112475 0.297283-70.208434-0.198189-105.304393-0.198189-11.973915 3.550885-15.871631 16.119368-16.928639 24.443303-2.031437 43.023517 3.517854 57.49131 25.219543 11.792242 17.671848 27.812515 32.469956 41.173753 49.167374 3.633464 4.54183 4.508799 11.29677 6.655845 17.011218l10.685688-6.936613V858.512231h49.514205v146.659819c-26.821571 2.163563-52.965996 7.679822-71.54621-22.015488-11.544506-18.431572-28.423598-33.444385-42.461981-50.38954-3.683011-4.42622-5.681416-10.305825-8.456062-15.508285-3.352696 1.750669-6.75494 3.583917-10.140668 5.384133z m132.076416-753.580433c27.564779 37.193459 35.607947 76.814732 30.669739 118.269253-5.615353 46.921233-16.251494 93.264415-21.982457 140.185648-4.095905 33.361806-5.285039 67.318178-4.789566 100.960752 0.495472 32.833302 0.429409 65.02249-12.271199 95.824355-21.470469-4.756535-31.644168-18.018678-31.313853-43.320801 0.611083-50.984106 1.684606-101.654413 9.463522-152.605488 9.182754-60.249439 10.437951-121.721044 15.194486-182.631113 1.222165-15.970726 1.932342-32.040546 4.558345-47.796567 1.55248-9.380943 6.441141-18.183836 10.470983-28.886039zM1530.183815 858.363589v52.041114h75.840303v-51.62822h52.156724v146.560725h-51.479578v-61.669794H1530.679287v61.719341h-51.74383v-147.023166h51.248358z m1849.433175 151.498933c-18.002163-2.493878-32.370861-3.171023-46.012867-6.672361-35.079443-8.951534-55.641546-34.765644-56.434302-68.705501-0.825787-36.21903 15.574348-60.943101 50.85198-72.66928 34.154562-11.395864 68.870658-10.867361 102.661873 2.180078 30.091688 11.610569 44.311745 34.187593 44.29523 68.01184-0.016516 32.469956-15.607379 57.639952-45.154048 67.598946-17.110312 5.747479-35.624463 7.399054-50.207866 10.239762z m-2.939803-29.794405c31.000054-0.099094 46.062414-16.532261 45.880741-50.108772-0.165157-30.058657-18.16732-48.044303-47.598379-47.466252-28.671334 0.54502-45.682552 19.356454-45.302689 50.042709 0.396378 31.24779 16.598324 47.63141 47.020327 47.532315z m-337.862605-0.924882v26.392162h-156.932613v-146.626788h153.695527v23.221138c-29.398027 0-57.805109 0.726693-86.129612-0.313799-14.220057-0.495472-16.532261 5.43368-16.680903 17.837005-0.148642 12.816218 4.42622 16.350588 16.598324 16.003757 25.979268-0.759724 51.991567-0.23122 78.912232-0.231221v23.782674c-24.426788 0-49.084795-0.247736-73.709772 0.198189-6.721908 0.132126-18.596729 1.205649-19.207812 3.8812-2.312204 10.074605-1.717638 21.090607-0.330315 31.495527 0.280768 2.047952 8.951534 4.145452 13.790647 4.211515 29.563184 0.330315 59.1594 0.148642 90.010813 0.148641z m-374.99-120.515394V881.964589h-102.067307v32.701176h94.172781v24.558914h-91.695419c-1.684606 2.923287-2.642519 3.864684-2.741614 4.905176-3.204055 34.980349-3.187539 34.947317 31.974484 34.980349 21.965941 0.033031 43.931883 0.165157 65.91434 0.330315 1.651575 0.016516 3.303149 0.990945 4.822597 1.469901 5.483227 23.700095 4.161968 25.58289-17.837005 25.599406h-136.568699v-147.915017c51.033653 0.033031 101.736992 0.033031 154.025842 0.033032z m-448.617193 147.881985c-13.658521 0-23.204622-0.858819-32.56905 0.181673-14.765076 1.651575-24.856197-1.585512-29.282417-17.754427-1.106555-4.112421-9.298365-8.290904-14.616435-8.868955-12.337262-1.32126-24.955291 0.181673-37.375132-0.611082-16.350588-1.023976-30.917475-0.743209-35.062927 19.984052-0.578051 2.923287-6.705393 6.507204-10.454467 6.705392-13.50988 0.809272-27.13537 0.330315-43.700662 0.330315 3.352696-7.927558 5.54929-13.724584 8.191809-19.323422 18.068226-38.068793 36.714502-75.873335 54.056035-114.288959 5.483227-12.122557 12.981376-14.418246 25.500311-16.251493 34.336235-5.037302 52.305366 8.241357 64.213218 40.628734 13.39427 36.45025 32.750723 70.736938 51.099717 109.268172z m-98.813705-115.41203l-7.233897 0.181674-24.558913 62.429517h56.252629l-24.443303-62.594675z m-675.312316 4.459252c-13.08047 2.543425-25.021354 5.450196-37.11088 6.837518-3.616948 0.412894-8.588188-2.609488-11.428895-5.532774-15.739505-16.201946-34.253656-17.969131-54.105582-10.537046-18.877497 7.068739-24.079957 23.386296-25.136965 41.520584-1.568996 26.689445 8.53864 45.154048 27.168401 50.752886 25.103933 7.547696 43.667631-0.561535 60.298987-27.284012l42.973969 10.355373c-8.637735 26.722476-28.043736 40.810407-52.305365 43.684146-24.360725 2.87374-50.042709 2.378267-74.155697-2.097499-35.310664-6.540235-56.417786-35.393242-56.863712-70.026761-0.495472-36.945723 16.978186-65.286742 53.1807-72.338965 27.746452-5.384133 57.573889-3.435275 86.014003-0.445925 18.382025 1.915826 32.866333 15.211002 41.471036 35.112475z m1767.151731 55.558967l42.412434 10.619625c-7.861495 26.342614-26.772023 40.21584-50.042708 43.040032-25.467279 3.071929-52.354913 2.824192-77.491878-1.89931-34.468361-6.507204-53.61011-33.559995-54.452413-67.549399-0.990945-39.505663 14.120962-62.561644 50.141804-74.337371 28.91907-9.480038 58.614381-9.281849 87.698608-1.469901 18.117773 4.888661 32.932396 15.756021 41.784836 35.938262-12.766671 2.543425-24.509366 5.648385-36.466766 6.771456-4.079389 0.412894-9.331396-3.385728-12.865766-6.573267-15.392675-13.922773-35.5584-17.721395-54.452413-8.984565-18.05171 8.323936-23.155075 23.815705-23.237653 42.412434-0.165157 39.043222 16.515745 56.615975 52.437491 49.662846 13.262144-2.576456 24.641492-14.864171 36.896176-22.692634-0.759724-1.635059-1.568996-3.270118-2.361752-4.954723z m486.553861-612.635061c-7.002676 15.40919-11.891337 26.177457-16.846061 36.945723-10.239762 22.329288-42.296824 36.99527-66.228139 30.933991-20.033599-5.053818-40.810407-7.696337-60.216408-14.451278-25.087417-8.687282-36.252061-30.339424-44.708123-57.127963 63.387431-16.631356 124.214921-14.963265 187.998731 3.699527z m-1279.70602 548.041981v118.86382h-52.454007c0-33.477416-0.809272-66.062982 0.34683-98.549453 0.54502-15.739505-4.178484-21.536532-20.017083-20.116178-13.50988 1.172618-27.234464 0.23122-42.263793 0.23122v-28.357535h176.718476v27.928126h-62.330423z m287.588675 118.814273v-146.742399h51.793378c0 32.618597 0.77624 64.560049-0.330315 96.402407-0.54502 15.855116 3.369212 22.296256 20.479525 21.255764 24.691039-1.486417 49.514205-0.363346 75.196189-0.363346v29.447574h-147.155292z m-408.33529-456.098826c-71.843493 49.547236-142.844682 100.746047-232.508664 112.736478-5.929153 0.792756-14.847655-2.559941-18.497635-7.101771-7.299959-9.100176-12.056494-20.281335-17.556237-30.801865-1.585512-3.038897-2.047952-6.63933-4.112421-13.642006 98.169591 7.134802 182.168672-40.21584 272.674957-61.190836zM3597.129357 221.780697c18.960076 1.387323 33.196648 1.915826 47.334126 3.583916 19.406001 2.295689 39.852494 20.694229 44.542966 39.059738 6.589782 25.731531-18.28293 46.656981-50.009677 38.266983-27.184917-7.167834-53.84133-17.969131-78.945264-30.752318-10.784782-5.516259-16.994702-19.984052-25.26909-30.388972 10.025057-5.450196 19.554643-12.700608 30.256846-15.855116 11.676632-3.451791 24.410272-3.10496 32.090093-3.914231zM1757.506535 858.991187v145.916611h-50.257413v-145.916611h50.257413z" fill="#0254A4" p-id="1773"></path></svg>