<?xml version="1.0" standalone="no"?><!DOCTYPE svg PUBLIC "-//W3C//DTD SVG 1.1//EN" "http://www.w3.org/Graphics/SVG/1.1/DTD/svg11.dtd"><svg t="1531970912578" class="icon" style="" viewBox="0 0 2457 1024" version="1.1" xmlns="http://www.w3.org/2000/svg" p-id="15783" xmlns:xlink="http://www.w3.org/1999/xlink" width="115.171875" height="48"><defs><style type="text/css"></style></defs><path d="M751.616 688.128c8.192-4.096 18.432-14.336 18.432-34.816V86.016c0-45.056-24.576-49.152-51.2-49.152H112.64c-18.432 0-36.864 10.24-36.864 34.816v292.864c0 163.84-28.672 268.288-40.96 305.152 0 2.048-2.048 10.24 4.096 16.384 2.048 2.048 6.144 6.144 12.288 6.144h77.824c16.384 0 24.576-12.288 26.624-14.336 18.432-36.864 26.624-110.592 34.816-178.176h167.936v139.264c0 14.336 12.288 18.432 18.432 18.432h90.112c6.144 0 14.336-6.144 14.336-18.432v-137.216h165.888v98.304c0 2.048 0 4.096-4.096 4.096h-51.2c-16.384 0-20.48 10.24-20.48 18.432V675.84c0 12.288 10.24 20.48 20.48 20.48H737.28c-2.048-2.048 6.144-2.048 14.336-8.192zM208.896 131.072h149.504v90.112h-163.84V151.552c-2.048 0-4.096-20.48 14.336-20.48z m147.456 276.48v0z m0 0h-163.84v-92.16h163.84v92.16z m122.88-276.48h147.456c12.288 0 18.432 4.096 18.432 18.432v71.68h-165.888V131.072z m169.984 276.48h-167.936v-92.16h167.936v92.16zM1411.072 327.68c4.096 0 10.24 0 10.24 10.24 0 20.48-36.864 71.68-83.968 124.928-24.576-24.576-47.104-51.2-67.584-81.92-6.144-8.192-14.336-8.192-14.336-8.192h-106.496c-10.24 0-10.24 6.144-8.192 10.24 34.816 61.44 75.776 112.64 116.736 155.648-28.672 24.576-57.344 45.056-83.968 55.296-12.288 4.096-28.672 8.192-38.912 8.192h-22.528c-14.336 0-18.432 8.192-18.432 20.48V675.84c0 14.336 6.144 16.384 16.384 16.384h53.248c18.432 0 43.008-4.096 61.44-14.336 30.72-14.336 69.632-38.912 108.544-71.68 65.536 51.2 114.688 71.68 100.352 63.488-6.144-4.096 40.96 24.576 102.4 24.576h49.152c8.192 0 18.432-6.144 18.432-16.384v-61.44c0-12.288-8.192-14.336-14.336-14.336h-8.192c-51.2 0-65.536-8.192-83.968-16.384-28.672-14.336-55.296-32.768-81.92-53.248 77.824-79.872 145.408-174.08 145.408-251.904 0-34.816-28.672-49.152-57.344-49.152H1120.256c4.096-22.528 6.144-45.056 8.192-65.536h473.088c10.24 0 18.432-8.192 18.432-18.432V94.208c0-10.24-8.192-18.432-18.432-18.432H1136.64c2.048-30.72 4.096-51.2 4.096-51.2 2.048-8.192-2.048-14.336-4.096-16.384-4.096-8.192-14.336-8.192-14.336-8.192H1044.48c-14.336 0-20.48 12.288-22.528 16.384 0 0-2.048 22.528-4.096 57.344h-120.832c-10.24 0-20.48 8.192-20.48 18.432v55.296c0 10.24 8.192 18.432 20.48 18.432h110.592c-16.384 147.456-55.296 370.688-133.12 495.616-2.048 4.096-6.144 14.336-2.048 22.528 2.048 4.096 6.144 8.192 14.336 8.192h77.824c4.096 0 20.48-2.048 30.72-16.384l2.048-2.048c51.2-88.064 83.968-223.232 106.496-346.112h307.2z m333.824-157.696h632.832c10.24 0 20.48-8.192 20.48-20.48V94.208c0-10.24-8.192-20.48-20.48-20.48H1744.896c-10.24 0-20.48 8.192-20.48 20.48v53.248c0 12.288 8.192 22.528 20.48 22.528zM1722.368 368.64h110.592l-98.304 247.808c-2.048 4.096-14.336 34.816 0 59.392 10.24 16.384 32.768 24.576 63.488 24.576h507.904c34.816 0 59.392-10.24 73.728-26.624 12.288-16.384 16.384-36.864 12.288-61.44l-43.008-151.552c-4.096-12.288-10.24-16.384-16.384-18.432H2201.6c-16.384 0-20.48 10.24-20.48 18.432V512c0 12.288 10.24 20.48 20.48 20.48h43.008c10.24 34.816 18.432 69.632 18.432 69.632H1882.112c-8.192 0-8.192-4.096-6.144-8.192l86.016-225.28h438.272c10.24 0 20.48-8.192 20.48-20.48v-53.248c0-10.24-8.192-20.48-20.48-20.48H1722.368c-10.24 0-20.48 8.192-20.48 20.48V348.16c0 10.24 8.192 20.48 20.48 20.48z m477.184 458.752c-4.096 0-8.192 2.048-8.192 8.192v92.16c-30.72 8.192-49.152 0-49.152-12.288v-77.824c0-4.096-2.048-6.144-6.144-6.144h-45.056v83.968c0 43.008 53.248 61.44 145.408 36.864 4.096-2.048 8.192-6.144 8.192-12.288v-106.496l-45.056-6.144z m-1370.112 2.048h-38.912c-6.144 0-10.24 2.048-12.288 6.144-2.048 2.048-30.72 57.344-30.72 57.344-2.048 4.096-6.144 4.096-8.192 0 0 0-24.576-53.248-26.624-55.296-2.048-6.144-8.192-8.192-14.336-8.192h-36.864c-2.048 0-2.048 2.048-2.048 2.048 0 2.048 57.344 124.928 57.344 124.928s-28.672 55.296-28.672 57.344c-2.048 6.144 0 10.24 6.144 10.24h40.96s96.256-188.416 98.304-190.464c0-2.048-2.048-4.096-4.096-4.096z m495.616 0h-38.912c-6.144 0-10.24 2.048-12.288 6.144-2.048 2.048-30.72 57.344-30.72 57.344-2.048 4.096-6.144 4.096-8.192 0 0 0-24.576-53.248-26.624-55.296-2.048-6.144-8.192-8.192-14.336-8.192h-36.864c-2.048 0-2.048 2.048-2.048 2.048 0 2.048 57.344 124.928 57.344 124.928s-28.672 55.296-28.672 57.344c-2.048 6.144 0 10.24 6.144 10.24h40.96s96.256-188.416 98.304-190.464c0-2.048 0-4.096-4.096-4.096z m137.216 14.336c-14.336-12.288-34.816-18.432-61.44-18.432s-45.056 6.144-59.392 20.48c-14.336 12.288-20.48 30.72-20.48 47.104 0 20.48 8.192 36.864 20.48 47.104 14.336 12.288 36.864 18.432 61.44 18.432 26.624 0 45.056-6.144 61.44-20.48 14.336-12.288 20.48-32.768 20.48-47.104-2.048-18.432-8.192-34.816-22.528-47.104z m-34.816 59.392c-12.288 22.528-28.672 32.768-45.056 24.576-18.432-8.192-20.48-24.576-6.144-51.2 12.288-22.528 28.672-32.768 45.056-24.576 16.384 10.24 18.432 26.624 6.144 51.2z m-460.8-59.392c-14.336-12.288-34.816-18.432-61.44-18.432s-45.056 6.144-59.392 20.48c-14.336 12.288-20.48 30.72-20.48 47.104 0 20.48 8.192 36.864 20.48 47.104 14.336 12.288 36.864 18.432 61.44 18.432 26.624 0 45.056-6.144 61.44-20.48 14.336-12.288 20.48-32.768 20.48-47.104-2.048-18.432-8.192-34.816-22.528-47.104z m-34.816 59.392c-12.288 22.528-26.624 32.768-45.056 24.576-18.432-8.192-20.48-24.576-6.144-51.2 12.288-22.528 28.672-32.768 45.056-24.576 16.384 10.24 18.432 26.624 6.144 51.2z m75.776-67.584c-4.096 2.048-8.192 6.144-8.192 12.288v106.496H1044.48c4.096 0 8.192-2.048 8.192-8.192v-92.16c30.72-8.192 49.152 0 49.152 14.336v77.824c0 4.096 2.048 6.144 6.144 6.144h45.056v-83.968c0-38.912-53.248-57.344-145.408-32.768z m595.968-6.144c-4.096 0-8.192 2.048-8.192 8.192v92.16c-30.72 8.192-49.152 0-49.152-12.288V839.68c0-4.096-2.048-6.144-6.144-6.144H1495.04v83.968c0 43.008 53.248 61.44 145.408 36.864 4.096-2.048 8.192-6.144 8.192-12.288v-106.496l-45.056-6.144z m454.656 16.384c-14.336-12.288-32.768-18.432-59.392-18.432-24.576 0-43.008 6.144-57.344 18.432-12.288 12.288-20.48 30.72-20.48 45.056 0 18.432 8.192 34.816 20.48 45.056 14.336 12.288 34.816 18.432 59.392 18.432s45.056-6.144 57.344-18.432c12.288-12.288 20.48-30.72 20.48-45.056 0-18.432-6.144-32.768-20.48-45.056z m-32.768 57.344c-12.288 22.528-26.624 30.72-43.008 24.576-16.384-6.144-18.432-24.576-6.144-49.152 12.288-22.528 26.624-32.768 45.056-24.576 14.336 8.192 16.384 24.576 4.096 49.152z m-167.936-129.024v182.272h43.008c4.096 0 6.144-2.048 6.144-6.144v-182.272H1863.68c-4.096 0-6.144 2.048-6.144 6.144z m518.144-6.144c-4.096 0-8.192 2.048-8.192 8.192v53.248c-8.192-2.048-18.432-4.096-28.672-4.096-26.624 0-45.056 6.144-61.44 20.48-14.336 12.288-22.528 32.768-22.528 47.104 0 20.48 8.192 36.864 20.48 49.152 14.336 12.288 36.864 20.48 61.44 20.48 10.24 0 20.48-2.048 28.672-4.096v4.096h47.104c4.096 0 8.192-2.048 8.192-8.192v-186.368H2375.68z m-6.144 133.12c0 2.048-2.048 4.096-2.048 4.096-12.288 22.528-28.672 32.768-47.104 26.624-18.432-8.192-20.48-24.576-6.144-51.2 12.288-24.576 28.672-32.768 47.104-26.624 4.096 2.048 6.144 4.096 8.192 6.144 4.096 4.096 6.144 10.24 6.144 16.384 0 8.192-2.048 16.384-6.144 24.576z m-538.624-57.344c-14.336-12.288-30.72-16.384-59.392-14.336-22.528 2.048-45.056 8.192-61.44 22.528-10.24 10.24-18.432 26.624-18.432 38.912-2.048 16.384 4.096 36.864 16.384 47.104 14.336 12.288 36.864 18.432 61.44 18.432 26.624 0 45.056-6.144 59.392-20.48 2.048-2.048 4.096-4.096 6.144-8.192l-12.288-8.192s-22.528 20.48-49.152 20.48c-26.624-2.048-34.816-18.432-32.768-34.816 0 0 0-22.528 22.528-55.296 6.144-8.192 14.336-10.24 22.528-10.24 4.096 0 8.192 2.048 10.24 4.096 2.048 2.048 4.096 6.144 4.096 10.24s0 10.24-2.048 14.336H1843.2c2.048-8.192-2.048-16.384-8.192-22.528-2.048 2.048-2.048 0-4.096-2.048z" fill="#E40012" p-id="15784"></path></svg>