<?xml version="1.0" standalone="no"?><!DOCTYPE svg PUBLIC "-//W3C//DTD SVG 1.1//EN" "http://www.w3.org/Graphics/SVG/1.1/DTD/svg11.dtd"><svg t="1531985907831" class="icon" style="" viewBox="0 0 1024 1024" version="1.1" xmlns="http://www.w3.org/2000/svg" p-id="18574" xmlns:xlink="http://www.w3.org/1999/xlink" width="128" height="128"><defs><style type="text/css"></style></defs><path d="M216.883609 447.24416 216.883609 298.860668 147.728576 298.860668 147.728576 373.293915 10.131755 373.293915 10.131755 447.864284 79.362512 447.864284 79.362512 596.299965 148.540058 596.299965 148.540058 521.82067 286.065248 521.82067 286.065248 447.24416Z" p-id="18575" fill="#1296db"></path><path d="M94.624101 326.566684c0 9.382695-12.926404 16.925485-28.89919 16.925485-15.95846 0-28.906353-7.534604-28.906353-16.925485 0-9.322319 12.94073-16.956184 28.906353-16.956184C81.703837 309.609477 94.624101 317.244364 94.624101 326.566684z" p-id="18576" fill="#1296db"></path><path d="M32.063253 268.48894c0-13.833053 15.401782-25.001417 34.429137-25.001417 19.013029 0 34.45779 11.167341 34.45779 25.001417 0 13.796214-15.437597 25.001417-34.45779 25.001417C47.465035 293.489334 32.063253 282.290271 32.063253 268.48894z" p-id="18577" fill="#1296db"></path><path d="M114.88454 293.489334c0 29.193903-21.966291 52.912094-49.063439 52.912094-27.108405 0-49.091068-23.718191-49.091068-52.912094 0-29.148877 21.98164-52.836369 49.091068-52.836369C92.919273 240.655012 114.88454 264.340457 114.88454 293.489334z" p-id="18578" fill="#1296db"></path><path d="M232.582149 517.215792c0 0 28.758997 0 41.445948 0 5.563716 0 8.165983-2.932796 8.165983-10.45205 0-11.895935 0-35.226293 0-45.261856 0-6.554276-1.629103-9.206686-9.583263-9.206686-14.026458 0-38.660508 0-38.660508 0" p-id="18579" fill="#1296db"></path><path d="M512.220011 490.292606c0-55.273884 0-132.892683 0-132.892683l-0.001023 0 0-2.264577c0 0-18.030655 0-40.98853 0L471.230458 326.130755l-26.015513 0 0 29.004591c-2.971681 0-5.945409 0-8.900717 0-23.760147 0-33.244148 9.815553-33.244148 34.664497 0 55.228859 0 127.627772 0 127.627772l0.002047 0 0 2.234901c0 0 18.799158 0 42.142819 0l0 60.98598 26.015513 0 0-60.98598c3.573385 0 7.135514 0 10.644431 0C503.018441 519.661494 512.220011 512.26913 512.220011 490.292606zM445.214944 501.230726c-5.846148 0-11.543917 0-16.763802 0 0-13.518898 0-33.892925 0-54.856375l16.763802 0L445.214944 501.230726zM445.214944 428.567799l-16.763802 0c0-16.774035 0-32.768311 0-44.678572 0-7.064906 1.912559-10.286274 8.553817-10.286274 2.625804 0 5.378497 0 8.209986 0L445.214944 428.567799 445.214944 428.567799zM487.079424 491.886917c0 7.03523-2.544963 9.343809-7.785314 9.343809-2.573615 0-5.276167 0-8.063653 0l0-54.856375 15.847943 0C487.079424 463.486076 487.079424 479.81395 487.079424 491.886917zM487.079424 428.567799l-15.847943 0 0-54.963823c5.529947 0 10.907421 0 15.847943 0C487.079424 387.138224 487.079424 407.54602 487.079424 428.567799z" p-id="18580" fill="#1296db"></path><path d="M624.696712 407.256424 571.57177 407.256424c26.925233-9.353019 49.15349-19.478633 63.717184-37.126572 16.284895-19.593244 11.622712-32.742728-10.473539-32.742728-19.056008 0-98.203626 0-98.203626 0l0 17.98256c0 0 44.274366 0 65.318658 0 8.912997 0 14.674211 3.622504 6.080485 13.143345-12.644995 13.992689-54.266951 32.476669-75.939553 40.461527 0 3.334955 0 15.854083 0 15.854083s8.350179 0 20.355607 0c-3.362584 46.150086-24.059975 122.109082-52.815903 156.040892l23.541159 0c30.692023-33.320896 52.094472-110.033046 55.367005-156.040892 8.716522 0 17.669428 0 25.901926 0-3.362584 46.194088-24.251334 122.647341-52.804646 156.040892l23.639396 0c30.609135-33.320896 52.04433-110.033046 55.31891-156.040892 1.11745 0 2.134617 0 3.022847 0 9.936303 0 12.199856 4.801353 11.628852 13.597693-1.01512 16.750499-9.604752 94.755084-11.226692 103.013165-4.13211 20.595061-22.624277 20.595061-22.624277 20.595061l0 19.302625c0 0 45.734624 4.581342 50.319036-30.92022 1.544169-12.268418 8.92016-75.823919 11.553127-106.416681C665.846924 413.525198 651.932006 407.256424 624.696712 407.256424z" p-id="18581" fill="#1296db"></path><path d="M776.060071 458.003202c-6.684236 34.284851-26.213012 93.950765-43.342134 128.294968 5.600555 0 32.983205 0 32.983205 0 15.225773-37.626969 29.964452-93.417623 33.843806-128.294968C791.467993 458.003202 785.904277 458.003202 776.060071 458.003202z" p-id="18582" fill="#1296db"></path><path d="M1010.41561 480.170061l-33.452903 0c-2.12029-11.453866-5.073552-22.033829-8.676613-30.463826 9.626241-6.90527 21.926382-15.815197 28.675086-27.235294 3.342118-5.629207 5.190209-15.965623-11.440563-15.965623-25.507954 0-74.212212 0-74.212212 0l0 19.180851c0 0 29.930683 0 44.712341 0 8.05342 0 6.910387 2.418073 3.990894 6.442736-6.572696 9.343809-17.108656 21.231557-17.108656 21.231557 3.14769 7.974625 5.294586 17.204847 6.655584 26.808576l-43.383066 0 0 18.643616 45.068452 0c0.972141 22.1423-1.503237 43.304272-5.074575 53.071729-5.28947 14.814404-20.704554 15.703657-20.704554 15.703657l0 18.85544c0 0 31.847336 4.140297 45.162596-17.184381 9.419534-14.861476 11.619642-43.212174 8.960069-70.445422l30.829146 0 0-18.642592L1010.41561 480.171084z" p-id="18583" fill="#1296db"></path><path d="M871.111914 410.668127c-8.200776 0-16.724917-0.044002-23.594371-0.092098 0.416486-11.249205 0.581238-22.760376 0.456395-34.505885l44.734854 0 9.274224-19.168572-32.376385 0-9.247618-24.75173-30.451546 0 9.372461 24.75173-31.989575 0 0 19.168572 18.895349 0c1.782599 81.911568-16.07614 154.468071-41.856293 210.061226 15.572674 0 18.815531 0 30.732955 0 14.750959-36.882002 27.281343-91.400686 31.467689-155.973354 4.130064 0 8.632611 0 12.55392 0 10.726296 0 11.452843 2.858094 11.149944 12.233626-0.711198 29.470195-6.741541 99.396801-7.864108 109.402689-1.741667 15.520485-18.794042 15.786545-18.794042 15.786545l0.050142 18.85544c0 0 42.349527 4.496407 46.460148-27.212782 1.092891-8.903787 9.773598-100.164281 9.773598-121.473609C899.855562 416.311661 889.164059 410.668127 871.111914 410.668127z" p-id="18584" fill="#1296db"></path><path d="M913.756153 403.190829c4.238534-5.254677 9.526981-13.116739 14.691607-22.340821l81.178881 0 0-19.152199-71.696925 0c4.108574-9.537214 7.485485-19.548218 9.233292-29.111015-4.338818-0.068562-20.88261 0-30.002314 0-4.548596 25.281803-17.356296 55.115272-28.547173 70.606081C893.234771 403.190829 913.756153 403.190829 913.756153 403.190829z" p-id="18585" fill="#1296db"></path><path d="M794.087657 376.959398 784.255731 340.494904 756.011456 340.494904 765.828033 376.959398Z" p-id="18586" fill="#1296db"></path><path d="M761.589498 399.12728 771.906471 437.82565 800.151769 437.82565 789.848099 399.12728Z" p-id="18587" fill="#1296db"></path><path d="M220.162282 751.652172l46.276976 0 0-58.929134c0-12.261255-4.64581-19.373233-18.194384-19.373233l-51.249221 0 0 13.173021 42.447764 0c8.66638 0 11.377118 0.826831 11.377118 6.343475l0 9.937326-54.809303 0c0 6.601348 0 23.580045 0 24.430412C196.014302 745.347582 205.252711 751.652172 220.162282 751.652172zM251.65146 715.309452l0 22.076808L219.943294 737.38626c-5.191232 0-7.982812-1.843998-7.982812-8.873088 0-0.62217 0-9.282411 0-13.201673C222.313272 715.309452 248.582565 715.309452 251.65146 715.309452z" p-id="18588" fill="#1296db"></path><path d="M99.329263 645.753283 9.249665 645.753283c0 21.149693 0 64.84589 0 65.582671 0 28.496008 11.905144 39.868009 36.912701 39.868009l53.165874 0 0-16.036231L43.904952 735.167732c-9.435906 0-15.162328-3.099594-15.162328-15.307637 0-1.39886 0-49.403177 0-58.046021l70.594825 0 0-16.060791L99.329263 645.753283 99.329263 645.753283z" p-id="18589" fill="#1296db"></path><path d="M434.933787 673.618934l-44.428885 0c-17.84953 0-22.63144 8.9263-22.63144 24.217564 0 1.25355 0 30.562063 0 31.794124 0 14.654768 7.737218 22.274306 21.340027 22.274306l29.67588 0c0 0.849344 0 4.764514 0 5.483898 0 5.704932-1.826602 7.186679-6.579859 7.186679l-41.156352 0 0 13.68979 46.664809 0c10.66899 0 17.122983-5.857405 17.122983-15.344476l0-89.300862L434.933787 673.619958 434.933787 673.618934zM419.495166 737.622644c-0.973164 0-27.122731 0-27.122731 0-6.777357 0-8.927323-2.385327-8.927323-9.229199 0-0.651846 0-30.022781 0-30.692023 0-7.909134 2.15099-9.975189 9.56382-9.975189l26.338878 0L419.495166 737.622644z" p-id="18590" fill="#1296db"></path><path d="M661.621692 736.885863c-6.100952 0-8.963139-2.825348-8.963139-9.420557l0-53.845349-15.910365 0 0 54.379515c0 15.027252 5.874801 23.64963 23.760147 23.64963l48.344055 0 0-78.028121-15.627932 0 0 63.266929L661.621692 736.885863 661.621692 736.885863z" p-id="18591" fill="#1296db"></path><path d="M328.867076 688.181605c6.170536 0 9.04091 2.88777 9.04091 9.518794L337.907986 751.652172 353.812211 751.652172l0-54.514591c0-15.056927-5.867638-23.51967-23.828708-23.51967l-48.258097 0 0 78.028121 15.558347 0 0-63.463404L328.867076 688.181605 328.867076 688.181605z" p-id="18592" fill="#1296db"></path><path d="M823.38082 673.27715l-66.581418 0c0 21.11183 0 54.956659 0 55.647391 0 15.95232 7.002484 22.326495 21.326724 22.326495l45.254693 0L823.38082 737.110991l-41.925878 0c-7.087419 0-8.779967-2.393513-8.779967-9.04091 0-1.313925 0-32.446993 0-41.12156l50.705845 0L823.38082 673.27715 823.38082 673.27715z" p-id="18593" fill="#1296db"></path><path d="M991.423047 673.77857l-68.648496 0 0 77.927837 14.731516 0 0-63.698764 22.12388 0 0 63.698764 15.458063 0 0 0 0-63.698764 15.423271 0c6.198166 0 8.377808 1.951445 8.377808 8.628518l0 55.069223 15.049764 0 0-57.887408C1013.927597 680.220283 1008.207315 673.77857 991.423047 673.77857z" p-id="18594" fill="#1296db"></path><path d="M727.936027 737.234811l13.236466 0 0 14.411221-13.236466 0 0-14.411221Z" p-id="18595" fill="#1296db"></path><path d="M605.077885 673.396877 549.744649 673.396877l0 61.312414c0 12.740162 6.924713 16.987906 17.637706 16.987906l56.186673 0 0-60.213383C623.560842 679.725002 617.325837 673.396877 605.077885 673.396877zM564.971445 730.238466l0-42.99114 35.9467 0c5.662977 0 7.446599 3.047406 7.446599 7.992021l0 42.262546-35.975353 0C566.790884 737.499847 564.971445 736.048799 564.971445 730.238466z" p-id="18596" fill="#1296db"></path><path d="M889.919259 673.396877l-55.29742 0 0 61.312414c0 12.740162 7.023974 16.987906 17.7165 16.987906l56.172347 0 0-60.213383C908.509662 679.725002 902.262378 673.396877 889.919259 673.396877zM849.827145 730.238466l0-42.99114 36.193317 0c5.51562 0 7.193843 3.047406 7.193843 7.992021l0 42.262546-35.931351 0C851.751984 737.499847 849.827145 736.048799 849.827145 730.238466z" p-id="18597" fill="#1296db"></path><path d="M156.339698 673.246451l-30.480198 0 0-26.869974-15.486716 0 0 104.82851 15.486716 0 0-63.34163 31.523971 0c6.445806 0 8.456602 2.598174 8.456602 8.608052l0 54.735625 15.95846 0 0-54.067406C181.790346 680.350243 174.943404 673.246451 156.339698 673.246451z" p-id="18598" fill="#1296db"></path><path d="M553.941228 645.342937 533.617343 645.342937 499.652787 690.953741 464.828654 645.342937 444.509886 645.342937 488.750483 704.205557 488.750483 751.092423 509.207397 751.092423 509.207397 704.545294Z" p-id="18599" fill="#1296db"></path></svg>